<svg width="107" height="24" viewBox="0 0 107 24" fill="none" xmlns="http://www.w3.org/2000/svg">
<path d="M0.707031 4.41797V1.34766L4.77344 0.503906H9.0625V14.8828H13.0469V18H0.8125V14.8828H4.79688V3.57422L0.707031 4.41797ZM16.6094 18V14.6836L22.9961 9.04688C23.5664 8.53125 23.9883 8.02734 24.2617 7.53516C24.5352 7.04297 24.6719 6.53125 24.6719 6C24.6719 5.17969 24.3945 4.51953 23.8398 4.01953C23.293 3.51953 22.5625 3.26953 21.6484 3.26953C20.9453 3.26953 20.1758 3.42188 19.3398 3.72656C18.5039 4.02344 17.6094 4.46875 16.6562 5.0625V1.21875C17.6719 0.882812 18.6758 0.628906 19.668 0.457031C20.6602 0.277344 21.6328 0.1875 22.5859 0.1875C24.6797 0.1875 26.3047 0.648438 27.4609 1.57031C28.625 2.49219 29.207 3.77734 29.207 5.42578C29.207 6.37891 28.9609 7.26953 28.4688 8.09766C27.9766 8.91797 26.9414 10.0195 25.3633 11.4023L21.625 14.6836H29.3242V18H16.6094ZM32.6992 21.4102L33.8711 17.0391V13.4648H38.0898V17.0391L35.1953 21.4102H32.6992ZM42.1445 3.82031V0.503906H55.3281V3.04688L48.5078 18H44.1133L50.5703 3.82031H42.1445ZM58.3984 9.26953C58.3984 6.36328 59.0234 4.125 60.2734 2.55469C61.5234 0.976562 63.3008 0.1875 65.6055 0.1875C67.9023 0.1875 69.6758 0.976562 70.9258 2.55469C72.1758 4.125 72.8008 6.36328 72.8008 9.26953C72.8008 12.168 72.1758 14.4062 70.9258 15.9844C69.6758 17.5547 67.9023 18.3398 65.6055 18.3398C63.3008 18.3398 61.5234 17.5547 60.2734 15.9844C59.0234 14.4062 58.3984 12.168 58.3984 9.26953ZM62.9102 9.23438C62.9102 11.4453 63.1172 13.0039 63.5312 13.9102C63.9453 14.8164 64.6367 15.2695 65.6055 15.2695C66.5664 15.2695 67.2539 14.8164 67.668 13.9102C68.082 13.0039 68.2891 11.4453 68.2891 9.23438C68.2891 7.04688 68.082 5.50781 67.668 4.61719C67.2617 3.71875 66.5742 3.26953 65.6055 3.26953C64.6367 3.26953 63.9453 3.71875 63.5312 4.61719C63.1172 5.50781 62.9102 7.04688 62.9102 9.23438ZM83.5 10.4766C83.5 6.58594 85.25 4.64062 88.75 4.64062C90.0703 4.64062 91.1758 5.06641 92.0664 5.91797C92.9102 4.96484 93.9531 4.5 95.1953 4.52344C96.5938 4.52344 97.6797 4.99219 98.4531 5.92969C99.2422 5.07031 100.32 4.64062 101.688 4.64062C105.188 4.64062 106.938 6.42188 106.938 9.98438C106.93 11.0312 106.719 12.0586 106.305 13.0664C105.891 14.0742 105.258 15.1484 104.406 16.2891H100.035C102.16 13.9531 103.223 11.8516 103.223 9.98438C103.223 8.16406 102.715 7.25391 101.699 7.25391C100.707 7.25391 100.203 7.64453 100.188 8.42578L100.047 12.832H96.6953L96.5312 8.4375C96.5312 7.60938 96.0859 7.19531 95.1953 7.19531C94.3438 7.19531 93.918 7.60547 93.918 8.42578L93.7891 12.832H90.4375L90.2969 8.42578C90.2969 7.64453 89.7812 7.25391 88.75 7.25391C87.7344 7.25391 87.2266 8.34375 87.2266 10.5234C87.2266 12.1953 87.8984 13.6094 89.2422 14.7656C90.5859 15.9141 92.5352 16.8672 95.0898 17.625C98.6133 18.4766 100.691 20.4023 101.324 23.4023H97.6562C97.4688 22.5273 96.9727 21.7383 96.168 21.0352C95.3711 20.3398 94.2969 19.9844 92.9453 19.9688C91.875 19.9609 90.9258 20.1953 90.0977 20.6719C89.2695 21.1562 88.5273 21.7734 87.8711 22.5234L85.668 19.957C86.6523 19.1289 87.7031 18.543 88.8203 18.1992C85.2734 16.418 83.5 13.8438 83.5 10.4766Z" fill="black"/>
</svg>
