<svg width="65" height="24" viewBox="0 0 65 24" fill="none" xmlns="http://www.w3.org/2000/svg">
<path d="M0.707031 4.41797V1.34766L4.77344 0.503906H9.0625V14.8828H13.0469V18H0.8125V14.8828H4.79688V3.57422L0.707031 4.41797ZM16.1758 13.0781C16.1758 11.9531 16.4766 11.0234 17.0781 10.2891C17.6875 9.54688 18.5859 9.01172 19.7734 8.68359C18.7109 8.36328 17.9102 7.87109 17.3711 7.20703C16.832 6.54297 16.5625 5.71484 16.5625 4.72266C16.5625 3.24609 17.1133 2.12109 18.2148 1.34766C19.3164 0.574219 20.9336 0.1875 23.0664 0.1875C25.1836 0.1875 26.793 0.574219 27.8945 1.34766C28.9961 2.11328 29.5469 3.23828 29.5469 4.72266C29.5469 5.71484 29.2734 6.54297 28.7266 7.20703C28.1875 7.87109 27.3867 8.36328 26.3242 8.68359C27.5117 9.01172 28.4062 9.54688 29.0078 10.2891C29.6172 11.0234 29.9219 11.9531 29.9219 13.0781C29.9219 14.8125 29.3438 16.125 28.1875 17.0156C27.0391 17.8984 25.332 18.3398 23.0664 18.3398C20.793 18.3398 19.0742 17.8984 17.9102 17.0156C16.7539 16.125 16.1758 14.8125 16.1758 13.0781ZM20.4414 12.8438C20.4414 13.7031 20.668 14.3633 21.1211 14.8242C21.5742 15.2773 22.2227 15.5039 23.0664 15.5039C23.9023 15.5039 24.543 15.2773 24.9883 14.8242C25.4336 14.3633 25.6562 13.7031 25.6562 12.8438C25.6562 11.9766 25.4336 11.3164 24.9883 10.8633C24.543 10.4023 23.9023 10.1719 23.0664 10.1719C22.2227 10.1719 21.5742 10.4023 21.1211 10.8633C20.668 11.3242 20.4414 11.9844 20.4414 12.8438ZM20.8281 5.17969C20.8281 5.875 21.0195 6.41016 21.4023 6.78516C21.793 7.16016 22.3477 7.34766 23.0664 7.34766C23.7695 7.34766 24.3125 7.16016 24.6953 6.78516C25.0781 6.41016 25.2695 5.875 25.2695 5.17969C25.2695 4.48438 25.0781 3.95312 24.6953 3.58594C24.3125 3.21094 23.7695 3.02344 23.0664 3.02344C22.3477 3.02344 21.793 3.21094 21.4023 3.58594C21.0195 3.96094 20.8281 4.49219 20.8281 5.17969ZM40.9609 10.4766C40.9609 6.58594 42.7109 4.64062 46.2109 4.64062C47.5312 4.64062 48.6367 5.06641 49.5273 5.91797C50.3711 4.96484 51.4141 4.5 52.6562 4.52344C54.0547 4.52344 55.1406 4.99219 55.9141 5.92969C56.7031 5.07031 57.7812 4.64062 59.1484 4.64062C62.6484 4.64062 64.3984 6.42188 64.3984 9.98438C64.3906 11.0312 64.1797 12.0586 63.7656 13.0664C63.3516 14.0742 62.7188 15.1484 61.8672 16.2891H57.4961C59.6211 13.9531 60.6836 11.8516 60.6836 9.98438C60.6836 8.16406 60.1758 7.25391 59.1602 7.25391C58.168 7.25391 57.6641 7.64453 57.6484 8.42578L57.5078 12.832H54.1562L53.9922 8.4375C53.9922 7.60938 53.5469 7.19531 52.6562 7.19531C51.8047 7.19531 51.3789 7.60547 51.3789 8.42578L51.25 12.832H47.8984L47.7578 8.42578C47.7578 7.64453 47.2422 7.25391 46.2109 7.25391C45.1953 7.25391 44.6875 8.34375 44.6875 10.5234C44.6875 12.1953 45.3594 13.6094 46.7031 14.7656C48.0469 15.9141 49.9961 16.8672 52.5508 17.625C56.0742 18.4766 58.1523 20.4023 58.7852 23.4023H55.1172C54.9297 22.5273 54.4336 21.7383 53.6289 21.0352C52.832 20.3398 51.7578 19.9844 50.4062 19.9688C49.3359 19.9609 48.3867 20.1953 47.5586 20.6719C46.7305 21.1562 45.9883 21.7734 45.332 22.5234L43.1289 19.957C44.1133 19.1289 45.1641 18.543 46.2812 18.1992C42.7344 16.418 40.9609 13.8438 40.9609 10.4766Z" fill="black"/>
</svg>
