<svg width="92" height="24" viewBox="0 0 92 24" fill="none" xmlns="http://www.w3.org/2000/svg">
<path d="M0.536469 13.0781C0.536469 11.9531 0.83725 11.0234 1.43881 10.2891C2.04819 9.54688 2.94662 9.01172 4.13412 8.68359C3.07162 8.36328 2.27084 7.87109 1.73178 7.20703C1.19272 6.54297 0.923187 5.71484 0.923187 4.72266C0.923187 3.24609 1.47397 2.12109 2.57553 1.34766C3.67709 0.574219 5.29428 0.1875 7.42709 0.1875C9.54428 0.1875 11.1537 0.574219 12.2552 1.34766C13.3568 2.11328 13.9076 3.23828 13.9076 4.72266C13.9076 5.71484 13.6341 6.54297 13.0872 7.20703C12.5482 7.87109 11.7474 8.36328 10.6849 8.68359C11.8724 9.01172 12.7669 9.54688 13.3685 10.2891C13.9779 11.0234 14.2826 11.9531 14.2826 13.0781C14.2826 14.8125 13.7044 16.125 12.5482 17.0156C11.3997 17.8984 9.69272 18.3398 7.42709 18.3398C5.15366 18.3398 3.43491 17.8984 2.27084 17.0156C1.11459 16.125 0.536469 14.8125 0.536469 13.0781ZM4.80209 12.8438C4.80209 13.7031 5.02866 14.3633 5.48178 14.8242C5.93491 15.2773 6.58334 15.5039 7.42709 15.5039C8.26303 15.5039 8.90366 15.2773 9.34897 14.8242C9.79428 14.3633 10.0169 13.7031 10.0169 12.8438C10.0169 11.9766 9.79428 11.3164 9.34897 10.8633C8.90366 10.4023 8.26303 10.1719 7.42709 10.1719C6.58334 10.1719 5.93491 10.4023 5.48178 10.8633C5.02866 11.3242 4.80209 11.9844 4.80209 12.8438ZM5.18881 5.17969C5.18881 5.875 5.38022 6.41016 5.76303 6.78516C6.15366 7.16016 6.70834 7.34766 7.42709 7.34766C8.13022 7.34766 8.67319 7.16016 9.056 6.78516C9.43881 6.41016 9.63022 5.875 9.63022 5.17969C9.63022 4.48438 9.43881 3.95312 9.056 3.58594C8.67319 3.21094 8.13022 3.02344 7.42709 3.02344C6.70834 3.02344 6.15366 3.21094 5.76303 3.58594C5.38022 3.96094 5.18881 4.49219 5.18881 5.17969ZM17.0599 21.4102L18.2318 17.0391V13.4648H22.4505V17.0391L19.556 21.4102H17.0599ZM26.1419 6.43359C26.1419 4.55078 26.7513 3.04297 27.9701 1.91016C29.1966 0.777344 30.8372 0.210938 32.8919 0.210938C35.1732 0.210938 36.9388 0.980469 38.1888 2.51953C39.4388 4.05859 40.0638 6.23438 40.0638 9.04688C40.0638 11.9375 39.3333 14.2109 37.8724 15.8672C36.4115 17.5156 34.4076 18.3398 31.8607 18.3398C31.0404 18.3398 30.2552 18.2773 29.5052 18.1523C28.7552 18.0352 28.0208 17.8555 27.3021 17.6133V14.3789C28.0208 14.7148 28.7083 14.9688 29.3646 15.1406C30.0208 15.3047 30.6693 15.3867 31.3099 15.3867C32.6537 15.3867 33.7005 15.0156 34.4505 14.2734C35.2005 13.5234 35.6419 12.4141 35.7747 10.9453C35.2435 11.3359 34.6771 11.6289 34.0755 11.8242C33.474 12.0195 32.8216 12.1172 32.1185 12.1172C30.3294 12.1172 28.8841 11.5977 27.7826 10.5586C26.6888 9.51172 26.1419 8.13672 26.1419 6.43359ZM30.4896 6.11719C30.4896 7.14062 30.6888 7.91016 31.0872 8.42578C31.4857 8.93359 32.0794 9.1875 32.8685 9.1875C33.6576 9.1875 34.2513 8.93359 34.6497 8.42578C35.0482 7.91016 35.2474 7.14062 35.2474 6.11719C35.2474 5.10156 35.0482 4.33594 34.6497 3.82031C34.2513 3.30469 33.6576 3.04688 32.8685 3.04688C32.0794 3.04688 31.4857 3.30469 31.0872 3.82031C30.6888 4.33594 30.4896 5.10156 30.4896 6.11719ZM42.7591 9.26953C42.7591 6.36328 43.3841 4.125 44.6341 2.55469C45.8841 0.976562 47.6615 0.1875 49.9662 0.1875C52.263 0.1875 54.0365 0.976562 55.2865 2.55469C56.5365 4.125 57.1615 6.36328 57.1615 9.26953C57.1615 12.168 56.5365 14.4062 55.2865 15.9844C54.0365 17.5547 52.263 18.3398 49.9662 18.3398C47.6615 18.3398 45.8841 17.5547 44.6341 15.9844C43.3841 14.4062 42.7591 12.168 42.7591 9.26953ZM47.2708 9.23438C47.2708 11.4453 47.4779 13.0039 47.8919 13.9102C48.306 14.8164 48.9974 15.2695 49.9662 15.2695C50.9271 15.2695 51.6146 14.8164 52.0287 13.9102C52.4427 13.0039 52.6497 11.4453 52.6497 9.23438C52.6497 7.04688 52.4427 5.50781 52.0287 4.61719C51.6224 3.71875 50.9349 3.26953 49.9662 3.26953C48.9974 3.26953 48.306 3.71875 47.8919 4.61719C47.4779 5.50781 47.2708 7.04688 47.2708 9.23438ZM67.8607 10.4766C67.8607 6.58594 69.6107 4.64062 73.1107 4.64062C74.431 4.64062 75.5365 5.06641 76.4271 5.91797C77.2708 4.96484 78.3138 4.5 79.556 4.52344C80.9544 4.52344 82.0404 4.99219 82.8138 5.92969C83.6029 5.07031 84.681 4.64062 86.0482 4.64062C89.5482 4.64062 91.2982 6.42188 91.2982 9.98438C91.2904 11.0312 91.0794 12.0586 90.6654 13.0664C90.2513 14.0742 89.6185 15.1484 88.7669 16.2891H84.3958C86.5208 13.9531 87.5833 11.8516 87.5833 9.98438C87.5833 8.16406 87.0755 7.25391 86.0599 7.25391C85.0677 7.25391 84.5638 7.64453 84.5482 8.42578L84.4076 12.832H81.056L80.8919 8.4375C80.8919 7.60938 80.4466 7.19531 79.556 7.19531C78.7044 7.19531 78.2787 7.60547 78.2787 8.42578L78.1497 12.832H74.7982L74.6576 8.42578C74.6576 7.64453 74.1419 7.25391 73.1107 7.25391C72.0951 7.25391 71.5872 8.34375 71.5872 10.5234C71.5872 12.1953 72.2591 13.6094 73.6029 14.7656C74.9466 15.9141 76.8958 16.8672 79.4505 17.625C82.974 18.4766 85.0521 20.4023 85.6849 23.4023H82.0169C81.8294 22.5273 81.3333 21.7383 80.5287 21.0352C79.7318 20.3398 78.6576 19.9844 77.306 19.9688C76.2357 19.9609 75.2865 20.1953 74.4583 20.6719C73.6302 21.1562 72.888 21.7734 72.2318 22.5234L70.0287 19.957C71.013 19.1289 72.0638 18.543 73.181 18.1992C69.6341 16.418 67.8607 13.8438 67.8607 10.4766Z" fill="black"/>
</svg>
