<svg width="154" height="19" viewBox="0 0 154 19" fill="none" xmlns="http://www.w3.org/2000/svg">
<path d="M0.652344 5.29297V5.1875V4.73047C0.652344 4.35547 0.660156 4.07812 0.675781 3.89844C0.699219 3.66406 0.75 3.4375 0.828125 3.21875C0.835938 3.17188 0.855469 3.10547 0.886719 3.01953C0.917969 2.93359 0.9375 2.86719 0.945312 2.82031L0.992188 2.69141L1.08594 2.48047V2.50391C1.08594 2.49609 1.08984 2.48047 1.09766 2.45703C1.10547 2.43359 1.10938 2.41797 1.10938 2.41016C1.3125 1.96484 1.625 1.55859 2.04688 1.19141C2.47656 0.824219 2.92578 0.574219 3.39453 0.441406C3.63672 0.378906 3.90625 0.347656 4.20312 0.347656C4.53125 0.347656 4.83594 0.378906 5.11719 0.441406C5.70312 0.542969 6.19141 0.703125 6.58203 0.921875L6.75781 1.08594L6.875 1.20312C6.875 1.21875 6.89062 1.22656 6.92188 1.22656C6.94531 1.22656 7 1.26953 7.08594 1.35547C7.10938 1.40234 7.14062 1.42578 7.17969 1.42578C7.35938 1.60547 7.54297 1.8125 7.73047 2.04688C7.96484 2.42188 8.13281 2.84766 8.23438 3.32422C8.27344 3.50391 8.29297 3.72656 8.29297 3.99219C8.29297 4.98438 8.05078 5.91406 7.56641 6.78125C7.82422 6.86719 8.03906 6.95312 8.21094 7.03906C8.64844 7.36719 9.01172 7.77734 9.30078 8.26953C9.58203 8.82422 9.77344 9.53516 9.875 10.4023C9.9375 10.8477 9.96875 11.3594 9.96875 11.9375C9.96875 12.2891 9.96094 12.5273 9.94531 12.6523C9.89062 13.4336 9.75391 14.1055 9.53516 14.668C9.34766 15.0508 8.99609 15.5156 8.48047 16.0625C8.03516 16.5391 7.63672 16.8516 7.28516 17C6.73047 17.2578 6.19141 17.3867 5.66797 17.3867C5.33203 17.3867 4.95703 17.3203 4.54297 17.1875C3.73047 16.9141 3.00391 16.3945 2.36328 15.6289C1.70703 14.8633 1.28906 14.0156 1.10938 13.0859C1.03125 12.6797 0.992188 12.3281 0.992188 12.0312C0.992188 11.3984 1.11328 10.7656 1.35547 10.1328C1.46484 9.875 1.58984 9.71484 1.73047 9.65234C1.91797 9.55859 2.12109 9.53516 2.33984 9.58203C2.57422 9.63672 2.75 9.76562 2.86719 9.96875C2.96094 10.1797 2.97656 10.4023 2.91406 10.6367C2.8125 10.8633 2.73828 11.0977 2.69141 11.3398C2.69141 11.3555 2.68359 11.3867 2.66797 11.4336C2.65234 11.4805 2.64453 11.5117 2.64453 11.5273C2.61328 11.8711 2.61328 12.1992 2.64453 12.5117C2.76953 12.9961 2.875 13.3398 2.96094 13.543C3.15625 13.9336 3.28516 14.1758 3.34766 14.2695L3.39453 14.4102L3.46484 14.4805C3.46484 14.4961 3.48828 14.5273 3.53516 14.5742L3.65234 14.7383L3.72266 14.8438H3.69922L3.99219 15.1016C4.02344 15.1328 4.04688 15.1484 4.0625 15.1484C4.09375 15.1641 4.14844 15.1953 4.22656 15.2422C4.39844 15.3672 4.60938 15.4727 4.85938 15.5586C5.07812 15.6445 5.26953 15.6992 5.43359 15.7227C5.62109 15.7461 5.80469 15.7461 5.98438 15.7227C6.20312 15.6758 6.36328 15.6289 6.46484 15.582L6.78125 15.4414L6.94531 15.3477C6.99219 15.3008 7.05469 15.2578 7.13281 15.2188L7.30859 15.0547L7.44922 14.8672L7.58984 14.7148L7.63672 14.6211L7.73047 14.4805C7.73047 14.4727 7.75 14.4414 7.78906 14.3867C7.92188 14.207 8.02344 14.0312 8.09375 13.8594C8.21875 13.4688 8.30078 13.1562 8.33984 12.9219C8.38672 12.5781 8.41016 12.2188 8.41016 11.8438C8.41016 11.4375 8.38672 11.0508 8.33984 10.6836C8.26172 10.1758 8.13281 9.71484 7.95312 9.30078C7.9375 9.24609 7.90625 9.17578 7.85938 9.08984C7.82031 8.99609 7.79688 8.9375 7.78906 8.91406C7.78125 8.89844 7.75781 8.875 7.71875 8.84375C7.6875 8.8125 7.66797 8.78906 7.66016 8.77344L7.61328 8.64453L7.37891 8.43359V8.45703L7.20312 8.36328C7.10938 8.33203 7.03906 8.31641 6.99219 8.31641C6.95312 8.30859 6.89844 8.30469 6.82812 8.30469C6.75781 8.30469 6.70703 8.30859 6.67578 8.31641C6.66797 8.31641 6.66016 8.32031 6.65234 8.32812C6.64453 8.33594 6.63672 8.33984 6.62891 8.33984H6.65234C6.51172 8.38672 6.42578 8.41797 6.39453 8.43359C6.37891 8.43359 6.33984 8.44922 6.27734 8.48047C6.21484 8.50391 6.17969 8.51953 6.17188 8.52734L6.07812 8.57422L5.86719 8.71484L5.73828 8.77344H5.77344C5.60156 8.89844 5.40234 8.92969 5.17578 8.86719C4.95703 8.79688 4.80078 8.66797 4.70703 8.48047C4.63672 8.37109 4.62891 8.20312 4.68359 7.97656C4.74609 7.75 4.85938 7.56641 5.02344 7.42578C5.25 7.23828 5.45703 7.03125 5.64453 6.80469L5.91406 6.51172L6.19531 6.07812L6.41797 5.64453L6.51172 5.48047L6.58203 5.26953V5.29297L6.65234 5C6.66016 4.92969 6.67578 4.83203 6.69922 4.70703C6.73047 4.58203 6.75 4.49609 6.75781 4.44922C6.77344 4.35547 6.78125 4.20312 6.78125 3.99219C6.78125 3.84375 6.77344 3.69922 6.75781 3.55859V3.58203L6.62891 3.14844L6.60547 3.03125V3.05469L6.48828 2.86719L6.39453 2.66797H6.41797L6.24219 2.48047L5.98438 2.23438V2.26953L5.84375 2.1875L5.69141 2.09375C5.67578 2.09375 5.66016 2.08594 5.64453 2.07031C5.59766 2.07031 5.57422 2.05469 5.57422 2.02344C5.52734 2.02344 5.48047 2 5.43359 1.95312C5.35547 1.95312 5.30859 1.94531 5.29297 1.92969C5.23828 1.92969 5.1875 1.90625 5.14062 1.85938V1.88281L4.90625 1.8125C4.89062 1.8125 4.85547 1.80469 4.80078 1.78906C4.75391 1.77344 4.72266 1.76562 4.70703 1.76562L4.58984 1.70703C4.57422 1.69141 4.52734 1.68359 4.44922 1.68359C4.38672 1.66797 4.28906 1.66016 4.15625 1.66016L3.92188 1.68359C3.91406 1.68359 3.89844 1.6875 3.875 1.69531C3.85938 1.70313 3.84375 1.70703 3.82812 1.70703C3.78906 1.70703 3.73047 1.72656 3.65234 1.76562C3.63672 1.76562 3.58203 1.78906 3.48828 1.83594L3.30078 1.92969L3.17188 1.97656H3.19531L3.03125 2.09375L2.79688 2.31641L2.62109 2.50391L2.45703 2.71484H2.48047L2.38672 2.86719L2.31641 3.00781L2.21094 3.125C2.21094 3.21094 2.17969 3.28516 2.11719 3.34766H2.14062L2.07031 3.53516C1.99219 3.77734 1.9375 3.98438 1.90625 4.15625V4.30859C1.89062 4.33984 1.88281 4.37891 1.88281 4.42578C1.86719 4.50391 1.85938 4.625 1.85938 4.78906C1.85938 5.10938 1.875 5.34766 1.90625 5.50391C1.91406 5.66016 1.85156 5.80078 1.71875 5.92578C1.59375 6.04297 1.45703 6.10156 1.30859 6.10156C1.16797 6.10156 1.03516 6.05469 0.910156 5.96094C0.792969 5.86719 0.722656 5.73828 0.699219 5.57422L0.722656 5.59766C0.691406 5.56641 0.675781 5.50391 0.675781 5.41016C0.675781 5.39453 0.671875 5.375 0.664062 5.35156C0.65625 5.32031 0.652344 5.30078 0.652344 5.29297ZM6.82812 1.20312C6.85156 1.20312 6.88281 1.22266 6.92188 1.26172L6.85156 1.28516V1.26172L6.82812 1.20312ZM6.85156 1.26172L6.96875 1.22656V1.33203C6.9375 1.33203 6.89844 1.30859 6.85156 1.26172ZM13.4023 11.6211C13.4023 11.1055 13.4531 10.5625 13.5547 9.99219C13.5547 9.84375 13.6367 9.73047 13.8008 9.65234C13.9648 9.56641 14.1367 9.53516 14.3164 9.55859C14.5586 9.63672 14.6797 9.82031 14.6797 10.1094V10.5664C14.6797 11.3711 14.6953 11.9648 14.7266 12.3477V12.3242C14.7422 12.3555 14.75 12.4102 14.75 12.4883C14.75 12.5039 14.7422 12.5195 14.7266 12.5352C14.7266 12.5664 14.7422 12.5977 14.7734 12.6289L14.8438 13.0156L14.9961 13.6367L15.043 13.7656V13.7305L15.1367 13.9766L15.3477 14.457H15.3242L15.3945 14.5742L15.5 14.6914L15.5469 14.7148L15.8516 15.1016H15.8281L16.0742 15.3008C16.0742 15.2852 16.0898 15.2773 16.1211 15.2773C16.2227 15.3633 16.3594 15.4414 16.5312 15.5117L16.6016 15.582L16.6953 15.6289C16.7109 15.6445 16.7422 15.6523 16.7891 15.6523L17.082 15.7578C17.0977 15.7734 17.1523 15.7812 17.2461 15.7812C17.2539 15.7812 17.2695 15.7852 17.293 15.793C17.3164 15.8008 17.3398 15.8047 17.3633 15.8047H17.8438L17.9141 15.7812C17.9688 15.7812 18.0273 15.7734 18.0898 15.7578L18.4414 15.6289H18.418L18.5938 15.582L18.6641 15.5352L19.0273 15.3945L19.1445 15.3477H19.1211L19.4023 15.1719V15.1953L19.5312 15.0781L19.6016 15.0078C19.8984 14.75 20.1133 14.543 20.2461 14.3867H20.2227L20.5156 14.0469L20.5625 13.9766L20.6562 13.9062C20.6562 13.8984 20.6641 13.8789 20.6797 13.8477C20.6953 13.8164 20.7031 13.7969 20.7031 13.7891C20.9609 13.3828 21.1289 13.0938 21.207 12.9219L21.3477 12.6523C21.3477 12.6211 21.3633 12.5742 21.3945 12.5117C21.4492 12.4336 21.5078 12.2891 21.5703 12.0781C21.6719 11.7266 21.7422 11.4453 21.7812 11.2344C21.7969 11.1094 21.8047 10.8867 21.8047 10.5664V10.0156C21.7891 9.98438 21.7812 9.95312 21.7812 9.92188C21.7031 9.49219 21.6172 9.14844 21.5234 8.89062C21.5078 8.84375 21.5 8.8125 21.5 8.79688C21.4922 8.75781 21.4688 8.69922 21.4297 8.62109C21.3984 8.54297 21.3789 8.49609 21.3711 8.48047L21.3242 8.38672V8.41016L21.2539 8.23438L21.207 8.09375V8.11719C21.1445 7.99219 21.082 7.89844 21.0195 7.83594L20.9141 7.61328H20.9375L20.7031 7.35547L20.457 7.13281L20.2227 6.875L20.0352 6.67578C20.0273 6.67578 20.0039 6.66797 19.9648 6.65234C19.9336 6.63672 19.9141 6.62891 19.9062 6.62891C19.875 6.61328 19.8359 6.59766 19.7891 6.58203C19.4922 6.34766 19.0039 6.02734 18.3242 5.62109C17.8789 5.35547 17.4492 4.93359 17.0352 4.35547C16.7227 3.91016 16.4414 3.36328 16.1914 2.71484C16.043 2.22266 15.9688 1.80859 15.9688 1.47266C15.9688 1.16016 16.0117 0.878906 16.0977 0.628906C16.1602 0.480469 16.2656 0.359375 16.4141 0.265625C16.5703 0.164062 16.7344 0.140625 16.9062 0.195312C17.2344 0.289062 17.4102 0.515625 17.4336 0.875V0.992188L17.457 1.10938V1.20312C17.457 1.23438 17.4688 1.26172 17.4922 1.28516C17.4922 1.31641 17.4961 1.35937 17.5039 1.41406C17.5117 1.46875 17.5156 1.51172 17.5156 1.54297C17.5547 1.77734 17.6406 2.07422 17.7734 2.43359H17.75L17.8672 2.59766C17.9219 2.77734 18.0117 2.94531 18.1367 3.10156L18.4648 3.55859L18.9219 4.0625H18.8984L19.0273 4.13281V4.10938L19.2617 4.26172C19.3945 4.34766 19.4922 4.40234 19.5547 4.42578C20.6484 5.12891 21.4453 5.77734 21.9453 6.37109H21.9219C22.2109 6.66016 22.4219 6.9375 22.5547 7.20312C22.5859 7.28906 22.6562 7.48047 22.7656 7.77734C22.875 8.06641 22.9492 8.26953 22.9883 8.38672C23.2227 9.08203 23.3398 9.80078 23.3398 10.543C23.3164 11.9805 22.8438 13.3398 21.9219 14.6211C20.8594 15.8633 19.8516 16.6562 18.8984 17C18.2891 17.2109 17.6523 17.2656 16.9883 17.1641C16.707 17.125 16.3945 17.0234 16.0508 16.8594L15.6406 16.6133L15.3945 16.4023L15.3008 16.332L15.3242 16.3555C15.3164 16.3555 15.3008 16.3477 15.2773 16.332C15.2539 16.3164 15.2383 16.3086 15.2305 16.3086C14.4727 15.7148 13.9453 14.8906 13.6484 13.8359C13.4844 13 13.4023 12.2617 13.4023 11.6211ZM36.2773 9.94531C36.3086 9.20312 36.4844 8.08203 36.8047 6.58203L37.168 4.95312L37.3789 3.72266V3.53516L37.4023 3.51172C37.457 2.91016 37.4766 2.42188 37.4609 2.04688C37.4453 2.01562 37.4375 1.92969 37.4375 1.78906C37.3984 1.75 37.3789 1.69922 37.3789 1.63672C37.3633 1.60547 37.3555 1.53516 37.3555 1.42578L37.3086 1.22656C37.2695 1.05469 37.2305 0.921875 37.1914 0.828125C37.1211 0.695313 37.1289 0.558594 37.2148 0.417969C37.3086 0.277344 37.4297 0.1875 37.5781 0.148438C37.6875 0.125 37.8086 0.140625 37.9414 0.195312C38.0742 0.242188 38.1758 0.316406 38.2461 0.417969C38.6055 1.06641 38.7578 1.99219 38.7031 3.19531C38.6562 3.85938 38.4883 4.875 38.1992 6.24219L38.0352 6.99219C37.957 7.3125 37.8984 7.60938 37.8594 7.88281L37.7188 8.82031C37.7031 8.83594 37.6953 8.84375 37.6953 8.84375C37.6953 8.85156 37.6914 8.86719 37.6836 8.89062C37.6758 8.90625 37.6719 8.92188 37.6719 8.9375V9.03125C37.6406 9.1875 37.625 9.31641 37.625 9.41797C37.5625 10.0742 37.5469 10.5859 37.5781 10.9531C37.5781 11.0234 37.5938 11.168 37.625 11.3867V11.4805L37.6484 11.5742C37.6953 11.7695 37.7578 11.9766 37.8359 12.1953C37.8672 12.3047 37.9336 12.4648 38.0352 12.6758L38.1055 12.8516C38.1055 12.9141 38.1133 12.9531 38.1289 12.9688L38.2461 13.1328C38.2695 13.2578 38.3164 13.3555 38.3867 13.4258C38.5352 13.7227 38.6641 13.9531 38.7734 14.1172L39.0195 14.5039H38.9961L39.0898 14.6211L39.1836 14.7383C39.2852 14.9023 39.4297 15.0625 39.6172 15.2188L39.8516 15.4414L39.957 15.5117H40.0039C40.0352 15.543 40.0586 15.5586 40.0742 15.5586L40.2148 15.6055L40.3555 15.6992C40.4258 15.7695 40.4688 15.8047 40.4844 15.8047L40.5547 15.8281C40.5703 15.8438 40.6094 15.8516 40.6719 15.8516L41.0117 15.9688C41.0273 15.9844 41.0664 15.9922 41.1289 15.9922C41.1367 15.9922 41.1523 15.9961 41.1758 16.0039C41.1992 16.0117 41.2227 16.0156 41.2461 16.0156L41.6797 16.0625C41.7109 16.0312 41.7422 16.0156 41.7734 16.0156L42.0664 15.9453H42.043L42.1133 15.9219V15.9453L42.207 15.8281L42.4297 15.7227L42.5938 15.6055V15.6289L42.8281 15.4414C42.8438 15.418 42.8594 15.4023 42.875 15.3945C42.8906 15.3867 42.8984 15.3867 42.8984 15.3945C43.0312 15.2617 43.0977 15.1875 43.0977 15.1719L43.1914 15.0312H43.168L43.332 14.7734C43.332 14.7344 43.3555 14.6914 43.4023 14.6445C43.4023 14.6367 43.4102 14.625 43.4258 14.6094C43.4492 14.5938 43.4609 14.582 43.4609 14.5742C43.4609 14.543 43.4688 14.5117 43.4844 14.4805C43.4844 14.418 43.5 14.3711 43.5312 14.3398C43.5312 14.3008 43.5391 14.2656 43.5547 14.2344C43.5547 14.2266 43.5586 14.2109 43.5664 14.1875C43.5742 14.1641 43.5781 14.1484 43.5781 14.1406L43.6484 13.9297C43.6641 13.8984 43.6719 13.8516 43.6719 13.7891C43.6719 13.7812 43.6758 13.7695 43.6836 13.7539C43.6914 13.7305 43.6953 13.7148 43.6953 13.707C43.6953 13.6602 43.7031 13.6211 43.7188 13.5898V13.2266L43.7656 13.0859C43.7188 13.0703 43.6953 13.0391 43.6953 12.9922C43.6641 12.9609 43.6484 12.9141 43.6484 12.8516C43.6328 12.8203 43.625 12.7461 43.625 12.6289L43.5781 12.5352C43.5469 12.5039 43.5234 12.4336 43.5078 12.3242V12.3477L43.4375 12.1953L43.2617 11.9141L43.1211 11.6211L42.7578 11.0234C42.7422 11 42.6992 10.9297 42.6289 10.8125C42.5586 10.6953 42.5078 10.6055 42.4766 10.543C42.2344 9.97266 42.1133 9.52344 42.1133 9.19531C42.0898 8.64844 42.2344 8.14453 42.5469 7.68359C42.8359 7.32422 43.1406 7.24609 43.4609 7.44922C43.6172 7.54297 43.7148 7.67188 43.7539 7.83594C43.8008 8 43.7812 8.16797 43.6953 8.33984L43.5781 8.50391H43.6016L43.5547 8.59766C43.5156 8.63672 43.4844 8.75781 43.4609 8.96094C43.4453 8.99219 43.4375 9.02344 43.4375 9.05469V9.37109L43.4844 9.46484C43.4844 9.49609 43.4922 9.52734 43.5078 9.55859L43.5547 9.65234C43.5703 9.66797 43.5781 9.70312 43.5781 9.75781C43.5781 9.76562 43.582 9.78125 43.5898 9.80469C43.5977 9.82031 43.6016 9.83594 43.6016 9.85156C43.6484 9.94531 43.6797 9.99219 43.6953 9.99219L43.7891 10.1094C43.8203 10.1641 43.875 10.2578 43.9531 10.3906L44.082 10.5898C44.582 11.4727 44.8711 12.1289 44.9492 12.5586C44.9961 12.793 45.0195 13.0508 45.0195 13.332C45.0195 14.3789 44.6914 15.2812 44.0352 16.0391C43.6992 16.4531 43.3008 16.7773 42.8398 17.0117C42.3867 17.2539 41.9219 17.3633 41.4453 17.3398C40.875 17.3086 40.332 17.1641 39.8164 16.9062C39.3086 16.6406 38.8594 16.2969 38.4688 15.875C38.0859 15.4453 37.75 14.9922 37.4609 14.5156C37.1797 14.0391 36.9375 13.5312 36.7344 12.9922C36.5547 12.4844 36.4258 12.0195 36.3477 11.5977C36.2773 11.0742 36.2539 10.5234 36.2773 9.94531ZM47.7852 8.04688C47.7852 7.32031 47.8516 6.46484 47.9844 5.48047C48.125 4.56641 48.4297 3.66406 48.8984 2.77344C49.1094 2.32812 49.4219 1.92187 49.8359 1.55469C50.25 1.1875 50.6953 0.9375 51.1719 0.804688C51.6797 0.695313 52.1523 0.710938 52.5898 0.851562C52.8633 0.914062 53.1992 1.12891 53.5977 1.49609C54.0977 1.96484 54.5625 2.66797 54.9922 3.60547L55.0859 3.39453L55.25 3.03125C55.3203 2.88281 55.5117 2.60938 55.8242 2.21094C56.3398 1.59375 56.8945 1.17969 57.4883 0.96875C57.7461 0.890625 58 0.851562 58.25 0.851562C58.5781 0.851562 58.875 0.898438 59.1406 0.992188C59.6484 1.1875 60.1172 1.51953 60.5469 1.98828C60.9766 2.44922 61.3242 2.94922 61.5898 3.48828C62.168 4.57422 62.5586 5.8125 62.7617 7.20312C62.8477 7.77344 62.8906 8.39062 62.8906 9.05469C62.8906 9.75 62.8242 10.5039 62.6914 11.3164C62.4883 12.4648 62.1055 13.625 61.543 14.7969C60.9805 15.9688 60.3086 17.0391 59.5273 18.0078C59.3945 18.125 59.2227 18.1836 59.0117 18.1836C58.8008 18.1836 58.6367 18.125 58.5195 18.0078C58.3945 17.8672 58.3281 17.6953 58.3203 17.4922C58.3203 17.2891 58.3711 17.125 58.4727 17L58.6367 16.8125L58.8242 16.5898H58.8008L58.9766 16.3555L59.1875 16.0625C59.5078 15.6094 59.8125 15.1133 60.1016 14.5742C60.1641 14.4805 60.2031 14.4102 60.2188 14.3633L60.5117 13.7305L60.5586 13.6367L60.6289 13.4258L60.6992 13.2266L60.7461 13.1328C60.7773 13.1016 60.793 13.0625 60.793 13.0156C61.0273 12.2969 61.1797 11.7305 61.25 11.3164C61.25 11.1836 61.2578 11.1016 61.2734 11.0703C61.2734 11.0078 61.2812 10.9688 61.2969 10.9531C61.2969 10.9375 61.3008 10.918 61.3086 10.8945C61.3164 10.8711 61.3203 10.8516 61.3203 10.8359C61.3203 10.7344 61.3281 10.668 61.3438 10.6367C61.3438 10.582 61.3633 10.5352 61.4023 10.4961L61.3672 10.5195C61.3672 10.3398 61.3789 10.1797 61.4023 10.0391C61.4023 9.875 61.418 9.71484 61.4492 9.55859C61.4492 8.72266 61.4141 8.07422 61.3438 7.61328V7.44922C61.3281 7.43359 61.3203 7.39453 61.3203 7.33203L61.3086 7.29688C61.3008 7.27344 61.2969 7.24219 61.2969 7.20312L61.1562 6.39453C61.1406 6.35547 61.1289 6.31641 61.1211 6.27734C61.1133 6.23047 61.0977 6.16406 61.0742 6.07812C61.0586 5.99219 61.0391 5.89844 61.0156 5.79688C60.9688 5.60938 60.8711 5.32812 60.7227 4.95312C60.7227 4.92188 60.707 4.875 60.6758 4.8125L60.6289 4.61328C60.5508 4.53516 60.5117 4.47266 60.5117 4.42578C60.5039 4.41016 60.4922 4.39062 60.4766 4.36719C60.4609 4.34375 60.4453 4.32422 60.4297 4.30859C60.4219 4.28516 60.418 4.26953 60.418 4.26172L60.0781 3.67578L60.0078 3.53516H60.0312L59.8906 3.37109L59.7383 3.21875C59.6914 3.19531 59.6758 3.17188 59.6914 3.14844C59.6836 3.13281 59.6641 3.10938 59.6328 3.07812C59.6016 3.04688 59.582 3.02344 59.5742 3.00781H59.5977L59.3516 2.77344C59.2891 2.77344 59.2422 2.73828 59.2109 2.66797C59.1953 2.65234 59.1719 2.64453 59.1406 2.64453L59.0469 2.59766C59.0312 2.58984 59 2.57031 58.9531 2.53906L58.8711 2.48047C58.8242 2.44922 58.7852 2.42578 58.7539 2.41016C58.7383 2.41016 58.6992 2.39453 58.6367 2.36328C58.543 2.33203 58.4727 2.31641 58.4258 2.31641C58.418 2.31641 58.4023 2.3125 58.3789 2.30469C58.3555 2.29687 58.3359 2.29297 58.3203 2.29297L58.1562 2.31641C58.125 2.31641 58.0938 2.32422 58.0625 2.33984C58.0547 2.33984 58.0391 2.34375 58.0156 2.35156C57.9922 2.35938 57.9688 2.36328 57.9453 2.36328C57.9219 2.36328 57.8867 2.37891 57.8398 2.41016L57.4414 2.66797C57.3867 2.66797 57.3359 2.69141 57.2891 2.73828H57.3125C57.2734 2.78516 57.2266 2.83594 57.1719 2.89062C57.1172 2.9375 57.0703 2.98438 57.0312 3.03125L56.8086 3.30078H56.832L56.7148 3.46484C56.5977 3.58203 56.4688 3.78125 56.3281 4.0625L56.2578 4.20312V4.17969C56.2578 4.1875 56.25 4.20312 56.2344 4.22656C56.2188 4.24219 56.2109 4.25391 56.2109 4.26172C56.1875 4.44141 56.1484 4.57422 56.0938 4.66016C56.0078 4.91016 55.9453 5.19922 55.9062 5.52734C55.8359 5.71484 55.8008 5.82812 55.8008 5.86719C55.8008 5.92969 55.793 5.96875 55.7773 5.98438V6.125C55.7461 6.28125 55.7305 6.43359 55.7305 6.58203C55.8633 7.37891 55.9531 8.16406 56 8.9375V9.96875C56 10.1953 55.9922 10.3477 55.9766 10.4258V11.1172C55.9766 11.3125 55.9023 11.4844 55.7539 11.6328C55.6133 11.7734 55.4453 11.8438 55.25 11.8438C55.1328 11.8438 54.9961 11.7891 54.8398 11.6797C54.6914 11.5703 54.6055 11.4414 54.582 11.293C54.4492 10.4648 54.3594 9.69531 54.3125 8.98438C54.2812 8.53125 54.2656 8.14062 54.2656 7.8125C54.2656 7.63281 54.2812 7.23828 54.3125 6.62891C54.2812 6.50391 54.2656 6.41797 54.2656 6.37109L54.0078 5.31641L53.9375 5.07031L53.832 4.70703L53.7852 4.61328L53.7383 4.40234L53.6914 4.33203V4.35547L53.6211 4.13281L53.5508 3.94531C53.4258 3.66406 53.2422 3.34375 53 2.98438L52.9531 2.89062V2.91406L52.8711 2.77344L52.8008 2.66797V2.69141L52.5898 2.50391C52.5508 2.50391 52.5117 2.46484 52.4727 2.38672L52.5195 2.41016C52.5273 2.41016 52.5195 2.40625 52.4961 2.39844C52.4727 2.38281 52.4414 2.36328 52.4023 2.33984L52.2266 2.21094C52.1953 2.19531 52.1641 2.1875 52.1328 2.1875C52.0391 2.15625 51.9688 2.14062 51.9219 2.14062C51.9141 2.14062 51.8945 2.13672 51.8633 2.12891C51.832 2.12109 51.8086 2.11719 51.793 2.11719H51.6055C51.5977 2.11719 51.5859 2.12109 51.5703 2.12891C51.5625 2.13672 51.5508 2.14062 51.5352 2.14062C51.5273 2.14062 51.5117 2.14453 51.4883 2.15234C51.4648 2.16016 51.4414 2.16406 51.418 2.16406H51.3945L51.2422 2.23438C51.2344 2.23438 51.2227 2.24219 51.207 2.25781C51.1914 2.26563 51.1797 2.26953 51.1719 2.26953L50.832 2.45703V2.43359L50.7383 2.50391L50.4102 2.84375L50.3281 2.96094H50.3516C50.0859 3.36719 49.9023 3.6875 49.8008 3.92188C49.793 3.9375 49.7695 3.97656 49.7305 4.03906C49.6992 4.10156 49.6836 4.14062 49.6836 4.15625L49.6133 4.33203C49.6133 4.33984 49.6094 4.35156 49.6016 4.36719C49.5938 4.38281 49.5898 4.39453 49.5898 4.40234C49.5742 4.41797 49.5664 4.44922 49.5664 4.49609C49.5352 4.55859 49.5195 4.59766 49.5195 4.61328L49.3203 5.26953C49.3203 5.37891 49.3047 5.46484 49.2734 5.52734C49.2734 5.55859 49.2695 5.61719 49.2617 5.70312C49.2539 5.78125 49.25 5.83594 49.25 5.86719L49.2383 5.90234C49.2305 5.92578 49.2266 5.95312 49.2266 5.98438V6.14844L49.2031 6.21875C49.1875 6.28125 49.1797 6.36328 49.1797 6.46484C49.1797 6.48047 49.1758 6.5 49.168 6.52344C49.1602 6.53906 49.1562 6.55078 49.1562 6.55859V6.65234C49.1016 7.37109 49.0859 8.01953 49.1094 8.59766C49.1094 8.91797 49.1328 9.22266 49.1797 9.51172C49.1797 9.61328 49.1875 9.70312 49.2031 9.78125C49.2031 9.8125 49.2109 9.83594 49.2266 9.85156C49.2266 9.89844 49.2422 10.0156 49.2734 10.2031C49.3438 10.8203 49.4883 11.4297 49.707 12.0312C49.7617 12.2031 49.8672 12.4688 50.0234 12.8281C50.0234 12.8906 50.0312 12.9297 50.0469 12.9453C50.0469 12.9844 50.0703 13.0156 50.1172 13.0391L50.1641 13.2031V13.1797L50.3516 13.5898C50.7344 14.2695 51.0547 14.7969 51.3125 15.1719L51.4414 15.3945H51.418L51.5586 15.5352L51.6992 15.6758L51.793 15.8047H51.7695L52.0625 16.1094L52.3672 16.543H52.3438C52.4375 16.6523 52.4844 16.7852 52.4844 16.9414C52.4844 17.0898 52.4375 17.2227 52.3438 17.3398C52.2656 17.4414 52.1445 17.4922 51.9805 17.4922C51.8242 17.4922 51.6992 17.4414 51.6055 17.3398C51.2148 16.9492 50.9023 16.6133 50.668 16.332H50.6914C50.5664 16.207 50.5039 16.125 50.5039 16.0859C50.4961 16.0781 50.4805 16.0664 50.457 16.0508C50.4336 16.0352 50.4141 16.0195 50.3984 16.0039C50.3828 15.9883 50.375 15.9766 50.375 15.9688L50.2344 15.8281H50.2578L50.1406 15.6758L50.0234 15.5117C50.0078 15.4883 49.9531 15.4102 49.8594 15.2773C49.7656 15.1445 49.6992 15.0469 49.6602 14.9844L49.5195 14.7734C49.293 14.3359 49.0273 13.75 48.7227 13.0156C48.2617 11.9609 47.9648 10.7383 47.832 9.34766C47.8008 9.08984 47.7852 8.65625 47.7852 8.04688ZM51.9219 2.14062V1.95312H52.1094V2.14062H51.9219ZM65.1523 4.01562C65.1523 3.625 65.1992 3.25 65.293 2.89062C65.4883 2.28906 65.7773 1.77734 66.1602 1.35547C66.4336 1.08203 66.6484 0.90625 66.8047 0.828125C66.9766 0.71875 67.2812 0.636719 67.7188 0.582031C68.2109 0.542969 68.7031 0.605469 69.1953 0.769531C69.6953 0.933594 70.125 1.18359 70.4844 1.51953C70.7734 1.80859 71.0039 2.08203 71.1758 2.33984C71.3164 2.62109 71.3867 2.84375 71.3867 3.00781C71.3867 3.16406 71.3242 3.30078 71.1992 3.41797C71.082 3.52734 70.9453 3.58203 70.7891 3.58203C70.4453 3.58203 70.2383 3.39844 70.168 3.03125V3.05469L70.0508 2.89062L69.8984 2.66797C69.8359 2.63672 69.8047 2.58203 69.8047 2.50391L69.7812 2.45703L69.5469 2.26953H69.5703C69.5625 2.26953 69.5508 2.26172 69.5352 2.24609C69.5195 2.22266 69.5078 2.21094 69.5 2.21094C69.4766 2.1875 69.3789 2.13281 69.207 2.04688C69.1602 2.04688 69.1211 2.03125 69.0898 2L69.0195 1.95312L68.8906 1.90625L68.6094 1.83594H68.5156C68.5 1.82031 68.457 1.8125 68.3867 1.8125H68.0586C67.9727 1.8125 67.9062 1.82031 67.8594 1.83594H67.7188L67.332 1.95312H67.3555L67.1914 2.02344V2L66.8984 2.31641H66.9219C66.9141 2.33984 66.8945 2.375 66.8633 2.42188C66.832 2.46875 66.8125 2.50391 66.8047 2.52734L66.7109 2.73828L66.6172 2.89062H66.6406L66.5703 3.07812C66.5703 3.08594 66.5664 3.10156 66.5586 3.125C66.5508 3.14844 66.5469 3.16406 66.5469 3.17188L66.5234 3.24219L66.418 3.60547V3.75781C66.4023 3.80469 66.3945 3.85938 66.3945 3.92188C66.3945 4.11719 66.4023 4.26172 66.418 4.35547V4.47266L66.4766 4.61328C66.5 4.77734 66.5391 4.92188 66.5938 5.04688C66.5938 5.09375 66.6094 5.13281 66.6406 5.16406C66.6406 5.21094 66.6641 5.24609 66.7109 5.26953C66.8047 5.49609 66.8945 5.6875 66.9805 5.84375V5.91406L67.1211 6.07812L67.1914 6.21875L67.332 6.37109C67.3555 6.41797 67.4375 6.45703 67.5781 6.48828L67.6719 6.53516C67.7266 6.57422 67.7773 6.61328 67.8242 6.65234C67.8789 6.68359 67.9141 6.70703 67.9297 6.72266C67.9844 6.77734 68.043 6.80469 68.1055 6.80469C68.1211 6.82031 68.1406 6.83203 68.1641 6.83984C68.1875 6.83984 68.2148 6.83984 68.2461 6.83984C68.2852 6.83984 68.3164 6.84375 68.3398 6.85156C68.3477 6.85156 68.3594 6.85547 68.375 6.86328C68.3906 6.87109 68.4023 6.875 68.4102 6.875H68.7969L69.0195 6.80469C69.0352 6.80469 69.0664 6.80078 69.1133 6.79297C69.1602 6.78516 69.1914 6.78125 69.207 6.78125C69.2461 6.74219 69.2695 6.72266 69.2773 6.72266H69.2539L69.3945 6.62891L69.6406 6.51172H69.7344L69.8047 6.41797C69.8203 6.38672 69.8477 6.35156 69.8867 6.3125C69.9336 6.27344 69.9648 6.24219 69.9805 6.21875L70.2383 5.96094C70.2383 5.94531 70.2852 5.89062 70.3789 5.79688V5.73828L70.625 5.41016C70.6406 5.38672 70.7266 5.21875 70.8828 4.90625V4.92969C70.8828 4.92188 70.8906 4.90625 70.9062 4.88281C70.9219 4.85938 70.9297 4.84375 70.9297 4.83594L70.9883 4.73047L71.0352 4.58984C71.0352 4.57422 71.043 4.55859 71.0586 4.54297C71.0586 4.48047 71.0742 4.43359 71.1055 4.40234C71.1055 4.38672 71.1133 4.37109 71.1289 4.35547C71.1289 4.34766 71.1328 4.32812 71.1406 4.29688C71.1484 4.25781 71.1523 4.23438 71.1523 4.22656L71.2227 4.03906L71.3164 3.75781L71.3867 3.51172C71.5117 3.08984 71.6172 2.79297 71.7031 2.62109C71.7031 2.60547 71.7188 2.56641 71.75 2.50391C71.9922 1.89453 72.25 1.49609 72.5234 1.30859V1.33203C72.9297 0.925781 73.5039 0.707031 74.2461 0.675781C74.8711 0.675781 75.3906 0.835938 75.8047 1.15625C76.2422 1.53125 76.5859 1.91016 76.8359 2.29297C77.3047 3.04297 77.5703 3.76953 77.6328 4.47266C77.7344 5.66016 77.2148 6.77344 76.0742 7.8125C76.7305 8.03125 77.2891 8.49219 77.75 9.19531C78.1875 9.83594 78.4688 10.5898 78.5938 11.457C78.6406 11.8242 78.6641 12.1836 78.6641 12.5352C78.6641 13.0898 78.6094 13.6016 78.5 14.0703C78.2812 14.9219 77.8555 15.6406 77.2227 16.2266C76.5117 16.8438 75.6797 17.1992 74.7266 17.293C73.8438 17.3633 72.9727 17.25 72.1133 16.9531C71.2227 16.6328 70.4375 16.1836 69.7578 15.6055C69.0078 15.0039 68.4961 14.3242 68.2227 13.5664C68.0977 13.1758 68.0352 12.793 68.0352 12.418C68.0586 11.9414 68.168 11.4844 68.3633 11.0469C68.4414 10.8828 68.5859 10.7812 68.7969 10.7422C69.0078 10.6953 69.1914 10.7109 69.3477 10.7891C69.4961 10.8984 69.5898 11.0508 69.6289 11.2461C69.668 11.4336 69.6562 11.6094 69.5938 11.7734C69.5938 11.8047 69.5703 11.8438 69.5234 11.8906H69.5469C69.5312 11.9219 69.5234 11.9688 69.5234 12.0312L69.4531 12.2773V12.6523C69.4688 12.6836 69.4766 12.75 69.4766 12.8516L69.5234 13.0156C69.5234 13.0234 69.5273 13.0391 69.5352 13.0625C69.543 13.0859 69.5469 13.1016 69.5469 13.1094L69.5938 13.2031C69.5938 13.2578 69.6016 13.293 69.6172 13.3086C69.6172 13.3398 69.6562 13.3945 69.7344 13.4727L69.875 13.7891C69.9062 13.8438 69.9414 13.8828 69.9805 13.9062C69.9805 13.9531 70.0195 14.0156 70.0977 14.0938L70.2148 14.2109C70.2227 14.2188 70.2383 14.2422 70.2617 14.2812C70.2852 14.3203 70.3086 14.3477 70.332 14.3633L70.5078 14.5273L70.6016 14.5977C70.6797 14.6602 70.7422 14.6992 70.7891 14.7148C71.2969 15.0586 71.6484 15.2773 71.8438 15.3711H71.8203L72.1836 15.4883L72.3242 15.5352L72.8281 15.7227C72.8516 15.7461 72.9023 15.7578 72.9805 15.7578C73.0586 15.7891 73.1406 15.8125 73.2266 15.8281C73.3203 15.8438 73.3711 15.8516 73.3789 15.8516C73.3945 15.8516 73.418 15.8555 73.4492 15.8633C73.4805 15.8711 73.5 15.875 73.5078 15.875L73.5312 15.8984H73.6484C73.8125 15.8984 73.918 15.9062 73.9648 15.9219C74.3008 15.9219 74.5 15.9141 74.5625 15.8984L74.75 15.875C74.7812 15.8594 74.8711 15.8516 75.0195 15.8516C75.043 15.8516 75.0742 15.8438 75.1133 15.8281C75.1602 15.8125 75.2227 15.793 75.3008 15.7695C75.3789 15.7383 75.4531 15.7148 75.5234 15.6992V15.7227L75.6406 15.6289L75.6875 15.6055V15.6289L75.7812 15.5586L75.9805 15.4414H75.957L76.1445 15.3711V15.3945L76.3789 15.1484H76.3555L76.6016 14.8672C76.6016 14.8516 76.625 14.8086 76.6719 14.7383C76.6797 14.7227 76.6992 14.6836 76.7305 14.6211C76.7695 14.5586 76.7969 14.5195 76.8125 14.5039L76.9648 14.2109V14.2344C76.9648 14.2266 76.9688 14.2109 76.9766 14.1875C76.9844 14.1641 76.9883 14.1484 76.9883 14.1406C77.0898 13.8516 77.1445 13.6836 77.1523 13.6367L77.2227 13.3555C77.2227 13.2539 77.2383 13.1875 77.2695 13.1562L77.2461 13.1797C77.293 12.8672 77.3008 12.4922 77.2695 12.0547V12.0781C77.2539 12.0469 77.2461 11.9922 77.2461 11.9141C77.2461 11.8984 77.2422 11.8711 77.2344 11.832C77.2266 11.7852 77.2227 11.7539 77.2227 11.7383V11.5977L77.082 11.0234C77.082 11.0156 77.0781 11.0039 77.0703 10.9883C77.0625 10.9727 77.0586 10.9609 77.0586 10.9531V10.9766L76.8828 10.4727H76.9062C76.875 10.4414 76.8516 10.4102 76.8359 10.3789L76.7656 10.2266L76.7188 10.1094V10.1328L76.4609 9.65234H76.4844L76.2383 9.44141L76.0977 9.32422C76.0664 9.32422 76.0195 9.30859 75.957 9.27734L75.7578 9.125C75.7344 9.125 75.7109 9.10156 75.6875 9.05469V9.07812C75.6094 9.03906 75.4961 9.00781 75.3477 8.98438H75.2539C75.2383 8.96875 75.1992 8.96094 75.1367 8.96094C75.0195 8.96094 74.9219 8.96875 74.8438 8.98438C74.8359 8.98438 74.8242 8.98828 74.8086 8.99609C74.8008 9.00391 74.7891 9.00781 74.7734 9.00781L74.5156 9.07812L74.293 9.14844L74.0117 9.30078C73.8555 9.39453 73.6875 9.41797 73.5078 9.37109C73.3281 9.31641 73.1914 9.21094 73.0977 9.05469C72.9961 8.89844 72.9688 8.72656 73.0156 8.53906C73.0625 8.35156 73.168 8.21094 73.332 8.11719L73.5078 8.02344C73.5859 7.98438 73.668 7.9375 73.7539 7.88281C73.8398 7.82812 73.9336 7.76953 74.0352 7.70703C74.1445 7.63672 74.2305 7.58203 74.293 7.54297L74.6797 7.30859V7.33203L74.8672 7.15625L75.0664 6.96875V6.99219L75.7812 6.30078C75.7812 6.26172 75.7891 6.21875 75.8047 6.17188C75.9531 5.94531 76.0664 5.74609 76.1445 5.57422L76.168 5.50391C76.168 5.47266 76.1758 5.44141 76.1914 5.41016C76.2227 5.34766 76.2383 5.30859 76.2383 5.29297C76.2383 5.20703 76.2539 5.14844 76.2852 5.11719L76.2617 5.14062C76.2617 5.07812 76.2852 5.02344 76.332 4.97656L76.3086 5V4.40234C76.293 4.38672 76.2852 4.35547 76.2852 4.30859C76.2695 4.29297 76.2617 4.25 76.2617 4.17969C76.2617 4.17188 76.2578 4.16016 76.25 4.14453C76.2422 4.12891 76.2383 4.11719 76.2383 4.10938V4.13281L76.168 3.92188L76.0742 3.67578L76.0273 3.58203L75.9805 3.48828V3.51172L75.8984 3.37109L75.6406 2.84375L75.5469 2.71484C75.4609 2.62891 75.418 2.56641 75.418 2.52734L75.3477 2.43359L75.2539 2.33984L75.1367 2.23438L75.1602 2.26953L74.9727 2.16406C74.9492 2.16406 74.9062 2.14844 74.8438 2.11719C74.8359 2.11719 74.8242 2.10937 74.8086 2.09375C74.793 2.07813 74.7812 2.07031 74.7734 2.07031L74.4688 2H73.9883C73.9805 2 73.9688 2.00391 73.9531 2.01172C73.9375 2.01953 73.9219 2.02344 73.9062 2.02344L73.4258 2.14062L73.332 2.23438V2.21094L73.2383 2.33984L73.2617 2.31641L73.168 2.45703C73.1211 2.51953 73.0664 2.61328 73.0039 2.73828L72.9219 2.89062C72.9219 2.89844 72.918 2.91016 72.9102 2.92578C72.9023 2.94141 72.8984 2.95312 72.8984 2.96094L72.8047 3.21875C72.8047 3.25 72.7969 3.28906 72.7812 3.33594C72.7734 3.38281 72.7617 3.42969 72.7461 3.47656C72.7305 3.52344 72.7188 3.55859 72.7109 3.58203L72.5703 4.03906C72.4844 4.35938 72.3555 4.72656 72.1836 5.14062L71.7969 5.96094C71.6328 6.1875 71.4023 6.46094 71.1055 6.78125C70.5195 7.39062 70.0312 7.78125 69.6406 7.95312C69.1328 8.14062 68.6133 8.1875 68.082 8.09375C67.6367 8.00781 67.2148 7.80078 66.8164 7.47266C66.4258 7.14453 66.0938 6.76953 65.8203 6.34766C65.4766 5.80078 65.2773 5.28906 65.2227 4.8125C65.1758 4.57812 65.1523 4.3125 65.1523 4.01562ZM81.6992 4.66016C81.6758 4.19922 81.7305 3.69531 81.8633 3.14844C82.082 2.54688 82.332 2.05859 82.6133 1.68359C83.0039 1.13672 83.3945 0.777344 83.7852 0.605469C84.1523 0.496094 84.4961 0.441406 84.8164 0.441406C85.0586 0.441406 85.2852 0.464844 85.4961 0.511719C86.0898 0.558594 86.6719 0.726562 87.2422 1.01562C87.5234 1.17187 87.7227 1.30078 87.8398 1.40234L87.9453 1.47266L88.1797 1.66016L88.2734 1.76562V1.73047C88.2891 1.73828 88.3047 1.75781 88.3203 1.78906C88.3359 1.8125 88.3516 1.82812 88.3672 1.83594C88.8828 2.35156 89.3945 3.05469 89.9023 3.94531C90.7148 5.65625 91.1875 7.67188 91.3203 9.99219C91.3359 10.1328 91.3438 10.4062 91.3438 10.8125C91.3438 11.5469 91.2891 12.2031 91.1797 12.7812C91.0859 13.2656 90.9805 13.6484 90.8633 13.9297C90.6992 14.4922 90.4609 14.9961 90.1484 15.4414C89.3906 16.5117 88.5273 17.1211 87.5586 17.2695C86.9336 17.3633 86.3008 17.3125 85.6602 17.1172C85.0898 16.9688 84.5703 16.6836 84.1016 16.2617C83.2812 15.5664 82.7227 14.6055 82.4258 13.3789C82.293 12.7852 82.2266 12.25 82.2266 11.7734C82.2266 11.1797 82.3086 10.6172 82.4727 10.0859C82.5352 9.91406 82.6562 9.77734 82.8359 9.67578C83.0234 9.56641 83.2227 9.52734 83.4336 9.55859C83.6289 9.60547 83.7852 9.73438 83.9023 9.94531C84.0273 10.1562 84.0625 10.3633 84.0078 10.5664C83.9688 10.6523 83.9023 10.8867 83.8086 11.2695C83.7773 11.6914 83.7852 12.0664 83.832 12.3945C83.8789 12.7852 84 13.2305 84.1953 13.7305L84.2656 13.9062L84.4062 14.1875L84.7695 14.7734H84.7461L84.8867 14.9375C84.8867 14.9609 84.9531 15.0156 85.0859 15.1016C85.0859 15.1484 85.1016 15.1719 85.1328 15.1719C85.1719 15.2109 85.2852 15.2773 85.4727 15.3711C85.5898 15.4492 85.6523 15.4883 85.6602 15.4883C85.6914 15.5039 85.7539 15.5117 85.8477 15.5117C85.9102 15.543 85.9688 15.5586 86.0234 15.5586C86.3516 15.6758 86.582 15.7422 86.7148 15.7578C86.8945 15.7578 87.0547 15.7461 87.1953 15.7227C87.2188 15.7148 87.2656 15.707 87.3359 15.6992C87.4062 15.6914 87.4727 15.6836 87.5352 15.6758C87.5977 15.6602 87.6445 15.6445 87.6758 15.6289C87.6758 15.5977 87.707 15.5742 87.7695 15.5586V15.582L87.8867 15.5117L87.9922 15.4648H87.9688L88.3438 15.2188L88.707 14.8438H88.6836L88.8008 14.668C88.9336 14.4961 89.0391 14.3281 89.1172 14.1641C89.1172 14.1328 89.1484 14.0859 89.2109 14.0234H89.1875L89.3047 13.7891C89.3047 13.7812 89.3359 13.7148 89.3984 13.5898C89.3984 13.5508 89.4336 13.4961 89.5039 13.4258H89.4805C89.6211 13.0586 89.7148 12.6992 89.7617 12.3477L89.7852 12.2773C89.8164 12.1523 89.832 12.0469 89.832 11.9609V11.8203C89.832 11.8047 89.8359 11.7773 89.8438 11.7383C89.8516 11.6992 89.8555 11.668 89.8555 11.6445C89.8555 11.4883 89.8633 11.3789 89.8789 11.3164C89.8789 10.4648 89.8711 9.98438 89.8555 9.875C89.8242 9.78125 89.8086 9.66797 89.8086 9.53516C89.793 9.48828 89.7852 9.36719 89.7852 9.17188C89.7852 9.07812 89.7695 8.96875 89.7383 8.84375V8.73828C89.7383 8.73047 89.7344 8.71484 89.7266 8.69141C89.7188 8.66797 89.7148 8.65234 89.7148 8.64453V8.55078C89.6445 8.04297 89.5508 7.53906 89.4336 7.03906C89.3789 6.71875 89.2344 6.26953 89 5.69141L88.9531 5.55078L88.8711 5.31641L88.8008 5.11719L88.7539 4.95312C88.6914 4.89062 88.6602 4.84375 88.6602 4.8125V4.78906L88.5195 4.49609C88.3789 4.16016 88.1875 3.81641 87.9453 3.46484C87.8906 3.44141 87.8477 3.39453 87.8164 3.32422H87.8398C87.793 3.30078 87.7695 3.25 87.7695 3.17188L87.793 3.19531L87.6992 3.07812V3.10156L87.2656 2.69141C87.2344 2.69141 87.2031 2.67578 87.1719 2.64453C87.0625 2.55859 86.9648 2.49609 86.8789 2.45703C86.8164 2.41797 86.707 2.36328 86.5508 2.29297C86.4023 2.22266 86.3125 2.17969 86.2812 2.16406C86.2734 2.16406 86.2617 2.15625 86.2461 2.14062C86.2305 2.125 86.2188 2.11719 86.2109 2.11719V2.09375C86.1797 2.09375 86.1484 2.07813 86.1172 2.04688C86.0703 2.04688 86.0391 2.03906 86.0234 2.02344C85.9453 2.02344 85.8945 2 85.8711 1.95312V1.97656C85.7773 1.92969 85.6523 1.89063 85.4961 1.85938C85.2852 1.8125 85.1562 1.78125 85.1094 1.76562L85.0625 1.73047H84.8633C84.793 1.69922 84.6914 1.69922 84.5586 1.73047C84.5664 1.73828 84.5664 1.74609 84.5586 1.75391C84.5508 1.76172 84.5273 1.77344 84.4883 1.78906C84.457 1.80469 84.4258 1.81641 84.3945 1.82422C84.3711 1.83203 84.3359 1.84375 84.2891 1.85938L84.1719 1.90625L84.1016 1.95312C84.0391 2.03125 83.918 2.16016 83.7383 2.33984H83.7617C83.6523 2.48047 83.5234 2.6875 83.375 2.96094L83.2812 3.14844C83.2656 3.21094 83.2344 3.26172 83.1875 3.30078L83.1641 3.34766C83.1484 3.36328 83.1406 3.39453 83.1406 3.44141C83.1406 3.44922 83.1367 3.46484 83.1289 3.48828C83.1211 3.50391 83.1172 3.51953 83.1172 3.53516C83.0391 3.72266 82.9766 3.97266 82.9297 4.28516C82.9297 4.29297 82.9219 4.3125 82.9062 4.34375C82.8984 4.375 82.8945 4.40234 82.8945 4.42578C82.8945 4.52734 82.9062 4.64844 82.9297 4.78906C82.9297 4.82031 82.9375 4.84375 82.9531 4.85938C82.9531 4.90625 82.9609 4.95312 82.9766 5L83.0234 5.02344C83.1172 5.17188 83.1367 5.33203 83.082 5.50391C83.0352 5.66797 82.9336 5.79688 82.7773 5.89062C82.6289 5.98438 82.4727 6.00781 82.3086 5.96094C82.1445 5.90625 82.0156 5.80078 81.9219 5.64453C81.7969 5.35547 81.7227 5.02734 81.6992 4.66016ZM94.543 5.57422C94.5586 5.52734 94.5664 5.46484 94.5664 5.38672C94.5664 5.35547 94.5742 5.31641 94.5898 5.26953C94.5898 5.16797 94.5977 5.10156 94.6133 5.07031C94.6523 4.82031 94.6836 4.66797 94.707 4.61328C94.7617 4.26953 94.8359 4 94.9297 3.80469C95.2031 3.19531 95.4492 2.75391 95.668 2.48047C95.9492 2.12891 96.2891 1.80469 96.6875 1.50781C97.0938 1.20312 97.4922 0.984375 97.8828 0.851562C98.25 0.75 98.6172 0.699219 98.9844 0.699219C99.3906 0.699219 99.8555 0.789063 100.379 0.96875C100.777 1.13281 101.129 1.34766 101.434 1.61328L101.914 2.07031C102.031 1.80469 102.141 1.60547 102.242 1.47266C102.477 1.12891 102.766 0.839844 103.109 0.605469C103.344 0.488281 103.617 0.359375 103.93 0.21875C104.344 0.09375 104.758 0.03125 105.172 0.03125C105.422 0.03125 105.68 0.0546875 105.945 0.101562C106.617 0.234375 107.23 0.515625 107.785 0.945312C108.309 1.33594 108.773 1.93359 109.18 2.73828L109.227 2.69141L109.32 2.57422H109.297C109.461 2.37891 109.629 2.21094 109.801 2.07031C110.785 1.33594 111.746 1 112.684 1.0625C113.254 1.10938 113.773 1.26953 114.242 1.54297C114.773 1.87891 115.207 2.3125 115.543 2.84375C115.871 3.48438 116.07 3.96484 116.141 4.28516C116.266 4.82422 116.305 5.34375 116.258 5.84375C116.141 6.99219 115.742 8.02344 115.062 8.9375C114.734 9.32812 114.328 9.67969 113.844 9.99219L113.07 10.3789C113.062 10.3789 113.051 10.3828 113.035 10.3906C113.02 10.3984 113.008 10.4023 113 10.4023C112.938 10.4414 112.816 10.4727 112.637 10.4961C112.629 10.4961 112.613 10.5 112.59 10.5078C112.566 10.5156 112.551 10.5195 112.543 10.5195H112.379C112.191 10.543 112.012 10.5156 111.84 10.4375C111.668 10.3594 111.559 10.2422 111.512 10.0859C111.465 9.89062 111.492 9.69922 111.594 9.51172C111.695 9.31641 111.836 9.19531 112.016 9.14844C112.062 9.14844 112.109 9.125 112.156 9.07812L112.426 8.96094C112.613 8.86719 112.844 8.72266 113.117 8.52734C113.164 8.52734 113.203 8.51172 113.234 8.48047L113.34 8.41016L113.621 8.11719L113.785 7.88281L113.914 7.76562C113.914 7.75 113.953 7.68359 114.031 7.56641L114.371 6.89844C114.566 6.36719 114.668 6.03906 114.676 5.91406C114.707 5.59375 114.707 5.27344 114.676 4.95312C114.629 4.75781 114.559 4.50781 114.465 4.20312L114.242 3.78125H114.266L114.125 3.58203L114.055 3.48828L113.961 3.37109L113.844 3.30078V3.32422C113.758 3.29297 113.699 3.23438 113.668 3.14844H113.691L113.598 3.05469C113.59 3.04688 113.484 2.99219 113.281 2.89062L113.164 2.82031L113.188 2.84375L112.883 2.73828C112.844 2.73828 112.816 2.73047 112.801 2.71484L112.73 2.69141H112.203C111.953 2.75391 111.746 2.82031 111.582 2.89062L111.219 3.10156L110.914 3.24219L110.785 3.32422C110.762 3.34766 110.68 3.41406 110.539 3.52344C110.406 3.63281 110.297 3.73438 110.211 3.82812C110.211 3.85938 110.188 3.92188 110.141 4.01562L110 4.22656C109.891 4.35938 109.816 4.48828 109.777 4.61328C109.762 4.66797 109.754 4.72656 109.754 4.78906L109.684 5.02344C109.652 5.1875 109.629 5.30078 109.613 5.36328C109.613 5.37109 109.609 5.38672 109.602 5.41016C109.594 5.42578 109.59 5.44141 109.59 5.45703C109.566 5.63672 109.496 5.8125 109.379 5.98438C109.23 6.15625 109.035 6.24219 108.793 6.24219C108.574 6.24219 108.383 6.16406 108.219 6.00781C108.062 5.84375 107.992 5.66016 108.008 5.45703C108.008 4.96484 107.992 4.60547 107.961 4.37891C107.961 4.37109 107.957 4.34766 107.949 4.30859C107.941 4.26953 107.938 4.24219 107.938 4.22656L107.867 3.92188L107.855 3.875C107.848 3.85156 107.844 3.82031 107.844 3.78125L107.785 3.65234V3.67578L107.738 3.58203C107.723 3.56641 107.715 3.53516 107.715 3.48828L107.457 2.96094L107.305 2.73828L107.258 2.62109L107 2.31641L106.73 2.09375V2.11719C106.699 2.10156 106.652 2.07031 106.59 2.02344C106.527 1.97656 106.48 1.94531 106.449 1.92969C106.363 1.875 106.289 1.83594 106.227 1.8125C106.195 1.8125 106.172 1.79688 106.156 1.76562V1.78906C105.906 1.67969 105.691 1.61328 105.512 1.58984C105.418 1.57422 105.195 1.56641 104.844 1.56641C104.812 1.58203 104.777 1.58984 104.738 1.58984C104.73 1.58984 104.715 1.59375 104.691 1.60156C104.676 1.60938 104.66 1.61328 104.645 1.61328C104.504 1.64453 104.402 1.68359 104.34 1.73047C104.316 1.73828 104.289 1.75 104.258 1.76562V1.73047C104.203 1.78516 104.172 1.8125 104.164 1.8125L104.07 1.85938L103.977 1.88281L104 1.85938L103.883 1.92969L103.543 2.33984C103.543 2.34766 103.539 2.35938 103.531 2.375C103.523 2.39062 103.52 2.40234 103.52 2.41016C103.48 2.44922 103.441 2.52734 103.402 2.64453C103.371 2.67578 103.355 2.69922 103.355 2.71484C103.348 2.75391 103.336 2.78906 103.32 2.82031L103.25 3.03125L103.156 3.39453C103.125 3.60547 103.125 3.82031 103.156 4.03906V4.01562C103.32 4.60156 103.434 5.17578 103.496 5.73828C103.504 5.93359 103.422 6.11328 103.25 6.27734C103.086 6.43359 102.902 6.51172 102.699 6.51172C102.52 6.51172 102.363 6.46094 102.23 6.35938C102.098 6.25781 102 6.125 101.938 5.96094C101.766 5.45312 101.645 4.91016 101.574 4.33203C101.574 4.30078 101.566 4.27734 101.551 4.26172L101.504 4.17969C101.488 4.16406 101.48 4.14062 101.48 4.10938L101.34 3.82812L101 3.32422H101.023L100.754 3.03125L100.684 2.96094L100.613 2.89062L100.449 2.73828V2.77344L100.203 2.62109C100.195 2.62109 100.18 2.61328 100.156 2.59766C100.133 2.58203 100.117 2.57422 100.109 2.57422L99.9688 2.48047C99.9297 2.48047 99.8789 2.46484 99.8164 2.43359C99.7852 2.43359 99.7539 2.41797 99.7227 2.38672L99.6289 2.33984C99.5195 2.33984 99.4336 2.32422 99.3711 2.29297C99.2852 2.29297 99.2344 2.28516 99.2188 2.26953C99.2031 2.26953 99.1836 2.26563 99.1602 2.25781C99.1445 2.24219 99.1328 2.23438 99.125 2.23438C98.9531 2.21094 98.7695 2.21094 98.5742 2.23438H98.5039C98.4961 2.23438 98.4766 2.24219 98.4453 2.25781C98.4141 2.26563 98.3945 2.26953 98.3867 2.26953C98.3789 2.26953 98.3633 2.27344 98.3398 2.28125C98.3242 2.28906 98.3125 2.29297 98.3047 2.29297L97.9531 2.41016C97.9453 2.41016 97.9297 2.41797 97.9062 2.43359C97.8828 2.44922 97.8672 2.45703 97.8594 2.45703V2.43359L97.6602 2.59766L97.543 2.64453L97.4727 2.69141L97.1562 3.00781C97.0781 3.07031 97.0078 3.14062 96.9453 3.21875L96.8516 3.37109L96.4648 3.89844C96.418 3.94531 96.3594 4.05469 96.2891 4.22656C96.2891 4.23438 96.2852 4.25 96.2773 4.27344C96.2695 4.28906 96.2656 4.30078 96.2656 4.30859L96.1953 4.37891V4.49609L96.1016 4.76562C96.0078 5.05469 95.9531 5.23047 95.9375 5.29297C95.9375 5.30078 95.9336 5.31641 95.9258 5.33984C95.918 5.36328 95.9141 5.38672 95.9141 5.41016V5.50391C95.9141 5.53516 95.9062 5.55859 95.8906 5.57422V6.39453C95.8906 6.40234 95.8945 6.41797 95.9023 6.44141C95.9102 6.46484 95.9141 6.48828 95.9141 6.51172V6.60547C95.9297 6.68359 95.9609 6.80859 96.0078 6.98047C96.0547 7.15234 96.0859 7.27734 96.1016 7.35547L96.1484 7.56641L96.2188 7.63672C96.2188 7.67578 96.2695 7.78125 96.3711 7.95312C96.418 8.04688 96.4883 8.17578 96.582 8.33984C96.6758 8.50391 96.7305 8.59766 96.7461 8.62109L96.875 8.77344H96.8516L96.9219 8.86719L97.1094 9.07812L97.1797 9.17188H97.1562L97.707 9.67578V9.65234C97.793 9.76953 97.8672 9.85938 97.9297 9.92188C97.9453 9.95312 97.9609 9.96875 97.9766 9.96875L98.0469 10.0156C98.0703 10.0156 98.1172 10.0391 98.1875 10.0859C98.5938 10.3984 99.0273 10.6797 99.4883 10.9297C99.5117 10.9531 99.6953 11.0312 100.039 11.1641L100.203 11.3164L100.18 11.293C100.406 11.3398 100.52 11.3711 100.52 11.3867L100.566 11.4102C100.629 11.4414 100.676 11.457 100.707 11.457L100.836 11.5742C100.867 11.5742 100.926 11.5703 101.012 11.5625C101.098 11.5547 101.156 11.5508 101.188 11.5508L102.945 11.4102H103.039C103.047 11.4102 103.059 11.4062 103.074 11.3984C103.098 11.3906 103.117 11.3867 103.133 11.3867H103.32C103.344 11.3867 103.379 11.3828 103.426 11.375C103.48 11.3672 103.52 11.3633 103.543 11.3633C104.254 11.3008 104.836 11.2773 105.289 11.293C107.227 11.3242 108.742 11.668 109.836 12.3242C110.609 12.7695 111.184 13.3594 111.559 14.0938C111.777 14.5391 111.914 15.0352 111.969 15.582C112 15.707 112.016 15.9414 112.016 16.2852C112.016 16.418 112 16.5938 111.969 16.8125C111.961 16.8984 111.91 17.0312 111.816 17.2109C111.762 17.3203 111.676 17.4219 111.559 17.5156C111.441 17.6172 111.32 17.668 111.195 17.668C111.047 17.668 110.906 17.6172 110.773 17.5156C110.648 17.4219 110.582 17.3047 110.574 17.1641L110.527 17.0703V17.0938C110.48 16.9766 110.457 16.8164 110.457 16.6133V16.2617C110.457 15.9648 110.449 15.7617 110.434 15.6523C110.426 15.6367 110.41 15.5859 110.387 15.5C110.371 15.4141 110.355 15.3477 110.34 15.3008H110.363C110.324 15.2617 110.305 15.2109 110.305 15.1484L110.258 15.0312V15.0547C110.227 14.9922 110.211 14.9375 110.211 14.8906L110.117 14.7734L109.906 14.3398H109.93L109.836 14.2109L109.707 14.0469L109.59 14L109.52 13.9062C109.465 13.9062 109.418 13.875 109.379 13.8125C108.918 13.5312 108.613 13.3555 108.465 13.2852C108.441 13.2852 108.41 13.2656 108.371 13.2266C108.191 13.1797 108.094 13.1484 108.078 13.1328L107.551 12.9922C107.473 12.9922 107.426 12.9844 107.41 12.9688C107.395 12.9688 107.375 12.9648 107.352 12.957C107.328 12.9492 107.312 12.9453 107.305 12.9453L106.953 12.875C106.945 12.875 106.934 12.8711 106.918 12.8633C106.902 12.8555 106.891 12.8516 106.883 12.8516C106.797 12.8516 106.738 12.8438 106.707 12.8281L106.66 12.8047H106.473C106.449 12.8047 106.418 12.8008 106.379 12.793C106.34 12.7852 106.312 12.7812 106.297 12.7812C105.906 12.7422 105.66 12.7227 105.559 12.7227H105.125C105.078 12.7227 105.004 12.7188 104.902 12.7109C104.809 12.7031 104.738 12.6992 104.691 12.6992C104.527 12.6992 104.145 12.7188 103.543 12.7578L100.754 12.8984C100.691 12.8984 100.586 12.9023 100.438 12.9102C100.289 12.918 100.18 12.9219 100.109 12.9219C99.4688 12.9531 98.918 12.9688 98.457 12.9688C97.9102 12.9688 97.4844 12.9531 97.1797 12.9219C97.0703 12.9141 96.9688 12.8516 96.875 12.7344C96.7891 12.6172 96.7461 12.5039 96.7461 12.3945C96.7461 12.2773 96.7891 12.1641 96.875 12.0547C96.9609 11.9375 97.0625 11.8672 97.1797 11.8438C97.6406 11.7656 97.9766 11.7227 98.1875 11.7148C97.9609 11.5742 97.793 11.4492 97.6836 11.3398C96.6992 10.582 95.918 9.76562 95.3398 8.89062C94.7148 7.82031 94.4492 6.71484 94.543 5.57422ZM119.574 8.04688C119.574 7.32031 119.641 6.46484 119.773 5.48047C119.914 4.56641 120.219 3.66406 120.688 2.77344C120.898 2.32812 121.211 1.92187 121.625 1.55469C122.039 1.1875 122.484 0.9375 122.961 0.804688C123.469 0.695313 123.941 0.710938 124.379 0.851562C124.652 0.914062 124.988 1.12891 125.387 1.49609C125.887 1.96484 126.352 2.66797 126.781 3.60547L126.875 3.39453L127.039 3.03125C127.109 2.88281 127.301 2.60938 127.613 2.21094C128.129 1.59375 128.684 1.17969 129.277 0.96875C129.535 0.890625 129.789 0.851562 130.039 0.851562C130.367 0.851562 130.664 0.898438 130.93 0.992188C131.438 1.1875 131.906 1.51953 132.336 1.98828C132.766 2.44922 133.113 2.94922 133.379 3.48828C133.957 4.57422 134.348 5.8125 134.551 7.20312C134.637 7.77344 134.68 8.39062 134.68 9.05469C134.68 9.75 134.613 10.5039 134.48 11.3164C134.277 12.4648 133.895 13.625 133.332 14.7969C132.77 15.9688 132.098 17.0391 131.316 18.0078C131.184 18.125 131.012 18.1836 130.801 18.1836C130.59 18.1836 130.426 18.125 130.309 18.0078C130.184 17.8672 130.117 17.6953 130.109 17.4922C130.109 17.2891 130.16 17.125 130.262 17L130.426 16.8125L130.613 16.5898H130.59L130.766 16.3555L130.977 16.0625C131.297 15.6094 131.602 15.1133 131.891 14.5742C131.953 14.4805 131.992 14.4102 132.008 14.3633L132.301 13.7305L132.348 13.6367L132.418 13.4258L132.488 13.2266L132.535 13.1328C132.566 13.1016 132.582 13.0625 132.582 13.0156C132.816 12.2969 132.969 11.7305 133.039 11.3164C133.039 11.1836 133.047 11.1016 133.062 11.0703C133.062 11.0078 133.07 10.9688 133.086 10.9531C133.086 10.9375 133.09 10.918 133.098 10.8945C133.105 10.8711 133.109 10.8516 133.109 10.8359C133.109 10.7344 133.117 10.668 133.133 10.6367C133.133 10.582 133.152 10.5352 133.191 10.4961L133.156 10.5195C133.156 10.3398 133.168 10.1797 133.191 10.0391C133.191 9.875 133.207 9.71484 133.238 9.55859C133.238 8.72266 133.203 8.07422 133.133 7.61328V7.44922C133.117 7.43359 133.109 7.39453 133.109 7.33203L133.098 7.29688C133.09 7.27344 133.086 7.24219 133.086 7.20312L132.945 6.39453C132.93 6.35547 132.918 6.31641 132.91 6.27734C132.902 6.23047 132.887 6.16406 132.863 6.07812C132.848 5.99219 132.828 5.89844 132.805 5.79688C132.758 5.60938 132.66 5.32812 132.512 4.95312C132.512 4.92188 132.496 4.875 132.465 4.8125L132.418 4.61328C132.34 4.53516 132.301 4.47266 132.301 4.42578C132.293 4.41016 132.281 4.39062 132.266 4.36719C132.25 4.34375 132.234 4.32422 132.219 4.30859C132.211 4.28516 132.207 4.26953 132.207 4.26172L131.867 3.67578L131.797 3.53516H131.82L131.68 3.37109L131.527 3.21875C131.48 3.19531 131.465 3.17188 131.48 3.14844C131.473 3.13281 131.453 3.10938 131.422 3.07812C131.391 3.04688 131.371 3.02344 131.363 3.00781H131.387L131.141 2.77344C131.078 2.77344 131.031 2.73828 131 2.66797C130.984 2.65234 130.961 2.64453 130.93 2.64453L130.836 2.59766C130.82 2.58984 130.789 2.57031 130.742 2.53906L130.66 2.48047C130.613 2.44922 130.574 2.42578 130.543 2.41016C130.527 2.41016 130.488 2.39453 130.426 2.36328C130.332 2.33203 130.262 2.31641 130.215 2.31641C130.207 2.31641 130.191 2.3125 130.168 2.30469C130.145 2.29687 130.125 2.29297 130.109 2.29297L129.945 2.31641C129.914 2.31641 129.883 2.32422 129.852 2.33984C129.844 2.33984 129.828 2.34375 129.805 2.35156C129.781 2.35938 129.758 2.36328 129.734 2.36328C129.711 2.36328 129.676 2.37891 129.629 2.41016L129.23 2.66797C129.176 2.66797 129.125 2.69141 129.078 2.73828H129.102C129.062 2.78516 129.016 2.83594 128.961 2.89062C128.906 2.9375 128.859 2.98438 128.82 3.03125L128.598 3.30078H128.621L128.504 3.46484C128.387 3.58203 128.258 3.78125 128.117 4.0625L128.047 4.20312V4.17969C128.047 4.1875 128.039 4.20312 128.023 4.22656C128.008 4.24219 128 4.25391 128 4.26172C127.977 4.44141 127.938 4.57422 127.883 4.66016C127.797 4.91016 127.734 5.19922 127.695 5.52734C127.625 5.71484 127.59 5.82812 127.59 5.86719C127.59 5.92969 127.582 5.96875 127.566 5.98438V6.125C127.535 6.28125 127.52 6.43359 127.52 6.58203C127.652 7.37891 127.742 8.16406 127.789 8.9375V9.96875C127.789 10.1953 127.781 10.3477 127.766 10.4258V11.1172C127.766 11.3125 127.691 11.4844 127.543 11.6328C127.402 11.7734 127.234 11.8438 127.039 11.8438C126.922 11.8438 126.785 11.7891 126.629 11.6797C126.48 11.5703 126.395 11.4414 126.371 11.293C126.238 10.4648 126.148 9.69531 126.102 8.98438C126.07 8.53125 126.055 8.14062 126.055 7.8125C126.055 7.63281 126.07 7.23828 126.102 6.62891C126.07 6.50391 126.055 6.41797 126.055 6.37109L125.797 5.31641L125.727 5.07031L125.621 4.70703L125.574 4.61328L125.527 4.40234L125.48 4.33203V4.35547L125.41 4.13281L125.34 3.94531C125.215 3.66406 125.031 3.34375 124.789 2.98438L124.742 2.89062V2.91406L124.66 2.77344L124.59 2.66797V2.69141L124.379 2.50391C124.34 2.50391 124.301 2.46484 124.262 2.38672L124.309 2.41016C124.316 2.41016 124.309 2.40625 124.285 2.39844C124.262 2.38281 124.23 2.36328 124.191 2.33984L124.016 2.21094C123.984 2.19531 123.953 2.1875 123.922 2.1875C123.828 2.15625 123.758 2.14062 123.711 2.14062C123.703 2.14062 123.684 2.13672 123.652 2.12891C123.621 2.12109 123.598 2.11719 123.582 2.11719H123.395C123.387 2.11719 123.375 2.12109 123.359 2.12891C123.352 2.13672 123.34 2.14062 123.324 2.14062C123.316 2.14062 123.301 2.14453 123.277 2.15234C123.254 2.16016 123.23 2.16406 123.207 2.16406H123.184L123.031 2.23438C123.023 2.23438 123.012 2.24219 122.996 2.25781C122.98 2.26563 122.969 2.26953 122.961 2.26953L122.621 2.45703V2.43359L122.527 2.50391L122.199 2.84375L122.117 2.96094H122.141C121.875 3.36719 121.691 3.6875 121.59 3.92188C121.582 3.9375 121.559 3.97656 121.52 4.03906C121.488 4.10156 121.473 4.14062 121.473 4.15625L121.402 4.33203C121.402 4.33984 121.398 4.35156 121.391 4.36719C121.383 4.38281 121.379 4.39453 121.379 4.40234C121.363 4.41797 121.355 4.44922 121.355 4.49609C121.324 4.55859 121.309 4.59766 121.309 4.61328L121.109 5.26953C121.109 5.37891 121.094 5.46484 121.062 5.52734C121.062 5.55859 121.059 5.61719 121.051 5.70312C121.043 5.78125 121.039 5.83594 121.039 5.86719L121.027 5.90234C121.02 5.92578 121.016 5.95312 121.016 5.98438V6.14844L120.992 6.21875C120.977 6.28125 120.969 6.36328 120.969 6.46484C120.969 6.48047 120.965 6.5 120.957 6.52344C120.949 6.53906 120.945 6.55078 120.945 6.55859V6.65234C120.891 7.37109 120.875 8.01953 120.898 8.59766C120.898 8.91797 120.922 9.22266 120.969 9.51172C120.969 9.61328 120.977 9.70312 120.992 9.78125C120.992 9.8125 121 9.83594 121.016 9.85156C121.016 9.89844 121.031 10.0156 121.062 10.2031C121.133 10.8203 121.277 11.4297 121.496 12.0312C121.551 12.2031 121.656 12.4688 121.812 12.8281C121.812 12.8906 121.82 12.9297 121.836 12.9453C121.836 12.9844 121.859 13.0156 121.906 13.0391L121.953 13.2031V13.1797L122.141 13.5898C122.523 14.2695 122.844 14.7969 123.102 15.1719L123.23 15.3945H123.207L123.348 15.5352L123.488 15.6758L123.582 15.8047H123.559L123.852 16.1094L124.156 16.543H124.133C124.227 16.6523 124.273 16.7852 124.273 16.9414C124.273 17.0898 124.227 17.2227 124.133 17.3398C124.055 17.4414 123.934 17.4922 123.77 17.4922C123.613 17.4922 123.488 17.4414 123.395 17.3398C123.004 16.9492 122.691 16.6133 122.457 16.332H122.48C122.355 16.207 122.293 16.125 122.293 16.0859C122.285 16.0781 122.27 16.0664 122.246 16.0508C122.223 16.0352 122.203 16.0195 122.188 16.0039C122.172 15.9883 122.164 15.9766 122.164 15.9688L122.023 15.8281H122.047L121.93 15.6758L121.812 15.5117C121.797 15.4883 121.742 15.4102 121.648 15.2773C121.555 15.1445 121.488 15.0469 121.449 14.9844L121.309 14.7734C121.082 14.3359 120.816 13.75 120.512 13.0156C120.051 11.9609 119.754 10.7383 119.621 9.34766C119.59 9.08984 119.574 8.65625 119.574 8.04688ZM123.711 2.14062V1.95312H123.898V2.14062H123.711ZM137.68 16.0859C137.68 15.7344 137.945 15.3477 138.477 14.9258C139.016 14.5039 139.473 14.293 139.848 14.293C140.199 14.293 140.523 14.4609 140.82 14.7969C141.117 15.125 141.266 15.4766 141.266 15.8516C141.266 16.4766 140.488 16.7891 138.934 16.7891C138.098 16.7891 137.68 16.5547 137.68 16.0859ZM143.656 16.0859C143.656 15.7344 143.922 15.3477 144.453 14.9258C144.992 14.5039 145.449 14.293 145.824 14.293C146.176 14.293 146.5 14.4609 146.797 14.7969C147.094 15.125 147.242 15.4766 147.242 15.8516C147.242 16.4766 146.465 16.7891 144.91 16.7891C144.074 16.7891 143.656 16.5547 143.656 16.0859ZM149.633 16.0859C149.633 15.7344 149.898 15.3477 150.43 14.9258C150.969 14.5039 151.426 14.293 151.801 14.293C152.152 14.293 152.477 14.4609 152.773 14.7969C153.07 15.125 153.219 15.4766 153.219 15.8516C153.219 16.4766 152.441 16.7891 150.887 16.7891C150.051 16.7891 149.633 16.5547 149.633 16.0859Z" fill="black"/>
</svg>
