<svg width="290" height="35" viewBox="0 0 290 35" fill="none" xmlns="http://www.w3.org/2000/svg">
<path d="M0.5625 27.7031L1.125 23.9531H5.92188L5.53125 27.6094C5.53125 29.7969 6.42708 30.8906 8.21875 30.8906C9.5625 30.9115 10.2344 29.7865 10.2344 27.5156V25.2188C10.2344 23.2396 9.49479 22.25 8.01562 22.25H4.6875V18.625H6.6875C8.9375 18.0833 10.0625 17.0521 10.0625 15.5312C10.0625 13.9062 8.85938 11.9531 6.45312 9.67188H12.7031C14.1823 11.7135 14.9219 13.6667 14.9219 15.5312C14.9219 17.375 13.9948 18.8438 12.1406 19.9375C14.1823 21.0938 15.2031 22.8542 15.2031 25.2188V27.5156C15.2135 29.8281 14.6354 31.5573 13.4688 32.7031C12.3021 33.849 10.5417 34.4219 8.1875 34.4219C3.11458 34.4219 0.572917 32.1823 0.5625 27.7031ZM18.3438 27.5469L18.6875 24.2812H23.5469L23.2344 28.4062C23.2344 30.0833 24.026 30.9167 25.6094 30.9062C27.1927 30.9167 27.9844 30.099 27.9844 28.4531V25.5625C28.0052 23.4688 27.5312 22.4219 26.5625 22.4219H23.5312V18.75H25.7969C27.1823 18.7708 27.875 17.3021 27.875 14.3438C27.875 13.2292 27.1198 12.6719 25.6094 12.6719C24.4427 12.6719 23.8542 13.3281 23.8438 14.6406L24.1094 16.9375H19.2188L18.9375 14.875C18.9375 11.0833 21.1615 9.1875 25.6094 9.1875C30.4323 9.1875 32.8438 11.1302 32.8438 15.0156C32.8438 16.9219 31.8333 18.6719 29.8125 20.2656C31.9062 21.151 32.9479 22.9271 32.9375 25.5938V27.4844C32.9375 32.1094 30.599 34.4219 25.9219 34.4219C20.8698 34.4219 18.3438 32.1302 18.3438 27.5469ZM36.4062 17.75C36.4062 12.0417 38.8906 9.1875 43.8594 9.1875C48.8281 9.1875 51.3125 12.0573 51.3125 17.7969C51.3125 20.474 50.7344 23.5365 49.5781 26.9844H44.5C45.7292 23.6719 46.3438 20.6094 46.3438 17.7969C46.3438 14.3906 45.5156 12.6875 43.8594 12.6875C42.2031 12.6875 41.375 14.4062 41.375 17.8438C41.375 20.6458 41.9792 23.6979 43.1875 27H38.1094C37.5469 25.25 37.1198 23.6094 36.8281 22.0781C36.5469 20.5469 36.4062 19.1042 36.4062 17.75ZM54.4375 17.7031C54.4375 15.7031 54.7656 13.7917 55.4219 11.9688C56.0781 10.1354 57.0677 8.35938 58.3906 6.64062C60.9427 3.34896 64.9427 1.28646 70.3906 0.453125V4.48438C68.6719 4.57812 67.0365 5.03125 65.4844 5.84375C63.9427 6.65625 62.5104 7.77083 61.1875 9.1875H61.2031C63.3385 9.1875 64.9427 9.89062 66.0156 11.2969C67.099 9.89062 68.6354 9.1875 70.625 9.1875C75.3125 9.1875 77.6562 12.026 77.6562 17.7031C77.6562 20.6615 76.599 23.7552 74.4844 26.9844H68.1562C71.1771 23.7552 72.6875 20.6615 72.6875 17.7031C72.6771 14.3594 71.9479 12.6875 70.5 12.6875C69.1146 12.6875 68.4219 14.1667 68.4219 17.125V20.7031H63.6562V17.125C63.6667 14.1667 62.9896 12.6875 61.625 12.6875C60.1458 12.6875 59.4062 14.3594 59.4062 17.7031C59.4062 20.6719 60.9219 23.7708 63.9531 27H57.4531C55.4427 23.7083 54.4375 20.6094 54.4375 17.7031ZM80.7812 17.75C80.7812 12.0417 83.2656 9.1875 88.2344 9.1875C93.2031 9.1875 95.6875 12.0573 95.6875 17.7969C95.6875 20.474 95.1094 23.5365 93.9531 26.9844H88.875C90.1042 23.6719 90.7188 20.6094 90.7188 17.7969C90.7188 14.3906 89.8906 12.6875 88.2344 12.6875C86.5781 12.6875 85.75 14.4062 85.75 17.8438C85.75 20.6458 86.3542 23.6979 87.5625 27H82.4844C81.9219 25.25 81.4948 23.6094 81.2031 22.0781C80.9219 20.5469 80.7812 19.1042 80.7812 17.75ZM99.2812 19.0156V0.8125H104.094V19.7969C104.094 22.5677 104.969 23.9531 106.719 23.9531C108.188 23.9531 108.922 22.6406 108.922 20.0156C108.922 17.4531 108.542 15.6667 107.781 14.6562C107.031 13.6354 106.651 12.3854 106.641 10.9062L106.75 7.70312H111.844L111.328 10.8906C111.349 12.0677 111.776 13.349 112.609 14.7344C113.453 16.1094 113.875 17.6094 113.875 19.2344C113.875 24.7135 111.49 27.4531 106.719 27.4531C101.76 27.4531 99.2812 24.6406 99.2812 19.0156ZM128.156 19.875L128.672 16.4688H133.578L133.047 19.9531C133.068 22.6198 133.88 23.9531 135.484 23.9531C137.026 23.9531 137.797 22.6562 137.797 20.0625C137.797 18.1458 136.844 16.3021 134.938 14.5312C133.042 12.7604 132.094 10.5312 132.094 7.84375H137.156C137.167 9.80208 138.099 11.6667 139.953 13.4375C141.818 15.1979 142.75 17.4062 142.75 20.0625C142.75 24.9896 140.312 27.4531 135.438 27.4531C130.583 27.4531 128.156 24.9271 128.156 19.875ZM145.875 27.5469L146.219 24.2812H151.078L150.766 28.4062C150.766 30.0833 151.557 30.9167 153.141 30.9062C154.724 30.9167 155.516 30.099 155.516 28.4531V25.5625C155.536 23.4688 155.062 22.4219 154.094 22.4219H151.062V18.75H153.328C154.714 18.7708 155.406 17.3021 155.406 14.3438C155.406 13.2292 154.651 12.6719 153.141 12.6719C151.974 12.6719 151.385 13.3281 151.375 14.6406L151.641 16.9375H146.75L146.469 14.875C146.469 11.0833 148.693 9.1875 153.141 9.1875C157.964 9.1875 160.375 11.1302 160.375 15.0156C160.375 16.9219 159.365 18.6719 157.344 20.2656C159.438 21.151 160.479 22.9271 160.469 25.5938V27.4844C160.469 32.1094 158.13 34.4219 153.453 34.4219C148.401 34.4219 145.875 32.1302 145.875 27.5469ZM163.938 22.0312C163.938 15.1667 166.703 11.0729 172.234 9.75L171.094 5.54688H176.156L175.016 9.79688C178.047 10.4427 180.172 11.7917 181.391 13.8438C182.609 15.8854 183.219 18.6458 183.219 22.125C183.219 23.7292 183.01 25.2344 182.594 26.6406C182.177 28.0365 181.339 29.6823 180.078 31.5781C178.828 33.474 176.682 34.4219 173.641 34.4219C170.568 34.4219 168.182 33.1823 166.484 30.7031C164.786 28.2344 163.938 25.3438 163.938 22.0312ZM168.906 22.0312C168.896 25.8229 169.354 28.2448 170.281 29.2969C171.219 30.3594 172.333 30.8906 173.625 30.8906C174.792 30.8906 175.87 30.3854 176.859 29.375C177.849 28.3646 178.344 25.9167 178.344 22.0312C178.344 19.5104 178.203 17.6667 177.922 16.5C177.651 15.3333 176.688 14.3385 175.031 13.5156L176.125 21.7812H171.141L172.219 13.5156C170.5 14.3281 169.516 15.3073 169.266 16.4531C169.026 17.5885 168.906 19.4479 168.906 22.0312ZM186.344 17.5312C186.344 11.9688 188.641 9.1875 193.234 9.1875C195.255 9.1875 196.792 9.82812 197.844 11.1094C198.948 9.82812 200.474 9.1875 202.422 9.1875C206.995 9.1875 209.276 11.9688 209.266 17.5312C209.276 20.5833 208.234 23.7396 206.141 27H200.266C202.953 23.6771 204.297 20.5208 204.297 17.5312C204.286 14.2917 203.651 12.6719 202.391 12.6719C200.911 12.6719 200.172 13.4375 200.172 14.9688V19.7031H195.438V14.9688C195.438 13.4375 194.698 12.6719 193.219 12.6719C191.948 12.6719 191.312 14.2917 191.312 17.5312C191.302 20.3646 192.62 23.526 195.266 27.0156H189.422C187.37 23.7969 186.344 20.6354 186.344 17.5312ZM212.406 17.7031C212.406 15.7031 212.734 13.7917 213.391 11.9688C214.047 10.1354 215.036 8.35938 216.359 6.64062C218.911 3.34896 222.911 1.28646 228.359 0.453125V4.48438C226.641 4.57812 225.005 5.03125 223.453 5.84375C221.911 6.65625 220.479 7.77083 219.156 9.1875H219.172C221.307 9.1875 222.911 9.89062 223.984 11.2969C225.068 9.89062 226.604 9.1875 228.594 9.1875C233.281 9.1875 235.625 12.026 235.625 17.7031C235.625 20.6615 234.568 23.7552 232.453 26.9844H226.125C229.146 23.7552 230.656 20.6615 230.656 17.7031C230.646 14.3594 229.917 12.6875 228.469 12.6875C227.083 12.6875 226.391 14.1667 226.391 17.125V20.7031H221.625V17.125C221.635 14.1667 220.958 12.6875 219.594 12.6875C218.115 12.6875 217.375 14.3594 217.375 17.7031C217.375 20.6719 218.891 23.7708 221.922 27H215.422C213.411 23.7083 212.406 20.6094 212.406 17.7031ZM238.75 27.5L239.328 23.4844H244.172L243.719 28.2344C243.719 30.0156 244.521 30.9062 246.125 30.9062C247.542 30.9167 248.25 30.0104 248.25 28.1875V14.9375C248.25 13.4375 247.542 12.6875 246.125 12.6875C244.958 12.6875 244.375 13.3594 244.375 14.7031L245.047 19.2344H240.172L239.609 15.6406C239.609 11.3385 241.781 9.1875 246.125 9.1875C250.75 9.1875 253.062 11.3802 253.062 15.7656V27.5312C253.062 32.125 250.745 34.4219 246.109 34.4219C241.203 34.4219 238.75 32.1146 238.75 27.5ZM256.5 18.375C256.5 15.8333 256.995 13.8073 257.984 12.2969C258.974 10.7865 260.453 9.78125 262.422 9.28125C262.589 8.8125 262.688 8.29167 262.719 7.71875C262.719 6.77083 262.339 6.02083 261.578 5.46875C259.818 4.20833 258.938 2.60938 258.938 0.671875H263.953C264.005 1.72396 264.526 2.72917 265.516 3.6875C266.641 4.92708 267.208 6.16146 267.219 7.39062C267.198 8.06771 267.078 8.77083 266.859 9.5C269.891 11.0417 271.406 13.9896 271.406 18.3438C271.406 24.4167 268.958 27.4531 264.062 27.4531C259.021 27.4531 256.5 24.4271 256.5 18.375ZM261.469 18.375C261.469 22.0938 262.333 23.9531 264.062 23.9531C265.646 23.9531 266.438 22.0938 266.438 18.375C266.438 14.5938 265.625 12.599 264 12.3906C262.312 12.599 261.469 14.5938 261.469 18.375ZM274.531 17.75C274.531 12.0417 277.016 9.1875 281.984 9.1875C286.953 9.1875 289.438 12.0573 289.438 17.7969C289.438 20.474 288.859 23.5365 287.703 26.9844H282.625C283.854 23.6719 284.469 20.6094 284.469 17.7969C284.469 14.3906 283.641 12.6875 281.984 12.6875C280.328 12.6875 279.5 14.4062 279.5 17.8438C279.5 20.6458 280.104 23.6979 281.312 27H276.234C275.672 25.25 275.245 23.6094 274.953 22.0781C274.672 20.5469 274.531 19.1042 274.531 17.75Z" fill="#717276"/>
</svg>
