<svg width="123" height="18" viewBox="0 0 123 18" fill="none" xmlns="http://www.w3.org/2000/svg">
<path d="M0.628906 5.14062V4.33203C0.628906 4.21484 0.636719 4.11719 0.652344 4.03906C0.667969 3.97656 0.675781 3.90625 0.675781 3.82812C0.722656 3.46875 0.804688 3.15625 0.921875 2.89062C1.22656 2.20312 1.72266 1.68359 2.41016 1.33203C2.80078 1.12891 3.27344 1 3.82812 0.945312C4.10938 0.914062 4.35547 0.898438 4.56641 0.898438C4.83203 0.898438 5.11328 0.921875 5.41016 0.96875C6.40234 1.15625 7.28125 1.76562 8.04688 2.79688C8.42188 3.33594 8.73438 3.93359 8.98438 4.58984C9.22656 5.32422 9.43359 6.01172 9.60547 6.65234C9.84766 8.05859 9.96875 8.77344 9.96875 8.79688C9.96875 8.8125 9.97266 8.83203 9.98047 8.85547C9.98828 8.87891 9.99219 8.89844 9.99219 8.91406C10.0781 9.46875 10.1484 10.0859 10.2031 10.7656V11.3867C10.2578 11.6055 10.2852 11.8125 10.2852 12.0078C10.2852 12.1797 10.2266 12.3398 10.1094 12.4883C10.0625 12.8789 9.98438 13.2539 9.875 13.6133C9.58594 14.707 9.09766 15.5312 8.41016 16.0859C8.01953 16.3906 7.5625 16.6719 7.03906 16.9297C6.90625 17.0078 6.67578 17.0781 6.34766 17.1406C6.08203 17.2031 5.76953 17.2461 5.41016 17.2695C4.06641 17.3164 2.95312 16.9688 2.07031 16.2266C1.14062 15.4688 0.675781 14.3516 0.675781 12.875C0.675781 12.0547 0.820312 11.3008 1.10938 10.6133C1.29688 10.168 1.57812 9.76172 1.95312 9.39453C2.32812 9.01953 2.75 8.72266 3.21875 8.50391C4.17969 8.03516 5.15625 7.83594 6.14844 7.90625C6.72656 7.96094 7.18359 8.05469 7.51953 8.1875C7.90234 8.34375 8.25391 8.51953 8.57422 8.71484V8.69141C8.46484 8.00391 8.32031 7.30078 8.14062 6.58203V6.60547C7.89844 5.76953 7.66016 5.06641 7.42578 4.49609H7.44922C7.39453 4.44141 7.36328 4.40234 7.35547 4.37891C7.34766 4.36328 7.33594 4.32812 7.32031 4.27344L7.28516 4.17969L7.08594 3.82812L6.85156 3.46484C6.82031 3.46484 6.80469 3.43359 6.80469 3.37109C6.75 3.31641 6.71484 3.27344 6.69922 3.24219C6.59766 3.07812 6.44531 2.91016 6.24219 2.73828C6.22656 2.72266 6.1875 2.69141 6.125 2.64453C6.10938 2.62891 6.08594 2.61328 6.05469 2.59766C6.04688 2.59766 6.02734 2.58984 5.99609 2.57422C5.96484 2.55859 5.94531 2.55078 5.9375 2.55078L5.77344 2.43359C5.73438 2.43359 5.69922 2.41797 5.66797 2.38672C5.66016 2.38672 5.64453 2.38281 5.62109 2.375C5.59766 2.36719 5.58203 2.36328 5.57422 2.36328C5.54297 2.33203 5.40625 2.30078 5.16406 2.26953L4.97656 2.1875H4.78906C4.50781 2.16406 4.22656 2.16406 3.94531 2.1875C3.9375 2.1875 3.92188 2.19141 3.89844 2.19922C3.88281 2.20703 3.86719 2.21094 3.85156 2.21094C3.78125 2.21094 3.73828 2.21875 3.72266 2.23438C3.70703 2.23438 3.62109 2.25391 3.46484 2.29297L3.32422 2.33984H3.34766L3.125 2.41016V2.38672L3.05469 2.45703C3.04688 2.45703 3.03125 2.46094 3.00781 2.46875C2.98438 2.47656 2.96875 2.48047 2.96094 2.48047L2.82031 2.57422L2.59766 2.69141V2.66797L2.52734 2.73828H2.55078C2.51953 2.82422 2.44922 2.89062 2.33984 2.9375V2.91406C2.32422 2.92969 2.31641 2.95312 2.31641 2.98438L2.21094 3.10156L2.09375 3.27734L2.11719 3.24219C2.11719 3.25 2.10938 3.26953 2.09375 3.30078C2.07812 3.32422 2.07031 3.33984 2.07031 3.34766C2.0625 3.35547 2.05859 3.37109 2.05859 3.39453C2.05859 3.41016 2.05469 3.42578 2.04688 3.44141C2.04688 3.48828 2.03906 3.51172 2.02344 3.51172L1.92969 3.67578V3.78125C1.89844 3.8125 1.88281 3.84375 1.88281 3.875L1.8125 4.26172C1.8125 4.38672 1.80469 4.46484 1.78906 4.49609V5.23438C1.78906 5.25 1.79297 5.27344 1.80078 5.30469C1.80859 5.33594 1.8125 5.35547 1.8125 5.36328C1.8125 5.42578 1.82031 5.48047 1.83594 5.52734V5.69141C1.84375 5.86328 1.78906 6.01172 1.67188 6.13672C1.55469 6.26172 1.41797 6.32422 1.26172 6.32422C1.10547 6.32422 0.976562 6.26172 0.875 6.13672C0.773438 6.01172 0.714844 5.85547 0.699219 5.66797C0.683594 5.63672 0.675781 5.56641 0.675781 5.45703C0.675781 5.44922 0.671875 5.43359 0.664062 5.41016C0.65625 5.38672 0.652344 5.37109 0.652344 5.36328V5.26953C0.652344 5.21484 0.644531 5.17188 0.628906 5.14062ZM0.722656 5.59766C0.730469 5.46484 0.792969 5.35547 0.910156 5.26953C1.02734 5.18359 1.16016 5.14062 1.30859 5.14062V5.33984C1.07422 5.35547 0.921875 5.46484 0.851562 5.66797L0.722656 5.59766ZM2.16406 12.6523C2.16406 12.9492 2.17188 13.168 2.1875 13.3086V13.4492C2.1875 13.4805 2.19531 13.5117 2.21094 13.543C2.21094 13.5977 2.23047 13.6445 2.26953 13.6836C2.30078 13.8867 2.34766 14.0469 2.41016 14.1641C2.41016 14.2344 2.42578 14.2773 2.45703 14.293L2.50391 14.4102L2.55078 14.5039V14.4805L2.66797 14.6445L2.73828 14.7969H2.71484L2.82031 14.8906C2.83594 14.8906 2.85156 14.8984 2.86719 14.9141L3.03125 15.1016L3.19531 15.2422L3.32422 15.3477L3.30078 15.3242C3.30859 15.3242 3.32812 15.332 3.35938 15.3477C3.39062 15.3633 3.41016 15.3711 3.41797 15.3711L3.48828 15.418C3.51953 15.4492 3.55078 15.4648 3.58203 15.4648L3.60547 15.4883L3.74609 15.5C3.76172 15.5078 3.77344 15.5117 3.78125 15.5117C3.85938 15.5273 3.97656 15.5586 4.13281 15.6055C4.29688 15.6523 4.41797 15.6836 4.49609 15.6992C4.55859 15.6992 4.60547 15.707 4.63672 15.7227H4.8125C4.97656 15.7461 5.12891 15.7578 5.26953 15.7578H5.64453C5.69141 15.7344 5.76562 15.7227 5.86719 15.7227C5.89844 15.7227 5.92188 15.7148 5.9375 15.6992C6.03125 15.6836 6.27734 15.6289 6.67578 15.5352C6.69141 15.5273 6.71094 15.5117 6.73438 15.4883C6.76562 15.4648 6.78906 15.4492 6.80469 15.4414L7.03906 15.3477C7.19531 15.2695 7.30078 15.2031 7.35547 15.1484C7.37109 15.1484 7.39453 15.1328 7.42578 15.1016L7.49609 15.0547L7.44922 15.0781L7.85938 14.668L7.95312 14.5508L7.92969 14.5742C7.92969 14.5664 7.9375 14.543 7.95312 14.5039C7.96875 14.4648 7.97656 14.4414 7.97656 14.4336C8.00781 14.3867 8.0625 14.2891 8.14062 14.1406L8.1875 14.0469L8.31641 13.8828L8.33984 13.8125C8.33984 13.7422 8.35547 13.6914 8.38672 13.6602L8.48047 13.4023C8.55859 13.2461 8.59766 13.125 8.59766 13.0391L8.66797 12.8047V12.8281L8.73828 12.4414C8.76172 12.418 8.77344 12.3867 8.77344 12.3477C8.71875 12.1836 8.69141 12.0703 8.69141 12.0078C8.69141 11.8906 8.68359 11.8008 8.66797 11.7383C8.64453 11.5352 8.58203 11.3047 8.48047 11.0469L8.43359 10.9297V10.9531L8.31641 10.6836L8.16406 10.4961C8.13281 10.4648 8.11719 10.4258 8.11719 10.3789L7.97656 10.2617L7.70703 9.99219C7.65234 9.99219 7.61328 9.96875 7.58984 9.92188V9.94531L7.42578 9.85156L7.15625 9.69922L7.10938 9.67578C7.07812 9.67578 7.05469 9.66797 7.03906 9.65234C6.97656 9.65234 6.9375 9.63672 6.92188 9.60547L6.65234 9.53516L6.24219 9.46484C5.85938 9.43359 5.51562 9.43359 5.21094 9.46484L4.49609 9.58203L4.13281 9.67578L4.01562 9.75781L3.89844 9.80469H3.92188C3.65625 9.95312 3.45703 10.0859 3.32422 10.2031C3.31641 10.2031 3.30078 10.207 3.27734 10.2148C3.26172 10.2227 3.25 10.2266 3.24219 10.2266L2.96094 10.4961V10.4727L2.89062 10.543H2.91406L2.69141 10.9062L2.59766 11.0938C2.54297 11.1562 2.50391 11.2148 2.48047 11.2695C2.46484 11.2852 2.45703 11.3242 2.45703 11.3867L2.23438 12.0547L2.22266 12.0898C2.21484 12.1133 2.21094 12.1406 2.21094 12.1719L2.1875 12.3242C2.1875 12.3398 2.18359 12.3594 2.17578 12.3828C2.16797 12.3984 2.16406 12.4102 2.16406 12.418V12.6523ZM8.36328 13.7305L8.41016 13.6602C8.64453 13.4258 8.76562 13.3242 8.77344 13.3555C8.77344 13.3867 8.69141 13.5625 8.52734 13.8828L8.36328 13.7305ZM13.6836 11.6211C13.6836 11.1055 13.7344 10.5625 13.8359 9.99219C13.8359 9.84375 13.918 9.73047 14.082 9.65234C14.2461 9.56641 14.418 9.53516 14.5977 9.55859C14.8398 9.63672 14.9609 9.82031 14.9609 10.1094V10.5664C14.9609 11.3711 14.9766 11.9648 15.0078 12.3477V12.3242C15.0234 12.3555 15.0312 12.4102 15.0312 12.4883C15.0312 12.5039 15.0234 12.5195 15.0078 12.5352C15.0078 12.5664 15.0234 12.5977 15.0547 12.6289L15.125 13.0156L15.2773 13.6367L15.3242 13.7656V13.7305L15.418 13.9766L15.6289 14.457H15.6055L15.6758 14.5742L15.7812 14.6914L15.8281 14.7148L16.1328 15.1016H16.1094L16.3555 15.3008C16.3555 15.2852 16.3711 15.2773 16.4023 15.2773C16.5039 15.3633 16.6406 15.4414 16.8125 15.5117L16.8828 15.582L16.9766 15.6289C16.9922 15.6445 17.0234 15.6523 17.0703 15.6523L17.3633 15.7578C17.3789 15.7734 17.4336 15.7812 17.5273 15.7812C17.5352 15.7812 17.5508 15.7852 17.5742 15.793C17.5977 15.8008 17.6211 15.8047 17.6445 15.8047H18.125L18.1953 15.7812C18.25 15.7812 18.3086 15.7734 18.3711 15.7578L18.7227 15.6289H18.6992L18.875 15.582L18.9453 15.5352L19.3086 15.3945L19.4258 15.3477H19.4023L19.6836 15.1719V15.1953L19.8125 15.0781L19.8828 15.0078C20.1797 14.75 20.3945 14.543 20.5273 14.3867H20.5039L20.7969 14.0469L20.8438 13.9766L20.9375 13.9062C20.9375 13.8984 20.9453 13.8789 20.9609 13.8477C20.9766 13.8164 20.9844 13.7969 20.9844 13.7891C21.2422 13.3828 21.4102 13.0938 21.4883 12.9219L21.6289 12.6523C21.6289 12.6211 21.6445 12.5742 21.6758 12.5117C21.7305 12.4336 21.7891 12.2891 21.8516 12.0781C21.9531 11.7266 22.0234 11.4453 22.0625 11.2344C22.0781 11.1094 22.0859 10.8867 22.0859 10.5664V10.0156C22.0703 9.98438 22.0625 9.95312 22.0625 9.92188C21.9844 9.49219 21.8984 9.14844 21.8047 8.89062C21.7891 8.84375 21.7812 8.8125 21.7812 8.79688C21.7734 8.75781 21.75 8.69922 21.7109 8.62109C21.6797 8.54297 21.6602 8.49609 21.6523 8.48047L21.6055 8.38672V8.41016L21.5352 8.23438L21.4883 8.09375V8.11719C21.4258 7.99219 21.3633 7.89844 21.3008 7.83594L21.1953 7.61328H21.2188L20.9844 7.35547L20.7383 7.13281L20.5039 6.875L20.3164 6.67578C20.3086 6.67578 20.2852 6.66797 20.2461 6.65234C20.2148 6.63672 20.1953 6.62891 20.1875 6.62891C20.1562 6.61328 20.1172 6.59766 20.0703 6.58203C19.7734 6.34766 19.2852 6.02734 18.6055 5.62109C18.1602 5.35547 17.7305 4.93359 17.3164 4.35547C17.0039 3.91016 16.7227 3.36328 16.4727 2.71484C16.3242 2.22266 16.25 1.80859 16.25 1.47266C16.25 1.16016 16.293 0.878906 16.3789 0.628906C16.4414 0.480469 16.5469 0.359375 16.6953 0.265625C16.8516 0.164062 17.0156 0.140625 17.1875 0.195312C17.5156 0.289062 17.6914 0.515625 17.7148 0.875V0.992188L17.7383 1.10938V1.20312C17.7383 1.23438 17.75 1.26172 17.7734 1.28516C17.7734 1.31641 17.7773 1.35937 17.7852 1.41406C17.793 1.46875 17.7969 1.51172 17.7969 1.54297C17.8359 1.77734 17.9219 2.07422 18.0547 2.43359H18.0312L18.1484 2.59766C18.2031 2.77734 18.293 2.94531 18.418 3.10156L18.7461 3.55859L19.2031 4.0625H19.1797L19.3086 4.13281V4.10938L19.543 4.26172C19.6758 4.34766 19.7734 4.40234 19.8359 4.42578C20.9297 5.12891 21.7266 5.77734 22.2266 6.37109H22.2031C22.4922 6.66016 22.7031 6.9375 22.8359 7.20312C22.8672 7.28906 22.9375 7.48047 23.0469 7.77734C23.1562 8.06641 23.2305 8.26953 23.2695 8.38672C23.5039 9.08203 23.6211 9.80078 23.6211 10.543C23.5977 11.9805 23.125 13.3398 22.2031 14.6211C21.1406 15.8633 20.1328 16.6562 19.1797 17C18.5703 17.2109 17.9336 17.2656 17.2695 17.1641C16.9883 17.125 16.6758 17.0234 16.332 16.8594L15.9219 16.6133L15.6758 16.4023L15.582 16.332L15.6055 16.3555C15.5977 16.3555 15.582 16.3477 15.5586 16.332C15.5352 16.3164 15.5195 16.3086 15.5117 16.3086C14.7539 15.7148 14.2266 14.8906 13.9297 13.8359C13.7656 13 13.6836 12.2617 13.6836 11.6211ZM26.6445 5.1875C26.6758 4.79688 26.7227 4.49609 26.7852 4.28516V4.30859L26.8555 4.01562L26.9023 3.92188C26.9023 3.89062 26.9258 3.85156 26.9727 3.80469H26.9492L26.9727 3.75781C26.9727 3.70312 26.9883 3.66016 27.0195 3.62891L26.9961 3.65234C26.9961 3.62109 27.0195 3.58203 27.0664 3.53516H27.043C27.3477 2.87891 27.6602 2.35938 27.9805 1.97656C28.2617 1.625 28.6094 1.34766 29.0234 1.14453C29.4453 0.933594 29.875 0.851562 30.3125 0.898438C31.1016 1 31.8945 1.42188 32.6914 2.16406C33.0977 2.57031 33.4805 3.01953 33.8398 3.51172L34.1562 2.71484C34.375 2.23828 34.6758 1.82031 35.0586 1.46094C35.4492 1.10156 35.8828 0.867187 36.3594 0.757812C36.6797 0.6875 36.9023 0.652344 37.0273 0.652344C37.7852 0.652344 38.5781 0.996094 39.4062 1.68359C40.5156 2.71484 41.1719 3.83594 41.375 5.04688C41.4219 5.39062 41.4453 5.71875 41.4453 6.03125C41.4453 6.89062 41.293 7.69141 40.9883 8.43359C40.6133 9.35547 40.0703 10.1953 39.3594 10.9531C39.2422 11.0625 39.0898 11.1094 38.9023 11.0938C38.7227 11.0781 38.5625 11 38.4219 10.8594C38.2969 10.7031 38.2305 10.5312 38.2227 10.3438C38.2148 10.1562 38.2812 9.98438 38.4219 9.82812L38.4688 9.78125C38.4688 9.77344 38.4766 9.75 38.4922 9.71094C38.5078 9.66406 38.5156 9.63672 38.5156 9.62891C38.5703 9.62891 38.6289 9.59766 38.6914 9.53516C38.6914 9.52734 38.6992 9.51562 38.7148 9.5C38.7305 9.48438 38.7383 9.47266 38.7383 9.46484C38.8945 9.27734 39.0156 9.10156 39.1016 8.9375L39.4297 8.33984V8.36328C39.4297 8.34766 39.4453 8.32422 39.4766 8.29297C39.4766 8.25391 39.4922 8.21094 39.5234 8.16406C39.5234 8.11719 39.5391 8.07812 39.5703 8.04688C39.5703 8.00781 39.5898 7.96875 39.6289 7.92969C39.6289 7.89844 39.6367 7.875 39.6523 7.85938C39.6523 7.85156 39.6562 7.83594 39.6641 7.8125C39.6719 7.78906 39.6758 7.77344 39.6758 7.76562L39.8867 7.0625V7.08594L39.957 6.67578V6.58203C39.9727 6.53516 39.9805 6.50391 39.9805 6.48828C40.0039 6.22266 40.0039 5.95703 39.9805 5.69141C39.9805 5.58203 39.9727 5.49609 39.957 5.43359V5.45703C39.9258 5.39453 39.9102 5.33203 39.9102 5.26953C39.8945 5.23828 39.8867 5.14844 39.8867 5L39.8398 4.83594V4.85938L39.6992 4.42578H39.7227C39.6758 4.40234 39.6523 4.37891 39.6523 4.35547C39.4414 3.94141 39.2891 3.67578 39.1953 3.55859L39.0195 3.37109L38.9961 3.32422C38.9336 3.29297 38.8789 3.21094 38.832 3.07812L38.6914 2.91406V2.9375L38.4922 2.82031C38.4375 2.78906 38.3906 2.73828 38.3516 2.66797L38.3281 2.59766L38.2344 2.52734L38.1172 2.45703V2.48047L37.7539 2.26953C37.7305 2.26953 37.6992 2.25 37.6602 2.21094C37.6445 2.19531 37.6172 2.1875 37.5781 2.1875L37.2734 2.09375C37.2578 2.07813 37.2188 2.07031 37.1562 2.07031C37.0625 2.04688 36.9492 2.04688 36.8164 2.07031C36.8086 2.07031 36.7969 2.07422 36.7812 2.08203C36.7734 2.08984 36.7617 2.09375 36.7461 2.09375L36.5234 2.16406L36.4883 2.17578C36.4648 2.18359 36.4375 2.1875 36.4062 2.1875L36.2891 2.26953L36.2188 2.31641C36.1875 2.34766 36.1641 2.36328 36.1484 2.36328L36.043 2.45703C36.0352 2.45703 36.0195 2.48047 35.9961 2.52734L35.7383 2.73828L35.668 2.84375C35.6523 2.85937 35.6445 2.89062 35.6445 2.9375C35.4961 3.14844 35.3672 3.36328 35.2578 3.58203C35.2578 3.63672 35.2422 3.69531 35.2109 3.75781L35.0586 4.15625C35.0117 4.28906 34.9727 4.53125 34.9414 4.88281L34.9297 4.94141C34.9219 4.98047 34.918 5.01562 34.918 5.04688C34.9023 5.09375 34.8945 5.14844 34.8945 5.21094C34.8945 5.22656 34.8906 5.25 34.8828 5.28125C34.875 5.3125 34.8711 5.33203 34.8711 5.33984V5.64453C34.8711 5.85547 34.8789 6 34.8945 6.07812C35.0195 6.57031 35.0938 7.05078 35.1172 7.51953C35.1172 7.70703 35.0469 7.87109 34.9062 8.01172C34.7656 8.14453 34.6016 8.21094 34.4141 8.21094C34.2734 8.21094 34.1406 8.16406 34.0156 8.07031C33.8984 7.96875 33.8242 7.84766 33.793 7.70703C33.6523 7.11328 33.5703 6.625 33.5469 6.24219C33.5469 6.23438 33.543 6.22266 33.5352 6.20703C33.5273 6.19141 33.5234 6.17969 33.5234 6.17188V6.19531C33.4453 5.92188 33.3438 5.62891 33.2188 5.31641H33.2422C33.2109 5.30078 33.1953 5.27344 33.1953 5.23438L33.043 4.97656C32.9805 4.80469 32.8867 4.62109 32.7617 4.42578C32.6445 4.22266 32.5391 4.05469 32.4453 3.92188L32.2812 3.67578C32.2812 3.65234 32.2266 3.59766 32.1172 3.51172C31.9531 3.30078 31.75 3.10156 31.5078 2.91406L31.2969 2.69141L31.2031 2.64453L31.0273 2.55078L30.8398 2.43359C30.7773 2.43359 30.7148 2.40234 30.6523 2.33984C30.6367 2.33984 30.6211 2.33203 30.6055 2.31641C30.5195 2.31641 30.4609 2.30078 30.4297 2.26953L30.4531 2.29297C30.4141 2.29297 30.375 2.27344 30.3359 2.23438H30.2422C30.1797 2.21875 30.0898 2.21094 29.9727 2.21094L29.9023 2.23438V2.21094C29.8477 2.26563 29.793 2.29297 29.7383 2.29297C29.7227 2.29297 29.6992 2.30078 29.668 2.31641C29.6133 2.33203 29.5547 2.34766 29.4922 2.36328H29.5156L29.2344 2.52734V2.50391L29.1406 2.57422L29.0586 2.64453C28.9727 2.73047 28.9023 2.77344 28.8477 2.77344H28.9414C28.9414 2.78906 28.918 2.82031 28.8711 2.86719L28.8008 2.98438C28.7461 3.05469 28.668 3.16797 28.5664 3.32422C28.4727 3.48047 28.4219 3.56641 28.4141 3.58203L28.3203 3.72266C28.3203 3.73047 28.3164 3.73828 28.3086 3.74609C28.3086 3.75391 28.3047 3.76562 28.2969 3.78125C28.2891 3.78906 28.2812 3.80469 28.2734 3.82812C28.2734 3.89062 28.2656 3.9375 28.25 3.96875L28.1797 4.17969C28.1797 4.21875 28.1641 4.26953 28.1328 4.33203C28.0391 4.60547 27.9727 4.83594 27.9336 5.02344V5.16406C27.918 5.21094 27.9102 5.26172 27.9102 5.31641V5.66797C27.9102 5.84766 27.918 6.00781 27.9336 6.14844L27.957 6.24219C27.957 6.28125 27.9648 6.30859 27.9805 6.32422C28.0586 6.58203 28.125 6.79688 28.1797 6.96875L28.2734 7.40234C28.2734 7.44922 28.2812 7.48047 28.2969 7.49609C28.2969 7.54297 28.3047 7.57422 28.3203 7.58984C28.3203 7.61328 28.3438 7.63672 28.3906 7.66016C28.5938 8.06641 28.8594 8.51562 29.1875 9.00781H29.1641L29.2344 9.10156L29.3516 9.21875L29.3984 9.30078C29.3984 9.31641 29.4141 9.33984 29.4453 9.37109L29.4688 9.39453C29.4844 9.40234 29.5078 9.42188 29.5391 9.45312C29.5781 9.48438 29.6055 9.50391 29.6211 9.51172C29.7305 9.64453 29.9141 9.82031 30.1719 10.0391L30.5234 10.4023L30.6523 10.4727V10.4492L30.9336 10.6602L31.2266 10.8594H31.2031L31.2969 10.9297L31.4141 11V10.9766L31.8008 11.1641H31.8242C31.8398 11.1875 31.8945 11.2227 31.9883 11.2695L32.2578 11.3398C32.4688 11.4414 32.5977 11.5664 32.6445 11.7148C33.1133 11.7148 33.5742 11.7422 34.0273 11.7969C35.1914 11.9531 36.1992 12.1914 37.0508 12.5117C37.9805 12.9336 38.7266 13.4688 39.2891 14.1172C39.5469 14.4141 39.793 14.8086 40.0273 15.3008C40.1211 15.457 40.1797 15.6406 40.2031 15.8516L40.25 16.0156V15.9922C40.2812 16.0703 40.3125 16.2461 40.3438 16.5195C40.3438 16.6211 40.3281 16.7344 40.2969 16.8594L40.2266 16.8828C40.2266 16.9219 40.2227 16.9805 40.2148 17.0586C40.207 17.1367 40.2031 17.1953 40.2031 17.2344C40.0625 17.375 39.875 17.4375 39.6406 17.4219C39.4062 17.4141 39.2422 17.3281 39.1484 17.1641L39.1016 17.0469C39.0781 17.0234 39.0664 17.0078 39.0664 17C39.0195 16.9531 38.9805 16.832 38.9492 16.6367C38.9492 16.6289 38.9453 16.6172 38.9375 16.6016C38.9297 16.5859 38.9258 16.5742 38.9258 16.5664V16.5898L38.8555 16.4023C38.832 16.2148 38.793 16.0703 38.7383 15.9688H38.7617C38.7305 15.9219 38.707 15.8828 38.6914 15.8516C38.6758 15.8203 38.6484 15.7734 38.6094 15.7109C38.5781 15.6484 38.5391 15.582 38.4922 15.5117C38.4453 15.4414 38.4141 15.3945 38.3984 15.3711C38.375 15.3555 38.3516 15.3398 38.3281 15.3242C38.3125 15.3008 38.3008 15.2812 38.293 15.2656C38.2852 15.2422 38.2734 15.2227 38.2578 15.207C38.25 15.1836 38.2422 15.1641 38.2344 15.1484H38.2578L38.1172 14.9609L37.8711 14.7383L37.6836 14.5508C37.6758 14.5508 37.6562 14.543 37.625 14.5273C37.6016 14.5117 37.5859 14.5039 37.5781 14.5039L37.4609 14.4102C37.3906 14.4102 37.3438 14.3867 37.3203 14.3398L37.2266 14.2695V14.293C37.1016 14.168 36.9258 14.0547 36.6992 13.9531L36.3828 13.8125C36.3359 13.8125 36.3125 13.7969 36.3125 13.7656C36.2656 13.7656 36.2344 13.7461 36.2188 13.707V13.7305C35.9453 13.6211 35.4961 13.4805 34.8711 13.3086C34.4648 13.2305 34.2344 13.1875 34.1797 13.1797L34.1094 13.1562C34.0078 13.1562 33.9492 13.1484 33.9336 13.1328C33.918 13.1328 33.8945 13.1289 33.8633 13.1211C33.8398 13.1133 33.8164 13.1094 33.793 13.1094C33.6992 13.1094 33.6367 13.0938 33.6055 13.0625L33.6289 13.0859C33.0664 13.0312 32.5625 13.0156 32.1172 13.0391C31.6484 13.0391 31.1602 13.0625 30.6523 13.1094H30.3828C30.375 13.1094 30.3477 13.1133 30.3008 13.1211C30.2617 13.1289 30.2188 13.1328 30.1719 13.1328L30.1484 13.1445C30.125 13.1523 30.0977 13.1562 30.0664 13.1562L29.832 13.2031C29.8008 13.2031 29.7617 13.2109 29.7148 13.2266C29.6133 13.2266 29.5156 13.2383 29.4219 13.2617C29.4141 13.2617 29.3984 13.2656 29.375 13.2734C29.3594 13.2812 29.3438 13.2852 29.3281 13.2852C29.1797 13.2852 29.0312 13.2461 28.8828 13.168C28.7344 13.082 28.6445 12.9766 28.6133 12.8516C28.5664 12.6875 28.582 12.5391 28.6602 12.4062C28.7461 12.2734 28.8633 12.1875 29.0117 12.1484C29.4492 12.0391 29.9219 11.9531 30.4297 11.8906C30.2891 11.8047 29.9375 11.5156 29.375 11.0234C28.4609 10.1641 27.7891 9.30078 27.3594 8.43359C26.8203 7.29297 26.582 6.21094 26.6445 5.1875ZM29.7148 13.1328C29.8086 13.0391 29.918 12.9922 30.043 12.9922L29.7148 13.1328ZM30.6523 2.14062C30.7461 2.14062 30.8242 2.15625 30.8867 2.1875L30.7227 2.38672L30.6523 2.14062ZM31.8945 11.4102C31.6992 11.2148 31.6211 11.1133 31.6602 11.1055C31.707 11.0977 31.8398 11.168 32.0586 11.3164L31.8945 11.4102ZM44.9258 11.6211C44.9258 11.1055 44.9766 10.5625 45.0781 9.99219C45.0781 9.84375 45.1602 9.73047 45.3242 9.65234C45.4883 9.56641 45.6602 9.53516 45.8398 9.55859C46.082 9.63672 46.2031 9.82031 46.2031 10.1094V10.5664C46.2031 11.3711 46.2188 11.9648 46.25 12.3477V12.3242C46.2656 12.3555 46.2734 12.4102 46.2734 12.4883C46.2734 12.5039 46.2656 12.5195 46.25 12.5352C46.25 12.5664 46.2656 12.5977 46.2969 12.6289L46.3672 13.0156L46.5195 13.6367L46.5664 13.7656V13.7305L46.6602 13.9766L46.8711 14.457H46.8477L46.918 14.5742L47.0234 14.6914L47.0703 14.7148L47.375 15.1016H47.3516L47.5977 15.3008C47.5977 15.2852 47.6133 15.2773 47.6445 15.2773C47.7461 15.3633 47.8828 15.4414 48.0547 15.5117L48.125 15.582L48.2188 15.6289C48.2344 15.6445 48.2656 15.6523 48.3125 15.6523L48.6055 15.7578C48.6211 15.7734 48.6758 15.7812 48.7695 15.7812C48.7773 15.7812 48.793 15.7852 48.8164 15.793C48.8398 15.8008 48.8633 15.8047 48.8867 15.8047H49.3672L49.4375 15.7812C49.4922 15.7812 49.5508 15.7734 49.6133 15.7578L49.9648 15.6289H49.9414L50.1172 15.582L50.1875 15.5352L50.5508 15.3945L50.668 15.3477H50.6445L50.9258 15.1719V15.1953L51.0547 15.0781L51.125 15.0078C51.4219 14.75 51.6367 14.543 51.7695 14.3867H51.7461L52.0391 14.0469L52.0859 13.9766L52.1797 13.9062C52.1797 13.8984 52.1875 13.8789 52.2031 13.8477C52.2188 13.8164 52.2266 13.7969 52.2266 13.7891C52.4844 13.3828 52.6523 13.0938 52.7305 12.9219L52.8711 12.6523C52.8711 12.6211 52.8867 12.5742 52.918 12.5117C52.9727 12.4336 53.0312 12.2891 53.0938 12.0781C53.1953 11.7266 53.2656 11.4453 53.3047 11.2344C53.3203 11.1094 53.3281 10.8867 53.3281 10.5664V10.0156C53.3125 9.98438 53.3047 9.95312 53.3047 9.92188C53.2266 9.49219 53.1406 9.14844 53.0469 8.89062C53.0312 8.84375 53.0234 8.8125 53.0234 8.79688C53.0156 8.75781 52.9922 8.69922 52.9531 8.62109C52.9219 8.54297 52.9023 8.49609 52.8945 8.48047L52.8477 8.38672V8.41016L52.7773 8.23438L52.7305 8.09375V8.11719C52.668 7.99219 52.6055 7.89844 52.543 7.83594L52.4375 7.61328H52.4609L52.2266 7.35547L51.9805 7.13281L51.7461 6.875L51.5586 6.67578C51.5508 6.67578 51.5273 6.66797 51.4883 6.65234C51.457 6.63672 51.4375 6.62891 51.4297 6.62891C51.3984 6.61328 51.3594 6.59766 51.3125 6.58203C51.0156 6.34766 50.5273 6.02734 49.8477 5.62109C49.4023 5.35547 48.9727 4.93359 48.5586 4.35547C48.2461 3.91016 47.9648 3.36328 47.7148 2.71484C47.5664 2.22266 47.4922 1.80859 47.4922 1.47266C47.4922 1.16016 47.5352 0.878906 47.6211 0.628906C47.6836 0.480469 47.7891 0.359375 47.9375 0.265625C48.0938 0.164062 48.2578 0.140625 48.4297 0.195312C48.7578 0.289062 48.9336 0.515625 48.957 0.875V0.992188L48.9805 1.10938V1.20312C48.9805 1.23438 48.9922 1.26172 49.0156 1.28516C49.0156 1.31641 49.0195 1.35937 49.0273 1.41406C49.0352 1.46875 49.0391 1.51172 49.0391 1.54297C49.0781 1.77734 49.1641 2.07422 49.2969 2.43359H49.2734L49.3906 2.59766C49.4453 2.77734 49.5352 2.94531 49.6602 3.10156L49.9883 3.55859L50.4453 4.0625H50.4219L50.5508 4.13281V4.10938L50.7852 4.26172C50.918 4.34766 51.0156 4.40234 51.0781 4.42578C52.1719 5.12891 52.9688 5.77734 53.4688 6.37109H53.4453C53.7344 6.66016 53.9453 6.9375 54.0781 7.20312C54.1094 7.28906 54.1797 7.48047 54.2891 7.77734C54.3984 8.06641 54.4727 8.26953 54.5117 8.38672C54.7461 9.08203 54.8633 9.80078 54.8633 10.543C54.8398 11.9805 54.3672 13.3398 53.4453 14.6211C52.3828 15.8633 51.375 16.6562 50.4219 17C49.8125 17.2109 49.1758 17.2656 48.5117 17.1641C48.2305 17.125 47.918 17.0234 47.5742 16.8594L47.1641 16.6133L46.918 16.4023L46.8242 16.332L46.8477 16.3555C46.8398 16.3555 46.8242 16.3477 46.8008 16.332C46.7773 16.3164 46.7617 16.3086 46.7539 16.3086C45.9961 15.7148 45.4688 14.8906 45.1719 13.8359C45.0078 13 44.9258 12.2617 44.9258 11.6211ZM57.8867 3.78125C57.9414 3.15625 58.1016 2.65234 58.3672 2.26953C58.6875 1.80859 59.0703 1.45312 59.5156 1.20312C60 0.984375 60.5664 0.851562 61.2148 0.804688C61.7227 0.78125 62.1953 0.851562 62.6328 1.01562C62.8906 1.125 63.1211 1.24609 63.3242 1.37891C63.582 1.56641 63.7773 1.73437 63.9102 1.88281C64.082 2.11719 64.1758 2.33203 64.1914 2.52734C64.332 2.66797 64.4141 2.82813 64.4375 3.00781C64.5078 3.60938 64.4023 4.26562 64.1211 4.97656L64.0273 5.31641L63.957 5.71484C63.668 6.78516 63.418 7.61719 63.207 8.21094C63.5508 8.04688 63.8867 7.94531 64.2148 7.90625C64.5273 7.875 64.7617 7.85938 64.918 7.85938C65.9727 7.85938 66.9062 8.09766 67.7188 8.57422C68.6406 9.13672 69.2734 9.91406 69.6172 10.9062C69.7891 11.4375 69.8867 11.9727 69.9102 12.5117C69.9336 13.0586 69.8906 13.5703 69.7812 14.0469C69.6406 14.7969 69.25 15.4922 68.6094 16.1328C67.7422 16.9062 66.7422 17.293 65.6094 17.293C65.2031 17.293 64.8047 17.2422 64.4141 17.1406C63.6406 16.9453 62.9414 16.5781 62.3164 16.0391C61.6992 15.5 61.2461 14.8672 60.957 14.1406C60.8867 14 60.8359 13.8008 60.8047 13.543C60.7422 13.2617 60.7109 13.0234 60.7109 12.8281C60.7109 12.5703 60.7344 12.3359 60.7812 12.125C60.7812 12.0469 60.7891 12 60.8047 11.9844C60.8047 11.9688 60.8086 11.9492 60.8164 11.9258C60.8242 11.9023 60.8281 11.8828 60.8281 11.8672C60.9922 11.2031 61.1875 10.5234 61.4141 9.82812V9.85156C61.4453 9.6875 61.4766 9.58203 61.5078 9.53516V9.55859L61.6016 9.30078L61.9883 7.90625C62.0586 7.71094 62.1289 7.47656 62.1992 7.20312C61.6289 7.60156 61.0312 7.78906 60.4062 7.76562C59.5938 7.71875 58.9609 7.33984 58.5078 6.62891C58.2969 6.31641 58.1367 5.91797 58.0273 5.43359C57.9805 5.21484 57.9414 4.93359 57.9102 4.58984C57.8711 4.26172 57.8633 3.99219 57.8867 3.78125ZM59.0586 3.96875C59.0586 4.14844 59.0664 4.27734 59.082 4.35547V4.66016C59.082 4.66797 59.0859 4.69531 59.0938 4.74219C59.1016 4.78906 59.1055 4.82812 59.1055 4.85938L59.1172 4.88281C59.125 4.89844 59.1289 4.92188 59.1289 4.95312C59.1289 4.96094 59.1328 4.97266 59.1406 4.98828C59.1484 5.00391 59.1523 5.01562 59.1523 5.02344C59.1758 5.20312 59.2227 5.39453 59.293 5.59766C59.293 5.58203 59.3047 5.58984 59.3281 5.62109C59.3359 5.64453 59.3438 5.66797 59.3516 5.69141H59.3164C59.3398 5.73047 59.3594 5.75781 59.375 5.77344L59.5859 6.125H59.5625L59.7031 6.30078V6.32422C59.7734 6.32422 59.8555 6.34766 59.9492 6.39453C59.9727 6.44141 60.0039 6.46484 60.043 6.46484L60.2305 6.51172H60.3242H60.5H60.6406H60.7812L61.2383 6.41797C61.2852 6.37109 61.3281 6.34766 61.3672 6.34766L61.4609 6.30078H61.4375L61.6016 6.17188V6.19531L61.7188 6.125L61.7891 6.05469L62.1758 5.69141L62.375 5.48047C62.375 5.47266 62.3828 5.45312 62.3984 5.42188C62.4141 5.39062 62.4219 5.37109 62.4219 5.36328L62.7031 4.95312L62.8203 4.78906V4.8125C62.8203 4.80469 62.8281 4.78906 62.8438 4.76562C62.8672 4.73438 62.8789 4.71484 62.8789 4.70703L62.9023 4.56641C62.9492 4.51953 62.9727 4.48047 62.9727 4.44922L63.043 4.15625C63.043 4.07812 63.0508 4.03125 63.0664 4.01562C63.0664 4 63.0703 3.97656 63.0781 3.94531C63.0859 3.91406 63.0898 3.89062 63.0898 3.875C63.1055 3.84375 63.1133 3.80469 63.1133 3.75781V3.65234C63.1133 3.64453 63.1172 3.62891 63.125 3.60547C63.1328 3.58203 63.1367 3.56641 63.1367 3.55859C63.1445 3.55078 63.1602 3.51172 63.1836 3.44141C63.0352 3.36328 62.9336 3.27344 62.8789 3.17188C62.7695 3.03125 62.7695 2.81641 62.8789 2.52734L62.8203 2.50391L62.7266 2.43359C62.6953 2.43359 62.6641 2.41797 62.6328 2.38672L62.5156 2.33984L62.3984 2.29297L62.2461 2.1875C62.2148 2.1875 62.1914 2.17188 62.1758 2.14062V2.16406C62.0352 2.10937 61.8906 2.07031 61.7422 2.04688C61.6484 2.04688 61.5781 2.03906 61.5312 2.02344C61.5156 2.02344 61.4961 2.02734 61.4727 2.03516C61.4492 2.04297 61.4297 2.04688 61.4141 2.04688H61.0039C60.9961 2.04688 60.9805 2.05078 60.957 2.05859C60.9336 2.06641 60.9102 2.07031 60.8867 2.07031C60.8789 2.07031 60.8594 2.07422 60.8281 2.08203C60.7969 2.08984 60.7656 2.09375 60.7344 2.09375L60.5469 2.14062C60.5156 2.17188 60.4844 2.1875 60.4531 2.1875L60.2539 2.26953H60.2305L59.8789 2.41016L59.8203 2.45703L59.7031 2.52734L59.4922 2.77344C59.4297 2.83594 59.3984 2.89062 59.3984 2.9375L59.2227 3.19531C59.2227 3.20312 59.2188 3.22266 59.2109 3.25391C59.2031 3.27734 59.1992 3.29297 59.1992 3.30078L59.1523 3.39453C59.1523 3.40234 59.1484 3.42188 59.1406 3.45312C59.1328 3.48438 59.1289 3.51172 59.1289 3.53516C59.0977 3.59766 59.082 3.65234 59.082 3.69922C59.082 3.70703 59.0781 3.72266 59.0703 3.74609C59.0625 3.76172 59.0586 3.77344 59.0586 3.78125V3.96875ZM59.668 6.32422C59.6758 6.31641 59.6875 6.31641 59.7031 6.32422L59.7734 6.37109L59.7266 6.41797C59.6484 6.36328 59.6289 6.33203 59.668 6.32422ZM61.918 12.8516C61.9336 12.8828 61.9414 12.9609 61.9414 13.0859L62.0117 13.3789L62.1289 13.8125L62.1758 13.9297C62.1758 13.9766 62.207 14.0312 62.2695 14.0938L62.375 14.293V14.2695L62.4922 14.5039H62.4688L62.7266 14.7969C62.7344 14.8125 62.8086 14.8906 62.9492 15.0312L63.0664 15.125L63.207 15.2422V15.2188L63.6172 15.4883C63.7578 15.5195 63.8711 15.5664 63.957 15.6289H64.0039C64.1523 15.6914 64.3203 15.75 64.5078 15.8047L64.9883 15.9453H65.1055C65.1133 15.9453 65.125 15.9492 65.1406 15.957C65.1562 15.9648 65.168 15.9688 65.1758 15.9688H65.9961L66.1367 15.9219H66.1133C66.207 15.8906 66.2695 15.875 66.3008 15.875L66.6406 15.8047C66.6719 15.8047 66.7031 15.7969 66.7344 15.7812C66.75 15.7812 66.7773 15.7773 66.8164 15.7695C66.8633 15.7617 66.8945 15.7578 66.9102 15.7578L66.9805 15.6758L67.4141 15.4883L67.625 15.3477C67.6406 15.3398 67.6797 15.2891 67.7422 15.1953L67.9883 14.9609C67.9883 14.9453 68.0039 14.9062 68.0352 14.8438C68.1055 14.7031 68.1445 14.6289 68.1523 14.6211C68.1523 14.5664 68.2188 14.5039 68.3516 14.4336L68.293 14.4102C68.293 14.3477 68.3008 14.3008 68.3164 14.2695L68.4688 13.8125V13.8359C68.4688 13.8281 68.4727 13.8164 68.4805 13.8008C68.4883 13.7852 68.4922 13.7734 68.4922 13.7656C68.4922 13.7578 68.4961 13.7422 68.5039 13.7188C68.5117 13.6953 68.5156 13.6758 68.5156 13.6602V13.3555C68.5156 13.3477 68.5195 13.332 68.5273 13.3086C68.5352 13.2852 68.5391 13.2695 68.5391 13.2617C68.5625 12.9648 68.5625 12.6992 68.5391 12.4648C68.5391 12.3633 68.5234 12.2656 68.4922 12.1719L68.4688 11.9844V11.8906L68.3164 11.3398L68.293 11.2344C68.2617 11.2344 68.2383 11.1875 68.2227 11.0938C68.2227 11.0312 68.1992 10.9766 68.1523 10.9297C68.1211 10.9141 68.1055 10.8906 68.1055 10.8594L68.0117 10.707H68.0352L67.9648 10.6133L67.8711 10.4961L67.8125 10.3789C67.6953 10.2227 67.6094 10.1172 67.5547 10.0625V10.0859L67.3906 9.96875C67.2109 9.83594 67 9.71484 66.7578 9.60547C66.7266 9.60547 66.6953 9.58984 66.6641 9.55859L66.5938 9.53516C66.5469 9.53516 66.5156 9.52734 66.5 9.51172H66.3828L66.1133 9.41797C65.8711 9.35547 65.7422 9.31641 65.7266 9.30078L65.6094 9.27734C65.5703 9.27734 65.5391 9.26562 65.5156 9.24219H65.4219C65.0703 9.21094 64.8047 9.21094 64.625 9.24219H64.4844L64.4492 9.26562C64.4258 9.27344 64.3984 9.27734 64.3672 9.27734C64.3281 9.28516 64.2695 9.30469 64.1914 9.33594C64.1133 9.36719 64.0664 9.38672 64.0508 9.39453C63.9883 9.39453 63.9336 9.41797 63.8867 9.46484L63.7344 9.51172L63.5469 9.60547L63.3828 9.72266H63.3008L63.1836 9.85156L63.1133 9.89844L63.043 9.96875L62.6562 10.3789H62.6797L62.6094 10.4727C62.5469 10.5352 62.5156 10.5742 62.5156 10.5898C62.4844 10.6289 62.4531 10.6875 62.4219 10.7656V10.7305C62.4219 10.7383 62.4141 10.7539 62.3984 10.7773C62.3828 10.793 62.375 10.8047 62.375 10.8125C62.375 10.8203 62.3711 10.8359 62.3633 10.8594C62.3555 10.8828 62.3516 10.8984 62.3516 10.9062C62.2969 11.0312 62.2617 11.1523 62.2461 11.2695L62.1758 11.5508C62.1758 11.5586 62.1719 11.5703 62.1641 11.5859C62.1562 11.6016 62.1523 11.6133 62.1523 11.6211L62.082 11.9609L62.0117 12.2188C61.9961 12.25 61.9883 12.3008 61.9883 12.3711C61.9883 12.3789 61.9844 12.3984 61.9766 12.4297C61.9688 12.4531 61.9648 12.4727 61.9648 12.4883C61.9648 12.5039 61.957 12.5273 61.9414 12.5586C61.9258 12.5898 61.918 12.6875 61.918 12.8516ZM68.3516 14.4336C68.3828 14.4023 68.3984 14.4023 68.3984 14.4336H68.3516ZM73.2852 7.97656C73.2852 7.13281 73.3164 6.44531 73.3789 5.91406C73.4336 5.13281 73.5625 4.45312 73.7656 3.875C73.9766 3.27344 74.2422 2.72656 74.5625 2.23438C74.8984 1.70313 75.2812 1.26562 75.7109 0.921875C76.1406 0.5625 76.6211 0.3125 77.1523 0.171875C77.3945 0.109375 77.6836 0.078125 78.0195 0.078125C78.3867 0.078125 78.6914 0.117187 78.9336 0.195312C79.4648 0.367188 79.9922 0.691406 80.5156 1.16797C81.0469 1.64453 81.4688 2.15234 81.7812 2.69141C82.25 3.53516 82.5781 4.76172 82.7656 6.37109C82.8438 6.91797 82.8945 7.49219 82.918 8.09375V8.26953C82.918 8.28516 82.9219 8.30859 82.9297 8.33984C82.9375 8.37109 82.9414 8.39453 82.9414 8.41016C82.9727 8.82422 82.9727 9.20703 82.9414 9.55859C82.9023 10.5977 82.707 11.7969 82.3555 13.1562L81.9805 14.5039V14.4805L81.875 14.8203L81.7812 15.125C81.7734 15.1719 81.75 15.2461 81.7109 15.3477C81.6719 15.4492 81.6484 15.5117 81.6406 15.5352L81.5938 15.6992C81.3438 16.4727 81.1445 16.9961 80.9961 17.2695C80.918 17.4414 80.7656 17.5508 80.5391 17.5977C80.3203 17.6445 80.1289 17.6211 79.9648 17.5273C79.6602 17.3555 79.5469 17.082 79.625 16.707C79.7188 16.3398 79.8555 15.8945 80.0352 15.3711L80.1758 14.9609C80.3477 14.4375 80.5234 13.8594 80.7031 13.2266L80.7969 12.875C81.1016 11.5703 81.2852 10.707 81.3477 10.2852L81.3711 10.2266V10.2617L81.4531 9.39453C81.4531 8.95703 81.4453 8.67578 81.4297 8.55078C81.4297 8.52734 81.4219 8.49219 81.4062 8.44531C81.3984 8.39844 81.3945 8.36328 81.3945 8.33984C81.3633 7.33984 81.3008 6.53906 81.207 5.9375C81.168 5.71094 81.0977 5.38281 80.9961 4.95312C80.9961 4.9375 80.9922 4.91016 80.9844 4.87109C80.9766 4.82422 80.9727 4.78906 80.9727 4.76562L80.7969 4.15625H80.8203C80.7578 4.09375 80.7266 4.04688 80.7266 4.01562L80.6562 3.85156C80.6562 3.79688 80.6406 3.73828 80.6094 3.67578L80.1992 2.96094L79.9883 2.59766H80.0117L79.4609 2.04688L79.5078 1.97656C79.4844 1.97656 79.4531 1.96875 79.4141 1.95312C79.375 1.9375 79.3477 1.92969 79.332 1.92969L79.2148 1.83594V1.85938C78.9883 1.70313 78.8594 1.62109 78.8281 1.61328C78.8125 1.61328 78.7969 1.60547 78.7812 1.58984C78.7344 1.58984 78.7109 1.57422 78.7109 1.54297L78.5938 1.51953C78.5469 1.51172 78.4844 1.49219 78.4062 1.46094C78.3281 1.42969 78.2773 1.41016 78.2539 1.40234C78.1133 1.40234 78.0352 1.39453 78.0195 1.37891C77.9883 1.37891 77.9219 1.38281 77.8203 1.39062C77.7266 1.39844 77.6641 1.40234 77.6328 1.40234C77.5859 1.40234 77.5469 1.41016 77.5156 1.42578L77.2695 1.47266C77.2617 1.48047 77.1992 1.50391 77.082 1.54297H77.1055L76.9414 1.63672L76.7188 1.78906L76.6016 1.8125L76.625 1.78906L76.5078 1.88281L76.4375 1.95312L76.2383 2.1875C76.1602 2.26563 76.1133 2.31641 76.0977 2.33984L75.8047 2.64453C75.7891 2.66016 75.7812 2.69141 75.7812 2.73828C75.7344 2.79297 75.6562 2.91406 75.5469 3.10156C75.4219 3.28906 75.2852 3.53125 75.1367 3.82812C75.1367 3.83594 75.1328 3.85547 75.125 3.88672C75.1172 3.91016 75.1133 3.92969 75.1133 3.94531L75.043 4.15625L74.8906 4.56641C74.8281 4.77734 74.7656 5.07422 74.7031 5.45703C74.6719 5.58203 74.6562 5.6875 74.6562 5.77344C74.6406 5.78906 74.6328 5.84375 74.6328 5.9375C74.6016 6.125 74.5859 6.26953 74.5859 6.37109C74.5391 6.78516 74.5156 7.21484 74.5156 7.66016V8.07031C74.5156 8.11719 74.5195 8.18359 74.5273 8.26953C74.5352 8.35547 74.5391 8.41797 74.5391 8.45703C74.5625 9.15234 74.6094 9.84766 74.6797 10.543L74.7266 10.6367C74.7266 10.668 74.7344 10.6992 74.75 10.7305V10.9766C74.75 10.9844 74.7539 11.0039 74.7617 11.0352C74.7695 11.0586 74.7734 11.0781 74.7734 11.0938C74.7734 11.1016 74.7773 11.1211 74.7852 11.1523C74.793 11.1758 74.7969 11.1953 74.7969 11.2109L74.8672 11.5039L75.0664 12.6289C75.3711 14.1211 75.6406 15.2891 75.875 16.1328V16.1094L76.0977 16.9531V16.9766C76.1367 17.125 76.1172 17.2734 76.0391 17.4219C75.9609 17.5703 75.8438 17.6602 75.6875 17.6914H75.7109C75.5625 17.7305 75.4141 17.7109 75.2656 17.6328C75.1172 17.5625 75.0195 17.457 74.9727 17.3164L74.8672 17.0469L74.7969 16.7305V16.7656C74.3984 15.5234 74.0391 14.0664 73.7188 12.3945C73.4531 10.9492 73.3086 9.47656 73.2852 7.97656ZM86.2227 4.66016C86.1992 4.19922 86.2539 3.69531 86.3867 3.14844C86.6055 2.54688 86.8555 2.05859 87.1367 1.68359C87.5273 1.13672 87.918 0.777344 88.3086 0.605469C88.6758 0.496094 89.0195 0.441406 89.3398 0.441406C89.582 0.441406 89.8086 0.464844 90.0195 0.511719C90.6133 0.558594 91.1953 0.726562 91.7656 1.01562C92.0469 1.17187 92.2461 1.30078 92.3633 1.40234L92.4688 1.47266L92.7031 1.66016L92.7969 1.76562V1.73047C92.8125 1.73828 92.8281 1.75781 92.8438 1.78906C92.8594 1.8125 92.875 1.82812 92.8906 1.83594C93.4062 2.35156 93.918 3.05469 94.4258 3.94531C95.2383 5.65625 95.7109 7.67188 95.8438 9.99219C95.8594 10.1328 95.8672 10.4062 95.8672 10.8125C95.8672 11.5469 95.8125 12.2031 95.7031 12.7812C95.6094 13.2656 95.5039 13.6484 95.3867 13.9297C95.2227 14.4922 94.9844 14.9961 94.6719 15.4414C93.9141 16.5117 93.0508 17.1211 92.082 17.2695C91.457 17.3633 90.8242 17.3125 90.1836 17.1172C89.6133 16.9688 89.0938 16.6836 88.625 16.2617C87.8047 15.5664 87.2461 14.6055 86.9492 13.3789C86.8164 12.7852 86.75 12.25 86.75 11.7734C86.75 11.1797 86.832 10.6172 86.9961 10.0859C87.0586 9.91406 87.1797 9.77734 87.3594 9.67578C87.5469 9.56641 87.7461 9.52734 87.957 9.55859C88.1523 9.60547 88.3086 9.73438 88.4258 9.94531C88.5508 10.1562 88.5859 10.3633 88.5312 10.5664C88.4922 10.6523 88.4258 10.8867 88.332 11.2695C88.3008 11.6914 88.3086 12.0664 88.3555 12.3945C88.4023 12.7852 88.5234 13.2305 88.7188 13.7305L88.7891 13.9062L88.9297 14.1875L89.293 14.7734H89.2695L89.4102 14.9375C89.4102 14.9609 89.4766 15.0156 89.6094 15.1016C89.6094 15.1484 89.625 15.1719 89.6562 15.1719C89.6953 15.2109 89.8086 15.2773 89.9961 15.3711C90.1133 15.4492 90.1758 15.4883 90.1836 15.4883C90.2148 15.5039 90.2773 15.5117 90.3711 15.5117C90.4336 15.543 90.4922 15.5586 90.5469 15.5586C90.875 15.6758 91.1055 15.7422 91.2383 15.7578C91.418 15.7578 91.5781 15.7461 91.7188 15.7227C91.7422 15.7148 91.7891 15.707 91.8594 15.6992C91.9297 15.6914 91.9961 15.6836 92.0586 15.6758C92.1211 15.6602 92.168 15.6445 92.1992 15.6289C92.1992 15.5977 92.2305 15.5742 92.293 15.5586V15.582L92.4102 15.5117L92.5156 15.4648H92.4922L92.8672 15.2188L93.2305 14.8438H93.207L93.3242 14.668C93.457 14.4961 93.5625 14.3281 93.6406 14.1641C93.6406 14.1328 93.6719 14.0859 93.7344 14.0234H93.7109L93.8281 13.7891C93.8281 13.7812 93.8594 13.7148 93.9219 13.5898C93.9219 13.5508 93.957 13.4961 94.0273 13.4258H94.0039C94.1445 13.0586 94.2383 12.6992 94.2852 12.3477L94.3086 12.2773C94.3398 12.1523 94.3555 12.0469 94.3555 11.9609V11.8203C94.3555 11.8047 94.3594 11.7773 94.3672 11.7383C94.375 11.6992 94.3789 11.668 94.3789 11.6445C94.3789 11.4883 94.3867 11.3789 94.4023 11.3164C94.4023 10.4648 94.3945 9.98438 94.3789 9.875C94.3477 9.78125 94.332 9.66797 94.332 9.53516C94.3164 9.48828 94.3086 9.36719 94.3086 9.17188C94.3086 9.07812 94.293 8.96875 94.2617 8.84375V8.73828C94.2617 8.73047 94.2578 8.71484 94.25 8.69141C94.2422 8.66797 94.2383 8.65234 94.2383 8.64453V8.55078C94.168 8.04297 94.0742 7.53906 93.957 7.03906C93.9023 6.71875 93.7578 6.26953 93.5234 5.69141L93.4766 5.55078L93.3945 5.31641L93.3242 5.11719L93.2773 4.95312C93.2148 4.89062 93.1836 4.84375 93.1836 4.8125V4.78906L93.043 4.49609C92.9023 4.16016 92.7109 3.81641 92.4688 3.46484C92.4141 3.44141 92.3711 3.39453 92.3398 3.32422H92.3633C92.3164 3.30078 92.293 3.25 92.293 3.17188L92.3164 3.19531L92.2227 3.07812V3.10156L91.7891 2.69141C91.7578 2.69141 91.7266 2.67578 91.6953 2.64453C91.5859 2.55859 91.4883 2.49609 91.4023 2.45703C91.3398 2.41797 91.2305 2.36328 91.0742 2.29297C90.9258 2.22266 90.8359 2.17969 90.8047 2.16406C90.7969 2.16406 90.7852 2.15625 90.7695 2.14062C90.7539 2.125 90.7422 2.11719 90.7344 2.11719V2.09375C90.7031 2.09375 90.6719 2.07813 90.6406 2.04688C90.5938 2.04688 90.5625 2.03906 90.5469 2.02344C90.4688 2.02344 90.418 2 90.3945 1.95312V1.97656C90.3008 1.92969 90.1758 1.89063 90.0195 1.85938C89.8086 1.8125 89.6797 1.78125 89.6328 1.76562L89.5859 1.73047H89.3867C89.3164 1.69922 89.2148 1.69922 89.082 1.73047C89.0898 1.73828 89.0898 1.74609 89.082 1.75391C89.0742 1.76172 89.0508 1.77344 89.0117 1.78906C88.9805 1.80469 88.9492 1.81641 88.918 1.82422C88.8945 1.83203 88.8594 1.84375 88.8125 1.85938L88.6953 1.90625L88.625 1.95312C88.5625 2.03125 88.4414 2.16016 88.2617 2.33984H88.2852C88.1758 2.48047 88.0469 2.6875 87.8984 2.96094L87.8047 3.14844C87.7891 3.21094 87.7578 3.26172 87.7109 3.30078L87.6875 3.34766C87.6719 3.36328 87.6641 3.39453 87.6641 3.44141C87.6641 3.44922 87.6602 3.46484 87.6523 3.48828C87.6445 3.50391 87.6406 3.51953 87.6406 3.53516C87.5625 3.72266 87.5 3.97266 87.4531 4.28516C87.4531 4.29297 87.4453 4.3125 87.4297 4.34375C87.4219 4.375 87.418 4.40234 87.418 4.42578C87.418 4.52734 87.4297 4.64844 87.4531 4.78906C87.4531 4.82031 87.4609 4.84375 87.4766 4.85938C87.4766 4.90625 87.4844 4.95312 87.5 5L87.5469 5.02344C87.6406 5.17188 87.6602 5.33203 87.6055 5.50391C87.5586 5.66797 87.457 5.79688 87.3008 5.89062C87.1523 5.98438 86.9961 6.00781 86.832 5.96094C86.668 5.90625 86.5391 5.80078 86.4453 5.64453C86.3203 5.35547 86.2461 5.02734 86.2227 4.66016ZM99.2773 11.0234C99.332 10.6016 99.4844 10.0977 99.7344 9.51172C99.8281 9.35547 100.07 9.05078 100.461 8.59766C100.328 8.23047 100.438 7.93359 100.789 7.70703H100.871L101.105 7.49609L101.223 7.42578C101.355 7.33984 101.5 7.27344 101.656 7.22656L101.879 7.13281C102.324 7.00781 102.707 6.92969 103.027 6.89844C103.035 6.89844 103.051 6.89453 103.074 6.88672C103.098 6.87891 103.113 6.875 103.121 6.875H103.191V6.53516L103.262 5.69141C103.277 5.62891 103.285 5.35938 103.285 4.88281C103.27 4.86719 103.262 4.85156 103.262 4.83594C103.23 4.74219 103.215 4.66016 103.215 4.58984C103.184 4.55859 103.168 4.53516 103.168 4.51953V4.54297C103.168 4.51172 103.152 4.44922 103.121 4.35547L103.051 4.26172V4.28516C102.988 4.25391 102.914 4.17969 102.828 4.0625L102.781 3.96875L102.641 3.89844L102.324 3.67578H102.359C102.352 3.67578 102.336 3.67188 102.312 3.66406C102.297 3.65625 102.285 3.65234 102.277 3.65234C102.215 3.65234 102.168 3.64453 102.137 3.62891H102.16L101.703 3.55859C101.641 3.55859 101.602 3.55078 101.586 3.53516C101.57 3.53516 101.551 3.53125 101.527 3.52344C101.512 3.51562 101.5 3.51172 101.492 3.51172L101.223 3.48828L101.316 4.90625C101.316 4.91406 101.32 4.92969 101.328 4.95312C101.336 4.96875 101.34 4.98438 101.34 5L101.422 5.29297C101.422 5.32422 101.43 5.35547 101.445 5.38672C101.445 5.46484 101.461 5.51953 101.492 5.55078C101.523 5.71484 101.531 5.86719 101.516 6.00781C101.484 6.20312 101.363 6.33984 101.152 6.41797C100.941 6.49609 100.758 6.49609 100.602 6.41797C100.375 6.27734 100.215 5.99609 100.121 5.57422C100.066 5.28516 100.027 5.03906 100.004 4.83594C99.9727 4.54688 99.9414 4.06641 99.9102 3.39453V2.9375C99.9102 2.03125 99.8828 1.27734 99.8281 0.675781C99.8203 0.542969 99.8789 0.421875 100.004 0.3125C100.129 0.203125 100.273 0.148438 100.438 0.148438C100.547 0.148438 100.656 0.1875 100.766 0.265625C100.875 0.34375 100.949 0.433594 100.988 0.535156C101.082 0.769531 101.145 1.21094 101.176 1.85938V2.23438H101.34C101.457 2.25781 101.586 2.26953 101.727 2.26953C102.109 2.30078 102.391 2.33984 102.57 2.38672C102.898 2.48047 103.219 2.64063 103.531 2.86719C103.852 3.08594 104.105 3.32422 104.293 3.58203C104.645 4.15234 104.781 4.81641 104.703 5.57422L104.633 6.46484V6.69922L104.621 6.75781C104.613 6.78906 104.617 6.8125 104.633 6.82812C105.141 6.875 105.574 6.96094 105.934 7.08594C106.902 7.41406 107.719 7.91016 108.383 8.57422C109.086 9.30078 109.531 10.1406 109.719 11.0938C109.797 11.4141 109.836 11.8164 109.836 12.3008C109.836 13.082 109.695 13.793 109.414 14.4336C109 15.3477 108.293 16.0742 107.293 16.6133C106.301 17.1445 105.285 17.3789 104.246 17.3164C103.582 17.2617 103.023 17.125 102.57 16.9062C102.219 16.7344 101.793 16.3984 101.293 15.8984C100.863 15.4688 100.477 14.9727 100.133 14.4102C99.7969 13.8398 99.5625 13.2891 99.4297 12.7578C99.2656 12.1172 99.2148 11.5391 99.2773 11.0234ZM100.484 11.7148L100.508 11.8438V11.9375C100.508 11.9922 100.539 12.0703 100.602 12.1719C100.672 12.4688 100.75 12.75 100.836 13.0156C100.836 13.0234 100.84 13.0312 100.848 13.0391C100.855 13.0469 100.863 13.0625 100.871 13.0859C100.887 13.1016 100.902 13.1172 100.918 13.1328C100.918 13.1875 100.934 13.2305 100.965 13.2617L101.012 13.332V13.3086L101.082 13.4727C101.121 13.6055 101.184 13.7109 101.27 13.7891C101.309 13.8672 101.406 14.0156 101.562 14.2344L101.656 14.3867L101.797 14.5977L101.902 14.6914H101.879L102.16 14.9844V14.9609C102.199 14.9922 102.238 15.0312 102.277 15.0781C102.324 15.125 102.367 15.1641 102.406 15.1953L102.594 15.418C102.594 15.4336 102.633 15.4414 102.711 15.4414L103.121 15.6055H103.145L103.508 15.7227H103.484L103.602 15.7812C103.609 15.7812 103.625 15.7852 103.648 15.793C103.672 15.8008 103.688 15.8047 103.695 15.8047C103.711 15.8203 103.742 15.8281 103.789 15.8281L103.836 15.8398C103.867 15.8477 103.895 15.8516 103.918 15.8516H104.035C104.113 15.8672 104.227 15.875 104.375 15.875C104.531 15.8906 104.754 15.8828 105.043 15.8516H105.113C105.129 15.8516 105.152 15.8438 105.184 15.8281C105.246 15.8281 105.285 15.8203 105.301 15.8047C105.355 15.8047 105.398 15.7969 105.43 15.7812C105.445 15.7812 105.492 15.7617 105.57 15.7227L105.758 15.6758L105.887 15.6289H105.863L106.074 15.5352L106.191 15.5117H106.168C106.316 15.4648 106.453 15.4023 106.578 15.3242L106.719 15.2422L107.035 15.0078H107.105L107.176 14.9609C107.449 14.6875 107.609 14.5195 107.656 14.457L107.727 14.3633C107.727 14.3555 107.734 14.3359 107.75 14.3047C107.766 14.2656 107.773 14.2422 107.773 14.2344L107.926 14.0234C107.926 13.9922 107.941 13.9531 107.973 13.9062C108.02 13.7656 108.066 13.6602 108.113 13.5898C108.113 13.543 108.129 13.5039 108.16 13.4727L108.254 13.0859C108.254 13.0391 108.262 13 108.277 12.9688V12.9922C108.277 12.9844 108.281 12.9688 108.289 12.9453C108.297 12.9141 108.301 12.8906 108.301 12.875C108.355 12.4844 108.355 12.0898 108.301 11.6914C108.238 11.2852 108.152 10.9648 108.043 10.7305L107.973 10.5898L107.82 10.332L107.656 10.0391H107.68L107.586 9.92188L106.941 9.30078C106.934 9.30078 106.906 9.29297 106.859 9.27734C106.82 9.25391 106.797 9.24219 106.789 9.24219L106.625 9.14844C106.531 9.07812 106.402 9 106.238 8.91406L105.91 8.73828C105.871 8.73828 105.828 8.71484 105.781 8.66797V8.69141C105.422 8.55859 105.055 8.45703 104.68 8.38672C104.164 8.33203 103.691 8.33984 103.262 8.41016L102.887 8.48047C102.887 8.57422 102.879 8.64453 102.863 8.69141V8.66797C102.832 8.82422 102.742 8.94141 102.594 9.01953C102.445 9.09766 102.285 9.125 102.113 9.10156H102.02L101.82 9.125H101.727L101.586 9.24219L101.492 9.30078V9.27734L101.375 9.37109L101.176 9.53516H101.199L101.105 9.65234C101.059 9.69922 101.035 9.75 101.035 9.80469C100.918 10 100.852 10.1172 100.836 10.1562L100.742 10.3789C100.641 10.6523 100.57 10.9062 100.531 11.1406L100.508 11.1875C100.492 11.2031 100.484 11.2305 100.484 11.2695V11.7148ZM113.223 7.97656C113.223 7.13281 113.254 6.44531 113.316 5.91406C113.371 5.13281 113.5 4.45312 113.703 3.875C113.914 3.27344 114.18 2.72656 114.5 2.23438C114.836 1.70313 115.219 1.26562 115.648 0.921875C116.078 0.5625 116.559 0.3125 117.09 0.171875C117.332 0.109375 117.621 0.078125 117.957 0.078125C118.324 0.078125 118.629 0.117187 118.871 0.195312C119.402 0.367188 119.93 0.691406 120.453 1.16797C120.984 1.64453 121.406 2.15234 121.719 2.69141C122.188 3.53516 122.516 4.76172 122.703 6.37109C122.781 6.91797 122.832 7.49219 122.855 8.09375V8.26953C122.855 8.28516 122.859 8.30859 122.867 8.33984C122.875 8.37109 122.879 8.39453 122.879 8.41016C122.91 8.82422 122.91 9.20703 122.879 9.55859C122.84 10.5977 122.645 11.7969 122.293 13.1562L121.918 14.5039V14.4805L121.812 14.8203L121.719 15.125C121.711 15.1719 121.688 15.2461 121.648 15.3477C121.609 15.4492 121.586 15.5117 121.578 15.5352L121.531 15.6992C121.281 16.4727 121.082 16.9961 120.934 17.2695C120.855 17.4414 120.703 17.5508 120.477 17.5977C120.258 17.6445 120.066 17.6211 119.902 17.5273C119.598 17.3555 119.484 17.082 119.562 16.707C119.656 16.3398 119.793 15.8945 119.973 15.3711L120.113 14.9609C120.285 14.4375 120.461 13.8594 120.641 13.2266L120.734 12.875C121.039 11.5703 121.223 10.707 121.285 10.2852L121.309 10.2266V10.2617L121.391 9.39453C121.391 8.95703 121.383 8.67578 121.367 8.55078C121.367 8.52734 121.359 8.49219 121.344 8.44531C121.336 8.39844 121.332 8.36328 121.332 8.33984C121.301 7.33984 121.238 6.53906 121.145 5.9375C121.105 5.71094 121.035 5.38281 120.934 4.95312C120.934 4.9375 120.93 4.91016 120.922 4.87109C120.914 4.82422 120.91 4.78906 120.91 4.76562L120.734 4.15625H120.758C120.695 4.09375 120.664 4.04688 120.664 4.01562L120.594 3.85156C120.594 3.79688 120.578 3.73828 120.547 3.67578L120.137 2.96094L119.926 2.59766H119.949L119.398 2.04688L119.445 1.97656C119.422 1.97656 119.391 1.96875 119.352 1.95312C119.312 1.9375 119.285 1.92969 119.27 1.92969L119.152 1.83594V1.85938C118.926 1.70313 118.797 1.62109 118.766 1.61328C118.75 1.61328 118.734 1.60547 118.719 1.58984C118.672 1.58984 118.648 1.57422 118.648 1.54297L118.531 1.51953C118.484 1.51172 118.422 1.49219 118.344 1.46094C118.266 1.42969 118.215 1.41016 118.191 1.40234C118.051 1.40234 117.973 1.39453 117.957 1.37891C117.926 1.37891 117.859 1.38281 117.758 1.39062C117.664 1.39844 117.602 1.40234 117.57 1.40234C117.523 1.40234 117.484 1.41016 117.453 1.42578L117.207 1.47266C117.199 1.48047 117.137 1.50391 117.02 1.54297H117.043L116.879 1.63672L116.656 1.78906L116.539 1.8125L116.562 1.78906L116.445 1.88281L116.375 1.95312L116.176 2.1875C116.098 2.26563 116.051 2.31641 116.035 2.33984L115.742 2.64453C115.727 2.66016 115.719 2.69141 115.719 2.73828C115.672 2.79297 115.594 2.91406 115.484 3.10156C115.359 3.28906 115.223 3.53125 115.074 3.82812C115.074 3.83594 115.07 3.85547 115.062 3.88672C115.055 3.91016 115.051 3.92969 115.051 3.94531L114.98 4.15625L114.828 4.56641C114.766 4.77734 114.703 5.07422 114.641 5.45703C114.609 5.58203 114.594 5.6875 114.594 5.77344C114.578 5.78906 114.57 5.84375 114.57 5.9375C114.539 6.125 114.523 6.26953 114.523 6.37109C114.477 6.78516 114.453 7.21484 114.453 7.66016V8.07031C114.453 8.11719 114.457 8.18359 114.465 8.26953C114.473 8.35547 114.477 8.41797 114.477 8.45703C114.5 9.15234 114.547 9.84766 114.617 10.543L114.664 10.6367C114.664 10.668 114.672 10.6992 114.688 10.7305V10.9766C114.688 10.9844 114.691 11.0039 114.699 11.0352C114.707 11.0586 114.711 11.0781 114.711 11.0938C114.711 11.1016 114.715 11.1211 114.723 11.1523C114.73 11.1758 114.734 11.1953 114.734 11.2109L114.805 11.5039L115.004 12.6289C115.309 14.1211 115.578 15.2891 115.812 16.1328V16.1094L116.035 16.9531V16.9766C116.074 17.125 116.055 17.2734 115.977 17.4219C115.898 17.5703 115.781 17.6602 115.625 17.6914H115.648C115.5 17.7305 115.352 17.7109 115.203 17.6328C115.055 17.5625 114.957 17.457 114.91 17.3164L114.805 17.0469L114.734 16.7305V16.7656C114.336 15.5234 113.977 14.0664 113.656 12.3945C113.391 10.9492 113.246 9.47656 113.223 7.97656Z" fill="black"/>
</svg>
