<svg width="391" height="35" viewBox="0 0 391 35" fill="none" xmlns="http://www.w3.org/2000/svg">
<path d="M0.5625 27.5156L1.14062 23.5H6.14062L5.53125 28.1562C5.54167 29.9792 6.35417 30.901 7.96875 30.9219C9.36458 30.9219 10.0625 29.9948 10.0625 28.1406V13.4688C9.17708 12.9271 8.20312 12.6562 7.14062 12.6562C6.40104 12.6562 6.01042 13.375 5.96875 14.8125L6.54688 18.8906H1.60938L1.15625 15.4688C1.15625 11.2708 3.10938 9.17188 7.01562 9.17188C8.16146 9.24479 9.17708 9.4375 10.0625 9.75V0.8125H14.875V27.5156C14.875 32.1198 12.5729 34.4219 7.96875 34.4219C3.03125 34.4219 0.5625 32.1198 0.5625 27.5156ZM18.4688 19.875L18.9844 16.4688H23.8906L23.3594 19.9531C23.3802 22.6198 24.1927 23.9531 25.7969 23.9531C27.3385 23.9531 28.1094 22.6562 28.1094 20.0625C28.1094 18.1458 27.1562 16.3021 25.25 14.5312C23.3542 12.7604 22.4062 10.5312 22.4062 7.84375H27.4688C27.4792 9.80208 28.4115 11.6667 30.2656 13.4375C32.1302 15.1979 33.0625 17.4062 33.0625 20.0625C33.0625 24.9896 30.625 27.4531 25.75 27.4531C20.8958 27.4531 18.4688 24.9271 18.4688 19.875ZM36.1875 16.9688C36.1875 11.7812 38.5208 9.1875 43.1875 9.1875C44.9479 9.1875 46.4219 9.75521 47.6094 10.8906C48.7344 9.61979 50.125 9 51.7812 9.03125C53.6458 9.03125 55.0938 9.65625 56.125 10.9062C57.1771 9.76042 58.6146 9.1875 60.4375 9.1875C65.1042 9.1875 67.4375 11.5625 67.4375 16.3125C67.4271 17.7083 67.1458 19.0781 66.5938 20.4219C66.0417 21.7656 65.1979 23.1979 64.0625 24.7188H58.2344C61.0677 21.6042 62.4844 18.8021 62.4844 16.3125C62.4844 13.8854 61.8073 12.6719 60.4531 12.6719C59.1302 12.6719 58.4583 13.1927 58.4375 14.2344L58.25 20.1094H53.7812L53.5625 14.25C53.5625 13.1458 52.9688 12.5938 51.7812 12.5938C50.6458 12.5938 50.0781 13.1406 50.0781 14.2344L49.9062 20.1094H45.4375L45.25 14.2344C45.25 13.1927 44.5625 12.6719 43.1875 12.6719C41.8333 12.6719 41.1562 14.125 41.1562 17.0312C41.1562 19.2604 42.0521 21.1458 43.8438 22.6875C45.6354 24.2188 48.2344 25.4896 51.6406 26.5C56.3385 27.6354 59.1094 30.2031 59.9531 34.2031H55.0625C54.8125 33.0365 54.151 31.9844 53.0781 31.0469C52.0156 30.1198 50.5833 29.6458 48.7812 29.625C47.3542 29.6146 46.0885 29.9271 44.9844 30.5625C43.8802 31.2083 42.8906 32.0312 42.0156 33.0312L39.0781 29.6094C40.3906 28.5052 41.7917 27.724 43.2812 27.2656C38.5521 24.8906 36.1875 21.4583 36.1875 16.9688ZM70.5625 27.5L71.1406 23.4844H75.9844L75.5312 28.2344C75.5312 30.0156 76.3333 30.9062 77.9375 30.9062C79.3542 30.9167 80.0625 30.0104 80.0625 28.1875V14.9375C80.0625 13.4375 79.3542 12.6875 77.9375 12.6875C76.7708 12.6875 76.1875 13.3594 76.1875 14.7031L76.8594 19.2344H71.9844L71.4219 15.6406C71.4219 11.3385 73.5938 9.1875 77.9375 9.1875C82.5625 9.1875 84.875 11.3802 84.875 15.7656V27.5312C84.875 32.125 82.5573 34.4219 77.9219 34.4219C73.0156 34.4219 70.5625 32.1146 70.5625 27.5ZM88.3125 18.375C88.3125 15.8333 88.8073 13.8073 89.7969 12.2969C90.7865 10.7865 92.2656 9.78125 94.2344 9.28125C94.401 8.8125 94.5 8.29167 94.5312 7.71875C94.5312 6.77083 94.151 6.02083 93.3906 5.46875C91.6302 4.20833 90.75 2.60938 90.75 0.671875H95.7656C95.8177 1.72396 96.3385 2.72917 97.3281 3.6875C98.4531 4.92708 99.0208 6.16146 99.0312 7.39062C99.0104 8.06771 98.8906 8.77083 98.6719 9.5C101.703 11.0417 103.219 13.9896 103.219 18.3438C103.219 24.4167 100.771 27.4531 95.875 27.4531C90.8333 27.4531 88.3125 24.4271 88.3125 18.375ZM93.2812 18.375C93.2812 22.0938 94.1458 23.9531 95.875 23.9531C97.4583 23.9531 98.25 22.0938 98.25 18.375C98.25 14.5938 97.4375 12.599 95.8125 12.3906C94.125 12.599 93.2812 14.5938 93.2812 18.375ZM106.344 17.75C106.344 12.0417 108.828 9.1875 113.797 9.1875C118.766 9.1875 121.25 12.0573 121.25 17.7969C121.25 20.474 120.672 23.5365 119.516 26.9844H114.438C115.667 23.6719 116.281 20.6094 116.281 17.7969C116.281 14.3906 115.453 12.6875 113.797 12.6875C112.141 12.6875 111.312 14.4062 111.312 17.8438C111.312 20.6458 111.917 23.6979 113.125 27H108.047C107.484 25.25 107.057 23.6094 106.766 22.0781C106.484 20.5469 106.344 19.1042 106.344 17.75ZM135.531 16.9688C135.531 11.7812 137.865 9.1875 142.531 9.1875C144.292 9.1875 145.766 9.75521 146.953 10.8906C148.078 9.61979 149.469 9 151.125 9.03125C152.99 9.03125 154.438 9.65625 155.469 10.9062C156.521 9.76042 157.958 9.1875 159.781 9.1875C164.448 9.1875 166.781 11.5625 166.781 16.3125C166.771 17.7083 166.49 19.0781 165.938 20.4219C165.385 21.7656 164.542 23.1979 163.406 24.7188H157.578C160.411 21.6042 161.828 18.8021 161.828 16.3125C161.828 13.8854 161.151 12.6719 159.797 12.6719C158.474 12.6719 157.802 13.1927 157.781 14.2344L157.594 20.1094H153.125L152.906 14.25C152.906 13.1458 152.312 12.5938 151.125 12.5938C149.99 12.5938 149.422 13.1406 149.422 14.2344L149.25 20.1094H144.781L144.594 14.2344C144.594 13.1927 143.906 12.6719 142.531 12.6719C141.177 12.6719 140.5 14.125 140.5 17.0312C140.5 19.2604 141.396 21.1458 143.188 22.6875C144.979 24.2188 147.578 25.4896 150.984 26.5C155.682 27.6354 158.453 30.2031 159.297 34.2031H154.406C154.156 33.0365 153.495 31.9844 152.422 31.0469C151.359 30.1198 149.927 29.6458 148.125 29.625C146.698 29.6146 145.432 29.9271 144.328 30.5625C143.224 31.2083 142.234 32.0312 141.359 33.0312L138.422 29.6094C139.734 28.5052 141.135 27.724 142.625 27.2656C137.896 24.8906 135.531 21.4583 135.531 16.9688ZM169.906 17.75C169.906 12.0417 172.391 9.1875 177.359 9.1875C182.328 9.1875 184.812 12.0573 184.812 17.7969C184.812 20.474 184.234 23.5365 183.078 26.9844H178C179.229 23.6719 179.844 20.6094 179.844 17.7969C179.844 14.3906 179.016 12.6875 177.359 12.6875C175.703 12.6875 174.875 14.4062 174.875 17.8438C174.875 20.6458 175.479 23.6979 176.688 27H171.609C171.047 25.25 170.62 23.6094 170.328 22.0781C170.047 20.5469 169.906 19.1042 169.906 17.75ZM187.938 22.0312C187.938 15.1667 190.703 11.0729 196.234 9.75L195.094 5.54688H200.156L199.016 9.79688C202.047 10.4427 204.172 11.7917 205.391 13.8438C206.609 15.8854 207.219 18.6458 207.219 22.125C207.219 23.7292 207.01 25.2344 206.594 26.6406C206.177 28.0365 205.339 29.6823 204.078 31.5781C202.828 33.474 200.682 34.4219 197.641 34.4219C194.568 34.4219 192.182 33.1823 190.484 30.7031C188.786 28.2344 187.938 25.3438 187.938 22.0312ZM192.906 22.0312C192.896 25.8229 193.354 28.2448 194.281 29.2969C195.219 30.3594 196.333 30.8906 197.625 30.8906C198.792 30.8906 199.87 30.3854 200.859 29.375C201.849 28.3646 202.344 25.9167 202.344 22.0312C202.344 19.5104 202.203 17.6667 201.922 16.5C201.651 15.3333 200.688 14.3385 199.031 13.5156L200.125 21.7812H195.141L196.219 13.5156C194.5 14.3281 193.516 15.3073 193.266 16.4531C193.026 17.5885 192.906 19.4479 192.906 22.0312ZM210.344 27.5L210.922 23.4844H215.766L215.312 28.2344C215.312 30.0156 216.115 30.9062 217.719 30.9062C219.135 30.9167 219.844 30.0104 219.844 28.1875V14.9375C219.844 13.4375 219.135 12.6875 217.719 12.6875C216.552 12.6875 215.969 13.3594 215.969 14.7031L216.641 19.2344H211.766L211.203 15.6406C211.203 11.3385 213.375 9.1875 217.719 9.1875C222.344 9.1875 224.656 11.3802 224.656 15.7656V27.5312C224.656 32.125 222.339 34.4219 217.703 34.4219C212.797 34.4219 210.344 32.1146 210.344 27.5ZM228.094 17.7031C228.094 15.7031 228.422 13.7917 229.078 11.9688C229.734 10.1354 230.724 8.35938 232.047 6.64062C234.599 3.34896 238.599 1.28646 244.047 0.453125V4.48438C242.328 4.57812 240.693 5.03125 239.141 5.84375C237.599 6.65625 236.167 7.77083 234.844 9.1875H234.859C236.995 9.1875 238.599 9.89062 239.672 11.2969C240.755 9.89062 242.292 9.1875 244.281 9.1875C248.969 9.1875 251.312 12.026 251.312 17.7031C251.312 20.6615 250.255 23.7552 248.141 26.9844H241.812C244.833 23.7552 246.344 20.6615 246.344 17.7031C246.333 14.3594 245.604 12.6875 244.156 12.6875C242.771 12.6875 242.078 14.1667 242.078 17.125V20.7031H237.312V17.125C237.323 14.1667 236.646 12.6875 235.281 12.6875C233.802 12.6875 233.062 14.3594 233.062 17.7031C233.062 20.6719 234.578 23.7708 237.609 27H231.109C229.099 23.7083 228.094 20.6094 228.094 17.7031ZM254.438 19.875L254.953 16.4688H259.859L259.328 19.9531C259.349 22.6198 260.161 23.9531 261.766 23.9531C263.307 23.9531 264.078 22.6562 264.078 20.0625C264.078 18.1458 263.125 16.3021 261.219 14.5312C259.323 12.7604 258.375 10.5312 258.375 7.84375H263.438C263.448 9.80208 264.38 11.6667 266.234 13.4375C268.099 15.1979 269.031 17.4062 269.031 20.0625C269.031 24.9896 266.594 27.4531 261.719 27.4531C256.865 27.4531 254.438 24.9271 254.438 19.875ZM272.156 22.0312C272.156 15.1667 274.922 11.0729 280.453 9.75L279.312 5.54688H284.375L283.234 9.79688C286.266 10.4427 288.391 11.7917 289.609 13.8438C290.828 15.8854 291.438 18.6458 291.438 22.125C291.438 23.7292 291.229 25.2344 290.812 26.6406C290.396 28.0365 289.557 29.6823 288.297 31.5781C287.047 33.474 284.901 34.4219 281.859 34.4219C278.786 34.4219 276.401 33.1823 274.703 30.7031C273.005 28.2344 272.156 25.3438 272.156 22.0312ZM277.125 22.0312C277.115 25.8229 277.573 28.2448 278.5 29.2969C279.438 30.3594 280.552 30.8906 281.844 30.8906C283.01 30.8906 284.089 30.3854 285.078 29.375C286.068 28.3646 286.562 25.9167 286.562 22.0312C286.562 19.5104 286.422 17.6667 286.141 16.5C285.87 15.3333 284.906 14.3385 283.25 13.5156L284.344 21.7812H279.359L280.438 13.5156C278.719 14.3281 277.734 15.3073 277.484 16.4531C277.245 17.5885 277.125 19.4479 277.125 22.0312ZM293.938 11.9219L294.453 7.65625L297.125 9.1875H298.297C299.005 9.1875 299.766 9.72917 300.578 10.8125C301.391 9.72917 302.818 9.1875 304.859 9.1875C308.318 9.1875 310.047 10.9531 310.047 14.4844V27.5469C310.047 32.1302 307.698 34.4219 303 34.4219C297.927 34.4219 295.391 32.1042 295.391 27.4688L295.828 23.5H300.766L300.359 28.25C300.37 30.0104 301.25 30.8906 303 30.8906C304.49 30.8906 305.234 29.9844 305.234 28.1719V13.7031C305.234 13.0052 304.87 12.6562 304.141 12.6562C303.266 12.6562 302.828 13.0677 302.828 13.8906L302.672 19.6719H298.734L298.578 13.8906C298.578 13.1927 298.208 12.8438 297.469 12.8438H296.469L293.938 11.9219ZM313.5 17.7031C313.5 15.7031 313.828 13.7917 314.484 11.9688C315.141 10.1354 316.13 8.35938 317.453 6.64062C320.005 3.34896 324.005 1.28646 329.453 0.453125V4.48438C327.734 4.57812 326.099 5.03125 324.547 5.84375C323.005 6.65625 321.573 7.77083 320.25 9.1875H320.266C322.401 9.1875 324.005 9.89062 325.078 11.2969C326.161 9.89062 327.698 9.1875 329.688 9.1875C334.375 9.1875 336.719 12.026 336.719 17.7031C336.719 20.6615 335.661 23.7552 333.547 26.9844H327.219C330.24 23.7552 331.75 20.6615 331.75 17.7031C331.74 14.3594 331.01 12.6875 329.562 12.6875C328.177 12.6875 327.484 14.1667 327.484 17.125V20.7031H322.719V17.125C322.729 14.1667 322.052 12.6875 320.688 12.6875C319.208 12.6875 318.469 14.3594 318.469 17.7031C318.469 20.6719 319.984 23.7708 323.016 27H316.516C314.505 23.7083 313.5 20.6094 313.5 17.7031ZM339.844 19.875L340.359 16.4688H345.266L344.734 19.9531C344.755 22.6198 345.568 23.9531 347.172 23.9531C348.714 23.9531 349.484 22.6562 349.484 20.0625C349.484 18.1458 348.531 16.3021 346.625 14.5312C344.729 12.7604 343.781 10.5312 343.781 7.84375H348.844C348.854 9.80208 349.786 11.6667 351.641 13.4375C353.505 15.1979 354.438 17.4062 354.438 20.0625C354.438 24.9896 352 27.4531 347.125 27.4531C342.271 27.4531 339.844 24.9271 339.844 19.875ZM356.625 5.45312V0.515625H359.281C360.25 0.515625 361.135 1.15104 361.938 2.42188C363.146 1.15104 364.333 0.515625 365.5 0.515625C369.604 0.515625 371.656 2.08854 371.656 5.23438V20.0781C371.656 24.9948 369.411 27.4531 364.922 27.4531C359.682 27.4531 357.062 24.5573 357.062 18.7656C357.073 12.6823 359.495 9.64062 364.328 9.64062C365.255 9.69271 366.12 9.8125 366.922 10V5.1875C366.922 4.30208 366.562 3.85938 365.844 3.85938C364.75 3.85938 364.203 4.34896 364.203 5.32812V6.26562C364.214 7.34896 363.578 7.89062 362.297 7.89062C360.974 7.89062 360.312 7.34896 360.312 6.26562V5.29688C360.323 4.66146 360.068 4.29167 359.547 4.1875L356.625 5.45312ZM362.016 18.7656C362.016 22.224 362.865 23.9531 364.562 23.9531C366.083 23.9531 366.844 22.8385 366.844 20.6094V13.5C366.021 13.25 365.172 13.125 364.297 13.125C362.776 13.1875 362.016 15.0677 362.016 18.7656ZM375.25 17.75C375.25 12.0417 377.734 9.1875 382.703 9.1875C387.672 9.1875 390.156 12.0573 390.156 17.7969C390.156 20.474 389.578 23.5365 388.422 26.9844H383.344C384.573 23.6719 385.188 20.6094 385.188 17.7969C385.188 14.3906 384.359 12.6875 382.703 12.6875C381.047 12.6875 380.219 14.4062 380.219 17.8438C380.219 20.6458 380.823 23.6979 382.031 27H376.953C376.391 25.25 375.964 23.6094 375.672 22.0781C375.391 20.5469 375.25 19.1042 375.25 17.75Z" fill="#717276"/>
</svg>
