<svg width="255" height="18" viewBox="0 0 255 18" fill="none" xmlns="http://www.w3.org/2000/svg">
<path d="M0.21225 3.21875C0.251312 2.71875 0.395844 2.24609 0.645844 1.80078C0.895844 1.35547 1.23178 1.03125 1.65366 0.828125C1.99741 0.679687 2.30991 0.605469 2.59116 0.605469C2.80991 0.605469 3.04819 0.644531 3.306 0.722656C3.70444 0.863281 4.16928 1.22656 4.70053 1.8125L4.9935 2.23438C5.32944 1.57031 5.83334 1.05078 6.50522 0.675781C6.76303 0.550781 7.09116 0.472656 7.48959 0.441406C7.64584 0.433594 7.94272 0.480469 8.38022 0.582031C8.82553 0.800781 9.26303 1.19531 9.69272 1.76562C10.1849 2.4375 10.6966 3.48438 11.2279 4.90625C11.9466 6.89844 12.306 8.76172 12.306 10.4961C12.306 11.4961 12.1888 12.4062 11.9544 13.2266C11.5482 14.5156 10.9857 15.4844 10.2669 16.1328C9.51694 16.8125 8.69272 17.1992 7.79428 17.293C7.02866 17.3711 6.26303 17.2344 5.49741 16.8828C4.73959 16.5234 4.05209 16.0273 3.43491 15.3945C2.92709 14.8398 2.52475 14.2266 2.22787 13.5547C1.93881 12.875 1.79428 12.1992 1.79428 11.5273C1.79428 11.2539 1.83725 10.9102 1.92319 10.4961C2.056 10.0117 2.23959 9.57031 2.47397 9.17188C2.77866 8.73438 3.18491 8.32031 3.69272 7.92969C4.62241 7.3125 5.65366 6.96875 6.78647 6.89844C7.29428 6.875 7.79819 6.92188 8.29819 7.03906C8.94662 7.20312 9.50912 7.48438 9.98569 7.88281C10.2982 8.15625 10.5208 8.38672 10.6537 8.57422V8.52734V8.41016L10.5833 7.92969C10.4662 7.41406 10.388 7.08594 10.349 6.94531C10.1693 6.28906 9.95834 5.64062 9.71616 5L9.36459 4.08594C9.32553 4.03906 9.306 3.99219 9.306 3.94531C9.25912 3.89844 9.23569 3.85938 9.23569 3.82812C9.14975 3.69531 9.09506 3.59766 9.07162 3.53516L8.66147 2.89062L8.59116 2.66797L8.52084 2.59766L8.40366 2.43359C8.39584 2.42578 8.38412 2.41797 8.3685 2.41016C8.36069 2.40234 8.35287 2.39453 8.34506 2.38672C8.33725 2.37891 8.33334 2.37109 8.33334 2.36328L8.01694 2.07031L7.92319 2L7.94662 2.02344C7.91537 2.02344 7.87631 2 7.82944 1.95312V1.97656L7.70053 1.90625C7.66928 1.875 7.62241 1.85938 7.55991 1.85938C7.53647 1.83594 7.49741 1.83594 7.44272 1.85938H7.37241L7.14975 1.92969V1.90625L7.00912 2.02344L6.89194 2.04688L6.91537 2.02344L6.80991 2.09375L6.69272 2.1875L6.43491 2.45703L6.38803 2.55078L6.25912 2.69141H6.28256C6.20444 2.82422 6.13412 2.96094 6.07162 3.10156L6.00131 3.17188V3.24219L5.931 3.53516V3.80469C5.97787 3.95312 6.01694 4.14453 6.04819 4.37891C6.04819 4.52734 6.00522 4.67969 5.91928 4.83594C5.84116 4.99219 5.73959 5.09375 5.61459 5.14062C5.45834 5.17969 5.306 5.17578 5.15756 5.12891C5.00912 5.07422 4.90756 4.98438 4.85287 4.85938C4.81381 4.78125 4.79428 4.73047 4.79428 4.70703C4.73959 4.58984 4.69272 4.40625 4.65366 4.15625L4.63022 3.99219C4.63022 3.97656 4.61459 3.94531 4.58334 3.89844C4.45834 3.61719 4.26694 3.29688 4.00912 2.9375H4.03256L3.98569 2.86719L3.89194 2.73828C3.88412 2.73047 3.87241 2.72266 3.85678 2.71484C3.84897 2.70703 3.83725 2.69922 3.82162 2.69141C3.81381 2.68359 3.80991 2.67578 3.80991 2.66797V2.69141C3.75522 2.66797 3.71616 2.62891 3.69272 2.57422H3.71616L3.25912 2.14062L3.21225 2.09375C3.20444 2.09375 3.181 2.08594 3.14194 2.07031C3.10287 2.05469 3.07944 2.04688 3.07162 2.04688L2.931 1.95312L2.86069 1.92969C2.82162 1.92969 2.79428 1.92187 2.77866 1.90625C2.74741 1.90625 2.72397 1.89844 2.70834 1.88281H2.47397C2.44272 1.88281 2.41928 1.89063 2.40366 1.90625L2.29819 1.95312C2.23569 1.95312 2.18881 1.96875 2.15756 2L2.06381 2.04688H2.08725L1.94662 2.14062V2.11719L1.65366 2.45703C1.65366 2.46484 1.64975 2.48437 1.64194 2.51562C1.63412 2.54688 1.63022 2.56641 1.63022 2.57422C1.61459 2.58984 1.59897 2.64453 1.58334 2.73828C1.50522 2.87109 1.46616 2.96094 1.46616 3.00781V3.10156C1.46616 3.10938 1.46225 3.125 1.45444 3.14844C1.44662 3.16406 1.44272 3.17969 1.44272 3.19531C1.44272 3.20312 1.43881 3.22656 1.431 3.26562C1.42319 3.29688 1.41928 3.33203 1.41928 3.37109V3.75781C1.41928 3.76562 1.42319 3.77734 1.431 3.79297C1.43881 3.80859 1.44272 3.82031 1.44272 3.82812C1.44272 3.84375 1.45053 3.875 1.46616 3.92188C1.46616 3.92969 1.47006 3.94922 1.47787 3.98047C1.48569 4.00391 1.48959 4.02344 1.48959 4.03906L1.63022 4.42578C1.63022 4.50391 1.65366 4.56641 1.70053 4.61328L1.85287 4.92969L1.97006 5.07031H1.94662C2.056 5.17969 2.11069 5.3125 2.11069 5.46875C2.1185 5.61719 2.06381 5.75 1.94662 5.86719C1.82944 5.98438 1.69662 6.04297 1.54819 6.04297C1.40756 6.03516 1.29037 5.97656 1.19662 5.86719C0.8685 5.53906 0.614594 5.13281 0.434906 4.64844C0.263031 4.15625 0.188812 3.67969 0.21225 3.21875ZM3.306 11.4336C3.306 11.6133 3.31772 11.8203 3.34116 12.0547L3.36459 12.2422L3.37631 12.2773C3.38412 12.3008 3.38803 12.332 3.38803 12.3711L3.59897 12.9219C3.59897 12.9844 3.60678 13.0234 3.62241 13.0391C3.62241 13.0859 3.63803 13.125 3.66928 13.1562L3.73959 13.3086L3.8685 13.4492C3.92319 13.582 3.9935 13.7031 4.07944 13.8125L4.12631 13.9766L4.10287 13.9531L4.19662 14.0703L4.51303 14.3867L5.15756 15.0312L5.33334 15.1484C5.34116 15.1484 5.36069 15.1562 5.39194 15.1719C5.42319 15.1875 5.44272 15.1953 5.45053 15.1953C5.69272 15.3281 5.86069 15.4102 5.95444 15.4414L6.1185 15.5117L6.34116 15.582C6.40366 15.6133 6.45053 15.6289 6.48178 15.6289C6.55991 15.6758 6.63803 15.6992 6.71616 15.6992C6.72397 15.6992 6.73959 15.7031 6.76303 15.7109C6.78647 15.7188 6.80209 15.7227 6.80991 15.7227C6.83334 15.7461 6.87631 15.7578 6.93881 15.7578L6.98569 15.7695C7.01694 15.7773 7.04819 15.7812 7.07944 15.7812C7.15756 15.7812 7.21225 15.7891 7.2435 15.8047C7.50131 15.8047 7.64584 15.7969 7.67709 15.7812H7.87631L7.92319 15.7695C7.94662 15.7617 7.97787 15.7578 8.01694 15.7578L8.38022 15.6289C8.41147 15.6289 8.45053 15.6055 8.49741 15.5586L8.90756 15.418C8.92319 15.4102 8.94662 15.3906 8.97787 15.3594C9.00912 15.3281 9.03256 15.3086 9.04819 15.3008V15.3242L9.14194 15.2422L9.25912 15.1484L9.48178 14.9375H9.45834L9.73959 14.5508L9.71616 14.5742C9.71616 14.5664 9.72397 14.5508 9.73959 14.5273C9.75522 14.5039 9.76303 14.4883 9.76303 14.4805C9.87241 14.3398 9.93881 14.2422 9.96225 14.1875C10.0482 14.0781 10.1107 13.9609 10.1497 13.8359L10.2435 13.707C10.2435 13.6758 10.2513 13.6523 10.2669 13.6367V13.543C10.431 13.1367 10.5365 12.8242 10.5833 12.6055C10.5833 12.543 10.5912 12.5039 10.6068 12.4883C10.6068 12.4727 10.6107 12.4531 10.6185 12.4297C10.6263 12.4062 10.6302 12.3867 10.6302 12.3711L10.7005 11.9844C10.5521 11.8359 10.4583 11.668 10.4193 11.4805V11.5039C10.349 11.3242 10.2982 11.1875 10.2669 11.0938L10.2201 10.9062C10.1732 10.8828 10.1497 10.8359 10.1497 10.7656C10.1341 10.75 10.1263 10.7227 10.1263 10.6836C10.0716 10.6055 10.0247 10.5039 9.98569 10.3789L9.64584 9.75781H9.66928C9.56772 9.66406 9.52866 9.60547 9.55209 9.58203L9.48178 9.53516L9.21225 9.27734C9.21225 9.27734 9.18881 9.25 9.14194 9.19531L9.04819 9.10156L9.00131 9.05469C8.97787 9.05469 8.931 9.03125 8.86069 8.98438L8.33334 8.66797C8.28647 8.66797 8.25131 8.64453 8.22787 8.59766V8.62109L7.97006 8.55078C7.92319 8.54297 7.85678 8.52344 7.77084 8.49219C7.68491 8.46094 7.63022 8.44141 7.60678 8.43359C7.48178 8.41797 7.25912 8.41016 6.93881 8.41016C6.92319 8.41016 6.90366 8.41406 6.88022 8.42188C6.86459 8.42969 6.85287 8.43359 6.84506 8.43359H6.55209C6.50522 8.43359 6.47397 8.44141 6.45834 8.45703H6.34116C6.26303 8.47266 6.14194 8.50391 5.97787 8.55078C5.81381 8.59766 5.69272 8.62891 5.61459 8.64453L5.20444 8.79688L5.04037 8.89062C5.01694 8.89844 4.81772 9.00781 4.44272 9.21875V9.19531L4.22006 9.41797L4.12631 9.48828V9.46484L3.8685 9.69922L3.80991 9.82812L3.73959 9.96875C3.67709 10.0469 3.62241 10.1602 3.57553 10.3086C3.54428 10.3711 3.52866 10.418 3.52866 10.4492C3.44272 10.6367 3.38803 10.8359 3.36459 11.0469C3.36459 11.0547 3.36069 11.0703 3.35287 11.0938C3.34506 11.1172 3.34116 11.1328 3.34116 11.1406L3.32944 11.1875C3.31381 11.2188 3.306 11.2539 3.306 11.293V11.4336ZM7.17319 1.83594L7.82944 1.51953L7.29037 1.85938V1.83594L7.22006 1.90625L7.17319 1.83594ZM15.7396 11.6211C15.7396 11.1055 15.7904 10.5625 15.8919 9.99219C15.8919 9.84375 15.974 9.73047 16.138 9.65234C16.3021 9.56641 16.474 9.53516 16.6537 9.55859C16.8958 9.63672 17.0169 9.82031 17.0169 10.1094V10.5664C17.0169 11.3711 17.0326 11.9648 17.0638 12.3477V12.3242C17.0794 12.3555 17.0872 12.4102 17.0872 12.4883C17.0872 12.5039 17.0794 12.5195 17.0638 12.5352C17.0638 12.5664 17.0794 12.5977 17.1107 12.6289L17.181 13.0156L17.3333 13.6367L17.3802 13.7656V13.7305L17.474 13.9766L17.6849 14.457H17.6615L17.7318 14.5742L17.8372 14.6914L17.8841 14.7148L18.1888 15.1016H18.1654L18.4115 15.3008C18.4115 15.2852 18.4271 15.2773 18.4583 15.2773C18.5599 15.3633 18.6966 15.4414 18.8685 15.5117L18.9388 15.582L19.0326 15.6289C19.0482 15.6445 19.0794 15.6523 19.1263 15.6523L19.4193 15.7578C19.4349 15.7734 19.4896 15.7812 19.5833 15.7812C19.5912 15.7812 19.6068 15.7852 19.6302 15.793C19.6537 15.8008 19.6771 15.8047 19.7005 15.8047H20.181L20.2513 15.7812C20.306 15.7812 20.3646 15.7734 20.4271 15.7578L20.7787 15.6289H20.7552L20.931 15.582L21.0013 15.5352L21.3646 15.3945L21.4818 15.3477H21.4583L21.7396 15.1719V15.1953L21.8685 15.0781L21.9388 15.0078C22.2357 14.75 22.4505 14.543 22.5833 14.3867H22.5599L22.8529 14.0469L22.8997 13.9766L22.9935 13.9062C22.9935 13.8984 23.0013 13.8789 23.0169 13.8477C23.0326 13.8164 23.0404 13.7969 23.0404 13.7891C23.2982 13.3828 23.4662 13.0938 23.5443 12.9219L23.6849 12.6523C23.6849 12.6211 23.7005 12.5742 23.7318 12.5117C23.7865 12.4336 23.8451 12.2891 23.9076 12.0781C24.0091 11.7266 24.0794 11.4453 24.1185 11.2344C24.1341 11.1094 24.1419 10.8867 24.1419 10.5664V10.0156C24.1263 9.98438 24.1185 9.95312 24.1185 9.92188C24.0404 9.49219 23.9544 9.14844 23.8607 8.89062C23.8451 8.84375 23.8372 8.8125 23.8372 8.79688C23.8294 8.75781 23.806 8.69922 23.7669 8.62109C23.7357 8.54297 23.7162 8.49609 23.7083 8.48047L23.6615 8.38672V8.41016L23.5912 8.23438L23.5443 8.09375V8.11719C23.4818 7.99219 23.4193 7.89844 23.3568 7.83594L23.2513 7.61328H23.2747L23.0404 7.35547L22.7943 7.13281L22.5599 6.875L22.3724 6.67578C22.3646 6.67578 22.3412 6.66797 22.3021 6.65234C22.2708 6.63672 22.2513 6.62891 22.2435 6.62891C22.2122 6.61328 22.1732 6.59766 22.1263 6.58203C21.8294 6.34766 21.3412 6.02734 20.6615 5.62109C20.2162 5.35547 19.7865 4.93359 19.3724 4.35547C19.0599 3.91016 18.7787 3.36328 18.5287 2.71484C18.3802 2.22266 18.306 1.80859 18.306 1.47266C18.306 1.16016 18.349 0.878906 18.4349 0.628906C18.4974 0.480469 18.6029 0.359375 18.7513 0.265625C18.9076 0.164062 19.0716 0.140625 19.2435 0.195312C19.5716 0.289062 19.7474 0.515625 19.7708 0.875V0.992188L19.7943 1.10938V1.20312C19.7943 1.23438 19.806 1.26172 19.8294 1.28516C19.8294 1.31641 19.8333 1.35937 19.8412 1.41406C19.849 1.46875 19.8529 1.51172 19.8529 1.54297C19.8919 1.77734 19.9779 2.07422 20.1107 2.43359H20.0872L20.2044 2.59766C20.2591 2.77734 20.349 2.94531 20.474 3.10156L20.8021 3.55859L21.2591 4.0625H21.2357L21.3646 4.13281V4.10938L21.599 4.26172C21.7318 4.34766 21.8294 4.40234 21.8919 4.42578C22.9857 5.12891 23.7826 5.77734 24.2826 6.37109H24.2591C24.5482 6.66016 24.7591 6.9375 24.8919 7.20312C24.9232 7.28906 24.9935 7.48047 25.1029 7.77734C25.2122 8.06641 25.2865 8.26953 25.3255 8.38672C25.5599 9.08203 25.6771 9.80078 25.6771 10.543C25.6537 11.9805 25.181 13.3398 24.2591 14.6211C23.1966 15.8633 22.1888 16.6562 21.2357 17C20.6263 17.2109 19.9896 17.2656 19.3255 17.1641C19.0443 17.125 18.7318 17.0234 18.388 16.8594L17.9779 16.6133L17.7318 16.4023L17.638 16.332L17.6615 16.3555C17.6537 16.3555 17.638 16.3477 17.6146 16.332C17.5912 16.3164 17.5755 16.3086 17.5677 16.3086C16.8099 15.7148 16.2826 14.8906 15.9857 13.8359C15.8216 13 15.7396 12.2617 15.7396 11.6211ZM27.5404 3.21875C27.5794 2.71875 27.724 2.24609 27.974 1.80078C28.224 1.35547 28.5599 1.03125 28.9818 0.828125C29.3255 0.679687 29.638 0.605469 29.9193 0.605469C30.138 0.605469 30.3763 0.644531 30.6341 0.722656C31.0326 0.863281 31.4974 1.22656 32.0287 1.8125L32.3216 2.23438C32.6576 1.57031 33.1615 1.05078 33.8333 0.675781C34.0912 0.550781 34.4193 0.472656 34.8177 0.441406C34.974 0.433594 35.2708 0.480469 35.7083 0.582031C36.1537 0.800781 36.5912 1.19531 37.0208 1.76562C37.513 2.4375 38.0247 3.48438 38.556 4.90625C39.2747 6.89844 39.6341 8.76172 39.6341 10.4961C39.6341 11.4961 39.5169 12.4062 39.2826 13.2266C38.8763 14.5156 38.3138 15.4844 37.5951 16.1328C36.8451 16.8125 36.0208 17.1992 35.1224 17.293C34.3568 17.3711 33.5912 17.2344 32.8255 16.8828C32.0677 16.5234 31.3802 16.0273 30.763 15.3945C30.2552 14.8398 29.8529 14.2266 29.556 13.5547C29.2669 12.875 29.1224 12.1992 29.1224 11.5273C29.1224 11.2539 29.1654 10.9102 29.2513 10.4961C29.3841 10.0117 29.5677 9.57031 29.8021 9.17188C30.1068 8.73438 30.513 8.32031 31.0208 7.92969C31.9505 7.3125 32.9818 6.96875 34.1146 6.89844C34.6224 6.875 35.1263 6.92188 35.6263 7.03906C36.2747 7.20312 36.8372 7.48438 37.3138 7.88281C37.6263 8.15625 37.849 8.38672 37.9818 8.57422V8.52734V8.41016L37.9115 7.92969C37.7943 7.41406 37.7162 7.08594 37.6771 6.94531C37.4974 6.28906 37.2865 5.64062 37.0443 5L36.6927 4.08594C36.6537 4.03906 36.6341 3.99219 36.6341 3.94531C36.5872 3.89844 36.5638 3.85938 36.5638 3.82812C36.4779 3.69531 36.4232 3.59766 36.3997 3.53516L35.9896 2.89062L35.9193 2.66797L35.849 2.59766L35.7318 2.43359C35.724 2.42578 35.7122 2.41797 35.6966 2.41016C35.6888 2.40234 35.681 2.39453 35.6732 2.38672C35.6654 2.37891 35.6615 2.37109 35.6615 2.36328L35.3451 2.07031L35.2513 2L35.2747 2.02344C35.2435 2.02344 35.2044 2 35.1576 1.95312V1.97656L35.0287 1.90625C34.9974 1.875 34.9505 1.85938 34.888 1.85938C34.8646 1.83594 34.8255 1.83594 34.7708 1.85938H34.7005L34.4779 1.92969V1.90625L34.3372 2.02344L34.2201 2.04688L34.2435 2.02344L34.138 2.09375L34.0208 2.1875L33.763 2.45703L33.7162 2.55078L33.5872 2.69141H33.6107C33.5326 2.82422 33.4622 2.96094 33.3997 3.10156L33.3294 3.17188V3.24219L33.2591 3.53516V3.80469C33.306 3.95312 33.3451 4.14453 33.3763 4.37891C33.3763 4.52734 33.3333 4.67969 33.2474 4.83594C33.1693 4.99219 33.0677 5.09375 32.9427 5.14062C32.7865 5.17969 32.6341 5.17578 32.4857 5.12891C32.3372 5.07422 32.2357 4.98438 32.181 4.85938C32.1419 4.78125 32.1224 4.73047 32.1224 4.70703C32.0677 4.58984 32.0208 4.40625 31.9818 4.15625L31.9583 3.99219C31.9583 3.97656 31.9427 3.94531 31.9115 3.89844C31.7865 3.61719 31.5951 3.29688 31.3372 2.9375H31.3607L31.3138 2.86719L31.2201 2.73828C31.2122 2.73047 31.2005 2.72266 31.1849 2.71484C31.1771 2.70703 31.1654 2.69922 31.1497 2.69141C31.1419 2.68359 31.138 2.67578 31.138 2.66797V2.69141C31.0833 2.66797 31.0443 2.62891 31.0208 2.57422H31.0443L30.5872 2.14062L30.5404 2.09375C30.5326 2.09375 30.5091 2.08594 30.4701 2.07031C30.431 2.05469 30.4076 2.04688 30.3997 2.04688L30.2591 1.95312L30.1888 1.92969C30.1497 1.92969 30.1224 1.92187 30.1068 1.90625C30.0755 1.90625 30.0521 1.89844 30.0365 1.88281H29.8021C29.7708 1.88281 29.7474 1.89063 29.7318 1.90625L29.6263 1.95312C29.5638 1.95312 29.5169 1.96875 29.4857 2L29.3919 2.04688H29.4154L29.2747 2.14062V2.11719L28.9818 2.45703C28.9818 2.46484 28.9779 2.48437 28.9701 2.51562C28.9622 2.54688 28.9583 2.56641 28.9583 2.57422C28.9427 2.58984 28.9271 2.64453 28.9115 2.73828C28.8333 2.87109 28.7943 2.96094 28.7943 3.00781V3.10156C28.7943 3.10938 28.7904 3.125 28.7826 3.14844C28.7747 3.16406 28.7708 3.17969 28.7708 3.19531C28.7708 3.20312 28.7669 3.22656 28.7591 3.26562C28.7513 3.29688 28.7474 3.33203 28.7474 3.37109V3.75781C28.7474 3.76562 28.7513 3.77734 28.7591 3.79297C28.7669 3.80859 28.7708 3.82031 28.7708 3.82812C28.7708 3.84375 28.7787 3.875 28.7943 3.92188C28.7943 3.92969 28.7982 3.94922 28.806 3.98047C28.8138 4.00391 28.8177 4.02344 28.8177 4.03906L28.9583 4.42578C28.9583 4.50391 28.9818 4.56641 29.0287 4.61328L29.181 4.92969L29.2982 5.07031H29.2747C29.3841 5.17969 29.4388 5.3125 29.4388 5.46875C29.4466 5.61719 29.3919 5.75 29.2747 5.86719C29.1576 5.98438 29.0247 6.04297 28.8763 6.04297C28.7357 6.03516 28.6185 5.97656 28.5247 5.86719C28.1966 5.53906 27.9427 5.13281 27.763 4.64844C27.5912 4.15625 27.5169 3.67969 27.5404 3.21875ZM30.6341 11.4336C30.6341 11.6133 30.6458 11.8203 30.6693 12.0547L30.6927 12.2422L30.7044 12.2773C30.7122 12.3008 30.7162 12.332 30.7162 12.3711L30.9271 12.9219C30.9271 12.9844 30.9349 13.0234 30.9505 13.0391C30.9505 13.0859 30.9662 13.125 30.9974 13.1562L31.0677 13.3086L31.1966 13.4492C31.2513 13.582 31.3216 13.7031 31.4076 13.8125L31.4544 13.9766L31.431 13.9531L31.5247 14.0703L31.8412 14.3867L32.4857 15.0312L32.6615 15.1484C32.6693 15.1484 32.6888 15.1562 32.7201 15.1719C32.7513 15.1875 32.7708 15.1953 32.7787 15.1953C33.0208 15.3281 33.1888 15.4102 33.2826 15.4414L33.4466 15.5117L33.6693 15.582C33.7318 15.6133 33.7787 15.6289 33.8099 15.6289C33.888 15.6758 33.9662 15.6992 34.0443 15.6992C34.0521 15.6992 34.0677 15.7031 34.0912 15.7109C34.1146 15.7188 34.1302 15.7227 34.138 15.7227C34.1615 15.7461 34.2044 15.7578 34.2669 15.7578L34.3138 15.7695C34.3451 15.7773 34.3763 15.7812 34.4076 15.7812C34.4857 15.7812 34.5404 15.7891 34.5716 15.8047C34.8294 15.8047 34.974 15.7969 35.0052 15.7812H35.2044L35.2513 15.7695C35.2747 15.7617 35.306 15.7578 35.3451 15.7578L35.7083 15.6289C35.7396 15.6289 35.7787 15.6055 35.8255 15.5586L36.2357 15.418C36.2513 15.4102 36.2747 15.3906 36.306 15.3594C36.3372 15.3281 36.3607 15.3086 36.3763 15.3008V15.3242L36.4701 15.2422L36.5872 15.1484L36.8099 14.9375H36.7865L37.0677 14.5508L37.0443 14.5742C37.0443 14.5664 37.0521 14.5508 37.0677 14.5273C37.0833 14.5039 37.0912 14.4883 37.0912 14.4805C37.2005 14.3398 37.2669 14.2422 37.2904 14.1875C37.3763 14.0781 37.4388 13.9609 37.4779 13.8359L37.5716 13.707C37.5716 13.6758 37.5794 13.6523 37.5951 13.6367V13.543C37.7591 13.1367 37.8646 12.8242 37.9115 12.6055C37.9115 12.543 37.9193 12.5039 37.9349 12.4883C37.9349 12.4727 37.9388 12.4531 37.9466 12.4297C37.9544 12.4062 37.9583 12.3867 37.9583 12.3711L38.0287 11.9844C37.8802 11.8359 37.7865 11.668 37.7474 11.4805V11.5039C37.6771 11.3242 37.6263 11.1875 37.5951 11.0938L37.5482 10.9062C37.5013 10.8828 37.4779 10.8359 37.4779 10.7656C37.4622 10.75 37.4544 10.7227 37.4544 10.6836C37.3997 10.6055 37.3529 10.5039 37.3138 10.3789L36.974 9.75781H36.9974C36.8958 9.66406 36.8568 9.60547 36.8802 9.58203L36.8099 9.53516L36.5404 9.27734C36.5404 9.27734 36.5169 9.25 36.4701 9.19531L36.3763 9.10156L36.3294 9.05469C36.306 9.05469 36.2591 9.03125 36.1888 8.98438L35.6615 8.66797C35.6146 8.66797 35.5794 8.64453 35.556 8.59766V8.62109L35.2982 8.55078C35.2513 8.54297 35.1849 8.52344 35.099 8.49219C35.013 8.46094 34.9583 8.44141 34.9349 8.43359C34.8099 8.41797 34.5872 8.41016 34.2669 8.41016C34.2513 8.41016 34.2318 8.41406 34.2083 8.42188C34.1927 8.42969 34.181 8.43359 34.1732 8.43359H33.8802C33.8333 8.43359 33.8021 8.44141 33.7865 8.45703H33.6693C33.5912 8.47266 33.4701 8.50391 33.306 8.55078C33.1419 8.59766 33.0208 8.62891 32.9427 8.64453L32.5326 8.79688L32.3685 8.89062C32.3451 8.89844 32.1458 9.00781 31.7708 9.21875V9.19531L31.5482 9.41797L31.4544 9.48828V9.46484L31.1966 9.69922L31.138 9.82812L31.0677 9.96875C31.0052 10.0469 30.9505 10.1602 30.9037 10.3086C30.8724 10.3711 30.8568 10.418 30.8568 10.4492C30.7708 10.6367 30.7162 10.8359 30.6927 11.0469C30.6927 11.0547 30.6888 11.0703 30.681 11.0938C30.6732 11.1172 30.6693 11.1328 30.6693 11.1406L30.6576 11.1875C30.6419 11.2188 30.6341 11.2539 30.6341 11.293V11.4336ZM34.5013 1.83594L35.1576 1.51953L34.6185 1.85938V1.83594L34.5482 1.90625L34.5013 1.83594ZM43.0443 5.29297V5.1875V4.73047C43.0443 4.35547 43.0521 4.07812 43.0677 3.89844C43.0912 3.66406 43.1419 3.4375 43.2201 3.21875C43.2279 3.17188 43.2474 3.10547 43.2787 3.01953C43.3099 2.93359 43.3294 2.86719 43.3372 2.82031L43.3841 2.69141L43.4779 2.48047V2.50391C43.4779 2.49609 43.4818 2.48047 43.4896 2.45703C43.4974 2.43359 43.5013 2.41797 43.5013 2.41016C43.7044 1.96484 44.0169 1.55859 44.4388 1.19141C44.8685 0.824219 45.3177 0.574219 45.7865 0.441406C46.0287 0.378906 46.2982 0.347656 46.5951 0.347656C46.9232 0.347656 47.2279 0.378906 47.5091 0.441406C48.0951 0.542969 48.5833 0.703125 48.974 0.921875L49.1497 1.08594L49.2669 1.20312C49.2669 1.21875 49.2826 1.22656 49.3138 1.22656C49.3372 1.22656 49.3919 1.26953 49.4779 1.35547C49.5013 1.40234 49.5326 1.42578 49.5716 1.42578C49.7513 1.60547 49.9349 1.8125 50.1224 2.04688C50.3568 2.42188 50.5247 2.84766 50.6263 3.32422C50.6654 3.50391 50.6849 3.72656 50.6849 3.99219C50.6849 4.98438 50.4427 5.91406 49.9583 6.78125C50.2162 6.86719 50.431 6.95312 50.6029 7.03906C51.0404 7.36719 51.4037 7.77734 51.6927 8.26953C51.974 8.82422 52.1654 9.53516 52.2669 10.4023C52.3294 10.8477 52.3607 11.3594 52.3607 11.9375C52.3607 12.2891 52.3529 12.5273 52.3372 12.6523C52.2826 13.4336 52.1458 14.1055 51.9271 14.668C51.7396 15.0508 51.388 15.5156 50.8724 16.0625C50.4271 16.5391 50.0287 16.8516 49.6771 17C49.1224 17.2578 48.5833 17.3867 48.0599 17.3867C47.724 17.3867 47.349 17.3203 46.9349 17.1875C46.1224 16.9141 45.3958 16.3945 44.7552 15.6289C44.099 14.8633 43.681 14.0156 43.5013 13.0859C43.4232 12.6797 43.3841 12.3281 43.3841 12.0312C43.3841 11.3984 43.5052 10.7656 43.7474 10.1328C43.8568 9.875 43.9818 9.71484 44.1224 9.65234C44.3099 9.55859 44.513 9.53516 44.7318 9.58203C44.9662 9.63672 45.1419 9.76562 45.2591 9.96875C45.3529 10.1797 45.3685 10.4023 45.306 10.6367C45.2044 10.8633 45.1302 11.0977 45.0833 11.3398C45.0833 11.3555 45.0755 11.3867 45.0599 11.4336C45.0443 11.4805 45.0365 11.5117 45.0365 11.5273C45.0052 11.8711 45.0052 12.1992 45.0365 12.5117C45.1615 12.9961 45.2669 13.3398 45.3529 13.543C45.5482 13.9336 45.6771 14.1758 45.7396 14.2695L45.7865 14.4102L45.8568 14.4805C45.8568 14.4961 45.8802 14.5273 45.9271 14.5742L46.0443 14.7383L46.1146 14.8438H46.0912L46.3841 15.1016C46.4154 15.1328 46.4388 15.1484 46.4544 15.1484C46.4857 15.1641 46.5404 15.1953 46.6185 15.2422C46.7904 15.3672 47.0013 15.4727 47.2513 15.5586C47.4701 15.6445 47.6615 15.6992 47.8255 15.7227C48.013 15.7461 48.1966 15.7461 48.3763 15.7227C48.5951 15.6758 48.7552 15.6289 48.8568 15.582L49.1732 15.4414L49.3372 15.3477C49.3841 15.3008 49.4466 15.2578 49.5247 15.2188L49.7005 15.0547L49.8412 14.8672L49.9818 14.7148L50.0287 14.6211L50.1224 14.4805C50.1224 14.4727 50.1419 14.4414 50.181 14.3867C50.3138 14.207 50.4154 14.0312 50.4857 13.8594C50.6107 13.4688 50.6927 13.1562 50.7318 12.9219C50.7787 12.5781 50.8021 12.2188 50.8021 11.8438C50.8021 11.4375 50.7787 11.0508 50.7318 10.6836C50.6537 10.1758 50.5247 9.71484 50.3451 9.30078C50.3294 9.24609 50.2982 9.17578 50.2513 9.08984C50.2122 8.99609 50.1888 8.9375 50.181 8.91406C50.1732 8.89844 50.1497 8.875 50.1107 8.84375C50.0794 8.8125 50.0599 8.78906 50.0521 8.77344L50.0052 8.64453L49.7708 8.43359V8.45703L49.5951 8.36328C49.5013 8.33203 49.431 8.31641 49.3841 8.31641C49.3451 8.30859 49.2904 8.30469 49.2201 8.30469C49.1497 8.30469 49.099 8.30859 49.0677 8.31641C49.0599 8.31641 49.0521 8.32031 49.0443 8.32812C49.0365 8.33594 49.0287 8.33984 49.0208 8.33984H49.0443C48.9037 8.38672 48.8177 8.41797 48.7865 8.43359C48.7708 8.43359 48.7318 8.44922 48.6693 8.48047C48.6068 8.50391 48.5716 8.51953 48.5638 8.52734L48.4701 8.57422L48.2591 8.71484L48.1302 8.77344H48.1654C47.9935 8.89844 47.7943 8.92969 47.5677 8.86719C47.349 8.79688 47.1927 8.66797 47.099 8.48047C47.0287 8.37109 47.0208 8.20312 47.0755 7.97656C47.138 7.75 47.2513 7.56641 47.4154 7.42578C47.6419 7.23828 47.849 7.03125 48.0365 6.80469L48.306 6.51172L48.5872 6.07812L48.8099 5.64453L48.9037 5.48047L48.974 5.26953V5.29297L49.0443 5C49.0521 4.92969 49.0677 4.83203 49.0912 4.70703C49.1224 4.58203 49.1419 4.49609 49.1497 4.44922C49.1654 4.35547 49.1732 4.20312 49.1732 3.99219C49.1732 3.84375 49.1654 3.69922 49.1497 3.55859V3.58203L49.0208 3.14844L48.9974 3.03125V3.05469L48.8802 2.86719L48.7865 2.66797H48.8099L48.6341 2.48047L48.3763 2.23438V2.26953L48.2357 2.1875L48.0833 2.09375C48.0677 2.09375 48.0521 2.08594 48.0365 2.07031C47.9896 2.07031 47.9662 2.05469 47.9662 2.02344C47.9193 2.02344 47.8724 2 47.8255 1.95312C47.7474 1.95312 47.7005 1.94531 47.6849 1.92969C47.6302 1.92969 47.5794 1.90625 47.5326 1.85938V1.88281L47.2982 1.8125C47.2826 1.8125 47.2474 1.80469 47.1927 1.78906C47.1458 1.77344 47.1146 1.76562 47.099 1.76562L46.9818 1.70703C46.9662 1.69141 46.9193 1.68359 46.8412 1.68359C46.7787 1.66797 46.681 1.66016 46.5482 1.66016L46.3138 1.68359C46.306 1.68359 46.2904 1.6875 46.2669 1.69531C46.2513 1.70313 46.2357 1.70703 46.2201 1.70703C46.181 1.70703 46.1224 1.72656 46.0443 1.76562C46.0287 1.76562 45.974 1.78906 45.8802 1.83594L45.6927 1.92969L45.5638 1.97656H45.5872L45.4232 2.09375L45.1888 2.31641L45.013 2.50391L44.849 2.71484H44.8724L44.7787 2.86719L44.7083 3.00781L44.6029 3.125C44.6029 3.21094 44.5716 3.28516 44.5091 3.34766H44.5326L44.4622 3.53516C44.3841 3.77734 44.3294 3.98438 44.2982 4.15625V4.30859C44.2826 4.33984 44.2747 4.37891 44.2747 4.42578C44.2591 4.50391 44.2513 4.625 44.2513 4.78906C44.2513 5.10938 44.2669 5.34766 44.2982 5.50391C44.306 5.66016 44.2435 5.80078 44.1107 5.92578C43.9857 6.04297 43.849 6.10156 43.7005 6.10156C43.5599 6.10156 43.4271 6.05469 43.3021 5.96094C43.1849 5.86719 43.1146 5.73828 43.0912 5.57422L43.1146 5.59766C43.0833 5.56641 43.0677 5.50391 43.0677 5.41016C43.0677 5.39453 43.0638 5.375 43.056 5.35156C43.0482 5.32031 43.0443 5.30078 43.0443 5.29297ZM49.2201 1.20312C49.2435 1.20312 49.2747 1.22266 49.3138 1.26172L49.2435 1.28516V1.26172L49.2201 1.20312ZM49.2435 1.26172L49.3607 1.22656V1.33203C49.3294 1.33203 49.2904 1.30859 49.2435 1.26172ZM55.7474 7.97656C55.7474 7.13281 55.7787 6.44531 55.8412 5.91406C55.8958 5.13281 56.0247 4.45312 56.2279 3.875C56.4388 3.27344 56.7044 2.72656 57.0247 2.23438C57.3607 1.70313 57.7435 1.26562 58.1732 0.921875C58.6029 0.5625 59.0833 0.3125 59.6146 0.171875C59.8568 0.109375 60.1458 0.078125 60.4818 0.078125C60.849 0.078125 61.1537 0.117187 61.3958 0.195312C61.9271 0.367188 62.4544 0.691406 62.9779 1.16797C63.5091 1.64453 63.931 2.15234 64.2435 2.69141C64.7122 3.53516 65.0404 4.76172 65.2279 6.37109C65.306 6.91797 65.3568 7.49219 65.3802 8.09375V8.26953C65.3802 8.28516 65.3841 8.30859 65.3919 8.33984C65.3997 8.37109 65.4037 8.39453 65.4037 8.41016C65.4349 8.82422 65.4349 9.20703 65.4037 9.55859C65.3646 10.5977 65.1693 11.7969 64.8177 13.1562L64.4427 14.5039V14.4805L64.3372 14.8203L64.2435 15.125C64.2357 15.1719 64.2122 15.2461 64.1732 15.3477C64.1341 15.4492 64.1107 15.5117 64.1029 15.5352L64.056 15.6992C63.806 16.4727 63.6068 16.9961 63.4583 17.2695C63.3802 17.4414 63.2279 17.5508 63.0013 17.5977C62.7826 17.6445 62.5912 17.6211 62.4271 17.5273C62.1224 17.3555 62.0091 17.082 62.0872 16.707C62.181 16.3398 62.3177 15.8945 62.4974 15.3711L62.638 14.9609C62.8099 14.4375 62.9857 13.8594 63.1654 13.2266L63.2591 12.875C63.5638 11.5703 63.7474 10.707 63.8099 10.2852L63.8333 10.2266V10.2617L63.9154 9.39453C63.9154 8.95703 63.9076 8.67578 63.8919 8.55078C63.8919 8.52734 63.8841 8.49219 63.8685 8.44531C63.8607 8.39844 63.8568 8.36328 63.8568 8.33984C63.8255 7.33984 63.763 6.53906 63.6693 5.9375C63.6302 5.71094 63.5599 5.38281 63.4583 4.95312C63.4583 4.9375 63.4544 4.91016 63.4466 4.87109C63.4388 4.82422 63.4349 4.78906 63.4349 4.76562L63.2591 4.15625H63.2826C63.2201 4.09375 63.1888 4.04688 63.1888 4.01562L63.1185 3.85156C63.1185 3.79688 63.1029 3.73828 63.0716 3.67578L62.6615 2.96094L62.4505 2.59766H62.474L61.9232 2.04688L61.9701 1.97656C61.9466 1.97656 61.9154 1.96875 61.8763 1.95312C61.8372 1.9375 61.8099 1.92969 61.7943 1.92969L61.6771 1.83594V1.85938C61.4505 1.70313 61.3216 1.62109 61.2904 1.61328C61.2747 1.61328 61.2591 1.60547 61.2435 1.58984C61.1966 1.58984 61.1732 1.57422 61.1732 1.54297L61.056 1.51953C61.0091 1.51172 60.9466 1.49219 60.8685 1.46094C60.7904 1.42969 60.7396 1.41016 60.7162 1.40234C60.5755 1.40234 60.4974 1.39453 60.4818 1.37891C60.4505 1.37891 60.3841 1.38281 60.2826 1.39062C60.1888 1.39844 60.1263 1.40234 60.0951 1.40234C60.0482 1.40234 60.0091 1.41016 59.9779 1.42578L59.7318 1.47266C59.724 1.48047 59.6615 1.50391 59.5443 1.54297H59.5677L59.4037 1.63672L59.181 1.78906L59.0638 1.8125L59.0872 1.78906L58.9701 1.88281L58.8997 1.95312L58.7005 2.1875C58.6224 2.26563 58.5755 2.31641 58.5599 2.33984L58.2669 2.64453C58.2513 2.66016 58.2435 2.69141 58.2435 2.73828C58.1966 2.79297 58.1185 2.91406 58.0091 3.10156C57.8841 3.28906 57.7474 3.53125 57.599 3.82812C57.599 3.83594 57.5951 3.85547 57.5872 3.88672C57.5794 3.91016 57.5755 3.92969 57.5755 3.94531L57.5052 4.15625L57.3529 4.56641C57.2904 4.77734 57.2279 5.07422 57.1654 5.45703C57.1341 5.58203 57.1185 5.6875 57.1185 5.77344C57.1029 5.78906 57.0951 5.84375 57.0951 5.9375C57.0638 6.125 57.0482 6.26953 57.0482 6.37109C57.0013 6.78516 56.9779 7.21484 56.9779 7.66016V8.07031C56.9779 8.11719 56.9818 8.18359 56.9896 8.26953C56.9974 8.35547 57.0013 8.41797 57.0013 8.45703C57.0247 9.15234 57.0716 9.84766 57.1419 10.543L57.1888 10.6367C57.1888 10.668 57.1966 10.6992 57.2122 10.7305V10.9766C57.2122 10.9844 57.2162 11.0039 57.224 11.0352C57.2318 11.0586 57.2357 11.0781 57.2357 11.0938C57.2357 11.1016 57.2396 11.1211 57.2474 11.1523C57.2552 11.1758 57.2591 11.1953 57.2591 11.2109L57.3294 11.5039L57.5287 12.6289C57.8333 14.1211 58.1029 15.2891 58.3372 16.1328V16.1094L58.5599 16.9531V16.9766C58.599 17.125 58.5794 17.2734 58.5013 17.4219C58.4232 17.5703 58.306 17.6602 58.1497 17.6914H58.1732C58.0247 17.7305 57.8763 17.7109 57.7279 17.6328C57.5794 17.5625 57.4818 17.457 57.4349 17.3164L57.3294 17.0469L57.2591 16.7305V16.7656C56.8607 15.5234 56.5013 14.0664 56.181 12.3945C55.9154 10.9492 55.7708 9.47656 55.7474 7.97656ZM76.8997 3.21875C76.9388 2.71875 77.0833 2.24609 77.3333 1.80078C77.5833 1.35547 77.9193 1.03125 78.3412 0.828125C78.6849 0.679687 78.9974 0.605469 79.2787 0.605469C79.4974 0.605469 79.7357 0.644531 79.9935 0.722656C80.3919 0.863281 80.8568 1.22656 81.388 1.8125L81.681 2.23438C82.0169 1.57031 82.5208 1.05078 83.1927 0.675781C83.4505 0.550781 83.7787 0.472656 84.1771 0.441406C84.3333 0.433594 84.6302 0.480469 85.0677 0.582031C85.513 0.800781 85.9505 1.19531 86.3802 1.76562C86.8724 2.4375 87.3841 3.48438 87.9154 4.90625C88.6341 6.89844 88.9935 8.76172 88.9935 10.4961C88.9935 11.4961 88.8763 12.4062 88.6419 13.2266C88.2357 14.5156 87.6732 15.4844 86.9544 16.1328C86.2044 16.8125 85.3802 17.1992 84.4818 17.293C83.7162 17.3711 82.9505 17.2344 82.1849 16.8828C81.4271 16.5234 80.7396 16.0273 80.1224 15.3945C79.6146 14.8398 79.2122 14.2266 78.9154 13.5547C78.6263 12.875 78.4818 12.1992 78.4818 11.5273C78.4818 11.2539 78.5247 10.9102 78.6107 10.4961C78.7435 10.0117 78.9271 9.57031 79.1615 9.17188C79.4662 8.73438 79.8724 8.32031 80.3802 7.92969C81.3099 7.3125 82.3412 6.96875 83.474 6.89844C83.9818 6.875 84.4857 6.92188 84.9857 7.03906C85.6341 7.20312 86.1966 7.48438 86.6732 7.88281C86.9857 8.15625 87.2083 8.38672 87.3412 8.57422V8.52734V8.41016L87.2708 7.92969C87.1537 7.41406 87.0755 7.08594 87.0365 6.94531C86.8568 6.28906 86.6458 5.64062 86.4037 5L86.0521 4.08594C86.013 4.03906 85.9935 3.99219 85.9935 3.94531C85.9466 3.89844 85.9232 3.85938 85.9232 3.82812C85.8372 3.69531 85.7826 3.59766 85.7591 3.53516L85.349 2.89062L85.2787 2.66797L85.2083 2.59766L85.0912 2.43359C85.0833 2.42578 85.0716 2.41797 85.056 2.41016C85.0482 2.40234 85.0404 2.39453 85.0326 2.38672C85.0247 2.37891 85.0208 2.37109 85.0208 2.36328L84.7044 2.07031L84.6107 2L84.6341 2.02344C84.6029 2.02344 84.5638 2 84.5169 1.95312V1.97656L84.388 1.90625C84.3568 1.875 84.3099 1.85938 84.2474 1.85938C84.224 1.83594 84.1849 1.83594 84.1302 1.85938H84.0599L83.8372 1.92969V1.90625L83.6966 2.02344L83.5794 2.04688L83.6029 2.02344L83.4974 2.09375L83.3802 2.1875L83.1224 2.45703L83.0755 2.55078L82.9466 2.69141H82.9701C82.8919 2.82422 82.8216 2.96094 82.7591 3.10156L82.6888 3.17188V3.24219L82.6185 3.53516V3.80469C82.6654 3.95312 82.7044 4.14453 82.7357 4.37891C82.7357 4.52734 82.6927 4.67969 82.6068 4.83594C82.5287 4.99219 82.4271 5.09375 82.3021 5.14062C82.1458 5.17969 81.9935 5.17578 81.8451 5.12891C81.6966 5.07422 81.5951 4.98438 81.5404 4.85938C81.5013 4.78125 81.4818 4.73047 81.4818 4.70703C81.4271 4.58984 81.3802 4.40625 81.3412 4.15625L81.3177 3.99219C81.3177 3.97656 81.3021 3.94531 81.2708 3.89844C81.1458 3.61719 80.9544 3.29688 80.6966 2.9375H80.7201L80.6732 2.86719L80.5794 2.73828C80.5716 2.73047 80.5599 2.72266 80.5443 2.71484C80.5365 2.70703 80.5247 2.69922 80.5091 2.69141C80.5013 2.68359 80.4974 2.67578 80.4974 2.66797V2.69141C80.4427 2.66797 80.4037 2.62891 80.3802 2.57422H80.4037L79.9466 2.14062L79.8997 2.09375C79.8919 2.09375 79.8685 2.08594 79.8294 2.07031C79.7904 2.05469 79.7669 2.04688 79.7591 2.04688L79.6185 1.95312L79.5482 1.92969C79.5091 1.92969 79.4818 1.92187 79.4662 1.90625C79.4349 1.90625 79.4115 1.89844 79.3958 1.88281H79.1615C79.1302 1.88281 79.1068 1.89063 79.0912 1.90625L78.9857 1.95312C78.9232 1.95312 78.8763 1.96875 78.8451 2L78.7513 2.04688H78.7747L78.6341 2.14062V2.11719L78.3412 2.45703C78.3412 2.46484 78.3372 2.48437 78.3294 2.51562C78.3216 2.54688 78.3177 2.56641 78.3177 2.57422C78.3021 2.58984 78.2865 2.64453 78.2708 2.73828C78.1927 2.87109 78.1537 2.96094 78.1537 3.00781V3.10156C78.1537 3.10938 78.1497 3.125 78.1419 3.14844C78.1341 3.16406 78.1302 3.17969 78.1302 3.19531C78.1302 3.20312 78.1263 3.22656 78.1185 3.26562C78.1107 3.29688 78.1068 3.33203 78.1068 3.37109V3.75781C78.1068 3.76562 78.1107 3.77734 78.1185 3.79297C78.1263 3.80859 78.1302 3.82031 78.1302 3.82812C78.1302 3.84375 78.138 3.875 78.1537 3.92188C78.1537 3.92969 78.1576 3.94922 78.1654 3.98047C78.1732 4.00391 78.1771 4.02344 78.1771 4.03906L78.3177 4.42578C78.3177 4.50391 78.3412 4.56641 78.388 4.61328L78.5404 4.92969L78.6576 5.07031H78.6341C78.7435 5.17969 78.7982 5.3125 78.7982 5.46875C78.806 5.61719 78.7513 5.75 78.6341 5.86719C78.5169 5.98438 78.3841 6.04297 78.2357 6.04297C78.0951 6.03516 77.9779 5.97656 77.8841 5.86719C77.556 5.53906 77.3021 5.13281 77.1224 4.64844C76.9505 4.15625 76.8763 3.67969 76.8997 3.21875ZM79.9935 11.4336C79.9935 11.6133 80.0052 11.8203 80.0287 12.0547L80.0521 12.2422L80.0638 12.2773C80.0716 12.3008 80.0755 12.332 80.0755 12.3711L80.2865 12.9219C80.2865 12.9844 80.2943 13.0234 80.3099 13.0391C80.3099 13.0859 80.3255 13.125 80.3568 13.1562L80.4271 13.3086L80.556 13.4492C80.6107 13.582 80.681 13.7031 80.7669 13.8125L80.8138 13.9766L80.7904 13.9531L80.8841 14.0703L81.2005 14.3867L81.8451 15.0312L82.0208 15.1484C82.0287 15.1484 82.0482 15.1562 82.0794 15.1719C82.1107 15.1875 82.1302 15.1953 82.138 15.1953C82.3802 15.3281 82.5482 15.4102 82.6419 15.4414L82.806 15.5117L83.0287 15.582C83.0912 15.6133 83.138 15.6289 83.1693 15.6289C83.2474 15.6758 83.3255 15.6992 83.4037 15.6992C83.4115 15.6992 83.4271 15.7031 83.4505 15.7109C83.474 15.7188 83.4896 15.7227 83.4974 15.7227C83.5208 15.7461 83.5638 15.7578 83.6263 15.7578L83.6732 15.7695C83.7044 15.7773 83.7357 15.7812 83.7669 15.7812C83.8451 15.7812 83.8997 15.7891 83.931 15.8047C84.1888 15.8047 84.3333 15.7969 84.3646 15.7812H84.5638L84.6107 15.7695C84.6341 15.7617 84.6654 15.7578 84.7044 15.7578L85.0677 15.6289C85.099 15.6289 85.138 15.6055 85.1849 15.5586L85.5951 15.418C85.6107 15.4102 85.6341 15.3906 85.6654 15.3594C85.6966 15.3281 85.7201 15.3086 85.7357 15.3008V15.3242L85.8294 15.2422L85.9466 15.1484L86.1693 14.9375H86.1458L86.4271 14.5508L86.4037 14.5742C86.4037 14.5664 86.4115 14.5508 86.4271 14.5273C86.4427 14.5039 86.4505 14.4883 86.4505 14.4805C86.5599 14.3398 86.6263 14.2422 86.6497 14.1875C86.7357 14.0781 86.7982 13.9609 86.8372 13.8359L86.931 13.707C86.931 13.6758 86.9388 13.6523 86.9544 13.6367V13.543C87.1185 13.1367 87.224 12.8242 87.2708 12.6055C87.2708 12.543 87.2787 12.5039 87.2943 12.4883C87.2943 12.4727 87.2982 12.4531 87.306 12.4297C87.3138 12.4062 87.3177 12.3867 87.3177 12.3711L87.388 11.9844C87.2396 11.8359 87.1458 11.668 87.1068 11.4805V11.5039C87.0365 11.3242 86.9857 11.1875 86.9544 11.0938L86.9076 10.9062C86.8607 10.8828 86.8372 10.8359 86.8372 10.7656C86.8216 10.75 86.8138 10.7227 86.8138 10.6836C86.7591 10.6055 86.7122 10.5039 86.6732 10.3789L86.3333 9.75781H86.3568C86.2552 9.66406 86.2162 9.60547 86.2396 9.58203L86.1693 9.53516L85.8997 9.27734C85.8997 9.27734 85.8763 9.25 85.8294 9.19531L85.7357 9.10156L85.6888 9.05469C85.6654 9.05469 85.6185 9.03125 85.5482 8.98438L85.0208 8.66797C84.974 8.66797 84.9388 8.64453 84.9154 8.59766V8.62109L84.6576 8.55078C84.6107 8.54297 84.5443 8.52344 84.4583 8.49219C84.3724 8.46094 84.3177 8.44141 84.2943 8.43359C84.1693 8.41797 83.9466 8.41016 83.6263 8.41016C83.6107 8.41016 83.5912 8.41406 83.5677 8.42188C83.5521 8.42969 83.5404 8.43359 83.5326 8.43359H83.2396C83.1927 8.43359 83.1615 8.44141 83.1458 8.45703H83.0287C82.9505 8.47266 82.8294 8.50391 82.6654 8.55078C82.5013 8.59766 82.3802 8.62891 82.3021 8.64453L81.8919 8.79688L81.7279 8.89062C81.7044 8.89844 81.5052 9.00781 81.1302 9.21875V9.19531L80.9076 9.41797L80.8138 9.48828V9.46484L80.556 9.69922L80.4974 9.82812L80.4271 9.96875C80.3646 10.0469 80.3099 10.1602 80.263 10.3086C80.2318 10.3711 80.2162 10.418 80.2162 10.4492C80.1302 10.6367 80.0755 10.8359 80.0521 11.0469C80.0521 11.0547 80.0482 11.0703 80.0404 11.0938C80.0326 11.1172 80.0287 11.1328 80.0287 11.1406L80.0169 11.1875C80.0013 11.2188 79.9935 11.2539 79.9935 11.293V11.4336ZM83.8607 1.83594L84.5169 1.51953L83.9779 1.85938V1.83594L83.9076 1.90625L83.8607 1.83594ZM92.4271 11.6211C92.4271 11.1055 92.4779 10.5625 92.5794 9.99219C92.5794 9.84375 92.6615 9.73047 92.8255 9.65234C92.9896 9.56641 93.1615 9.53516 93.3412 9.55859C93.5833 9.63672 93.7044 9.82031 93.7044 10.1094V10.5664C93.7044 11.3711 93.7201 11.9648 93.7513 12.3477V12.3242C93.7669 12.3555 93.7747 12.4102 93.7747 12.4883C93.7747 12.5039 93.7669 12.5195 93.7513 12.5352C93.7513 12.5664 93.7669 12.5977 93.7982 12.6289L93.8685 13.0156L94.0208 13.6367L94.0677 13.7656V13.7305L94.1615 13.9766L94.3724 14.457H94.349L94.4193 14.5742L94.5247 14.6914L94.5716 14.7148L94.8763 15.1016H94.8529L95.099 15.3008C95.099 15.2852 95.1146 15.2773 95.1458 15.2773C95.2474 15.3633 95.3841 15.4414 95.556 15.5117L95.6263 15.582L95.7201 15.6289C95.7357 15.6445 95.7669 15.6523 95.8138 15.6523L96.1068 15.7578C96.1224 15.7734 96.1771 15.7812 96.2708 15.7812C96.2787 15.7812 96.2943 15.7852 96.3177 15.793C96.3412 15.8008 96.3646 15.8047 96.388 15.8047H96.8685L96.9388 15.7812C96.9935 15.7812 97.0521 15.7734 97.1146 15.7578L97.4662 15.6289H97.4427L97.6185 15.582L97.6888 15.5352L98.0521 15.3945L98.1693 15.3477H98.1458L98.4271 15.1719V15.1953L98.556 15.0781L98.6263 15.0078C98.9232 14.75 99.138 14.543 99.2708 14.3867H99.2474L99.5404 14.0469L99.5872 13.9766L99.681 13.9062C99.681 13.8984 99.6888 13.8789 99.7044 13.8477C99.7201 13.8164 99.7279 13.7969 99.7279 13.7891C99.9857 13.3828 100.154 13.0938 100.232 12.9219L100.372 12.6523C100.372 12.6211 100.388 12.5742 100.419 12.5117C100.474 12.4336 100.533 12.2891 100.595 12.0781C100.697 11.7266 100.767 11.4453 100.806 11.2344C100.822 11.1094 100.829 10.8867 100.829 10.5664V10.0156C100.814 9.98438 100.806 9.95312 100.806 9.92188C100.728 9.49219 100.642 9.14844 100.548 8.89062C100.533 8.84375 100.525 8.8125 100.525 8.79688C100.517 8.75781 100.493 8.69922 100.454 8.62109C100.423 8.54297 100.404 8.49609 100.396 8.48047L100.349 8.38672V8.41016L100.279 8.23438L100.232 8.09375V8.11719C100.169 7.99219 100.107 7.89844 100.044 7.83594L99.9388 7.61328H99.9622L99.7279 7.35547L99.4818 7.13281L99.2474 6.875L99.0599 6.67578C99.0521 6.67578 99.0287 6.66797 98.9896 6.65234C98.9583 6.63672 98.9388 6.62891 98.931 6.62891C98.8997 6.61328 98.8607 6.59766 98.8138 6.58203C98.5169 6.34766 98.0287 6.02734 97.349 5.62109C96.9037 5.35547 96.474 4.93359 96.0599 4.35547C95.7474 3.91016 95.4662 3.36328 95.2162 2.71484C95.0677 2.22266 94.9935 1.80859 94.9935 1.47266C94.9935 1.16016 95.0365 0.878906 95.1224 0.628906C95.1849 0.480469 95.2904 0.359375 95.4388 0.265625C95.5951 0.164062 95.7591 0.140625 95.931 0.195312C96.2591 0.289062 96.4349 0.515625 96.4583 0.875V0.992188L96.4818 1.10938V1.20312C96.4818 1.23438 96.4935 1.26172 96.5169 1.28516C96.5169 1.31641 96.5208 1.35937 96.5287 1.41406C96.5365 1.46875 96.5404 1.51172 96.5404 1.54297C96.5794 1.77734 96.6654 2.07422 96.7982 2.43359H96.7747L96.8919 2.59766C96.9466 2.77734 97.0365 2.94531 97.1615 3.10156L97.4896 3.55859L97.9466 4.0625H97.9232L98.0521 4.13281V4.10938L98.2865 4.26172C98.4193 4.34766 98.5169 4.40234 98.5794 4.42578C99.6732 5.12891 100.47 5.77734 100.97 6.37109H100.947C101.236 6.66016 101.447 6.9375 101.579 7.20312C101.611 7.28906 101.681 7.48047 101.79 7.77734C101.9 8.06641 101.974 8.26953 102.013 8.38672C102.247 9.08203 102.365 9.80078 102.365 10.543C102.341 11.9805 101.868 13.3398 100.947 14.6211C99.8841 15.8633 98.8763 16.6562 97.9232 17C97.3138 17.2109 96.6771 17.2656 96.013 17.1641C95.7318 17.125 95.4193 17.0234 95.0755 16.8594L94.6654 16.6133L94.4193 16.4023L94.3255 16.332L94.349 16.3555C94.3412 16.3555 94.3255 16.3477 94.3021 16.332C94.2787 16.3164 94.263 16.3086 94.2552 16.3086C93.4974 15.7148 92.9701 14.8906 92.6732 13.8359C92.5091 13 92.4271 12.2617 92.4271 11.6211ZM104.228 3.21875C104.267 2.71875 104.411 2.24609 104.661 1.80078C104.911 1.35547 105.247 1.03125 105.669 0.828125C106.013 0.679687 106.326 0.605469 106.607 0.605469C106.826 0.605469 107.064 0.644531 107.322 0.722656C107.72 0.863281 108.185 1.22656 108.716 1.8125L109.009 2.23438C109.345 1.57031 109.849 1.05078 110.521 0.675781C110.779 0.550781 111.107 0.472656 111.505 0.441406C111.661 0.433594 111.958 0.480469 112.396 0.582031C112.841 0.800781 113.279 1.19531 113.708 1.76562C114.201 2.4375 114.712 3.48438 115.243 4.90625C115.962 6.89844 116.322 8.76172 116.322 10.4961C116.322 11.4961 116.204 12.4062 115.97 13.2266C115.564 14.5156 115.001 15.4844 114.283 16.1328C113.533 16.8125 112.708 17.1992 111.81 17.293C111.044 17.3711 110.279 17.2344 109.513 16.8828C108.755 16.5234 108.068 16.0273 107.451 15.3945C106.943 14.8398 106.54 14.2266 106.243 13.5547C105.954 12.875 105.81 12.1992 105.81 11.5273C105.81 11.2539 105.853 10.9102 105.939 10.4961C106.072 10.0117 106.255 9.57031 106.49 9.17188C106.794 8.73438 107.201 8.32031 107.708 7.92969C108.638 7.3125 109.669 6.96875 110.802 6.89844C111.31 6.875 111.814 6.92188 112.314 7.03906C112.962 7.20312 113.525 7.48438 114.001 7.88281C114.314 8.15625 114.536 8.38672 114.669 8.57422V8.52734V8.41016L114.599 7.92969C114.482 7.41406 114.404 7.08594 114.365 6.94531C114.185 6.28906 113.974 5.64062 113.732 5L113.38 4.08594C113.341 4.03906 113.322 3.99219 113.322 3.94531C113.275 3.89844 113.251 3.85938 113.251 3.82812C113.165 3.69531 113.111 3.59766 113.087 3.53516L112.677 2.89062L112.607 2.66797L112.536 2.59766L112.419 2.43359C112.411 2.42578 112.4 2.41797 112.384 2.41016C112.376 2.40234 112.368 2.39453 112.361 2.38672C112.353 2.37891 112.349 2.37109 112.349 2.36328L112.033 2.07031L111.939 2L111.962 2.02344C111.931 2.02344 111.892 2 111.845 1.95312V1.97656L111.716 1.90625C111.685 1.875 111.638 1.85938 111.576 1.85938C111.552 1.83594 111.513 1.83594 111.458 1.85938H111.388L111.165 1.92969V1.90625L111.025 2.02344L110.908 2.04688L110.931 2.02344L110.826 2.09375L110.708 2.1875L110.451 2.45703L110.404 2.55078L110.275 2.69141H110.298C110.22 2.82422 110.15 2.96094 110.087 3.10156L110.017 3.17188V3.24219L109.947 3.53516V3.80469C109.993 3.95312 110.033 4.14453 110.064 4.37891C110.064 4.52734 110.021 4.67969 109.935 4.83594C109.857 4.99219 109.755 5.09375 109.63 5.14062C109.474 5.17969 109.322 5.17578 109.173 5.12891C109.025 5.07422 108.923 4.98438 108.868 4.85938C108.829 4.78125 108.81 4.73047 108.81 4.70703C108.755 4.58984 108.708 4.40625 108.669 4.15625L108.646 3.99219C108.646 3.97656 108.63 3.94531 108.599 3.89844C108.474 3.61719 108.283 3.29688 108.025 2.9375H108.048L108.001 2.86719L107.908 2.73828C107.9 2.73047 107.888 2.72266 107.872 2.71484C107.865 2.70703 107.853 2.69922 107.837 2.69141C107.829 2.68359 107.826 2.67578 107.826 2.66797V2.69141C107.771 2.66797 107.732 2.62891 107.708 2.57422H107.732L107.275 2.14062L107.228 2.09375C107.22 2.09375 107.197 2.08594 107.158 2.07031C107.118 2.05469 107.095 2.04688 107.087 2.04688L106.947 1.95312L106.876 1.92969C106.837 1.92969 106.81 1.92187 106.794 1.90625C106.763 1.90625 106.74 1.89844 106.724 1.88281H106.49C106.458 1.88281 106.435 1.89063 106.419 1.90625L106.314 1.95312C106.251 1.95312 106.204 1.96875 106.173 2L106.079 2.04688H106.103L105.962 2.14062V2.11719L105.669 2.45703C105.669 2.46484 105.665 2.48437 105.658 2.51562C105.65 2.54688 105.646 2.56641 105.646 2.57422C105.63 2.58984 105.615 2.64453 105.599 2.73828C105.521 2.87109 105.482 2.96094 105.482 3.00781V3.10156C105.482 3.10938 105.478 3.125 105.47 3.14844C105.462 3.16406 105.458 3.17969 105.458 3.19531C105.458 3.20312 105.454 3.22656 105.447 3.26562C105.439 3.29688 105.435 3.33203 105.435 3.37109V3.75781C105.435 3.76562 105.439 3.77734 105.447 3.79297C105.454 3.80859 105.458 3.82031 105.458 3.82812C105.458 3.84375 105.466 3.875 105.482 3.92188C105.482 3.92969 105.486 3.94922 105.493 3.98047C105.501 4.00391 105.505 4.02344 105.505 4.03906L105.646 4.42578C105.646 4.50391 105.669 4.56641 105.716 4.61328L105.868 4.92969L105.986 5.07031H105.962C106.072 5.17969 106.126 5.3125 106.126 5.46875C106.134 5.61719 106.079 5.75 105.962 5.86719C105.845 5.98438 105.712 6.04297 105.564 6.04297C105.423 6.03516 105.306 5.97656 105.212 5.86719C104.884 5.53906 104.63 5.13281 104.451 4.64844C104.279 4.15625 104.204 3.67969 104.228 3.21875ZM107.322 11.4336C107.322 11.6133 107.333 11.8203 107.357 12.0547L107.38 12.2422L107.392 12.2773C107.4 12.3008 107.404 12.332 107.404 12.3711L107.615 12.9219C107.615 12.9844 107.622 13.0234 107.638 13.0391C107.638 13.0859 107.654 13.125 107.685 13.1562L107.755 13.3086L107.884 13.4492C107.939 13.582 108.009 13.7031 108.095 13.8125L108.142 13.9766L108.118 13.9531L108.212 14.0703L108.529 14.3867L109.173 15.0312L109.349 15.1484C109.357 15.1484 109.376 15.1562 109.408 15.1719C109.439 15.1875 109.458 15.1953 109.466 15.1953C109.708 15.3281 109.876 15.4102 109.97 15.4414L110.134 15.5117L110.357 15.582C110.419 15.6133 110.466 15.6289 110.497 15.6289C110.576 15.6758 110.654 15.6992 110.732 15.6992C110.74 15.6992 110.755 15.7031 110.779 15.7109C110.802 15.7188 110.818 15.7227 110.826 15.7227C110.849 15.7461 110.892 15.7578 110.954 15.7578L111.001 15.7695C111.033 15.7773 111.064 15.7812 111.095 15.7812C111.173 15.7812 111.228 15.7891 111.259 15.8047C111.517 15.8047 111.661 15.7969 111.693 15.7812H111.892L111.939 15.7695C111.962 15.7617 111.993 15.7578 112.033 15.7578L112.396 15.6289C112.427 15.6289 112.466 15.6055 112.513 15.5586L112.923 15.418C112.939 15.4102 112.962 15.3906 112.993 15.3594C113.025 15.3281 113.048 15.3086 113.064 15.3008V15.3242L113.158 15.2422L113.275 15.1484L113.497 14.9375H113.474L113.755 14.5508L113.732 14.5742C113.732 14.5664 113.74 14.5508 113.755 14.5273C113.771 14.5039 113.779 14.4883 113.779 14.4805C113.888 14.3398 113.954 14.2422 113.978 14.1875C114.064 14.0781 114.126 13.9609 114.165 13.8359L114.259 13.707C114.259 13.6758 114.267 13.6523 114.283 13.6367V13.543C114.447 13.1367 114.552 12.8242 114.599 12.6055C114.599 12.543 114.607 12.5039 114.622 12.4883C114.622 12.4727 114.626 12.4531 114.634 12.4297C114.642 12.4062 114.646 12.3867 114.646 12.3711L114.716 11.9844C114.568 11.8359 114.474 11.668 114.435 11.4805V11.5039C114.365 11.3242 114.314 11.1875 114.283 11.0938L114.236 10.9062C114.189 10.8828 114.165 10.8359 114.165 10.7656C114.15 10.75 114.142 10.7227 114.142 10.6836C114.087 10.6055 114.04 10.5039 114.001 10.3789L113.661 9.75781H113.685C113.583 9.66406 113.544 9.60547 113.568 9.58203L113.497 9.53516L113.228 9.27734C113.228 9.27734 113.204 9.25 113.158 9.19531L113.064 9.10156L113.017 9.05469C112.993 9.05469 112.947 9.03125 112.876 8.98438L112.349 8.66797C112.302 8.66797 112.267 8.64453 112.243 8.59766V8.62109L111.986 8.55078C111.939 8.54297 111.872 8.52344 111.786 8.49219C111.701 8.46094 111.646 8.44141 111.622 8.43359C111.497 8.41797 111.275 8.41016 110.954 8.41016C110.939 8.41016 110.919 8.41406 110.896 8.42188C110.88 8.42969 110.868 8.43359 110.861 8.43359H110.568C110.521 8.43359 110.49 8.44141 110.474 8.45703H110.357C110.279 8.47266 110.158 8.50391 109.993 8.55078C109.829 8.59766 109.708 8.62891 109.63 8.64453L109.22 8.79688L109.056 8.89062C109.033 8.89844 108.833 9.00781 108.458 9.21875V9.19531L108.236 9.41797L108.142 9.48828V9.46484L107.884 9.69922L107.826 9.82812L107.755 9.96875C107.693 10.0469 107.638 10.1602 107.591 10.3086C107.56 10.3711 107.544 10.418 107.544 10.4492C107.458 10.6367 107.404 10.8359 107.38 11.0469C107.38 11.0547 107.376 11.0703 107.368 11.0938C107.361 11.1172 107.357 11.1328 107.357 11.1406L107.345 11.1875C107.329 11.2188 107.322 11.2539 107.322 11.293V11.4336ZM111.189 1.83594L111.845 1.51953L111.306 1.85938V1.83594L111.236 1.90625L111.189 1.83594ZM119.732 5.29297V5.1875V4.73047C119.732 4.35547 119.74 4.07812 119.755 3.89844C119.779 3.66406 119.829 3.4375 119.908 3.21875C119.915 3.17188 119.935 3.10547 119.966 3.01953C119.997 2.93359 120.017 2.86719 120.025 2.82031L120.072 2.69141L120.165 2.48047V2.50391C120.165 2.49609 120.169 2.48047 120.177 2.45703C120.185 2.43359 120.189 2.41797 120.189 2.41016C120.392 1.96484 120.704 1.55859 121.126 1.19141C121.556 0.824219 122.005 0.574219 122.474 0.441406C122.716 0.378906 122.986 0.347656 123.283 0.347656C123.611 0.347656 123.915 0.378906 124.197 0.441406C124.783 0.542969 125.271 0.703125 125.661 0.921875L125.837 1.08594L125.954 1.20312C125.954 1.21875 125.97 1.22656 126.001 1.22656C126.025 1.22656 126.079 1.26953 126.165 1.35547C126.189 1.40234 126.22 1.42578 126.259 1.42578C126.439 1.60547 126.622 1.8125 126.81 2.04688C127.044 2.42188 127.212 2.84766 127.314 3.32422C127.353 3.50391 127.372 3.72656 127.372 3.99219C127.372 4.98438 127.13 5.91406 126.646 6.78125C126.904 6.86719 127.118 6.95312 127.29 7.03906C127.728 7.36719 128.091 7.77734 128.38 8.26953C128.661 8.82422 128.853 9.53516 128.954 10.4023C129.017 10.8477 129.048 11.3594 129.048 11.9375C129.048 12.2891 129.04 12.5273 129.025 12.6523C128.97 13.4336 128.833 14.1055 128.615 14.668C128.427 15.0508 128.076 15.5156 127.56 16.0625C127.115 16.5391 126.716 16.8516 126.365 17C125.81 17.2578 125.271 17.3867 124.747 17.3867C124.411 17.3867 124.036 17.3203 123.622 17.1875C122.81 16.9141 122.083 16.3945 121.443 15.6289C120.786 14.8633 120.368 14.0156 120.189 13.0859C120.111 12.6797 120.072 12.3281 120.072 12.0312C120.072 11.3984 120.193 10.7656 120.435 10.1328C120.544 9.875 120.669 9.71484 120.81 9.65234C120.997 9.55859 121.201 9.53516 121.419 9.58203C121.654 9.63672 121.829 9.76562 121.947 9.96875C122.04 10.1797 122.056 10.4023 121.993 10.6367C121.892 10.8633 121.818 11.0977 121.771 11.3398C121.771 11.3555 121.763 11.3867 121.747 11.4336C121.732 11.4805 121.724 11.5117 121.724 11.5273C121.693 11.8711 121.693 12.1992 121.724 12.5117C121.849 12.9961 121.954 13.3398 122.04 13.543C122.236 13.9336 122.365 14.1758 122.427 14.2695L122.474 14.4102L122.544 14.4805C122.544 14.4961 122.568 14.5273 122.615 14.5742L122.732 14.7383L122.802 14.8438H122.779L123.072 15.1016C123.103 15.1328 123.126 15.1484 123.142 15.1484C123.173 15.1641 123.228 15.1953 123.306 15.2422C123.478 15.3672 123.689 15.4727 123.939 15.5586C124.158 15.6445 124.349 15.6992 124.513 15.7227C124.701 15.7461 124.884 15.7461 125.064 15.7227C125.283 15.6758 125.443 15.6289 125.544 15.582L125.861 15.4414L126.025 15.3477C126.072 15.3008 126.134 15.2578 126.212 15.2188L126.388 15.0547L126.529 14.8672L126.669 14.7148L126.716 14.6211L126.81 14.4805C126.81 14.4727 126.829 14.4414 126.868 14.3867C127.001 14.207 127.103 14.0312 127.173 13.8594C127.298 13.4688 127.38 13.1562 127.419 12.9219C127.466 12.5781 127.49 12.2188 127.49 11.8438C127.49 11.4375 127.466 11.0508 127.419 10.6836C127.341 10.1758 127.212 9.71484 127.033 9.30078C127.017 9.24609 126.986 9.17578 126.939 9.08984C126.9 8.99609 126.876 8.9375 126.868 8.91406C126.861 8.89844 126.837 8.875 126.798 8.84375C126.767 8.8125 126.747 8.78906 126.74 8.77344L126.693 8.64453L126.458 8.43359V8.45703L126.283 8.36328C126.189 8.33203 126.118 8.31641 126.072 8.31641C126.033 8.30859 125.978 8.30469 125.908 8.30469C125.837 8.30469 125.786 8.30859 125.755 8.31641C125.747 8.31641 125.74 8.32031 125.732 8.32812C125.724 8.33594 125.716 8.33984 125.708 8.33984H125.732C125.591 8.38672 125.505 8.41797 125.474 8.43359C125.458 8.43359 125.419 8.44922 125.357 8.48047C125.294 8.50391 125.259 8.51953 125.251 8.52734L125.158 8.57422L124.947 8.71484L124.818 8.77344H124.853C124.681 8.89844 124.482 8.92969 124.255 8.86719C124.036 8.79688 123.88 8.66797 123.786 8.48047C123.716 8.37109 123.708 8.20312 123.763 7.97656C123.826 7.75 123.939 7.56641 124.103 7.42578C124.329 7.23828 124.536 7.03125 124.724 6.80469L124.993 6.51172L125.275 6.07812L125.497 5.64453L125.591 5.48047L125.661 5.26953V5.29297L125.732 5C125.74 4.92969 125.755 4.83203 125.779 4.70703C125.81 4.58203 125.829 4.49609 125.837 4.44922C125.853 4.35547 125.861 4.20312 125.861 3.99219C125.861 3.84375 125.853 3.69922 125.837 3.55859V3.58203L125.708 3.14844L125.685 3.03125V3.05469L125.568 2.86719L125.474 2.66797H125.497L125.322 2.48047L125.064 2.23438V2.26953L124.923 2.1875L124.771 2.09375C124.755 2.09375 124.74 2.08594 124.724 2.07031C124.677 2.07031 124.654 2.05469 124.654 2.02344C124.607 2.02344 124.56 2 124.513 1.95312C124.435 1.95312 124.388 1.94531 124.372 1.92969C124.318 1.92969 124.267 1.90625 124.22 1.85938V1.88281L123.986 1.8125C123.97 1.8125 123.935 1.80469 123.88 1.78906C123.833 1.77344 123.802 1.76562 123.786 1.76562L123.669 1.70703C123.654 1.69141 123.607 1.68359 123.529 1.68359C123.466 1.66797 123.368 1.66016 123.236 1.66016L123.001 1.68359C122.993 1.68359 122.978 1.6875 122.954 1.69531C122.939 1.70313 122.923 1.70703 122.908 1.70703C122.868 1.70703 122.81 1.72656 122.732 1.76562C122.716 1.76562 122.661 1.78906 122.568 1.83594L122.38 1.92969L122.251 1.97656H122.275L122.111 2.09375L121.876 2.31641L121.701 2.50391L121.536 2.71484H121.56L121.466 2.86719L121.396 3.00781L121.29 3.125C121.29 3.21094 121.259 3.28516 121.197 3.34766H121.22L121.15 3.53516C121.072 3.77734 121.017 3.98438 120.986 4.15625V4.30859C120.97 4.33984 120.962 4.37891 120.962 4.42578C120.947 4.50391 120.939 4.625 120.939 4.78906C120.939 5.10938 120.954 5.34766 120.986 5.50391C120.993 5.66016 120.931 5.80078 120.798 5.92578C120.673 6.04297 120.536 6.10156 120.388 6.10156C120.247 6.10156 120.115 6.05469 119.99 5.96094C119.872 5.86719 119.802 5.73828 119.779 5.57422L119.802 5.59766C119.771 5.56641 119.755 5.50391 119.755 5.41016C119.755 5.39453 119.751 5.375 119.743 5.35156C119.736 5.32031 119.732 5.30078 119.732 5.29297ZM125.908 1.20312C125.931 1.20312 125.962 1.22266 126.001 1.26172L125.931 1.28516V1.26172L125.908 1.20312ZM125.931 1.26172L126.048 1.22656V1.33203C126.017 1.33203 125.978 1.30859 125.931 1.26172ZM132.435 7.97656C132.435 7.13281 132.466 6.44531 132.529 5.91406C132.583 5.13281 132.712 4.45312 132.915 3.875C133.126 3.27344 133.392 2.72656 133.712 2.23438C134.048 1.70313 134.431 1.26562 134.861 0.921875C135.29 0.5625 135.771 0.3125 136.302 0.171875C136.544 0.109375 136.833 0.078125 137.169 0.078125C137.536 0.078125 137.841 0.117187 138.083 0.195312C138.615 0.367188 139.142 0.691406 139.665 1.16797C140.197 1.64453 140.618 2.15234 140.931 2.69141C141.4 3.53516 141.728 4.76172 141.915 6.37109C141.993 6.91797 142.044 7.49219 142.068 8.09375V8.26953C142.068 8.28516 142.072 8.30859 142.079 8.33984C142.087 8.37109 142.091 8.39453 142.091 8.41016C142.122 8.82422 142.122 9.20703 142.091 9.55859C142.052 10.5977 141.857 11.7969 141.505 13.1562L141.13 14.5039V14.4805L141.025 14.8203L140.931 15.125C140.923 15.1719 140.9 15.2461 140.861 15.3477C140.822 15.4492 140.798 15.5117 140.79 15.5352L140.743 15.6992C140.493 16.4727 140.294 16.9961 140.146 17.2695C140.068 17.4414 139.915 17.5508 139.689 17.5977C139.47 17.6445 139.279 17.6211 139.115 17.5273C138.81 17.3555 138.697 17.082 138.775 16.707C138.868 16.3398 139.005 15.8945 139.185 15.3711L139.326 14.9609C139.497 14.4375 139.673 13.8594 139.853 13.2266L139.947 12.875C140.251 11.5703 140.435 10.707 140.497 10.2852L140.521 10.2266V10.2617L140.603 9.39453C140.603 8.95703 140.595 8.67578 140.579 8.55078C140.579 8.52734 140.572 8.49219 140.556 8.44531C140.548 8.39844 140.544 8.36328 140.544 8.33984C140.513 7.33984 140.451 6.53906 140.357 5.9375C140.318 5.71094 140.247 5.38281 140.146 4.95312C140.146 4.9375 140.142 4.91016 140.134 4.87109C140.126 4.82422 140.122 4.78906 140.122 4.76562L139.947 4.15625H139.97C139.908 4.09375 139.876 4.04688 139.876 4.01562L139.806 3.85156C139.806 3.79688 139.79 3.73828 139.759 3.67578L139.349 2.96094L139.138 2.59766H139.161L138.611 2.04688L138.658 1.97656C138.634 1.97656 138.603 1.96875 138.564 1.95312C138.525 1.9375 138.497 1.92969 138.482 1.92969L138.365 1.83594V1.85938C138.138 1.70313 138.009 1.62109 137.978 1.61328C137.962 1.61328 137.947 1.60547 137.931 1.58984C137.884 1.58984 137.861 1.57422 137.861 1.54297L137.743 1.51953C137.697 1.51172 137.634 1.49219 137.556 1.46094C137.478 1.42969 137.427 1.41016 137.404 1.40234C137.263 1.40234 137.185 1.39453 137.169 1.37891C137.138 1.37891 137.072 1.38281 136.97 1.39062C136.876 1.39844 136.814 1.40234 136.783 1.40234C136.736 1.40234 136.697 1.41016 136.665 1.42578L136.419 1.47266C136.411 1.48047 136.349 1.50391 136.232 1.54297H136.255L136.091 1.63672L135.868 1.78906L135.751 1.8125L135.775 1.78906L135.658 1.88281L135.587 1.95312L135.388 2.1875C135.31 2.26563 135.263 2.31641 135.247 2.33984L134.954 2.64453C134.939 2.66016 134.931 2.69141 134.931 2.73828C134.884 2.79297 134.806 2.91406 134.697 3.10156C134.572 3.28906 134.435 3.53125 134.286 3.82812C134.286 3.83594 134.283 3.85547 134.275 3.88672C134.267 3.91016 134.263 3.92969 134.263 3.94531L134.193 4.15625L134.04 4.56641C133.978 4.77734 133.915 5.07422 133.853 5.45703C133.822 5.58203 133.806 5.6875 133.806 5.77344C133.79 5.78906 133.783 5.84375 133.783 5.9375C133.751 6.125 133.736 6.26953 133.736 6.37109C133.689 6.78516 133.665 7.21484 133.665 7.66016V8.07031C133.665 8.11719 133.669 8.18359 133.677 8.26953C133.685 8.35547 133.689 8.41797 133.689 8.45703C133.712 9.15234 133.759 9.84766 133.829 10.543L133.876 10.6367C133.876 10.668 133.884 10.6992 133.9 10.7305V10.9766C133.9 10.9844 133.904 11.0039 133.911 11.0352C133.919 11.0586 133.923 11.0781 133.923 11.0938C133.923 11.1016 133.927 11.1211 133.935 11.1523C133.943 11.1758 133.947 11.1953 133.947 11.2109L134.017 11.5039L134.216 12.6289C134.521 14.1211 134.79 15.2891 135.025 16.1328V16.1094L135.247 16.9531V16.9766C135.286 17.125 135.267 17.2734 135.189 17.4219C135.111 17.5703 134.993 17.6602 134.837 17.6914H134.861C134.712 17.7305 134.564 17.7109 134.415 17.6328C134.267 17.5625 134.169 17.457 134.122 17.3164L134.017 17.0469L133.947 16.7305V16.7656C133.548 15.5234 133.189 14.0664 132.868 12.3945C132.603 10.9492 132.458 9.47656 132.435 7.97656ZM155.076 5.14062V4.33203C155.076 4.21484 155.083 4.11719 155.099 4.03906C155.115 3.97656 155.122 3.90625 155.122 3.82812C155.169 3.46875 155.251 3.15625 155.368 2.89062C155.673 2.20312 156.169 1.68359 156.857 1.33203C157.247 1.12891 157.72 1 158.275 0.945312C158.556 0.914062 158.802 0.898438 159.013 0.898438C159.279 0.898438 159.56 0.921875 159.857 0.96875C160.849 1.15625 161.728 1.76562 162.493 2.79688C162.868 3.33594 163.181 3.93359 163.431 4.58984C163.673 5.32422 163.88 6.01172 164.052 6.65234C164.294 8.05859 164.415 8.77344 164.415 8.79688C164.415 8.8125 164.419 8.83203 164.427 8.85547C164.435 8.87891 164.439 8.89844 164.439 8.91406C164.525 9.46875 164.595 10.0859 164.65 10.7656V11.3867C164.704 11.6055 164.732 11.8125 164.732 12.0078C164.732 12.1797 164.673 12.3398 164.556 12.4883C164.509 12.8789 164.431 13.2539 164.322 13.6133C164.033 14.707 163.544 15.5312 162.857 16.0859C162.466 16.3906 162.009 16.6719 161.486 16.9297C161.353 17.0078 161.122 17.0781 160.794 17.1406C160.529 17.2031 160.216 17.2461 159.857 17.2695C158.513 17.3164 157.4 16.9688 156.517 16.2266C155.587 15.4688 155.122 14.3516 155.122 12.875C155.122 12.0547 155.267 11.3008 155.556 10.6133C155.743 10.168 156.025 9.76172 156.4 9.39453C156.775 9.01953 157.197 8.72266 157.665 8.50391C158.626 8.03516 159.603 7.83594 160.595 7.90625C161.173 7.96094 161.63 8.05469 161.966 8.1875C162.349 8.34375 162.701 8.51953 163.021 8.71484V8.69141C162.911 8.00391 162.767 7.30078 162.587 6.58203V6.60547C162.345 5.76953 162.107 5.06641 161.872 4.49609H161.896C161.841 4.44141 161.81 4.40234 161.802 4.37891C161.794 4.36328 161.783 4.32812 161.767 4.27344L161.732 4.17969L161.533 3.82812L161.298 3.46484C161.267 3.46484 161.251 3.43359 161.251 3.37109C161.197 3.31641 161.161 3.27344 161.146 3.24219C161.044 3.07812 160.892 2.91016 160.689 2.73828C160.673 2.72266 160.634 2.69141 160.572 2.64453C160.556 2.62891 160.533 2.61328 160.501 2.59766C160.493 2.59766 160.474 2.58984 160.443 2.57422C160.411 2.55859 160.392 2.55078 160.384 2.55078L160.22 2.43359C160.181 2.43359 160.146 2.41797 160.115 2.38672C160.107 2.38672 160.091 2.38281 160.068 2.375C160.044 2.36719 160.029 2.36328 160.021 2.36328C159.99 2.33203 159.853 2.30078 159.611 2.26953L159.423 2.1875H159.236C158.954 2.16406 158.673 2.16406 158.392 2.1875C158.384 2.1875 158.368 2.19141 158.345 2.19922C158.329 2.20703 158.314 2.21094 158.298 2.21094C158.228 2.21094 158.185 2.21875 158.169 2.23438C158.154 2.23438 158.068 2.25391 157.911 2.29297L157.771 2.33984H157.794L157.572 2.41016V2.38672L157.501 2.45703C157.493 2.45703 157.478 2.46094 157.454 2.46875C157.431 2.47656 157.415 2.48047 157.408 2.48047L157.267 2.57422L157.044 2.69141V2.66797L156.974 2.73828H156.997C156.966 2.82422 156.896 2.89062 156.786 2.9375V2.91406C156.771 2.92969 156.763 2.95312 156.763 2.98438L156.658 3.10156L156.54 3.27734L156.564 3.24219C156.564 3.25 156.556 3.26953 156.54 3.30078C156.525 3.32422 156.517 3.33984 156.517 3.34766C156.509 3.35547 156.505 3.37109 156.505 3.39453C156.505 3.41016 156.501 3.42578 156.493 3.44141C156.493 3.48828 156.486 3.51172 156.47 3.51172L156.376 3.67578V3.78125C156.345 3.8125 156.329 3.84375 156.329 3.875L156.259 4.26172C156.259 4.38672 156.251 4.46484 156.236 4.49609V5.23438C156.236 5.25 156.24 5.27344 156.247 5.30469C156.255 5.33594 156.259 5.35547 156.259 5.36328C156.259 5.42578 156.267 5.48047 156.283 5.52734V5.69141C156.29 5.86328 156.236 6.01172 156.118 6.13672C156.001 6.26172 155.865 6.32422 155.708 6.32422C155.552 6.32422 155.423 6.26172 155.322 6.13672C155.22 6.01172 155.161 5.85547 155.146 5.66797C155.13 5.63672 155.122 5.56641 155.122 5.45703C155.122 5.44922 155.118 5.43359 155.111 5.41016C155.103 5.38672 155.099 5.37109 155.099 5.36328V5.26953C155.099 5.21484 155.091 5.17188 155.076 5.14062ZM155.169 5.59766C155.177 5.46484 155.24 5.35547 155.357 5.26953C155.474 5.18359 155.607 5.14062 155.755 5.14062V5.33984C155.521 5.35547 155.368 5.46484 155.298 5.66797L155.169 5.59766ZM156.611 12.6523C156.611 12.9492 156.618 13.168 156.634 13.3086V13.4492C156.634 13.4805 156.642 13.5117 156.658 13.543C156.658 13.5977 156.677 13.6445 156.716 13.6836C156.747 13.8867 156.794 14.0469 156.857 14.1641C156.857 14.2344 156.872 14.2773 156.904 14.293L156.951 14.4102L156.997 14.5039V14.4805L157.115 14.6445L157.185 14.7969H157.161L157.267 14.8906C157.283 14.8906 157.298 14.8984 157.314 14.9141L157.478 15.1016L157.642 15.2422L157.771 15.3477L157.747 15.3242C157.755 15.3242 157.775 15.332 157.806 15.3477C157.837 15.3633 157.857 15.3711 157.865 15.3711L157.935 15.418C157.966 15.4492 157.997 15.4648 158.029 15.4648L158.052 15.4883L158.193 15.5C158.208 15.5078 158.22 15.5117 158.228 15.5117C158.306 15.5273 158.423 15.5586 158.579 15.6055C158.743 15.6523 158.865 15.6836 158.943 15.6992C159.005 15.6992 159.052 15.707 159.083 15.7227H159.259C159.423 15.7461 159.576 15.7578 159.716 15.7578H160.091C160.138 15.7344 160.212 15.7227 160.314 15.7227C160.345 15.7227 160.368 15.7148 160.384 15.6992C160.478 15.6836 160.724 15.6289 161.122 15.5352C161.138 15.5273 161.158 15.5117 161.181 15.4883C161.212 15.4648 161.236 15.4492 161.251 15.4414L161.486 15.3477C161.642 15.2695 161.747 15.2031 161.802 15.1484C161.818 15.1484 161.841 15.1328 161.872 15.1016L161.943 15.0547L161.896 15.0781L162.306 14.668L162.4 14.5508L162.376 14.5742C162.376 14.5664 162.384 14.543 162.4 14.5039C162.415 14.4648 162.423 14.4414 162.423 14.4336C162.454 14.3867 162.509 14.2891 162.587 14.1406L162.634 14.0469L162.763 13.8828L162.786 13.8125C162.786 13.7422 162.802 13.6914 162.833 13.6602L162.927 13.4023C163.005 13.2461 163.044 13.125 163.044 13.0391L163.115 12.8047V12.8281L163.185 12.4414C163.208 12.418 163.22 12.3867 163.22 12.3477C163.165 12.1836 163.138 12.0703 163.138 12.0078C163.138 11.8906 163.13 11.8008 163.115 11.7383C163.091 11.5352 163.029 11.3047 162.927 11.0469L162.88 10.9297V10.9531L162.763 10.6836L162.611 10.4961C162.579 10.4648 162.564 10.4258 162.564 10.3789L162.423 10.2617L162.154 9.99219C162.099 9.99219 162.06 9.96875 162.036 9.92188V9.94531L161.872 9.85156L161.603 9.69922L161.556 9.67578C161.525 9.67578 161.501 9.66797 161.486 9.65234C161.423 9.65234 161.384 9.63672 161.368 9.60547L161.099 9.53516L160.689 9.46484C160.306 9.43359 159.962 9.43359 159.658 9.46484L158.943 9.58203L158.579 9.67578L158.462 9.75781L158.345 9.80469H158.368C158.103 9.95312 157.904 10.0859 157.771 10.2031C157.763 10.2031 157.747 10.207 157.724 10.2148C157.708 10.2227 157.697 10.2266 157.689 10.2266L157.408 10.4961V10.4727L157.337 10.543H157.361L157.138 10.9062L157.044 11.0938C156.99 11.1562 156.951 11.2148 156.927 11.2695C156.911 11.2852 156.904 11.3242 156.904 11.3867L156.681 12.0547L156.669 12.0898C156.661 12.1133 156.658 12.1406 156.658 12.1719L156.634 12.3242C156.634 12.3398 156.63 12.3594 156.622 12.3828C156.615 12.3984 156.611 12.4102 156.611 12.418V12.6523ZM162.81 13.7305L162.857 13.6602C163.091 13.4258 163.212 13.3242 163.22 13.3555C163.22 13.3867 163.138 13.5625 162.974 13.8828L162.81 13.7305ZM168.13 11.6211C168.13 11.1055 168.181 10.5625 168.283 9.99219C168.283 9.84375 168.365 9.73047 168.529 9.65234C168.693 9.56641 168.865 9.53516 169.044 9.55859C169.286 9.63672 169.408 9.82031 169.408 10.1094V10.5664C169.408 11.3711 169.423 11.9648 169.454 12.3477V12.3242C169.47 12.3555 169.478 12.4102 169.478 12.4883C169.478 12.5039 169.47 12.5195 169.454 12.5352C169.454 12.5664 169.47 12.5977 169.501 12.6289L169.572 13.0156L169.724 13.6367L169.771 13.7656V13.7305L169.865 13.9766L170.076 14.457H170.052L170.122 14.5742L170.228 14.6914L170.275 14.7148L170.579 15.1016H170.556L170.802 15.3008C170.802 15.2852 170.818 15.2773 170.849 15.2773C170.951 15.3633 171.087 15.4414 171.259 15.5117L171.329 15.582L171.423 15.6289C171.439 15.6445 171.47 15.6523 171.517 15.6523L171.81 15.7578C171.826 15.7734 171.88 15.7812 171.974 15.7812C171.982 15.7812 171.997 15.7852 172.021 15.793C172.044 15.8008 172.068 15.8047 172.091 15.8047H172.572L172.642 15.7812C172.697 15.7812 172.755 15.7734 172.818 15.7578L173.169 15.6289H173.146L173.322 15.582L173.392 15.5352L173.755 15.3945L173.872 15.3477H173.849L174.13 15.1719V15.1953L174.259 15.0781L174.329 15.0078C174.626 14.75 174.841 14.543 174.974 14.3867H174.951L175.243 14.0469L175.29 13.9766L175.384 13.9062C175.384 13.8984 175.392 13.8789 175.408 13.8477C175.423 13.8164 175.431 13.7969 175.431 13.7891C175.689 13.3828 175.857 13.0938 175.935 12.9219L176.076 12.6523C176.076 12.6211 176.091 12.5742 176.122 12.5117C176.177 12.4336 176.236 12.2891 176.298 12.0781C176.4 11.7266 176.47 11.4453 176.509 11.2344C176.525 11.1094 176.533 10.8867 176.533 10.5664V10.0156C176.517 9.98438 176.509 9.95312 176.509 9.92188C176.431 9.49219 176.345 9.14844 176.251 8.89062C176.236 8.84375 176.228 8.8125 176.228 8.79688C176.22 8.75781 176.197 8.69922 176.158 8.62109C176.126 8.54297 176.107 8.49609 176.099 8.48047L176.052 8.38672V8.41016L175.982 8.23438L175.935 8.09375V8.11719C175.872 7.99219 175.81 7.89844 175.747 7.83594L175.642 7.61328H175.665L175.431 7.35547L175.185 7.13281L174.951 6.875L174.763 6.67578C174.755 6.67578 174.732 6.66797 174.693 6.65234C174.661 6.63672 174.642 6.62891 174.634 6.62891C174.603 6.61328 174.564 6.59766 174.517 6.58203C174.22 6.34766 173.732 6.02734 173.052 5.62109C172.607 5.35547 172.177 4.93359 171.763 4.35547C171.451 3.91016 171.169 3.36328 170.919 2.71484C170.771 2.22266 170.697 1.80859 170.697 1.47266C170.697 1.16016 170.74 0.878906 170.826 0.628906C170.888 0.480469 170.993 0.359375 171.142 0.265625C171.298 0.164062 171.462 0.140625 171.634 0.195312C171.962 0.289062 172.138 0.515625 172.161 0.875V0.992188L172.185 1.10938V1.20312C172.185 1.23438 172.197 1.26172 172.22 1.28516C172.22 1.31641 172.224 1.35937 172.232 1.41406C172.24 1.46875 172.243 1.51172 172.243 1.54297C172.283 1.77734 172.368 2.07422 172.501 2.43359H172.478L172.595 2.59766C172.65 2.77734 172.74 2.94531 172.865 3.10156L173.193 3.55859L173.65 4.0625H173.626L173.755 4.13281V4.10938L173.99 4.26172C174.122 4.34766 174.22 4.40234 174.283 4.42578C175.376 5.12891 176.173 5.77734 176.673 6.37109H176.65C176.939 6.66016 177.15 6.9375 177.283 7.20312C177.314 7.28906 177.384 7.48047 177.493 7.77734C177.603 8.06641 177.677 8.26953 177.716 8.38672C177.951 9.08203 178.068 9.80078 178.068 10.543C178.044 11.9805 177.572 13.3398 176.65 14.6211C175.587 15.8633 174.579 16.6562 173.626 17C173.017 17.2109 172.38 17.2656 171.716 17.1641C171.435 17.125 171.122 17.0234 170.779 16.8594L170.368 16.6133L170.122 16.4023L170.029 16.332L170.052 16.3555C170.044 16.3555 170.029 16.3477 170.005 16.332C169.982 16.3164 169.966 16.3086 169.958 16.3086C169.201 15.7148 168.673 14.8906 168.376 13.8359C168.212 13 168.13 12.2617 168.13 11.6211ZM181.372 1.63672V1.51953C181.372 1.38672 181.372 1.28125 181.372 1.20312C181.38 1.11719 181.396 1.01562 181.419 0.898438C181.443 0.773437 181.486 0.675781 181.548 0.605469C181.611 0.527344 181.689 0.472656 181.783 0.441406C182.173 0.316406 182.454 0.378906 182.626 0.628906C182.72 0.816406 182.712 1.03516 182.603 1.28516V1.63672C182.603 1.65234 182.607 1.67578 182.615 1.70703C182.622 1.73828 182.626 1.75781 182.626 1.76562C182.626 1.85938 182.634 1.92969 182.65 1.97656L182.697 2.29297V2.41016C182.806 3.08984 182.908 3.65625 183.001 4.10938C183.033 4.32031 183.099 4.54688 183.201 4.78906L183.247 5C183.247 5.00781 183.251 5.02344 183.259 5.04688C183.267 5.07031 183.271 5.08594 183.271 5.09375L183.318 5.1875V5.29297C183.357 5.29297 183.396 5.33984 183.435 5.43359C183.474 5.58203 183.564 5.76562 183.704 5.98438L183.798 6.14844L184.009 6.51172C184.048 6.51172 184.076 6.52734 184.091 6.55859H184.068L184.419 6.96875L184.513 7.01562L184.665 7.08594C184.673 7.08594 184.693 7.09375 184.724 7.10938C184.755 7.125 184.775 7.13281 184.783 7.13281C184.806 7.17969 184.868 7.20312 184.97 7.20312L185.193 7.28516H185.357L185.333 7.30859C185.365 7.27734 185.404 7.26172 185.451 7.26172C185.458 7.26172 185.501 7.24219 185.579 7.20312C185.611 7.20312 185.65 7.1875 185.697 7.15625L185.767 7.13281L185.861 7.08594H185.837L186.06 6.96875V6.99219C186.122 6.92969 186.161 6.89844 186.177 6.89844L186.365 6.67578L186.529 6.53516C186.529 6.52734 186.533 6.51562 186.54 6.5C186.556 6.48438 186.572 6.46094 186.587 6.42969C186.603 6.39844 186.618 6.37109 186.634 6.34766L186.822 6.03125C186.908 5.89844 186.962 5.80078 186.986 5.73828C186.986 5.72266 187.001 5.68359 187.033 5.62109L187.068 5.55078C187.068 5.48828 187.076 5.44922 187.091 5.43359C187.122 5.37891 187.154 5.25 187.185 5.04688C187.201 5.01562 187.208 4.97656 187.208 4.92969L187.232 4.88281C187.302 4.19531 187.326 3.51562 187.302 2.84375C187.302 2.60156 187.286 2.41016 187.255 2.26953V2.14062C187.24 2.125 187.232 2.08594 187.232 2.02344L187.22 2C187.212 1.97656 187.208 1.94531 187.208 1.90625C187.208 1.85156 187.193 1.79297 187.161 1.73047C187.099 1.63672 187.056 1.51172 187.033 1.35547C187.001 1.30859 186.97 1.17187 186.939 0.945312C186.915 0.78125 186.943 0.628906 187.021 0.488281C187.099 0.339844 187.208 0.242188 187.349 0.195312C187.529 0.164062 187.689 0.183594 187.829 0.253906C187.978 0.324219 188.083 0.433594 188.146 0.582031C188.24 0.785156 188.31 1.04297 188.357 1.35547C188.708 2.54297 189.118 4.42969 189.587 7.01562C189.673 7.53906 189.806 8.25781 189.986 9.17188L190.255 10.5664C190.365 11.4023 190.411 12.0977 190.396 12.6523C190.372 13.543 190.228 14.2656 189.962 14.8203C189.712 15.3828 189.345 15.8711 188.861 16.2852C188.392 16.6523 187.888 16.9141 187.349 17.0703C186.982 17.1641 186.591 17.2109 186.177 17.2109C185.357 17.2109 184.661 17.0195 184.091 16.6367C183.622 16.3242 183.201 15.9414 182.826 15.4883C182.451 15.0273 182.165 14.5469 181.97 14.0469C181.759 13.4922 181.681 12.9492 181.736 12.418C181.783 12.082 181.868 11.7539 181.993 11.4336C182.134 11.1914 182.337 10.9336 182.603 10.6602C182.743 10.5273 182.892 10.4648 183.048 10.4727C183.212 10.4727 183.357 10.5352 183.482 10.6602C183.622 10.8086 183.693 10.9688 183.693 11.1406C183.693 11.3047 183.63 11.4492 183.505 11.5742L183.411 11.6914L183.435 11.668L183.318 11.8438C183.318 11.8516 183.31 11.8711 183.294 11.9023C183.279 11.9336 183.271 11.9531 183.271 11.9609L183.201 12.1016L183.107 12.3242C183.107 12.332 183.103 12.3438 183.095 12.3594C183.087 12.375 183.083 12.3867 183.083 12.3945V12.5117C183.068 12.543 183.06 12.5977 183.06 12.6758C183.06 12.793 183.068 12.8984 183.083 12.9922C183.083 13.0391 183.091 13.0703 183.107 13.0859L183.271 13.6367C183.271 13.707 183.294 13.7656 183.341 13.8125L183.388 13.9531C183.388 14.0078 183.427 14.0625 183.505 14.1172L183.704 14.4805L183.822 14.6211H183.798L183.939 14.8203L184.033 14.9375L184.349 15.2188L184.618 15.4414V15.418L184.876 15.5586V15.582C184.908 15.6133 184.947 15.6289 184.993 15.6289L185.169 15.6758H185.146C185.208 15.707 185.247 15.7227 185.263 15.7227C185.302 15.7617 185.357 15.7812 185.427 15.7812C185.49 15.8125 185.556 15.8281 185.626 15.8281C185.673 15.8438 185.751 15.8516 185.861 15.8516C185.908 15.8672 185.954 15.875 186.001 15.875H186.388C186.49 15.875 186.579 15.8672 186.658 15.8516C186.853 15.8281 187.076 15.7617 187.326 15.6523L187.372 15.6289L187.876 15.4414L188.017 15.3242C188.056 15.3242 188.083 15.3164 188.099 15.3008L188.286 15.1016L188.404 14.9375C188.419 14.8906 188.443 14.8438 188.474 14.7969C188.552 14.6875 188.634 14.5508 188.72 14.3867C188.783 14.2617 188.814 14.1953 188.814 14.1875C188.814 14.1719 188.837 14.1406 188.884 14.0938H188.861C188.876 14.0625 188.884 14.0234 188.884 13.9766C188.884 13.9688 188.888 13.957 188.896 13.9414C188.904 13.9258 188.908 13.9141 188.908 13.9062L189.025 13.5195L189.107 13.0625C189.107 13.0547 189.111 13.043 189.118 13.0273C189.126 13.0039 189.13 12.9844 189.13 12.9688V12.7227C189.154 12.4023 189.146 12.0938 189.107 11.7969C189.107 11.6641 189.099 11.5664 189.083 11.5039C189.083 11.5195 189.079 11.5156 189.072 11.4922C189.072 11.4922 189.068 11.4805 189.06 11.457L188.978 10.8594C188.9 10.5 188.837 10.1562 188.79 9.82812C188.728 9.58594 188.65 9.17578 188.556 8.59766L188.474 8.21094L188.122 6.27734L187.97 6.51172H187.993C187.704 6.97266 187.384 7.39062 187.033 7.76562C186.525 8.22656 185.982 8.48047 185.404 8.52734C184.841 8.57422 184.314 8.41406 183.822 8.04688C182.97 7.35938 182.353 6.39844 181.97 5.16406C181.814 4.58594 181.689 3.98047 181.595 3.34766L181.548 3.03125L181.525 2.98438C181.517 2.96094 181.513 2.92969 181.513 2.89062L181.466 2.43359C181.451 2.33984 181.419 2.07422 181.372 1.63672ZM193.607 5.29297V5.1875V4.73047C193.607 4.35547 193.615 4.07812 193.63 3.89844C193.654 3.66406 193.704 3.4375 193.783 3.21875C193.79 3.17188 193.81 3.10547 193.841 3.01953C193.872 2.93359 193.892 2.86719 193.9 2.82031L193.947 2.69141L194.04 2.48047V2.50391C194.04 2.49609 194.044 2.48047 194.052 2.45703C194.06 2.43359 194.064 2.41797 194.064 2.41016C194.267 1.96484 194.579 1.55859 195.001 1.19141C195.431 0.824219 195.88 0.574219 196.349 0.441406C196.591 0.378906 196.861 0.347656 197.158 0.347656C197.486 0.347656 197.79 0.378906 198.072 0.441406C198.658 0.542969 199.146 0.703125 199.536 0.921875L199.712 1.08594L199.829 1.20312C199.829 1.21875 199.845 1.22656 199.876 1.22656C199.9 1.22656 199.954 1.26953 200.04 1.35547C200.064 1.40234 200.095 1.42578 200.134 1.42578C200.314 1.60547 200.497 1.8125 200.685 2.04688C200.919 2.42188 201.087 2.84766 201.189 3.32422C201.228 3.50391 201.247 3.72656 201.247 3.99219C201.247 4.98438 201.005 5.91406 200.521 6.78125C200.779 6.86719 200.993 6.95312 201.165 7.03906C201.603 7.36719 201.966 7.77734 202.255 8.26953C202.536 8.82422 202.728 9.53516 202.829 10.4023C202.892 10.8477 202.923 11.3594 202.923 11.9375C202.923 12.2891 202.915 12.5273 202.9 12.6523C202.845 13.4336 202.708 14.1055 202.49 14.668C202.302 15.0508 201.951 15.5156 201.435 16.0625C200.99 16.5391 200.591 16.8516 200.24 17C199.685 17.2578 199.146 17.3867 198.622 17.3867C198.286 17.3867 197.911 17.3203 197.497 17.1875C196.685 16.9141 195.958 16.3945 195.318 15.6289C194.661 14.8633 194.243 14.0156 194.064 13.0859C193.986 12.6797 193.947 12.3281 193.947 12.0312C193.947 11.3984 194.068 10.7656 194.31 10.1328C194.419 9.875 194.544 9.71484 194.685 9.65234C194.872 9.55859 195.076 9.53516 195.294 9.58203C195.529 9.63672 195.704 9.76562 195.822 9.96875C195.915 10.1797 195.931 10.4023 195.868 10.6367C195.767 10.8633 195.693 11.0977 195.646 11.3398C195.646 11.3555 195.638 11.3867 195.622 11.4336C195.607 11.4805 195.599 11.5117 195.599 11.5273C195.568 11.8711 195.568 12.1992 195.599 12.5117C195.724 12.9961 195.829 13.3398 195.915 13.543C196.111 13.9336 196.24 14.1758 196.302 14.2695L196.349 14.4102L196.419 14.4805C196.419 14.4961 196.443 14.5273 196.49 14.5742L196.607 14.7383L196.677 14.8438H196.654L196.947 15.1016C196.978 15.1328 197.001 15.1484 197.017 15.1484C197.048 15.1641 197.103 15.1953 197.181 15.2422C197.353 15.3672 197.564 15.4727 197.814 15.5586C198.033 15.6445 198.224 15.6992 198.388 15.7227C198.576 15.7461 198.759 15.7461 198.939 15.7227C199.158 15.6758 199.318 15.6289 199.419 15.582L199.736 15.4414L199.9 15.3477C199.947 15.3008 200.009 15.2578 200.087 15.2188L200.263 15.0547L200.404 14.8672L200.544 14.7148L200.591 14.6211L200.685 14.4805C200.685 14.4727 200.704 14.4414 200.743 14.3867C200.876 14.207 200.978 14.0312 201.048 13.8594C201.173 13.4688 201.255 13.1562 201.294 12.9219C201.341 12.5781 201.365 12.2188 201.365 11.8438C201.365 11.4375 201.341 11.0508 201.294 10.6836C201.216 10.1758 201.087 9.71484 200.908 9.30078C200.892 9.24609 200.861 9.17578 200.814 9.08984C200.775 8.99609 200.751 8.9375 200.743 8.91406C200.736 8.89844 200.712 8.875 200.673 8.84375C200.642 8.8125 200.622 8.78906 200.615 8.77344L200.568 8.64453L200.333 8.43359V8.45703L200.158 8.36328C200.064 8.33203 199.993 8.31641 199.947 8.31641C199.908 8.30859 199.853 8.30469 199.783 8.30469C199.712 8.30469 199.661 8.30859 199.63 8.31641C199.622 8.31641 199.615 8.32031 199.607 8.32812C199.599 8.33594 199.591 8.33984 199.583 8.33984H199.607C199.466 8.38672 199.38 8.41797 199.349 8.43359C199.333 8.43359 199.294 8.44922 199.232 8.48047C199.169 8.50391 199.134 8.51953 199.126 8.52734L199.033 8.57422L198.822 8.71484L198.693 8.77344H198.728C198.556 8.89844 198.357 8.92969 198.13 8.86719C197.911 8.79688 197.755 8.66797 197.661 8.48047C197.591 8.37109 197.583 8.20312 197.638 7.97656C197.701 7.75 197.814 7.56641 197.978 7.42578C198.204 7.23828 198.411 7.03125 198.599 6.80469L198.868 6.51172L199.15 6.07812L199.372 5.64453L199.466 5.48047L199.536 5.26953V5.29297L199.607 5C199.615 4.92969 199.63 4.83203 199.654 4.70703C199.685 4.58203 199.704 4.49609 199.712 4.44922C199.728 4.35547 199.736 4.20312 199.736 3.99219C199.736 3.84375 199.728 3.69922 199.712 3.55859V3.58203L199.583 3.14844L199.56 3.03125V3.05469L199.443 2.86719L199.349 2.66797H199.372L199.197 2.48047L198.939 2.23438V2.26953L198.798 2.1875L198.646 2.09375C198.63 2.09375 198.615 2.08594 198.599 2.07031C198.552 2.07031 198.529 2.05469 198.529 2.02344C198.482 2.02344 198.435 2 198.388 1.95312C198.31 1.95312 198.263 1.94531 198.247 1.92969C198.193 1.92969 198.142 1.90625 198.095 1.85938V1.88281L197.861 1.8125C197.845 1.8125 197.81 1.80469 197.755 1.78906C197.708 1.77344 197.677 1.76562 197.661 1.76562L197.544 1.70703C197.529 1.69141 197.482 1.68359 197.404 1.68359C197.341 1.66797 197.243 1.66016 197.111 1.66016L196.876 1.68359C196.868 1.68359 196.853 1.6875 196.829 1.69531C196.814 1.70313 196.798 1.70703 196.783 1.70703C196.743 1.70703 196.685 1.72656 196.607 1.76562C196.591 1.76562 196.536 1.78906 196.443 1.83594L196.255 1.92969L196.126 1.97656H196.15L195.986 2.09375L195.751 2.31641L195.576 2.50391L195.411 2.71484H195.435L195.341 2.86719L195.271 3.00781L195.165 3.125C195.165 3.21094 195.134 3.28516 195.072 3.34766H195.095L195.025 3.53516C194.947 3.77734 194.892 3.98438 194.861 4.15625V4.30859C194.845 4.33984 194.837 4.37891 194.837 4.42578C194.822 4.50391 194.814 4.625 194.814 4.78906C194.814 5.10938 194.829 5.34766 194.861 5.50391C194.868 5.66016 194.806 5.80078 194.673 5.92578C194.548 6.04297 194.411 6.10156 194.263 6.10156C194.122 6.10156 193.99 6.05469 193.865 5.96094C193.747 5.86719 193.677 5.73828 193.654 5.57422L193.677 5.59766C193.646 5.56641 193.63 5.50391 193.63 5.41016C193.63 5.39453 193.626 5.375 193.618 5.35156C193.611 5.32031 193.607 5.30078 193.607 5.29297ZM199.783 1.20312C199.806 1.20312 199.837 1.22266 199.876 1.26172L199.806 1.28516V1.26172L199.783 1.20312ZM199.806 1.26172L199.923 1.22656V1.33203C199.892 1.33203 199.853 1.30859 199.806 1.26172ZM206.357 11.6211C206.357 11.1055 206.408 10.5625 206.509 9.99219C206.509 9.84375 206.591 9.73047 206.755 9.65234C206.919 9.56641 207.091 9.53516 207.271 9.55859C207.513 9.63672 207.634 9.82031 207.634 10.1094V10.5664C207.634 11.3711 207.65 11.9648 207.681 12.3477V12.3242C207.697 12.3555 207.704 12.4102 207.704 12.4883C207.704 12.5039 207.697 12.5195 207.681 12.5352C207.681 12.5664 207.697 12.5977 207.728 12.6289L207.798 13.0156L207.951 13.6367L207.997 13.7656V13.7305L208.091 13.9766L208.302 14.457H208.279L208.349 14.5742L208.454 14.6914L208.501 14.7148L208.806 15.1016H208.783L209.029 15.3008C209.029 15.2852 209.044 15.2773 209.076 15.2773C209.177 15.3633 209.314 15.4414 209.486 15.5117L209.556 15.582L209.65 15.6289C209.665 15.6445 209.697 15.6523 209.743 15.6523L210.036 15.7578C210.052 15.7734 210.107 15.7812 210.201 15.7812C210.208 15.7812 210.224 15.7852 210.247 15.793C210.271 15.8008 210.294 15.8047 210.318 15.8047H210.798L210.868 15.7812C210.923 15.7812 210.982 15.7734 211.044 15.7578L211.396 15.6289H211.372L211.548 15.582L211.618 15.5352L211.982 15.3945L212.099 15.3477H212.076L212.357 15.1719V15.1953L212.486 15.0781L212.556 15.0078C212.853 14.75 213.068 14.543 213.201 14.3867H213.177L213.47 14.0469L213.517 13.9766L213.611 13.9062C213.611 13.8984 213.618 13.8789 213.634 13.8477C213.65 13.8164 213.658 13.7969 213.658 13.7891C213.915 13.3828 214.083 13.0938 214.161 12.9219L214.302 12.6523C214.302 12.6211 214.318 12.5742 214.349 12.5117C214.404 12.4336 214.462 12.2891 214.525 12.0781C214.626 11.7266 214.697 11.4453 214.736 11.2344C214.751 11.1094 214.759 10.8867 214.759 10.5664V10.0156C214.743 9.98438 214.736 9.95312 214.736 9.92188C214.658 9.49219 214.572 9.14844 214.478 8.89062C214.462 8.84375 214.454 8.8125 214.454 8.79688C214.447 8.75781 214.423 8.69922 214.384 8.62109C214.353 8.54297 214.333 8.49609 214.326 8.48047L214.279 8.38672V8.41016L214.208 8.23438L214.161 8.09375V8.11719C214.099 7.99219 214.036 7.89844 213.974 7.83594L213.868 7.61328H213.892L213.658 7.35547L213.411 7.13281L213.177 6.875L212.99 6.67578C212.982 6.67578 212.958 6.66797 212.919 6.65234C212.888 6.63672 212.868 6.62891 212.861 6.62891C212.829 6.61328 212.79 6.59766 212.743 6.58203C212.447 6.34766 211.958 6.02734 211.279 5.62109C210.833 5.35547 210.404 4.93359 209.99 4.35547C209.677 3.91016 209.396 3.36328 209.146 2.71484C208.997 2.22266 208.923 1.80859 208.923 1.47266C208.923 1.16016 208.966 0.878906 209.052 0.628906C209.115 0.480469 209.22 0.359375 209.368 0.265625C209.525 0.164062 209.689 0.140625 209.861 0.195312C210.189 0.289062 210.365 0.515625 210.388 0.875V0.992188L210.411 1.10938V1.20312C210.411 1.23438 210.423 1.26172 210.447 1.28516C210.447 1.31641 210.451 1.35937 210.458 1.41406C210.466 1.46875 210.47 1.51172 210.47 1.54297C210.509 1.77734 210.595 2.07422 210.728 2.43359H210.704L210.822 2.59766C210.876 2.77734 210.966 2.94531 211.091 3.10156L211.419 3.55859L211.876 4.0625H211.853L211.982 4.13281V4.10938L212.216 4.26172C212.349 4.34766 212.447 4.40234 212.509 4.42578C213.603 5.12891 214.4 5.77734 214.9 6.37109H214.876C215.165 6.66016 215.376 6.9375 215.509 7.20312C215.54 7.28906 215.611 7.48047 215.72 7.77734C215.829 8.06641 215.904 8.26953 215.943 8.38672C216.177 9.08203 216.294 9.80078 216.294 10.543C216.271 11.9805 215.798 13.3398 214.876 14.6211C213.814 15.8633 212.806 16.6562 211.853 17C211.243 17.2109 210.607 17.2656 209.943 17.1641C209.661 17.125 209.349 17.0234 209.005 16.8594L208.595 16.6133L208.349 16.4023L208.255 16.332L208.279 16.3555C208.271 16.3555 208.255 16.3477 208.232 16.332C208.208 16.3164 208.193 16.3086 208.185 16.3086C207.427 15.7148 206.9 14.8906 206.603 13.8359C206.439 13 206.357 12.2617 206.357 11.6211ZM219.482 5.57422C219.497 5.52734 219.505 5.46484 219.505 5.38672C219.505 5.35547 219.513 5.31641 219.529 5.26953C219.529 5.16797 219.536 5.10156 219.552 5.07031C219.591 4.82031 219.622 4.66797 219.646 4.61328C219.701 4.26953 219.775 4 219.868 3.80469C220.142 3.19531 220.388 2.75391 220.607 2.48047C220.888 2.12891 221.228 1.80469 221.626 1.50781C222.033 1.20312 222.431 0.984375 222.822 0.851562C223.189 0.75 223.556 0.699219 223.923 0.699219C224.329 0.699219 224.794 0.789063 225.318 0.96875C225.716 1.13281 226.068 1.34766 226.372 1.61328L226.853 2.07031C226.97 1.80469 227.079 1.60547 227.181 1.47266C227.415 1.12891 227.704 0.839844 228.048 0.605469C228.283 0.488281 228.556 0.359375 228.868 0.21875C229.283 0.09375 229.697 0.03125 230.111 0.03125C230.361 0.03125 230.618 0.0546875 230.884 0.101562C231.556 0.234375 232.169 0.515625 232.724 0.945312C233.247 1.33594 233.712 1.93359 234.118 2.73828L234.165 2.69141L234.259 2.57422H234.236C234.4 2.37891 234.568 2.21094 234.74 2.07031C235.724 1.33594 236.685 1 237.622 1.0625C238.193 1.10938 238.712 1.26953 239.181 1.54297C239.712 1.87891 240.146 2.3125 240.482 2.84375C240.81 3.48438 241.009 3.96484 241.079 4.28516C241.204 4.82422 241.243 5.34375 241.197 5.84375C241.079 6.99219 240.681 8.02344 240.001 8.9375C239.673 9.32812 239.267 9.67969 238.783 9.99219L238.009 10.3789C238.001 10.3789 237.99 10.3828 237.974 10.3906C237.958 10.3984 237.947 10.4023 237.939 10.4023C237.876 10.4414 237.755 10.4727 237.576 10.4961C237.568 10.4961 237.552 10.5 237.529 10.5078C237.505 10.5156 237.49 10.5195 237.482 10.5195H237.318C237.13 10.543 236.951 10.5156 236.779 10.4375C236.607 10.3594 236.497 10.2422 236.451 10.0859C236.404 9.89062 236.431 9.69922 236.533 9.51172C236.634 9.31641 236.775 9.19531 236.954 9.14844C237.001 9.14844 237.048 9.125 237.095 9.07812L237.365 8.96094C237.552 8.86719 237.783 8.72266 238.056 8.52734C238.103 8.52734 238.142 8.51172 238.173 8.48047L238.279 8.41016L238.56 8.11719L238.724 7.88281L238.853 7.76562C238.853 7.75 238.892 7.68359 238.97 7.56641L239.31 6.89844C239.505 6.36719 239.607 6.03906 239.615 5.91406C239.646 5.59375 239.646 5.27344 239.615 4.95312C239.568 4.75781 239.497 4.50781 239.404 4.20312L239.181 3.78125H239.204L239.064 3.58203L238.993 3.48828L238.9 3.37109L238.783 3.30078V3.32422C238.697 3.29297 238.638 3.23438 238.607 3.14844H238.63L238.536 3.05469C238.529 3.04688 238.423 2.99219 238.22 2.89062L238.103 2.82031L238.126 2.84375L237.822 2.73828C237.783 2.73828 237.755 2.73047 237.74 2.71484L237.669 2.69141H237.142C236.892 2.75391 236.685 2.82031 236.521 2.89062L236.158 3.10156L235.853 3.24219L235.724 3.32422C235.701 3.34766 235.618 3.41406 235.478 3.52344C235.345 3.63281 235.236 3.73438 235.15 3.82812C235.15 3.85938 235.126 3.92188 235.079 4.01562L234.939 4.22656C234.829 4.35938 234.755 4.48828 234.716 4.61328C234.701 4.66797 234.693 4.72656 234.693 4.78906L234.622 5.02344C234.591 5.1875 234.568 5.30078 234.552 5.36328C234.552 5.37109 234.548 5.38672 234.54 5.41016C234.533 5.42578 234.529 5.44141 234.529 5.45703C234.505 5.63672 234.435 5.8125 234.318 5.98438C234.169 6.15625 233.974 6.24219 233.732 6.24219C233.513 6.24219 233.322 6.16406 233.158 6.00781C233.001 5.84375 232.931 5.66016 232.947 5.45703C232.947 4.96484 232.931 4.60547 232.9 4.37891C232.9 4.37109 232.896 4.34766 232.888 4.30859C232.88 4.26953 232.876 4.24219 232.876 4.22656L232.806 3.92188L232.794 3.875C232.786 3.85156 232.783 3.82031 232.783 3.78125L232.724 3.65234V3.67578L232.677 3.58203C232.661 3.56641 232.654 3.53516 232.654 3.48828L232.396 2.96094L232.243 2.73828L232.197 2.62109L231.939 2.31641L231.669 2.09375V2.11719C231.638 2.10156 231.591 2.07031 231.529 2.02344C231.466 1.97656 231.419 1.94531 231.388 1.92969C231.302 1.875 231.228 1.83594 231.165 1.8125C231.134 1.8125 231.111 1.79688 231.095 1.76562V1.78906C230.845 1.67969 230.63 1.61328 230.451 1.58984C230.357 1.57422 230.134 1.56641 229.783 1.56641C229.751 1.58203 229.716 1.58984 229.677 1.58984C229.669 1.58984 229.654 1.59375 229.63 1.60156C229.615 1.60938 229.599 1.61328 229.583 1.61328C229.443 1.64453 229.341 1.68359 229.279 1.73047C229.255 1.73828 229.228 1.75 229.197 1.76562V1.73047C229.142 1.78516 229.111 1.8125 229.103 1.8125L229.009 1.85938L228.915 1.88281L228.939 1.85938L228.822 1.92969L228.482 2.33984C228.482 2.34766 228.478 2.35938 228.47 2.375C228.462 2.39062 228.458 2.40234 228.458 2.41016C228.419 2.44922 228.38 2.52734 228.341 2.64453C228.31 2.67578 228.294 2.69922 228.294 2.71484C228.286 2.75391 228.275 2.78906 228.259 2.82031L228.189 3.03125L228.095 3.39453C228.064 3.60547 228.064 3.82031 228.095 4.03906V4.01562C228.259 4.60156 228.372 5.17578 228.435 5.73828C228.443 5.93359 228.361 6.11328 228.189 6.27734C228.025 6.43359 227.841 6.51172 227.638 6.51172C227.458 6.51172 227.302 6.46094 227.169 6.35938C227.036 6.25781 226.939 6.125 226.876 5.96094C226.704 5.45312 226.583 4.91016 226.513 4.33203C226.513 4.30078 226.505 4.27734 226.49 4.26172L226.443 4.17969C226.427 4.16406 226.419 4.14062 226.419 4.10938L226.279 3.82812L225.939 3.32422H225.962L225.693 3.03125L225.622 2.96094L225.552 2.89062L225.388 2.73828V2.77344L225.142 2.62109C225.134 2.62109 225.118 2.61328 225.095 2.59766C225.072 2.58203 225.056 2.57422 225.048 2.57422L224.908 2.48047C224.868 2.48047 224.818 2.46484 224.755 2.43359C224.724 2.43359 224.693 2.41797 224.661 2.38672L224.568 2.33984C224.458 2.33984 224.372 2.32422 224.31 2.29297C224.224 2.29297 224.173 2.28516 224.158 2.26953C224.142 2.26953 224.122 2.26563 224.099 2.25781C224.083 2.24219 224.072 2.23438 224.064 2.23438C223.892 2.21094 223.708 2.21094 223.513 2.23438H223.443C223.435 2.23438 223.415 2.24219 223.384 2.25781C223.353 2.26563 223.333 2.26953 223.326 2.26953C223.318 2.26953 223.302 2.27344 223.279 2.28125C223.263 2.28906 223.251 2.29297 223.243 2.29297L222.892 2.41016C222.884 2.41016 222.868 2.41797 222.845 2.43359C222.822 2.44922 222.806 2.45703 222.798 2.45703V2.43359L222.599 2.59766L222.482 2.64453L222.411 2.69141L222.095 3.00781C222.017 3.07031 221.947 3.14062 221.884 3.21875L221.79 3.37109L221.404 3.89844C221.357 3.94531 221.298 4.05469 221.228 4.22656C221.228 4.23438 221.224 4.25 221.216 4.27344C221.208 4.28906 221.204 4.30078 221.204 4.30859L221.134 4.37891V4.49609L221.04 4.76562C220.947 5.05469 220.892 5.23047 220.876 5.29297C220.876 5.30078 220.872 5.31641 220.865 5.33984C220.857 5.36328 220.853 5.38672 220.853 5.41016V5.50391C220.853 5.53516 220.845 5.55859 220.829 5.57422V6.39453C220.829 6.40234 220.833 6.41797 220.841 6.44141C220.849 6.46484 220.853 6.48828 220.853 6.51172V6.60547C220.868 6.68359 220.9 6.80859 220.947 6.98047C220.993 7.15234 221.025 7.27734 221.04 7.35547L221.087 7.56641L221.158 7.63672C221.158 7.67578 221.208 7.78125 221.31 7.95312C221.357 8.04688 221.427 8.17578 221.521 8.33984C221.615 8.50391 221.669 8.59766 221.685 8.62109L221.814 8.77344H221.79L221.861 8.86719L222.048 9.07812L222.118 9.17188H222.095L222.646 9.67578V9.65234C222.732 9.76953 222.806 9.85938 222.868 9.92188C222.884 9.95312 222.9 9.96875 222.915 9.96875L222.986 10.0156C223.009 10.0156 223.056 10.0391 223.126 10.0859C223.533 10.3984 223.966 10.6797 224.427 10.9297C224.451 10.9531 224.634 11.0312 224.978 11.1641L225.142 11.3164L225.118 11.293C225.345 11.3398 225.458 11.3711 225.458 11.3867L225.505 11.4102C225.568 11.4414 225.615 11.457 225.646 11.457L225.775 11.5742C225.806 11.5742 225.865 11.5703 225.951 11.5625C226.036 11.5547 226.095 11.5508 226.126 11.5508L227.884 11.4102H227.978C227.986 11.4102 227.997 11.4062 228.013 11.3984C228.036 11.3906 228.056 11.3867 228.072 11.3867H228.259C228.283 11.3867 228.318 11.3828 228.365 11.375C228.419 11.3672 228.458 11.3633 228.482 11.3633C229.193 11.3008 229.775 11.2773 230.228 11.293C232.165 11.3242 233.681 11.668 234.775 12.3242C235.548 12.7695 236.122 13.3594 236.497 14.0938C236.716 14.5391 236.853 15.0352 236.908 15.582C236.939 15.707 236.954 15.9414 236.954 16.2852C236.954 16.418 236.939 16.5938 236.908 16.8125C236.9 16.8984 236.849 17.0312 236.755 17.2109C236.701 17.3203 236.615 17.4219 236.497 17.5156C236.38 17.6172 236.259 17.668 236.134 17.668C235.986 17.668 235.845 17.6172 235.712 17.5156C235.587 17.4219 235.521 17.3047 235.513 17.1641L235.466 17.0703V17.0938C235.419 16.9766 235.396 16.8164 235.396 16.6133V16.2617C235.396 15.9648 235.388 15.7617 235.372 15.6523C235.365 15.6367 235.349 15.5859 235.326 15.5C235.31 15.4141 235.294 15.3477 235.279 15.3008H235.302C235.263 15.2617 235.243 15.2109 235.243 15.1484L235.197 15.0312V15.0547C235.165 14.9922 235.15 14.9375 235.15 14.8906L235.056 14.7734L234.845 14.3398H234.868L234.775 14.2109L234.646 14.0469L234.529 14L234.458 13.9062C234.404 13.9062 234.357 13.875 234.318 13.8125C233.857 13.5312 233.552 13.3555 233.404 13.2852C233.38 13.2852 233.349 13.2656 233.31 13.2266C233.13 13.1797 233.033 13.1484 233.017 13.1328L232.49 12.9922C232.411 12.9922 232.365 12.9844 232.349 12.9688C232.333 12.9688 232.314 12.9648 232.29 12.957C232.267 12.9492 232.251 12.9453 232.243 12.9453L231.892 12.875C231.884 12.875 231.872 12.8711 231.857 12.8633C231.841 12.8555 231.829 12.8516 231.822 12.8516C231.736 12.8516 231.677 12.8438 231.646 12.8281L231.599 12.8047H231.411C231.388 12.8047 231.357 12.8008 231.318 12.793C231.279 12.7852 231.251 12.7812 231.236 12.7812C230.845 12.7422 230.599 12.7227 230.497 12.7227H230.064C230.017 12.7227 229.943 12.7188 229.841 12.7109C229.747 12.7031 229.677 12.6992 229.63 12.6992C229.466 12.6992 229.083 12.7188 228.482 12.7578L225.693 12.8984C225.63 12.8984 225.525 12.9023 225.376 12.9102C225.228 12.918 225.118 12.9219 225.048 12.9219C224.408 12.9531 223.857 12.9688 223.396 12.9688C222.849 12.9688 222.423 12.9531 222.118 12.9219C222.009 12.9141 221.908 12.8516 221.814 12.7344C221.728 12.6172 221.685 12.5039 221.685 12.3945C221.685 12.2773 221.728 12.1641 221.814 12.0547C221.9 11.9375 222.001 11.8672 222.118 11.8438C222.579 11.7656 222.915 11.7227 223.126 11.7148C222.9 11.5742 222.732 11.4492 222.622 11.3398C221.638 10.582 220.857 9.76562 220.279 8.89062C219.654 7.82031 219.388 6.71484 219.482 5.57422ZM244.49 7.97656C244.49 7.13281 244.521 6.44531 244.583 5.91406C244.638 5.13281 244.767 4.45312 244.97 3.875C245.181 3.27344 245.447 2.72656 245.767 2.23438C246.103 1.70313 246.486 1.26562 246.915 0.921875C247.345 0.5625 247.826 0.3125 248.357 0.171875C248.599 0.109375 248.888 0.078125 249.224 0.078125C249.591 0.078125 249.896 0.117187 250.138 0.195312C250.669 0.367188 251.197 0.691406 251.72 1.16797C252.251 1.64453 252.673 2.15234 252.986 2.69141C253.454 3.53516 253.783 4.76172 253.97 6.37109C254.048 6.91797 254.099 7.49219 254.122 8.09375V8.26953C254.122 8.28516 254.126 8.30859 254.134 8.33984C254.142 8.37109 254.146 8.39453 254.146 8.41016C254.177 8.82422 254.177 9.20703 254.146 9.55859C254.107 10.5977 253.911 11.7969 253.56 13.1562L253.185 14.5039V14.4805L253.079 14.8203L252.986 15.125C252.978 15.1719 252.954 15.2461 252.915 15.3477C252.876 15.4492 252.853 15.5117 252.845 15.5352L252.798 15.6992C252.548 16.4727 252.349 16.9961 252.201 17.2695C252.122 17.4414 251.97 17.5508 251.743 17.5977C251.525 17.6445 251.333 17.6211 251.169 17.5273C250.865 17.3555 250.751 17.082 250.829 16.707C250.923 16.3398 251.06 15.8945 251.24 15.3711L251.38 14.9609C251.552 14.4375 251.728 13.8594 251.908 13.2266L252.001 12.875C252.306 11.5703 252.49 10.707 252.552 10.2852L252.576 10.2266V10.2617L252.658 9.39453C252.658 8.95703 252.65 8.67578 252.634 8.55078C252.634 8.52734 252.626 8.49219 252.611 8.44531C252.603 8.39844 252.599 8.36328 252.599 8.33984C252.568 7.33984 252.505 6.53906 252.411 5.9375C252.372 5.71094 252.302 5.38281 252.201 4.95312C252.201 4.9375 252.197 4.91016 252.189 4.87109C252.181 4.82422 252.177 4.78906 252.177 4.76562L252.001 4.15625H252.025C251.962 4.09375 251.931 4.04688 251.931 4.01562L251.861 3.85156C251.861 3.79688 251.845 3.73828 251.814 3.67578L251.404 2.96094L251.193 2.59766H251.216L250.665 2.04688L250.712 1.97656C250.689 1.97656 250.658 1.96875 250.618 1.95312C250.579 1.9375 250.552 1.92969 250.536 1.92969L250.419 1.83594V1.85938C250.193 1.70313 250.064 1.62109 250.033 1.61328C250.017 1.61328 250.001 1.60547 249.986 1.58984C249.939 1.58984 249.915 1.57422 249.915 1.54297L249.798 1.51953C249.751 1.51172 249.689 1.49219 249.611 1.46094C249.533 1.42969 249.482 1.41016 249.458 1.40234C249.318 1.40234 249.24 1.39453 249.224 1.37891C249.193 1.37891 249.126 1.38281 249.025 1.39062C248.931 1.39844 248.868 1.40234 248.837 1.40234C248.79 1.40234 248.751 1.41016 248.72 1.42578L248.474 1.47266C248.466 1.48047 248.404 1.50391 248.286 1.54297H248.31L248.146 1.63672L247.923 1.78906L247.806 1.8125L247.829 1.78906L247.712 1.88281L247.642 1.95312L247.443 2.1875C247.365 2.26563 247.318 2.31641 247.302 2.33984L247.009 2.64453C246.993 2.66016 246.986 2.69141 246.986 2.73828C246.939 2.79297 246.861 2.91406 246.751 3.10156C246.626 3.28906 246.49 3.53125 246.341 3.82812C246.341 3.83594 246.337 3.85547 246.329 3.88672C246.322 3.91016 246.318 3.92969 246.318 3.94531L246.247 4.15625L246.095 4.56641C246.033 4.77734 245.97 5.07422 245.908 5.45703C245.876 5.58203 245.861 5.6875 245.861 5.77344C245.845 5.78906 245.837 5.84375 245.837 5.9375C245.806 6.125 245.79 6.26953 245.79 6.37109C245.743 6.78516 245.72 7.21484 245.72 7.66016V8.07031C245.72 8.11719 245.724 8.18359 245.732 8.26953C245.74 8.35547 245.743 8.41797 245.743 8.45703C245.767 9.15234 245.814 9.84766 245.884 10.543L245.931 10.6367C245.931 10.668 245.939 10.6992 245.954 10.7305V10.9766C245.954 10.9844 245.958 11.0039 245.966 11.0352C245.974 11.0586 245.978 11.0781 245.978 11.0938C245.978 11.1016 245.982 11.1211 245.99 11.1523C245.997 11.1758 246.001 11.1953 246.001 11.2109L246.072 11.5039L246.271 12.6289C246.576 14.1211 246.845 15.2891 247.079 16.1328V16.1094L247.302 16.9531V16.9766C247.341 17.125 247.322 17.2734 247.243 17.4219C247.165 17.5703 247.048 17.6602 246.892 17.6914H246.915C246.767 17.7305 246.618 17.7109 246.47 17.6328C246.322 17.5625 246.224 17.457 246.177 17.3164L246.072 17.0469L246.001 16.7305V16.7656C245.603 15.5234 245.243 14.0664 244.923 12.3945C244.658 10.9492 244.513 9.47656 244.49 7.97656Z" fill="black"/>
</svg>
