<svg width="183" height="30" viewBox="0 0 183 30" fill="none" xmlns="http://www.w3.org/2000/svg">
<path d="M17.5 16.875H20.625L21.875 11.875H17.5V9.375C17.5 8.0875 17.5 6.875 20 6.875H21.875V2.675C21.4675 2.62125 19.9287 2.5 18.3037 2.5C14.91 2.5 12.5 4.57125 12.5 8.375V11.875H8.75V16.875H12.5V27.5H17.5V16.875Z" fill="black"/>
<path d="M168 9.60938C166.934 9.60938 165.892 9.92553 165.005 10.5179C164.119 11.1102 163.428 11.9521 163.02 12.9371C162.612 13.9221 162.505 15.006 162.713 16.0517C162.921 17.0973 163.434 18.0579 164.188 18.8117C164.942 19.5656 165.903 20.079 166.948 20.287C167.994 20.495 169.078 20.3883 170.063 19.9803C171.048 19.5723 171.89 18.8814 172.482 17.9949C173.074 17.1084 173.391 16.0662 173.391 15C173.391 13.5703 172.823 12.1992 171.812 11.1883C170.801 10.1773 169.43 9.60938 168 9.60938ZM168 18.9844C167.212 18.9844 166.442 18.7507 165.786 18.3129C165.131 17.8751 164.62 17.2528 164.319 16.5248C164.017 15.7967 163.938 14.9956 164.092 14.2227C164.246 13.4498 164.625 12.7398 165.183 12.1826C165.74 11.6254 166.45 11.2459 167.223 11.0922C167.996 10.9384 168.797 11.0173 169.525 11.3189C170.253 11.6205 170.875 12.1312 171.313 12.7864C171.751 13.4416 171.984 14.212 171.984 15C171.981 16.0558 171.561 17.0674 170.814 17.814C170.067 18.5605 169.056 18.9813 168 18.9844ZM173.156 3.51562H162.844C161.165 3.51562 159.556 4.18234 158.369 5.36909C157.182 6.55584 156.516 8.16543 156.516 9.84375V20.1562C156.516 21.8346 157.182 23.4442 158.369 24.6309C159.556 25.8177 161.165 26.4844 162.844 26.4844H173.156C174.835 26.4844 176.444 25.8177 177.631 24.6309C178.818 23.4442 179.484 21.8346 179.484 20.1562V9.84375C179.484 8.16543 178.818 6.55584 177.631 5.36909C176.444 4.18234 174.835 3.51563 173.156 3.51562ZM178.078 20.1562C178.078 21.4616 177.56 22.7135 176.637 23.6365C175.714 24.5596 174.462 25.0781 173.156 25.0781H162.844C161.538 25.0781 160.286 24.5596 159.363 23.6365C158.44 22.7135 157.922 21.4616 157.922 20.1562V9.84375C157.922 8.53839 158.44 7.28649 159.363 6.36346C160.286 5.44043 161.538 4.92188 162.844 4.92188H173.156C174.462 4.92188 175.714 5.44043 176.637 6.36346C177.56 7.28649 178.078 8.53839 178.078 9.84375V20.1562ZM175.266 8.90625C175.266 9.13802 175.197 9.36459 175.068 9.55731C174.939 9.75002 174.756 9.90022 174.542 9.98892C174.328 10.0776 174.092 10.1008 173.865 10.0556C173.638 10.0104 173.429 9.89878 173.265 9.73489C173.101 9.571 172.99 9.36219 172.944 9.13487C172.899 8.90755 172.922 8.67193 173.011 8.45779C173.1 8.24366 173.25 8.06064 173.443 7.93187C173.635 7.8031 173.862 7.73438 174.094 7.73438C174.405 7.73438 174.703 7.85784 174.922 8.07761C175.142 8.29738 175.266 8.59545 175.266 8.90625Z" fill="black"/>
<path fill-rule="evenodd" clip-rule="evenodd" d="M63.4188 18.285V11.26L70.1725 14.785L63.4188 18.285ZM78.25 10.0437C78.25 10.0437 78.0062 8.32 77.2562 7.56125C76.3062 6.56625 75.24 6.56125 74.7512 6.5025C71.2537 6.25 66.005 6.25 66.005 6.25H65.995C65.995 6.25 60.7475 6.25 57.2488 6.5025C56.76 6.56125 55.695 6.565 54.7437 7.56125C53.9937 8.32 53.75 10.0437 53.75 10.0437C53.75 10.0437 53.5 12.0663 53.5 14.09V15.9862C53.5 18.0087 53.75 20.0325 53.75 20.0325C53.75 20.0325 53.9937 21.755 54.7437 22.5138C55.6937 23.51 56.9437 23.4775 57.5 23.5825C59.5 23.7737 66 23.8325 66 23.8325C66 23.8325 71.2537 23.825 74.7512 23.5725C75.24 23.5138 76.3062 23.51 77.2562 22.5138C78.0062 21.755 78.25 20.0325 78.25 20.0325C78.25 20.0325 78.5 18.0087 78.5 15.9862V14.09C78.5 12.0663 78.25 10.0437 78.25 10.0437Z" fill="black"/>
<path d="M108.229 8.99637C109.739 8.99637 110.964 7.77187 110.964 6.26137C110.964 4.75087 109.739 3.52637 108.229 3.52637C106.718 3.52637 105.494 4.75087 105.494 6.26137C105.494 7.77187 106.718 8.99637 108.229 8.99637Z" fill="black"/>
<path d="M113.546 11.0688V26.2426H118.258V18.7388C118.258 16.7588 118.63 14.8413 121.085 14.8413C123.506 14.8413 123.536 17.1051 123.536 18.8638V26.2438H128.25V17.9226C128.25 13.8351 127.37 10.6938 122.593 10.6938C120.299 10.6938 118.761 11.9526 118.133 13.1438H118.069V11.0688H113.546ZM105.869 11.0688H110.588V26.2426H105.869V11.0688Z" fill="black"/>
</svg>
