<svg width="207" height="26" viewBox="0 0 207 26" fill="none" xmlns="http://www.w3.org/2000/svg">
<path d="M0.171875 20.375L0.605469 17.3633H4.23828L3.89844 20.9258C3.89844 22.2617 4.5 22.9297 5.70312 22.9297C6.76562 22.9375 7.29688 22.2578 7.29688 20.8906V10.9531C7.29688 9.82812 6.76562 9.26562 5.70312 9.26562C4.82812 9.26562 4.39062 9.76953 4.39062 10.7773L4.89453 14.1758H1.23828L0.816406 11.4805C0.816406 8.25391 2.44531 6.64062 5.70312 6.64062C9.17188 6.64062 10.9062 8.28516 10.9062 11.5742V20.3984C10.9062 23.8438 9.16797 25.5664 5.69141 25.5664C2.01172 25.5664 0.171875 23.8359 0.171875 20.375ZM13.4844 20.5273L13.9062 17.7148H17.5039L17.2109 20.457C17.2109 22.0977 17.8828 22.918 19.2266 22.918C20.2344 22.9336 20.7383 22.0898 20.7383 20.3867V18.6641C20.7383 17.1797 20.1836 16.4375 19.0742 16.4375H16.5781V13.7188H18.0781C19.7656 13.3125 20.6094 12.5391 20.6094 11.3984C20.6094 10.1797 19.707 8.71484 17.9023 7.00391H22.5898C23.6992 8.53516 24.2539 10 24.2539 11.3984C24.2539 12.7812 23.5586 13.8828 22.168 14.7031C23.6992 15.5703 24.4648 16.8906 24.4648 18.6641V20.3867C24.4727 22.1211 24.0391 23.418 23.1641 24.2773C22.2891 25.1367 20.9688 25.5664 19.2031 25.5664C15.3984 25.5664 13.4922 23.8867 13.4844 20.5273ZM26.8203 14.6562L27.207 12.1016H30.8867L30.4883 14.7148C30.5039 16.7148 31.1133 17.7148 32.3164 17.7148C33.4727 17.7148 34.0508 16.7422 34.0508 14.7969C34.0508 13.3594 33.3359 11.9766 31.9062 10.6484C30.4844 9.32031 29.7734 7.64844 29.7734 5.63281H33.5703C33.5781 7.10156 34.2773 8.5 35.668 9.82812C37.0664 11.1484 37.7656 12.8047 37.7656 14.7969C37.7656 18.4922 35.9375 20.3398 32.2812 20.3398C28.6406 20.3398 26.8203 18.4453 26.8203 14.6562ZM48.4766 20.3867L48.9102 17.375H52.6602L52.2031 20.8672C52.2109 22.2344 52.8203 22.9258 54.0312 22.9414C55.0781 22.9414 55.6016 22.2461 55.6016 20.8555V9.85156C54.9375 9.44531 54.207 9.24219 53.4102 9.24219C52.8555 9.24219 52.5625 9.78125 52.5312 10.8594L52.9648 13.918H49.2617L48.9219 11.3516C48.9219 8.20312 50.3867 6.62891 53.3164 6.62891C54.1758 6.68359 54.9375 6.82812 55.6016 7.0625V0.359375H59.2109V20.3867C59.2109 23.8398 57.4844 25.5664 54.0312 25.5664C50.3281 25.5664 48.4766 23.8398 48.4766 20.3867ZM61.9062 20.375L62.3398 17.3633H65.9727L65.6328 20.9258C65.6328 22.2617 66.2344 22.9297 67.4375 22.9297C68.5 22.9375 69.0312 22.2578 69.0312 20.8906V10.9531C69.0312 9.82812 68.5 9.26562 67.4375 9.26562C66.5625 9.26562 66.125 9.76953 66.125 10.7773L66.6289 14.1758H62.9727L62.5508 11.4805C62.5508 8.25391 64.1797 6.64062 67.4375 6.64062C70.9062 6.64062 72.6406 8.28516 72.6406 11.5742V20.3984C72.6406 23.8438 70.9023 25.5664 67.4258 25.5664C63.7461 25.5664 61.9062 23.8359 61.9062 20.375ZM75.2188 20.4102L75.4766 17.9609H79.1211L78.8867 21.0547C78.8867 22.3125 79.4805 22.9375 80.668 22.9297C81.8555 22.9375 82.4492 22.3242 82.4492 21.0898V18.9219C82.4648 17.3516 82.1094 16.5664 81.3828 16.5664H79.1094V13.8125H80.8086C81.8477 13.8281 82.3672 12.7266 82.3672 10.5078C82.3672 9.67188 81.8008 9.25391 80.668 9.25391C79.793 9.25391 79.3516 9.74609 79.3438 10.7305L79.543 12.4531H75.875L75.6641 10.9062C75.6641 8.0625 77.332 6.64062 80.668 6.64062C84.2852 6.64062 86.0938 8.09766 86.0938 11.0117C86.0938 12.4414 85.3359 13.7539 83.8203 14.9492C85.3906 15.6133 86.1719 16.9453 86.1641 18.9453V20.3633C86.1641 23.832 84.4102 25.5664 80.9023 25.5664C77.1133 25.5664 75.2188 23.8477 75.2188 20.4102ZM88.7656 14.6562L89.1523 12.1016H92.832L92.4336 14.7148C92.4492 16.7148 93.0586 17.7148 94.2617 17.7148C95.418 17.7148 95.9961 16.7422 95.9961 14.7969C95.9961 13.3594 95.2812 11.9766 93.8516 10.6484C92.4297 9.32031 91.7188 7.64844 91.7188 5.63281H95.5156C95.5234 7.10156 96.2227 8.5 97.6133 9.82812C99.0117 11.1484 99.7109 12.8047 99.7109 14.7969C99.7109 18.4922 97.8828 20.3398 94.2266 20.3398C90.5859 20.3398 88.7656 18.4453 88.7656 14.6562ZM102.406 14.3516V4.69531C102.406 1.78906 103.918 0.335938 106.941 0.335938H112.391V3.14844H107.141C106.391 3.14844 106.016 3.48438 106.016 4.15625V7.35547C106.828 7.09766 107.566 6.96875 108.23 6.96875C111.645 6.96875 113.352 9.16797 113.352 13.5664C113.352 18.082 111.492 20.3398 107.773 20.3398C104.195 20.3398 102.406 18.3438 102.406 14.3516ZM106.016 14.2344C106.016 16.5547 106.59 17.7148 107.738 17.7148C109.004 17.7148 109.637 16.332 109.637 13.5664C109.637 10.9414 109.023 9.61719 107.797 9.59375C107.305 9.59375 106.711 9.75 106.016 10.0625V14.2344ZM115.695 13.0625C115.695 8.78125 117.559 6.64062 121.285 6.64062C125.012 6.64062 126.875 8.79297 126.875 13.0977C126.875 15.1055 126.441 17.4023 125.574 19.9883H121.766C122.688 17.5039 123.148 15.207 123.148 13.0977C123.148 10.543 122.527 9.26562 121.285 9.26562C120.043 9.26562 119.422 10.5547 119.422 13.1328C119.422 15.2344 119.875 17.5234 120.781 20H116.973C116.551 18.6875 116.23 17.457 116.012 16.3086C115.801 15.1602 115.695 14.0781 115.695 13.0625ZM128.516 3.83984V0.136719H130.508C131.234 0.136719 131.898 0.613281 132.5 1.56641C133.406 0.613281 134.297 0.136719 135.172 0.136719C138.25 0.136719 139.789 1.31641 139.789 3.67578V14.8086C139.789 18.4961 138.105 20.3398 134.738 20.3398C130.809 20.3398 128.844 18.168 128.844 13.8242C128.852 9.26172 130.668 6.98047 134.293 6.98047C134.988 7.01953 135.637 7.10938 136.238 7.25V3.64062C136.238 2.97656 135.969 2.64453 135.43 2.64453C134.609 2.64453 134.199 3.01172 134.199 3.74609V4.44922C134.207 5.26172 133.73 5.66797 132.77 5.66797C131.777 5.66797 131.281 5.26172 131.281 4.44922V3.72266C131.289 3.24609 131.098 2.96875 130.707 2.89062L128.516 3.83984ZM132.559 13.8242C132.559 16.418 133.195 17.7148 134.469 17.7148C135.609 17.7148 136.18 16.8789 136.18 15.207V9.875C135.562 9.6875 134.926 9.59375 134.27 9.59375C133.129 9.64062 132.559 11.0508 132.559 13.8242ZM142.484 20.4102L142.742 17.9609H146.387L146.152 21.0547C146.152 22.3125 146.746 22.9375 147.934 22.9297C149.121 22.9375 149.715 22.3242 149.715 21.0898V18.9219C149.73 17.3516 149.375 16.5664 148.648 16.5664H146.375V13.8125H148.074C149.113 13.8281 149.633 12.7266 149.633 10.5078C149.633 9.67188 149.066 9.25391 147.934 9.25391C147.059 9.25391 146.617 9.74609 146.609 10.7305L146.809 12.4531H143.141L142.93 10.9062C142.93 8.0625 144.598 6.64062 147.934 6.64062C151.551 6.64062 153.359 8.09766 153.359 11.0117C153.359 12.4414 152.602 13.7539 151.086 14.9492C152.656 15.6133 153.438 16.9453 153.43 18.9453V20.3633C153.43 23.832 151.676 25.5664 148.168 25.5664C144.379 25.5664 142.484 23.8477 142.484 20.4102ZM156.031 13.0625C156.031 8.78125 157.895 6.64062 161.621 6.64062C165.348 6.64062 167.211 8.79297 167.211 13.0977C167.211 15.1055 166.777 17.4023 165.91 19.9883H162.102C163.023 17.5039 163.484 15.207 163.484 13.0977C163.484 10.543 162.863 9.26562 161.621 9.26562C160.379 9.26562 159.758 10.5547 159.758 13.1328C159.758 15.2344 160.211 17.5234 161.117 20H157.309C156.887 18.6875 156.566 17.457 156.348 16.3086C156.137 15.1602 156.031 14.0781 156.031 13.0625ZM169.555 12.4766C169.555 8.58594 171.305 6.64062 174.805 6.64062C176.125 6.64062 177.23 7.06641 178.121 7.91797C178.965 6.96484 180.008 6.5 181.25 6.52344C182.648 6.52344 183.734 6.99219 184.508 7.92969C185.297 7.07031 186.375 6.64062 187.742 6.64062C191.242 6.64062 192.992 8.42188 192.992 11.9844C192.984 13.0312 192.773 14.0586 192.359 15.0664C191.945 16.0742 191.312 17.1484 190.461 18.2891H186.09C188.215 15.9531 189.277 13.8516 189.277 11.9844C189.277 10.1641 188.77 9.25391 187.754 9.25391C186.762 9.25391 186.258 9.64453 186.242 10.4258L186.102 14.832H182.75L182.586 10.4375C182.586 9.60938 182.141 9.19531 181.25 9.19531C180.398 9.19531 179.973 9.60547 179.973 10.4258L179.844 14.832H176.492L176.352 10.4258C176.352 9.64453 175.836 9.25391 174.805 9.25391C173.789 9.25391 173.281 10.3438 173.281 12.5234C173.281 14.1953 173.953 15.6094 175.297 16.7656C176.641 17.9141 178.59 18.8672 181.145 19.625C184.668 20.4766 186.746 22.4023 187.379 25.4023H183.711C183.523 24.5273 183.027 23.7383 182.223 23.0352C181.426 22.3398 180.352 21.9844 179 21.9688C177.93 21.9609 176.98 22.1953 176.152 22.6719C175.324 23.1562 174.582 23.7734 173.926 24.5234L171.723 21.957C172.707 21.1289 173.758 20.543 174.875 20.1992C171.328 18.418 169.555 15.8438 169.555 12.4766ZM195.336 13.0625C195.336 8.78125 197.199 6.64062 200.926 6.64062C204.652 6.64062 206.516 8.79297 206.516 13.0977C206.516 15.1055 206.082 17.4023 205.215 19.9883H201.406C202.328 17.5039 202.789 15.207 202.789 13.0977C202.789 10.543 202.168 9.26562 200.926 9.26562C199.684 9.26562 199.062 10.5547 199.062 13.1328C199.062 15.2344 199.516 17.5234 200.422 20H196.613C196.191 18.6875 195.871 17.457 195.652 16.3086C195.441 15.1602 195.336 14.0781 195.336 13.0625Z" fill="#717276"/>
</svg>
