<svg width="248" height="26" viewBox="0 0 248 26" fill="none" xmlns="http://www.w3.org/2000/svg">
<path d="M0.609375 4.20312C0.609375 1.63281 2.16797 0.277344 5.28516 0.136719C8.25391 0.292969 9.73828 1.70312 9.73828 4.36719C9.72266 5.4375 9.38281 6.41406 8.71875 7.29688C9.85938 7.71875 10.6992 8.4375 11.2383 9.45312C11.7773 10.4688 12.0469 11.8945 12.0469 13.7305C12.0469 18.1367 10.2188 20.3398 6.5625 20.3398C2.89844 20.3398 1.06641 18.1367 1.06641 13.7305C1.06641 11.1836 1.66797 9.40625 2.87109 8.39844C1.34766 7.42969 0.59375 6.03125 0.609375 4.20312ZM3.97266 4.28516C3.96484 5.94922 4.38281 6.79297 5.22656 6.81641C6.0625 6.80078 6.47656 6.06641 6.46875 4.61328C6.47656 3.30859 6.07031 2.65625 5.25 2.65625C4.38281 2.65625 3.95703 3.19922 3.97266 4.28516ZM4.78125 13.7188C4.78125 16.3828 5.375 17.7148 6.5625 17.7148C7.72656 17.7148 8.3125 16.3867 8.32031 13.7305C8.32031 10.8477 7.73047 9.41016 6.55078 9.41797C5.37109 9.41016 4.78125 10.8438 4.78125 13.7188ZM14.3906 14.6562L14.7773 12.1016H18.457L18.0586 14.7148C18.0742 16.7148 18.6836 17.7148 19.8867 17.7148C21.043 17.7148 21.6211 16.7422 21.6211 14.7969C21.6211 13.3594 20.9062 11.9766 19.4766 10.6484C18.0547 9.32031 17.3438 7.64844 17.3438 5.63281H21.1406C21.1484 7.10156 21.8477 8.5 23.2383 9.82812C24.6367 11.1484 25.3359 12.8047 25.3359 14.7969C25.3359 18.4922 23.5078 20.3398 19.8516 20.3398C16.2109 20.3398 14.3906 18.4453 14.3906 14.6562ZM27.6797 13.0625C27.6797 8.78125 29.543 6.64062 33.2695 6.64062C36.9961 6.64062 38.8594 8.79297 38.8594 13.0977C38.8594 15.1055 38.4258 17.4023 37.5586 19.9883H33.75C34.6719 17.5039 35.1328 15.207 35.1328 13.0977C35.1328 10.543 34.5117 9.26562 33.2695 9.26562C32.0273 9.26562 31.4062 10.5547 31.4062 13.1328C31.4062 15.2344 31.8594 17.5234 32.7656 20H28.957C28.5352 18.6875 28.2148 17.457 27.9961 16.3086C27.7852 15.1602 27.6797 14.0781 27.6797 13.0625ZM41.2031 13.0273C41.2031 11.5273 41.4492 10.0938 41.9414 8.72656C42.4336 7.35156 43.1758 6.01953 44.168 4.73047C46.082 2.26172 49.082 0.714844 53.168 0.0898438V3.11328C51.8789 3.18359 50.6523 3.52344 49.4883 4.13281C48.332 4.74219 47.2578 5.57812 46.2656 6.64062H46.2773C47.8789 6.64062 49.082 7.16797 49.8867 8.22266C50.6992 7.16797 51.8516 6.64062 53.3438 6.64062C56.8594 6.64062 58.6172 8.76953 58.6172 13.0273C58.6172 15.2461 57.8242 17.5664 56.2383 19.9883H51.4922C53.7578 17.5664 54.8906 15.2461 54.8906 13.0273C54.8828 10.5195 54.3359 9.26562 53.25 9.26562C52.2109 9.26562 51.6914 10.375 51.6914 12.5938V15.2773H48.1172V12.5938C48.125 10.375 47.6172 9.26562 46.5938 9.26562C45.4844 9.26562 44.9297 10.5195 44.9297 13.0273C44.9297 15.2539 46.0664 17.5781 48.3398 20H43.4648C41.957 17.5312 41.2031 15.207 41.2031 13.0273ZM60.9609 14.6562L61.3477 12.1016H65.0273L64.6289 14.7148C64.6445 16.7148 65.2539 17.7148 66.457 17.7148C67.6133 17.7148 68.1914 16.7422 68.1914 14.7969C68.1914 13.3594 67.4766 11.9766 66.0469 10.6484C64.625 9.32031 63.9141 7.64844 63.9141 5.63281H67.7109C67.7188 7.10156 68.418 8.5 69.8086 9.82812C71.207 11.1484 71.9062 12.8047 71.9062 14.7969C71.9062 18.4922 70.0781 20.3398 66.4219 20.3398C62.7812 20.3398 60.9609 18.4453 60.9609 14.6562ZM82.6172 14.6562L83.0039 12.1016H86.6836L86.2852 14.7148C86.3008 16.7148 86.9102 17.7148 88.1133 17.7148C89.2695 17.7148 89.8477 16.7422 89.8477 14.7969C89.8477 13.3594 89.1328 11.9766 87.7031 10.6484C86.2812 9.32031 85.5703 7.64844 85.5703 5.63281H89.3672C89.375 7.10156 90.0742 8.5 91.4648 9.82812C92.8633 11.1484 93.5625 12.8047 93.5625 14.7969C93.5625 18.4922 91.7344 20.3398 88.0781 20.3398C84.4375 20.3398 82.6172 18.4453 82.6172 14.6562ZM95.9062 13.0273C95.9062 11.5273 96.1523 10.0938 96.6445 8.72656C97.1367 7.35156 97.8789 6.01953 98.8711 4.73047C100.785 2.26172 103.785 0.714844 107.871 0.0898438V3.11328C106.582 3.18359 105.355 3.52344 104.191 4.13281C103.035 4.74219 101.961 5.57812 100.969 6.64062H100.98C102.582 6.64062 103.785 7.16797 104.59 8.22266C105.402 7.16797 106.555 6.64062 108.047 6.64062C111.562 6.64062 113.32 8.76953 113.32 13.0273C113.32 15.2461 112.527 17.5664 110.941 19.9883H106.195C108.461 17.5664 109.594 15.2461 109.594 13.0273C109.586 10.5195 109.039 9.26562 107.953 9.26562C106.914 9.26562 106.395 10.375 106.395 12.5938V15.2773H102.82V12.5938C102.828 10.375 102.32 9.26562 101.297 9.26562C100.188 9.26562 99.6328 10.5195 99.6328 13.0273C99.6328 15.2539 100.77 17.5781 103.043 20H98.168C96.6602 17.5312 95.9062 15.207 95.9062 13.0273ZM116.016 14.0117V0.359375H119.625V14.5977C119.625 16.6758 120.281 17.7148 121.594 17.7148C122.695 17.7148 123.246 16.7305 123.246 14.7617C123.246 12.8398 122.961 11.5 122.391 10.7422C121.828 9.97656 121.543 9.03906 121.535 7.92969L121.617 5.52734H125.438L125.051 7.91797C125.066 8.80078 125.387 9.76172 126.012 10.8008C126.645 11.832 126.961 12.957 126.961 14.1758C126.961 18.2852 125.172 20.3398 121.594 20.3398C117.875 20.3398 116.016 18.2305 116.016 14.0117ZM129.305 20.375L129.738 17.3633H133.371L133.031 20.9258C133.031 22.2617 133.633 22.9297 134.836 22.9297C135.898 22.9375 136.43 22.2578 136.43 20.8906V10.9531C136.43 9.82812 135.898 9.26562 134.836 9.26562C133.961 9.26562 133.523 9.76953 133.523 10.7773L134.027 14.1758H130.371L129.949 11.4805C129.949 8.25391 131.578 6.64062 134.836 6.64062C138.305 6.64062 140.039 8.28516 140.039 11.5742V20.3984C140.039 23.8438 138.301 25.5664 134.824 25.5664C131.145 25.5664 129.305 23.8359 129.305 20.375ZM142.969 14.3516V4.69531C142.969 1.78906 144.48 0.335938 147.504 0.335938H152.953V3.14844H147.703C146.953 3.14844 146.578 3.48438 146.578 4.15625V7.35547C147.391 7.09766 148.129 6.96875 148.793 6.96875C152.207 6.96875 153.914 9.16797 153.914 13.5664C153.914 18.082 152.055 20.3398 148.336 20.3398C144.758 20.3398 142.969 18.3438 142.969 14.3516ZM146.578 14.2344C146.578 16.5547 147.152 17.7148 148.301 17.7148C149.566 17.7148 150.199 16.332 150.199 13.5664C150.199 10.9414 149.586 9.61719 148.359 9.59375C147.867 9.59375 147.273 9.75 146.578 10.0625V14.2344ZM156.258 13.0625C156.258 8.78125 158.121 6.64062 161.848 6.64062C165.574 6.64062 167.438 8.79297 167.438 13.0977C167.438 15.1055 167.004 17.4023 166.137 19.9883H162.328C163.25 17.5039 163.711 15.207 163.711 13.0977C163.711 10.543 163.09 9.26562 161.848 9.26562C160.605 9.26562 159.984 10.5547 159.984 13.1328C159.984 15.2344 160.438 17.5234 161.344 20H157.535C157.113 18.6875 156.793 17.457 156.574 16.3086C156.363 15.1602 156.258 14.0781 156.258 13.0625ZM169.078 3.83984V0.136719H171.07C171.797 0.136719 172.461 0.613281 173.062 1.56641C173.969 0.613281 174.859 0.136719 175.734 0.136719C178.812 0.136719 180.352 1.31641 180.352 3.67578V14.8086C180.352 18.4961 178.668 20.3398 175.301 20.3398C171.371 20.3398 169.406 18.168 169.406 13.8242C169.414 9.26172 171.23 6.98047 174.855 6.98047C175.551 7.01953 176.199 7.10938 176.801 7.25V3.64062C176.801 2.97656 176.531 2.64453 175.992 2.64453C175.172 2.64453 174.762 3.01172 174.762 3.74609V4.44922C174.77 5.26172 174.293 5.66797 173.332 5.66797C172.34 5.66797 171.844 5.26172 171.844 4.44922V3.72266C171.852 3.24609 171.66 2.96875 171.27 2.89062L169.078 3.83984ZM173.121 13.8242C173.121 16.418 173.758 17.7148 175.031 17.7148C176.172 17.7148 176.742 16.8789 176.742 15.207V9.875C176.125 9.6875 175.488 9.59375 174.832 9.59375C173.691 9.64062 173.121 11.0508 173.121 13.8242ZM183.047 20.4102L183.305 17.9609H186.949L186.715 21.0547C186.715 22.3125 187.309 22.9375 188.496 22.9297C189.684 22.9375 190.277 22.3242 190.277 21.0898V18.9219C190.293 17.3516 189.938 16.5664 189.211 16.5664H186.938V13.8125H188.637C189.676 13.8281 190.195 12.7266 190.195 10.5078C190.195 9.67188 189.629 9.25391 188.496 9.25391C187.621 9.25391 187.18 9.74609 187.172 10.7305L187.371 12.4531H183.703L183.492 10.9062C183.492 8.0625 185.16 6.64062 188.496 6.64062C192.113 6.64062 193.922 8.09766 193.922 11.0117C193.922 12.4414 193.164 13.7539 191.648 14.9492C193.219 15.6133 194 16.9453 193.992 18.9453V20.3633C193.992 23.832 192.238 25.5664 188.73 25.5664C184.941 25.5664 183.047 23.8477 183.047 20.4102ZM196.594 13.0625C196.594 8.78125 198.457 6.64062 202.184 6.64062C205.91 6.64062 207.773 8.79297 207.773 13.0977C207.773 15.1055 207.34 17.4023 206.473 19.9883H202.664C203.586 17.5039 204.047 15.207 204.047 13.0977C204.047 10.543 203.426 9.26562 202.184 9.26562C200.941 9.26562 200.32 10.5547 200.32 13.1328C200.32 15.2344 200.773 17.5234 201.68 20H197.871C197.449 18.6875 197.129 17.457 196.91 16.3086C196.699 15.1602 196.594 14.0781 196.594 13.0625ZM210.117 12.4766C210.117 8.58594 211.867 6.64062 215.367 6.64062C216.688 6.64062 217.793 7.06641 218.684 7.91797C219.527 6.96484 220.57 6.5 221.812 6.52344C223.211 6.52344 224.297 6.99219 225.07 7.92969C225.859 7.07031 226.938 6.64062 228.305 6.64062C231.805 6.64062 233.555 8.42188 233.555 11.9844C233.547 13.0312 233.336 14.0586 232.922 15.0664C232.508 16.0742 231.875 17.1484 231.023 18.2891H226.652C228.777 15.9531 229.84 13.8516 229.84 11.9844C229.84 10.1641 229.332 9.25391 228.316 9.25391C227.324 9.25391 226.82 9.64453 226.805 10.4258L226.664 14.832H223.312L223.148 10.4375C223.148 9.60938 222.703 9.19531 221.812 9.19531C220.961 9.19531 220.535 9.60547 220.535 10.4258L220.406 14.832H217.055L216.914 10.4258C216.914 9.64453 216.398 9.25391 215.367 9.25391C214.352 9.25391 213.844 10.3438 213.844 12.5234C213.844 14.1953 214.516 15.6094 215.859 16.7656C217.203 17.9141 219.152 18.8672 221.707 19.625C225.23 20.4766 227.309 22.4023 227.941 25.4023H224.273C224.086 24.5273 223.59 23.7383 222.785 23.0352C221.988 22.3398 220.914 21.9844 219.562 21.9688C218.492 21.9609 217.543 22.1953 216.715 22.6719C215.887 23.1562 215.145 23.7734 214.488 24.5234L212.285 21.957C213.27 21.1289 214.32 20.543 215.438 20.1992C211.891 18.418 210.117 15.8438 210.117 12.4766ZM235.898 13.0625C235.898 8.78125 237.762 6.64062 241.488 6.64062C245.215 6.64062 247.078 8.79297 247.078 13.0977C247.078 15.1055 246.645 17.4023 245.777 19.9883H241.969C242.891 17.5039 243.352 15.207 243.352 13.0977C243.352 10.543 242.73 9.26562 241.488 9.26562C240.246 9.26562 239.625 10.5547 239.625 13.1328C239.625 15.2344 240.078 17.5234 240.984 20H237.176C236.754 18.6875 236.434 17.457 236.215 16.3086C236.004 15.1602 235.898 14.0781 235.898 13.0625Z" fill="#717276"/>
</svg>
