<svg width="232" height="26" viewBox="0 0 232 26" fill="none" xmlns="http://www.w3.org/2000/svg">
<path d="M0.2435 13.7422C0.2435 9.00781 2.07162 6.64062 5.72787 6.64062C6.556 6.64062 7.29037 6.75781 7.931 6.99219C8.57944 7.21875 9.13022 7.55469 9.58334 8C10.4349 7.125 11.4154 6.6875 12.5247 6.6875C16.0247 6.6875 17.7747 8.82031 17.7747 13.0859C17.7591 15.5 16.7943 17.8828 14.8802 20.2344H10.3685C12.8216 17.7578 14.0482 15.3945 14.0482 13.1445C14.056 10.5898 13.5091 9.3125 12.4076 9.3125C11.8451 9.28906 11.3685 9.80078 10.9779 10.8477C11.1107 11.707 11.1888 12.668 11.2122 13.7305C10.9779 18.1367 9.13412 20.3398 5.681 20.3398C2.056 20.3398 0.2435 18.1406 0.2435 13.7422ZM3.97006 13.7422C3.97006 16.3906 4.54037 17.7148 5.681 17.7148C6.87631 17.7148 7.47397 16.3906 7.47397 13.7422C7.47397 10.75 6.88412 9.25391 5.70444 9.25391C4.54819 9.25391 3.97006 10.75 3.97006 13.7422ZM20.1185 14.6562L20.5052 12.1016H24.1849L23.7865 14.7148C23.8021 16.7148 24.4115 17.7148 25.6146 17.7148C26.7708 17.7148 27.349 16.7422 27.349 14.7969C27.349 13.3594 26.6341 11.9766 25.2044 10.6484C23.7826 9.32031 23.0716 7.64844 23.0716 5.63281H26.8685C26.8763 7.10156 27.5755 8.5 28.9662 9.82812C30.3646 11.1484 31.0638 12.8047 31.0638 14.7969C31.0638 18.4922 29.2357 20.3398 25.5794 20.3398C21.9388 20.3398 20.1185 18.4453 20.1185 14.6562ZM33.4076 13.4844C33.4076 9.14062 35.3372 6.96875 39.1966 6.96875C39.7044 6.97656 40.2201 7.05469 40.7435 7.20312V4.51953C40.7435 3.34766 40.2747 2.76172 39.3372 2.76172C38.3372 2.76172 37.8372 3.30859 37.8372 4.40234V5H34.0872V4.40234C34.0872 1.55078 35.8372 0.125 39.3372 0.125C42.681 0.125 44.3529 1.59375 44.3529 4.53125V14.5859C44.3529 18.4219 42.599 20.3398 39.0912 20.3398C35.3021 20.3398 33.4076 18.0547 33.4076 13.4844ZM37.1224 13.4961C37.1224 16.3008 37.7904 17.7031 39.1263 17.7031C40.2044 17.7031 40.7435 16.625 40.7435 14.4688V9.89844C40.2904 9.69531 39.7865 9.59375 39.2318 9.59375C38.5443 9.60938 38.0208 9.94141 37.6615 10.5898C37.3021 11.2305 37.1224 12.1992 37.1224 13.4961ZM47.0482 13.7422C47.0482 9.00781 48.8763 6.64062 52.5326 6.64062C53.3607 6.64062 54.0951 6.75781 54.7357 6.99219C55.3841 7.21875 55.9349 7.55469 56.388 8C57.2396 7.125 58.2201 6.6875 59.3294 6.6875C62.8294 6.6875 64.5794 8.82031 64.5794 13.0859C64.5638 15.5 63.599 17.8828 61.6849 20.2344H57.1732C59.6263 17.7578 60.8529 15.3945 60.8529 13.1445C60.8607 10.5898 60.3138 9.3125 59.2122 9.3125C58.6497 9.28906 58.1732 9.80078 57.7826 10.8477C57.9154 11.707 57.9935 12.668 58.0169 13.7305C57.7826 18.1367 55.9388 20.3398 52.4857 20.3398C48.8607 20.3398 47.0482 18.1406 47.0482 13.7422ZM50.7747 13.7422C50.7747 16.3906 51.3451 17.7148 52.4857 17.7148C53.681 17.7148 54.2787 16.3906 54.2787 13.7422C54.2787 10.75 53.6888 9.25391 52.5091 9.25391C51.3529 9.25391 50.7747 10.75 50.7747 13.7422ZM66.9232 14.6562L67.3099 12.1016H70.9896L70.5912 14.7148C70.6068 16.7148 71.2162 17.7148 72.4193 17.7148C73.5755 17.7148 74.1537 16.7422 74.1537 14.7969C74.1537 13.3594 73.4388 11.9766 72.0091 10.6484C70.5872 9.32031 69.8763 7.64844 69.8763 5.63281H73.6732C73.681 7.10156 74.3802 8.5 75.7708 9.82812C77.1693 11.1484 77.8685 12.8047 77.8685 14.7969C77.8685 18.4922 76.0404 20.3398 72.3841 20.3398C68.7435 20.3398 66.9232 18.4453 66.9232 14.6562ZM88.5794 13.4844C88.5794 9.14062 90.5091 6.96875 94.3685 6.96875C94.8763 6.97656 95.3919 7.05469 95.9154 7.20312V4.51953C95.9154 3.34766 95.4466 2.76172 94.5091 2.76172C93.5091 2.76172 93.0091 3.30859 93.0091 4.40234V5H89.2591V4.40234C89.2591 1.55078 91.0091 0.125 94.5091 0.125C97.8529 0.125 99.5247 1.59375 99.5247 4.53125V14.5859C99.5247 18.4219 97.7708 20.3398 94.263 20.3398C90.474 20.3398 88.5794 18.0547 88.5794 13.4844ZM92.2943 13.4961C92.2943 16.3008 92.9622 17.7031 94.2982 17.7031C95.3763 17.7031 95.9154 16.625 95.9154 14.4688V9.89844C95.4622 9.69531 94.9583 9.59375 94.4037 9.59375C93.7162 9.60938 93.1927 9.94141 92.8333 10.5898C92.474 11.2305 92.2943 12.1992 92.2943 13.4961ZM102.22 20.375L102.654 17.3633H106.286L105.947 20.9258C105.947 22.2617 106.548 22.9297 107.751 22.9297C108.814 22.9375 109.345 22.2578 109.345 20.8906V10.9531C109.345 9.82812 108.814 9.26562 107.751 9.26562C106.876 9.26562 106.439 9.76953 106.439 10.7773L106.943 14.1758H103.286L102.865 11.4805C102.865 8.25391 104.493 6.64062 107.751 6.64062C111.22 6.64062 112.954 8.28516 112.954 11.5742V20.3984C112.954 23.8438 111.216 25.5664 107.74 25.5664C104.06 25.5664 102.22 23.8359 102.22 20.375ZM115.533 12.4766C115.533 8.58594 117.283 6.64062 120.783 6.64062C122.103 6.64062 123.208 7.06641 124.099 7.91797C124.943 6.96484 125.986 6.5 127.228 6.52344C128.626 6.52344 129.712 6.99219 130.486 7.92969C131.275 7.07031 132.353 6.64062 133.72 6.64062C137.22 6.64062 138.97 8.42188 138.97 11.9844C138.962 13.0312 138.751 14.0586 138.337 15.0664C137.923 16.0742 137.29 17.1484 136.439 18.2891H132.068C134.193 15.9531 135.255 13.8516 135.255 11.9844C135.255 10.1641 134.747 9.25391 133.732 9.25391C132.74 9.25391 132.236 9.64453 132.22 10.4258L132.079 14.832H128.728L128.564 10.4375C128.564 9.60938 128.118 9.19531 127.228 9.19531C126.376 9.19531 125.951 9.60547 125.951 10.4258L125.822 14.832H122.47L122.329 10.4258C122.329 9.64453 121.814 9.25391 120.783 9.25391C119.767 9.25391 119.259 10.3438 119.259 12.5234C119.259 14.1953 119.931 15.6094 121.275 16.7656C122.618 17.9141 124.568 18.8672 127.122 19.625C130.646 20.4766 132.724 22.4023 133.357 25.4023H129.689C129.501 24.5273 129.005 23.7383 128.201 23.0352C127.404 22.3398 126.329 21.9844 124.978 21.9688C123.908 21.9609 122.958 22.1953 122.13 22.6719C121.302 23.1562 120.56 23.7734 119.904 24.5234L117.701 21.957C118.685 21.1289 119.736 20.543 120.853 20.1992C117.306 18.418 115.533 15.8438 115.533 12.4766ZM141.314 14.6562L141.701 12.1016H145.38L144.982 14.7148C144.997 16.7148 145.607 17.7148 146.81 17.7148C147.966 17.7148 148.544 16.7422 148.544 14.7969C148.544 13.3594 147.829 11.9766 146.4 10.6484C144.978 9.32031 144.267 7.64844 144.267 5.63281H148.064C148.072 7.10156 148.771 8.5 150.161 9.82812C151.56 11.1484 152.259 12.8047 152.259 14.7969C152.259 18.4922 150.431 20.3398 146.775 20.3398C143.134 20.3398 141.314 18.4453 141.314 14.6562ZM153.9 3.83984V0.136719H155.892C156.618 0.136719 157.283 0.613281 157.884 1.56641C158.79 0.613281 159.681 0.136719 160.556 0.136719C163.634 0.136719 165.173 1.31641 165.173 3.67578V14.8086C165.173 18.4961 163.49 20.3398 160.122 20.3398C156.193 20.3398 154.228 18.168 154.228 13.8242C154.236 9.26172 156.052 6.98047 159.677 6.98047C160.372 7.01953 161.021 7.10938 161.622 7.25V3.64062C161.622 2.97656 161.353 2.64453 160.814 2.64453C159.993 2.64453 159.583 3.01172 159.583 3.74609V4.44922C159.591 5.26172 159.115 5.66797 158.154 5.66797C157.161 5.66797 156.665 5.26172 156.665 4.44922V3.72266C156.673 3.24609 156.482 2.96875 156.091 2.89062L153.9 3.83984ZM157.943 13.8242C157.943 16.418 158.579 17.7148 159.853 17.7148C160.993 17.7148 161.564 16.8789 161.564 15.207V9.875C160.947 9.6875 160.31 9.59375 159.654 9.59375C158.513 9.64062 157.943 11.0508 157.943 13.8242ZM167.868 20.4102L168.126 17.9609H171.771L171.536 21.0547C171.536 22.3125 172.13 22.9375 173.318 22.9297C174.505 22.9375 175.099 22.3242 175.099 21.0898V18.9219C175.115 17.3516 174.759 16.5664 174.033 16.5664H171.759V13.8125H173.458C174.497 13.8281 175.017 12.7266 175.017 10.5078C175.017 9.67188 174.451 9.25391 173.318 9.25391C172.443 9.25391 172.001 9.74609 171.993 10.7305L172.193 12.4531H168.525L168.314 10.9062C168.314 8.0625 169.982 6.64062 173.318 6.64062C176.935 6.64062 178.743 8.09766 178.743 11.0117C178.743 12.4414 177.986 13.7539 176.47 14.9492C178.04 15.6133 178.822 16.9453 178.814 18.9453V20.3633C178.814 23.832 177.06 25.5664 173.552 25.5664C169.763 25.5664 167.868 23.8477 167.868 20.4102ZM181.415 13.0625C181.415 8.78125 183.279 6.64062 187.005 6.64062C190.732 6.64062 192.595 8.79297 192.595 13.0977C192.595 15.1055 192.161 17.4023 191.294 19.9883H187.486C188.408 17.5039 188.868 15.207 188.868 13.0977C188.868 10.543 188.247 9.26562 187.005 9.26562C185.763 9.26562 185.142 10.5547 185.142 13.1328C185.142 15.2344 185.595 17.5234 186.501 20H182.693C182.271 18.6875 181.951 17.457 181.732 16.3086C181.521 15.1602 181.415 14.0781 181.415 13.0625ZM194.939 12.4766C194.939 8.58594 196.689 6.64062 200.189 6.64062C201.509 6.64062 202.615 7.06641 203.505 7.91797C204.349 6.96484 205.392 6.5 206.634 6.52344C208.033 6.52344 209.118 6.99219 209.892 7.92969C210.681 7.07031 211.759 6.64062 213.126 6.64062C216.626 6.64062 218.376 8.42188 218.376 11.9844C218.368 13.0312 218.158 14.0586 217.743 15.0664C217.329 16.0742 216.697 17.1484 215.845 18.2891H211.474C213.599 15.9531 214.661 13.8516 214.661 11.9844C214.661 10.1641 214.154 9.25391 213.138 9.25391C212.146 9.25391 211.642 9.64453 211.626 10.4258L211.486 14.832H208.134L207.97 10.4375C207.97 9.60938 207.525 9.19531 206.634 9.19531C205.783 9.19531 205.357 9.60547 205.357 10.4258L205.228 14.832H201.876L201.736 10.4258C201.736 9.64453 201.22 9.25391 200.189 9.25391C199.173 9.25391 198.665 10.3438 198.665 12.5234C198.665 14.1953 199.337 15.6094 200.681 16.7656C202.025 17.9141 203.974 18.8672 206.529 19.625C210.052 20.4766 212.13 22.4023 212.763 25.4023H209.095C208.908 24.5273 208.411 23.7383 207.607 23.0352C206.81 22.3398 205.736 21.9844 204.384 21.9688C203.314 21.9609 202.365 22.1953 201.536 22.6719C200.708 23.1562 199.966 23.7734 199.31 24.5234L197.107 21.957C198.091 21.1289 199.142 20.543 200.259 20.1992C196.712 18.418 194.939 15.8438 194.939 12.4766ZM220.72 13.0625C220.72 8.78125 222.583 6.64062 226.31 6.64062C230.036 6.64062 231.9 8.79297 231.9 13.0977C231.9 15.1055 231.466 17.4023 230.599 19.9883H226.79C227.712 17.5039 228.173 15.207 228.173 13.0977C228.173 10.543 227.552 9.26562 226.31 9.26562C225.068 9.26562 224.447 10.5547 224.447 13.1328C224.447 15.2344 224.9 17.5234 225.806 20H221.997C221.576 18.6875 221.255 17.457 221.036 16.3086C220.826 15.1602 220.72 14.0781 220.72 13.0625Z" fill="#717276"/>
</svg>
