<svg width="106" height="21" viewBox="0 0 106 21" fill="none" xmlns="http://www.w3.org/2000/svg">
<path d="M0.417969 14.1484C0.417969 14 0.433594 13.8477 0.464844 13.6914C0.464844 13.418 0.472656 13.2578 0.488281 13.2109C0.519531 12.7812 0.566406 12.4062 0.628906 12.0859C0.683594 11.8906 0.808594 11.7422 1.00391 11.6406C1.19922 11.5312 1.40234 11.4883 1.61328 11.5117C1.80078 11.5586 1.94531 11.6797 2.04688 11.875C2.14844 12.0703 2.1875 12.2695 2.16406 12.4727C2.16406 12.4805 2.16016 12.5 2.15234 12.5312C2.14453 12.5625 2.14062 12.582 2.14062 12.5898L2.11719 12.6602L2.02344 13.1172C2.00781 13.1797 2 13.2695 2 13.3867C2 13.4023 1.99609 13.4258 1.98828 13.457C1.98047 13.4883 1.97656 13.5117 1.97656 13.5273V14.0078C1.97656 14.0234 1.97266 14.0469 1.96484 14.0781C1.95703 14.1094 1.95312 14.1328 1.95312 14.1484C1.92969 14.4219 1.9375 14.6719 1.97656 14.8984L2.04688 15.3789V15.3555L2.16406 15.5898V15.6602C2.17969 15.6836 2.19531 15.7109 2.21094 15.7422C2.22656 15.7578 2.23438 15.7656 2.23438 15.7656L2.33984 15.9062C2.55078 16.2031 2.64453 16.3633 2.62109 16.3867L2.9375 16.6914L3.10156 16.8438L3.17188 16.8906C3.20312 16.9219 3.23828 16.9375 3.27734 16.9375L3.46484 17.0547L3.85156 17.3477C3.99219 17.3945 4.08594 17.4336 4.13281 17.4648C4.14844 17.4805 4.17188 17.4961 4.20312 17.5117C4.25 17.543 4.30078 17.5586 4.35547 17.5586C4.37109 17.5742 4.40234 17.582 4.44922 17.582L4.63672 17.6289C4.83203 17.668 4.96094 17.7109 5.02344 17.7578C5.24219 17.7891 5.46484 17.7891 5.69141 17.7578L5.79688 17.7227C5.73438 17.7461 5.71094 17.7578 5.72656 17.7578C5.78906 17.7578 5.94531 17.7227 6.19531 17.6523C6.23438 17.6055 6.26953 17.5742 6.30078 17.5586C6.31641 17.543 6.33984 17.5312 6.37109 17.5234C6.41016 17.5078 6.44141 17.4961 6.46484 17.4883C6.48828 17.4727 6.50391 17.457 6.51172 17.4414L6.80469 17.3008V17.3242L7.03906 17.0781L7.15625 16.9609C7.24219 16.875 7.30859 16.7852 7.35547 16.6914L7.51953 16.4336L7.68359 16.1406L7.76562 16.0234C7.76562 16.0156 7.76953 16 7.77734 15.9766C7.78516 15.9531 7.78906 15.9375 7.78906 15.9297C7.92969 15.6016 8.02344 15.2656 8.07031 14.9219C8.125 14.4062 8.11719 13.9336 8.04688 13.5039C8.00781 13.2305 7.94531 12.918 7.85938 12.5664V12.5898L7.68359 12.0625L7.58984 11.8281L7.56641 11.7227V11.7578L7.30859 11.2188H7.33203L7.22656 11.1016L7.08594 10.9141V10.9375C7.03906 10.9219 7.01562 10.8828 7.01562 10.8203C6.96875 10.7734 6.94531 10.7461 6.94531 10.7383L6.62891 10.457L6.51172 10.3398V10.3633C6.44922 10.332 6.41016 10.3086 6.39453 10.293C6.37109 10.293 6.33984 10.2734 6.30078 10.2344C6.20703 10.2031 6.14062 10.1875 6.10156 10.1875C6.08594 10.1719 6.04688 10.1641 5.98438 10.1641C5.96875 10.1641 5.9375 10.1719 5.89062 10.1875C5.80469 10.1875 5.69922 10.2031 5.57422 10.2344L5.45703 10.3164C5.44922 10.3164 5.4375 10.3203 5.42188 10.3281C5.40625 10.3359 5.39453 10.3398 5.38672 10.3398H5.41016L5.16406 10.457V10.4336L5.09375 10.5039L4.97656 10.5742C4.83594 10.7148 4.67969 10.7852 4.50781 10.7852C4.33594 10.7852 4.17969 10.7148 4.03906 10.5742C3.89844 10.4258 3.82812 10.2695 3.82812 10.1055C3.82812 9.93359 3.89844 9.77734 4.03906 9.63672H4.01562L4.15625 9.47266L4.33203 9.28516H4.30859C4.30859 9.26172 4.34766 9.21094 4.42578 9.13281H4.40234L4.51953 8.96875C4.58984 8.86719 4.65234 8.75391 4.70703 8.62891C4.81641 8.48828 4.91406 8.32031 5 8.125C5 8.07812 5.02344 8.03125 5.07031 7.98438C5.07031 7.96875 5.07812 7.95312 5.09375 7.9375C5.09375 7.92969 5.09766 7.91016 5.10547 7.87891C5.11328 7.84766 5.11719 7.82812 5.11719 7.82031L5.1875 7.66797C5.30469 7.41797 5.41016 7.01172 5.50391 6.44922C5.50391 6.43359 5.51172 6.40234 5.52734 6.35547C5.52734 6.25391 5.53516 6.1875 5.55078 6.15625V6.08594C5.56641 6.03906 5.57422 5.86328 5.57422 5.55859C5.55859 5.52734 5.55078 5.43359 5.55078 5.27734C5.53516 5.26172 5.52734 5.22656 5.52734 5.17188L5.41016 4.69141C5.37891 4.66016 5.36328 4.62109 5.36328 4.57422L5.29297 4.50391V4.45703C5.23828 4.40234 5.21094 4.36328 5.21094 4.33984L4.95312 4.09375V4.11719L4.8125 4.04688L4.73047 4L4.42578 3.92969C4.41797 3.92969 4.40625 3.92578 4.39062 3.91797C4.375 3.91016 4.36328 3.90625 4.35547 3.90625H4.13281C4.125 3.90625 4.11328 3.90234 4.09766 3.89453C4.08203 3.88672 4.07031 3.88281 4.0625 3.88281C4 3.89844 3.88672 3.90625 3.72266 3.90625C3.69922 3.90625 3.66406 3.91016 3.61719 3.91797C3.57812 3.92578 3.55078 3.92969 3.53516 3.92969H3.46484C3.30078 3.95312 3.15625 3.90234 3.03125 3.77734C2.90625 3.64453 2.84375 3.49609 2.84375 3.33203C2.84375 3.19922 2.89062 3.07812 2.98438 2.96875C3.07812 2.85156 3.18359 2.78125 3.30078 2.75781H3.27734L3.48828 2.67578L3.55859 2.66406C3.60547 2.65625 3.64453 2.65234 3.67578 2.65234C3.80078 2.62109 3.92969 2.60547 4.0625 2.60547C4.5 2.58203 4.94922 2.66406 5.41016 2.85156C5.75391 3.01562 6.06641 3.27734 6.34766 3.63672C6.71484 4.16797 6.89844 4.89062 6.89844 5.80469C6.89844 6.60156 6.74609 7.44922 6.44141 8.34766L6.27734 8.65234C6.27734 8.67578 6.26562 8.69922 6.24219 8.72266H6.27734C6.23828 8.72266 6.17969 8.74219 6.10156 8.78125L6.60547 8.875L7.15625 8.96875L7.30859 9.0625V9.03906C7.99609 9.46094 8.5625 10.1719 9.00781 11.1719C9.42188 12.1172 9.62891 13.1758 9.62891 14.3477C9.62891 15.4648 9.39844 16.4141 8.9375 17.1953C8.64844 17.6719 8.25391 18.0977 7.75391 18.4727C7.26172 18.8477 6.75 19.1016 6.21875 19.2344C5.92188 19.3047 5.63672 19.3398 5.36328 19.3398C5.07422 19.3398 4.72266 19.2969 4.30859 19.2109C3.77734 19.0547 3.21484 18.7695 2.62109 18.3555C2.15234 18.0195 1.72656 17.6289 1.34375 17.1836C0.96875 16.7305 0.707031 16.2656 0.558594 15.7891C0.441406 15.2578 0.394531 14.7109 0.417969 14.1484ZM4.73047 4.02344V3.83594C4.80078 3.83594 4.88281 3.88281 4.97656 3.97656L4.73047 4.02344ZM5.79688 17.7227L5.89062 17.6992C5.89844 17.6992 5.90625 17.6953 5.91406 17.6875C5.92188 17.6797 5.92969 17.6758 5.9375 17.6758L5.79688 17.7227ZM6.55859 8.875V8.85156L6.62891 8.92188C6.60547 8.92188 6.58594 8.91797 6.57031 8.91016C6.5625 8.89453 6.55859 8.88281 6.55859 8.875ZM6.58203 8.92188V8.85156L6.62891 8.80469C6.80859 8.83594 6.92188 8.86719 6.96875 8.89844L6.94531 8.99219L6.58203 8.92188ZM6.94531 8.99219L6.96875 8.89844L7.17969 8.96875L8.48047 9.20312V9.30859L6.94531 8.99219ZM13.0039 10.0469C13.0039 9.32031 13.0703 8.46484 13.2031 7.48047C13.3438 6.56641 13.6484 5.66406 14.1172 4.77344C14.3281 4.32812 14.6406 3.92187 15.0547 3.55469C15.4688 3.1875 15.9141 2.9375 16.3906 2.80469C16.8984 2.69531 17.3711 2.71094 17.8086 2.85156C18.082 2.91406 18.418 3.12891 18.8164 3.49609C19.3164 3.96484 19.7812 4.66797 20.2109 5.60547L20.3047 5.39453L20.4688 5.03125C20.5391 4.88281 20.7305 4.60938 21.043 4.21094C21.5586 3.59375 22.1133 3.17969 22.707 2.96875C22.9648 2.89062 23.2188 2.85156 23.4688 2.85156C23.7969 2.85156 24.0938 2.89844 24.3594 2.99219C24.8672 3.1875 25.3359 3.51953 25.7656 3.98828C26.1953 4.44922 26.543 4.94922 26.8086 5.48828C27.3867 6.57422 27.7773 7.8125 27.9805 9.20312C28.0664 9.77344 28.1094 10.3906 28.1094 11.0547C28.1094 11.75 28.043 12.5039 27.9102 13.3164C27.707 14.4648 27.3242 15.625 26.7617 16.7969C26.1992 17.9688 25.5273 19.0391 24.7461 20.0078C24.6133 20.125 24.4414 20.1836 24.2305 20.1836C24.0195 20.1836 23.8555 20.125 23.7383 20.0078C23.6133 19.8672 23.5469 19.6953 23.5391 19.4922C23.5391 19.2891 23.5898 19.125 23.6914 19L23.8555 18.8125L24.043 18.5898H24.0195L24.1953 18.3555L24.4062 18.0625C24.7266 17.6094 25.0312 17.1133 25.3203 16.5742C25.3828 16.4805 25.4219 16.4102 25.4375 16.3633L25.7305 15.7305L25.7773 15.6367L25.8477 15.4258L25.918 15.2266L25.9648 15.1328C25.9961 15.1016 26.0117 15.0625 26.0117 15.0156C26.2461 14.2969 26.3984 13.7305 26.4688 13.3164C26.4688 13.1836 26.4766 13.1016 26.4922 13.0703C26.4922 13.0078 26.5 12.9688 26.5156 12.9531C26.5156 12.9375 26.5195 12.918 26.5273 12.8945C26.5352 12.8711 26.5391 12.8516 26.5391 12.8359C26.5391 12.7344 26.5469 12.668 26.5625 12.6367C26.5625 12.582 26.582 12.5352 26.6211 12.4961L26.5859 12.5195C26.5859 12.3398 26.5977 12.1797 26.6211 12.0391C26.6211 11.875 26.6367 11.7148 26.668 11.5586C26.668 10.7227 26.6328 10.0742 26.5625 9.61328V9.44922C26.5469 9.43359 26.5391 9.39453 26.5391 9.33203L26.5273 9.29688C26.5195 9.27344 26.5156 9.24219 26.5156 9.20312L26.375 8.39453C26.3594 8.35547 26.3477 8.31641 26.3398 8.27734C26.332 8.23047 26.3164 8.16406 26.293 8.07812C26.2773 7.99219 26.2578 7.89844 26.2344 7.79688C26.1875 7.60938 26.0898 7.32812 25.9414 6.95312C25.9414 6.92188 25.9258 6.875 25.8945 6.8125L25.8477 6.61328C25.7695 6.53516 25.7305 6.47266 25.7305 6.42578C25.7227 6.41016 25.7109 6.39062 25.6953 6.36719C25.6797 6.34375 25.6641 6.32422 25.6484 6.30859C25.6406 6.28516 25.6367 6.26953 25.6367 6.26172L25.2969 5.67578L25.2266 5.53516H25.25L25.1094 5.37109L24.957 5.21875C24.9102 5.19531 24.8945 5.17188 24.9102 5.14844C24.9023 5.13281 24.8828 5.10938 24.8516 5.07812C24.8203 5.04688 24.8008 5.02344 24.793 5.00781H24.8164L24.5703 4.77344C24.5078 4.77344 24.4609 4.73828 24.4297 4.66797C24.4141 4.65234 24.3906 4.64453 24.3594 4.64453L24.2656 4.59766C24.25 4.58984 24.2188 4.57031 24.1719 4.53906L24.0898 4.48047C24.043 4.44922 24.0039 4.42578 23.9727 4.41016C23.957 4.41016 23.918 4.39453 23.8555 4.36328C23.7617 4.33203 23.6914 4.31641 23.6445 4.31641C23.6367 4.31641 23.6211 4.3125 23.5977 4.30469C23.5742 4.29687 23.5547 4.29297 23.5391 4.29297L23.375 4.31641C23.3438 4.31641 23.3125 4.32422 23.2812 4.33984C23.2734 4.33984 23.2578 4.34375 23.2344 4.35156C23.2109 4.35938 23.1875 4.36328 23.1641 4.36328C23.1406 4.36328 23.1055 4.37891 23.0586 4.41016L22.6602 4.66797C22.6055 4.66797 22.5547 4.69141 22.5078 4.73828H22.5312C22.4922 4.78516 22.4453 4.83594 22.3906 4.89062C22.3359 4.9375 22.2891 4.98438 22.25 5.03125L22.0273 5.30078H22.0508L21.9336 5.46484C21.8164 5.58203 21.6875 5.78125 21.5469 6.0625L21.4766 6.20312V6.17969C21.4766 6.1875 21.4688 6.20312 21.4531 6.22656C21.4375 6.24219 21.4297 6.25391 21.4297 6.26172C21.4062 6.44141 21.3672 6.57422 21.3125 6.66016C21.2266 6.91016 21.1641 7.19922 21.125 7.52734C21.0547 7.71484 21.0195 7.82812 21.0195 7.86719C21.0195 7.92969 21.0117 7.96875 20.9961 7.98438V8.125C20.9648 8.28125 20.9492 8.43359 20.9492 8.58203C21.082 9.37891 21.1719 10.1641 21.2188 10.9375V11.9688C21.2188 12.1953 21.2109 12.3477 21.1953 12.4258V13.1172C21.1953 13.3125 21.1211 13.4844 20.9727 13.6328C20.832 13.7734 20.6641 13.8438 20.4688 13.8438C20.3516 13.8438 20.2148 13.7891 20.0586 13.6797C19.9102 13.5703 19.8242 13.4414 19.8008 13.293C19.668 12.4648 19.5781 11.6953 19.5312 10.9844C19.5 10.5312 19.4844 10.1406 19.4844 9.8125C19.4844 9.63281 19.5 9.23828 19.5312 8.62891C19.5 8.50391 19.4844 8.41797 19.4844 8.37109L19.2266 7.31641L19.1562 7.07031L19.0508 6.70703L19.0039 6.61328L18.957 6.40234L18.9102 6.33203V6.35547L18.8398 6.13281L18.7695 5.94531C18.6445 5.66406 18.4609 5.34375 18.2188 4.98438L18.1719 4.89062V4.91406L18.0898 4.77344L18.0195 4.66797V4.69141L17.8086 4.50391C17.7695 4.50391 17.7305 4.46484 17.6914 4.38672L17.7383 4.41016C17.7461 4.41016 17.7383 4.40625 17.7148 4.39844C17.6914 4.38281 17.6602 4.36328 17.6211 4.33984L17.4453 4.21094C17.4141 4.19531 17.3828 4.1875 17.3516 4.1875C17.2578 4.15625 17.1875 4.14062 17.1406 4.14062C17.1328 4.14062 17.1133 4.13672 17.082 4.12891C17.0508 4.12109 17.0273 4.11719 17.0117 4.11719H16.8242C16.8164 4.11719 16.8047 4.12109 16.7891 4.12891C16.7812 4.13672 16.7695 4.14062 16.7539 4.14062C16.7461 4.14062 16.7305 4.14453 16.707 4.15234C16.6836 4.16016 16.6602 4.16406 16.6367 4.16406H16.6133L16.4609 4.23438C16.4531 4.23438 16.4414 4.24219 16.4258 4.25781C16.4102 4.26563 16.3984 4.26953 16.3906 4.26953L16.0508 4.45703V4.43359L15.957 4.50391L15.6289 4.84375L15.5469 4.96094H15.5703C15.3047 5.36719 15.1211 5.6875 15.0195 5.92188C15.0117 5.9375 14.9883 5.97656 14.9492 6.03906C14.918 6.10156 14.9023 6.14062 14.9023 6.15625L14.832 6.33203C14.832 6.33984 14.8281 6.35156 14.8203 6.36719C14.8125 6.38281 14.8086 6.39453 14.8086 6.40234C14.793 6.41797 14.7852 6.44922 14.7852 6.49609C14.7539 6.55859 14.7383 6.59766 14.7383 6.61328L14.5391 7.26953C14.5391 7.37891 14.5234 7.46484 14.4922 7.52734C14.4922 7.55859 14.4883 7.61719 14.4805 7.70312C14.4727 7.78125 14.4688 7.83594 14.4688 7.86719L14.457 7.90234C14.4492 7.92578 14.4453 7.95312 14.4453 7.98438V8.14844L14.4219 8.21875C14.4062 8.28125 14.3984 8.36328 14.3984 8.46484C14.3984 8.48047 14.3945 8.5 14.3867 8.52344C14.3789 8.53906 14.375 8.55078 14.375 8.55859V8.65234C14.3203 9.37109 14.3047 10.0195 14.3281 10.5977C14.3281 10.918 14.3516 11.2227 14.3984 11.5117C14.3984 11.6133 14.4062 11.7031 14.4219 11.7812C14.4219 11.8125 14.4297 11.8359 14.4453 11.8516C14.4453 11.8984 14.4609 12.0156 14.4922 12.2031C14.5625 12.8203 14.707 13.4297 14.9258 14.0312C14.9805 14.2031 15.0859 14.4688 15.2422 14.8281C15.2422 14.8906 15.25 14.9297 15.2656 14.9453C15.2656 14.9844 15.2891 15.0156 15.3359 15.0391L15.3828 15.2031V15.1797L15.5703 15.5898C15.9531 16.2695 16.2734 16.7969 16.5312 17.1719L16.6602 17.3945H16.6367L16.7773 17.5352L16.918 17.6758L17.0117 17.8047H16.9883L17.2812 18.1094L17.5859 18.543H17.5625C17.6562 18.6523 17.7031 18.7852 17.7031 18.9414C17.7031 19.0898 17.6562 19.2227 17.5625 19.3398C17.4844 19.4414 17.3633 19.4922 17.1992 19.4922C17.043 19.4922 16.918 19.4414 16.8242 19.3398C16.4336 18.9492 16.1211 18.6133 15.8867 18.332H15.9102C15.7852 18.207 15.7227 18.125 15.7227 18.0859C15.7148 18.0781 15.6992 18.0664 15.6758 18.0508C15.6523 18.0352 15.6328 18.0195 15.6172 18.0039C15.6016 17.9883 15.5938 17.9766 15.5938 17.9688L15.4531 17.8281H15.4766L15.3594 17.6758L15.2422 17.5117C15.2266 17.4883 15.1719 17.4102 15.0781 17.2773C14.9844 17.1445 14.918 17.0469 14.8789 16.9844L14.7383 16.7734C14.5117 16.3359 14.2461 15.75 13.9414 15.0156C13.4805 13.9609 13.1836 12.7383 13.0508 11.3477C13.0195 11.0898 13.0039 10.6562 13.0039 10.0469ZM17.1406 4.14062V3.95312H17.3281V4.14062H17.1406ZM31.3086 9.76562C31.3086 9.20312 31.3398 8.73828 31.4023 8.37109C31.6133 6.80859 32.1016 5.58984 32.8672 4.71484C33.3125 4.22266 33.8164 3.87109 34.3789 3.66016C34.9805 3.45703 35.6367 3.39453 36.3477 3.47266C36.9023 3.55078 37.3672 3.67188 37.7422 3.83594L38 3.92969C38.4609 4.07813 38.7344 4.15625 38.8203 4.16406H39.0547L39.125 4.14062C39.1484 4.14062 39.1836 4.125 39.2305 4.09375L39.3711 4.04688V4.07031L39.4648 3.97656L39.5352 3.88281H39.5117L39.6055 3.76562L39.7578 3.63672H39.7344C39.75 3.60547 39.7656 3.56641 39.7812 3.51953C39.7812 3.51172 39.7852 3.5 39.793 3.48438C39.8008 3.46875 39.8047 3.45703 39.8047 3.44922C39.9219 3.30859 40.0078 3.17969 40.0625 3.0625C40.1719 2.89844 40.3008 2.79297 40.4492 2.74609C40.6055 2.69922 40.7656 2.72656 40.9297 2.82812C41.0547 2.91406 41.1484 3.02734 41.2109 3.16797C41.2734 3.30859 41.2773 3.44922 41.2227 3.58984L41.1406 3.8125C40.8906 4.5 40.5156 4.99609 40.0156 5.30078C39.625 5.51172 39.1445 5.58203 38.5742 5.51172C38.2617 5.48047 37.9023 5.36719 37.4961 5.17188L37.2617 5.10156L37.0625 5.03125C36.6641 4.89062 36.4102 4.8125 36.3008 4.79688H36.1484C36.1172 4.78125 36.0859 4.77344 36.0547 4.77344C35.9297 4.77344 35.8438 4.76172 35.7969 4.73828C35.5703 4.73828 35.4336 4.75 35.3867 4.77344H35.293C35.2852 4.77344 35.2656 4.77734 35.2344 4.78516C35.2031 4.79297 35.1836 4.79688 35.1758 4.79688C35.168 4.79688 35.1562 4.80078 35.1406 4.80859C35.125 4.81641 35.1016 4.82031 35.0703 4.82031C35.0312 4.82813 34.9688 4.84766 34.8828 4.87891C34.7969 4.91016 34.7344 4.92969 34.6953 4.9375C34.6875 4.9375 34.6719 4.94141 34.6484 4.94922C34.6328 4.95703 34.6211 4.96094 34.6133 4.96094H34.6367L34.5195 5.03125L34.3789 5.125L34.1328 5.30078C34.0938 5.32422 34.0547 5.35156 34.0156 5.38281C33.9766 5.40625 33.9375 5.43359 33.8984 5.46484C33.8672 5.48828 33.8438 5.50391 33.8281 5.51172L33.6875 5.65234V5.62891L33.6289 5.67578C33.6289 5.74609 33.6055 5.80469 33.5586 5.85156L33.3711 6.15625L33.1484 6.54297C33.1328 6.54297 33.125 6.56641 33.125 6.61328C33.0781 6.71484 33.0469 6.78906 33.0312 6.83594C33.0312 6.84375 33.0273 6.85938 33.0195 6.88281C33.0117 6.90625 33.0078 6.92188 33.0078 6.92969C32.9062 7.17969 32.8359 7.46875 32.7969 7.79688C32.7656 7.90625 32.7344 8.05469 32.7031 8.24219L32.6797 8.30078C32.6797 8.30859 32.6719 8.32422 32.6562 8.34766C32.6484 8.37109 32.6445 8.39453 32.6445 8.41797V8.51172C32.5977 8.89453 32.5742 9.29297 32.5742 9.70703C32.5742 10.0898 32.582 10.3789 32.5977 10.5742V10.7148C32.5977 10.7305 32.6016 10.7578 32.6094 10.7969C32.6172 10.8281 32.6211 10.8516 32.6211 10.8672C32.6211 10.9766 32.6289 11.0625 32.6445 11.125V11.2773L32.6797 11.3711L32.7031 11.5117C32.7031 11.5586 32.7109 11.6055 32.7266 11.6523V11.7578C33.3359 11.2109 33.75 10.8711 33.9688 10.7383C34.3906 10.4727 34.8672 10.2656 35.3984 10.1172C35.9375 9.96094 36.4531 9.90625 36.9453 9.95312C37.3906 9.99219 37.8398 10.1289 38.293 10.3633C38.5195 10.4727 38.8477 10.7422 39.2773 11.1719C39.9023 11.7734 40.3164 12.5039 40.5195 13.3633C40.5977 13.8477 40.6367 14.293 40.6367 14.6992C40.6367 15.3945 40.5742 15.9883 40.4492 16.4805C40.2695 17.043 40.0156 17.5625 39.6875 18.0391C39.3594 18.5078 38.9727 18.8438 38.5273 19.0469C38.0273 19.2578 37.582 19.3633 37.1914 19.3633C36.8164 19.3633 36.4219 19.2969 36.0078 19.1641C34.9922 18.8047 34.0391 17.9648 33.1484 16.6445C32.8125 16.1133 32.5078 15.4883 32.2344 14.7695C31.9609 14.043 31.7461 13.332 31.5898 12.6367C31.4023 11.5352 31.3086 10.5781 31.3086 9.76562ZM33.0312 13.0234C33.0312 13.0312 33.0352 13.043 33.043 13.0586C33.0508 13.0742 33.0547 13.0859 33.0547 13.0938C33.25 13.75 33.4023 14.2227 33.5117 14.5117L33.6055 14.6758C33.6055 14.7617 33.6211 14.8203 33.6523 14.8516L33.7109 14.9219V14.8984C33.7969 15.0938 33.875 15.2461 33.9453 15.3555C34.0078 15.5039 34.1758 15.7891 34.4492 16.2109L34.6719 16.5977C34.6719 16.6445 34.6797 16.6758 34.6953 16.6914L34.8359 16.8672C34.9766 17.0078 35.1602 17.168 35.3867 17.3477L35.7266 17.5586C35.7344 17.5586 35.7539 17.5664 35.7852 17.582C35.8164 17.5977 35.8359 17.6055 35.8438 17.6055L36.0781 17.7812V17.8047C36.1094 17.8359 36.1523 17.8516 36.207 17.8516C36.2539 17.8516 36.293 17.8594 36.3242 17.875L36.5117 17.9453C36.5195 17.9453 36.5273 17.9492 36.5352 17.957C36.543 17.9648 36.5508 17.9688 36.5586 17.9688C36.5742 17.9844 36.6328 17.9922 36.7344 17.9922C36.7422 17.9922 36.7578 17.9961 36.7812 18.0039C36.8125 18.0117 36.8359 18.0156 36.8516 18.0156C36.8672 18.0312 36.8906 18.0391 36.9219 18.0391C37.1094 18.0625 37.3086 18.0625 37.5195 18.0391C37.5352 18.0391 37.5586 18.0312 37.5898 18.0156L37.6719 17.9922L37.8594 17.9219L37.9766 17.875H37.9531L38.1758 17.7227C38.2227 17.7227 38.2539 17.7148 38.2695 17.6992L38.5508 17.4414C38.5664 17.3945 38.5898 17.3477 38.6211 17.3008V17.3242C38.6211 17.3164 38.6289 17.3008 38.6445 17.2773C38.668 17.2461 38.6797 17.2266 38.6797 17.2188L38.8906 16.8906L39.0078 16.6445C39.1172 16.3945 39.1914 16.125 39.2305 15.8359C39.2773 15.7031 39.3086 15.6055 39.3242 15.543L39.3477 15.3789V15.2617C39.3789 15.0117 39.3945 14.7461 39.3945 14.4648L39.3477 14.1016V13.9844C39.3398 13.9297 39.3203 13.8477 39.2891 13.7383C39.2578 13.6211 39.2383 13.5352 39.2305 13.4805L39.125 13.1641C39.0625 13.1016 39.0312 13.0547 39.0312 13.0234L38.7969 12.5664L38.75 12.4727V12.4961L38.5977 12.2617H38.6211L38.5039 12.1328C38.4961 12.1172 38.4727 12.0938 38.4336 12.0625C38.4023 12.0234 38.3789 11.9922 38.3633 11.9688L38.3398 11.9453L38.0234 11.6758L37.8359 11.5586C37.8125 11.5508 37.7734 11.5352 37.7188 11.5117C37.6719 11.4883 37.6367 11.4727 37.6133 11.4648L37.5664 11.418C37.5352 11.418 37.5039 11.4023 37.4727 11.3711C37.3633 11.332 37.1875 11.2812 36.9453 11.2188C36.9297 11.2031 36.9062 11.1953 36.875 11.1953H36.7578C36.6953 11.1797 36.5898 11.1719 36.4414 11.1719H36.3242C36.3164 11.1719 36.3047 11.1758 36.2891 11.1836C36.2734 11.1914 36.2617 11.1953 36.2539 11.1953H36.1484L36.1133 11.207C36.0898 11.2148 36.0625 11.2188 36.0312 11.2188L35.9961 11.2305C35.9727 11.2383 35.9453 11.2422 35.9141 11.2422C35.8125 11.2578 35.6055 11.332 35.293 11.4648C35.2852 11.4648 35.2695 11.4688 35.2461 11.4766C35.2227 11.4844 35.1992 11.4883 35.1758 11.4883C35.1367 11.5039 35.1094 11.5117 35.0938 11.5117C35.0312 11.543 34.9844 11.5586 34.9531 11.5586L34.6133 11.7578V11.7227L34.4727 11.875C34.4414 11.9062 34.4023 11.9375 34.3555 11.9688C34.3242 11.9844 34.2852 11.9922 34.2383 11.9922L34.0156 12.1562L33.9453 12.2031L33.6523 12.4961L33.0781 12.9766L33.0312 13.0234ZM43.2148 7.73828C43.2148 7.67578 43.2305 7.62891 43.2617 7.59766C43.2617 7.58203 43.2695 7.56641 43.2852 7.55078C43.2852 7.54297 43.2891 7.52734 43.2969 7.50391C43.3047 7.48047 43.3086 7.46484 43.3086 7.45703L43.4141 7.21094L43.4609 7.09375L43.5078 6.88281L43.625 6.63672L43.7422 6.44922C43.7578 6.41797 43.7812 6.375 43.8125 6.32031C43.8516 6.25781 43.8867 6.20312 43.918 6.15625C43.957 6.10156 44.0039 6.04688 44.0586 5.99219H44.0352L44.3984 4.71484C44.4453 4.58984 44.543 4.48828 44.6914 4.41016C44.8477 4.33203 45.0117 4.31641 45.1836 4.36328C45.2852 4.41016 45.3906 4.52734 45.5 4.71484L45.7578 4.55078C46.1875 4.33984 46.6211 4.17188 47.0586 4.04688V2.92188C47.0586 2.21875 47.082 1.69922 47.1289 1.36328C47.1445 1.20703 47.2031 1.07422 47.3047 0.964844C47.4141 0.847656 47.5469 0.789062 47.7031 0.789062C47.8516 0.789062 47.9844 0.847656 48.1016 0.964844C48.2266 1.07422 48.2852 1.20703 48.2773 1.36328C48.2773 1.57422 48.2695 1.72656 48.2539 1.82031V3.92969C49.1211 3.90625 49.9141 4.08203 50.6328 4.45703C51.4688 4.89453 52.0938 5.59766 52.5078 6.56641C52.9922 7.61328 53.3125 8.66797 53.4688 9.73047C53.6094 10.5352 53.6797 11.2188 53.6797 11.7812C53.6797 11.9453 53.6641 12.207 53.6328 12.5664C53.5078 13.6602 53.2539 14.6758 52.8711 15.6133C52.418 16.7617 51.8008 17.6758 51.0195 18.3555C50.5586 18.7383 50.0547 19.0078 49.5078 19.1641C49.1641 19.2656 48.7969 19.3164 48.4062 19.3164C48.0938 19.3164 47.8047 19.2812 47.5391 19.2109C47.0234 19.0625 46.5273 18.7891 46.0508 18.3906C45.5742 17.9922 45.1484 17.5391 44.7734 17.0312C44.4844 16.5859 44.207 16.0273 43.9414 15.3555C43.7305 14.8633 43.5469 14.1484 43.3906 13.2109C43.2891 12.5391 43.2383 11.9336 43.2383 11.3945C43.2383 10.6914 43.3125 9.85156 43.4609 8.875C43.4609 8.83594 43.4688 8.77344 43.4844 8.6875C43.5 8.60156 43.5078 8.54297 43.5078 8.51172C43.4062 8.45703 43.3242 8.35156 43.2617 8.19531C43.207 8.03906 43.1914 7.88672 43.2148 7.73828ZM44.4219 11.3711C44.4219 11.8477 44.4375 12.2305 44.4688 12.5195C44.4688 12.5273 44.4727 12.5469 44.4805 12.5781C44.4883 12.6016 44.4922 12.6211 44.4922 12.6367V12.707C44.4922 12.7148 44.4961 12.7383 44.5039 12.7773C44.5117 12.8086 44.5156 12.8281 44.5156 12.8359L44.5391 12.9297L44.6094 13.3633C44.6328 13.5273 44.7383 13.8945 44.9258 14.4648C44.9492 14.5117 44.9844 14.6016 45.0312 14.7344C45.0781 14.8594 45.1133 14.9453 45.1367 14.9922C45.1367 15.0078 45.1523 15.0391 45.1836 15.0859L45.207 15.1562L45.3008 15.3555C45.3477 15.4961 45.4609 15.7109 45.6406 16L45.6875 16.1172V16.0938L45.7812 16.2695C45.7969 16.3164 45.8086 16.3516 45.8164 16.375C45.8242 16.3906 45.8281 16.3945 45.8281 16.3867C45.8359 16.3945 45.8477 16.4102 45.8633 16.4336C45.8789 16.4492 45.8906 16.4648 45.8984 16.4805C45.9141 16.4961 45.9258 16.5039 45.9336 16.5039L46.0039 16.6211L46.2852 16.9141C46.4258 17.1016 46.5312 17.2305 46.6016 17.3008L46.7422 17.418C46.75 17.418 46.7656 17.4258 46.7891 17.4414C46.8203 17.457 46.8398 17.4648 46.8477 17.4648L47.1523 17.6289C47.2305 17.707 47.2695 17.7656 47.2695 17.8047L47.3164 17.7227L47.4922 17.8516C47.5078 17.8672 47.5625 17.875 47.6562 17.875C47.6641 17.875 47.6758 17.8789 47.6914 17.8867C47.707 17.8945 47.7188 17.8984 47.7266 17.8984C47.9062 17.9297 48.0352 17.9609 48.1133 17.9922H48.2305C48.2383 17.9922 48.25 17.9961 48.2656 18.0039C48.2812 18.0117 48.293 18.0156 48.3008 18.0156H48.5469L48.6055 18.0039C48.6445 17.9961 48.6797 17.9922 48.7109 17.9922L48.7578 18.0156L49.1445 17.8984C49.1758 17.8984 49.207 17.8906 49.2383 17.875C49.2773 17.875 49.3438 17.8516 49.4375 17.8047C49.5781 17.7109 49.6641 17.6523 49.6953 17.6289L50.1055 17.4414V17.4648L50.2461 17.3242C50.2617 17.3164 50.3984 17.1641 50.6562 16.8672L50.75 16.7148L50.8555 16.6211H50.8203L51.043 16.3164V16.3398C51.043 16.3242 51.0508 16.3008 51.0664 16.2695C51.082 16.2383 51.0898 16.2188 51.0898 16.2109L51.207 16.0234L51.4297 15.6367L51.5 15.4492L51.5469 15.3555C51.5938 15.3086 51.6172 15.25 51.6172 15.1797L51.6875 15.0156C51.8984 14.5 52.0508 13.9883 52.1445 13.4805L52.2852 12.8828C52.2852 12.8516 52.293 12.8281 52.3086 12.8125V12.6602C52.332 12.543 52.3438 12.4336 52.3438 12.332C52.3828 12.0508 52.3828 11.6328 52.3438 11.0781L52.2383 10.293L52.2148 10.2344V10.1172C52.1836 10.0547 52.168 9.99219 52.168 9.92969C52.1523 9.89844 52.1445 9.81641 52.1445 9.68359C52.0977 9.25391 51.9609 8.78516 51.7344 8.27734L51.6406 7.86719C51.5938 7.84375 51.5703 7.78516 51.5703 7.69141C51.5703 7.68359 51.5625 7.66797 51.5469 7.64453C51.5312 7.62109 51.5234 7.60547 51.5234 7.59766L51.3828 7.31641L51.3008 7.14062L51.1836 6.90625C50.9961 6.60938 50.8594 6.40234 50.7734 6.28516H50.7969L50.7266 6.17969L50.5859 6.03906L50.4453 5.92188L50.3164 5.78125C50.2773 5.78125 50.2383 5.76172 50.1992 5.72266L50.1055 5.67578L49.8945 5.58203C49.8398 5.58203 49.7969 5.56641 49.7656 5.53516C49.3594 5.41016 49.0586 5.33203 48.8633 5.30078H48.6641C48.6172 5.28516 48.5469 5.27734 48.4531 5.27734H48.3008C48.3008 5.39453 48.3203 5.83203 48.3594 6.58984C48.4219 7.68359 48.5 8.55469 48.5938 9.20312V9.37891C48.5938 9.38672 48.5938 9.39453 48.5938 9.40234C48.6016 9.40234 48.6055 9.41016 48.6055 9.42578C48.6133 9.43359 48.6172 9.44922 48.6172 9.47266C48.6172 9.48047 48.6211 9.49219 48.6289 9.50781C48.6367 9.52344 48.6406 9.53516 48.6406 9.54297C48.6406 9.55859 48.6484 9.58203 48.6641 9.61328L48.7578 10.2344C48.7578 10.2422 48.7617 10.2539 48.7695 10.2695C48.7773 10.2773 48.7812 10.2852 48.7812 10.293C48.7891 10.3164 48.8086 10.3672 48.8398 10.4453C48.8789 10.5234 48.9062 10.5977 48.9219 10.668C48.9453 10.7383 48.957 10.8047 48.957 10.8672C49.0039 11.0234 48.9766 11.1758 48.875 11.3242C48.7812 11.4727 48.6562 11.5586 48.5 11.582C48.3828 11.6055 48.2578 11.5977 48.125 11.5586C48 11.5117 47.9102 11.4414 47.8555 11.3477C47.7617 11.1992 47.6641 10.9727 47.5625 10.668C47.4297 10.0586 47.3164 9.27734 47.2227 8.32422C47.1523 7.36328 47.1055 6.42578 47.082 5.51172V5.48828H47.0352L46.8477 5.51172H46.8711L46.6719 5.58203L46.4375 5.69922L45.8281 6.0625L45.6406 6.22656V6.26172L45.3828 6.51953L45.3008 6.56641V6.54297L45.1133 6.73047L45.0664 6.8125L44.9258 7.45703L44.8555 7.77344L44.7031 8.48828C44.6484 8.72266 44.5938 9.05859 44.5391 9.49609C44.5391 9.57422 44.5312 9.61328 44.5156 9.61328V9.73047C44.5 9.77734 44.4922 9.84375 44.4922 9.92969C44.4609 10.1484 44.4453 10.3164 44.4453 10.4336C44.4297 10.6445 44.4219 10.957 44.4219 11.3711ZM47.2695 17.8281V17.8047V17.8281ZM57.0898 13.6211C57.0898 13.1055 57.1406 12.5625 57.2422 11.9922C57.2422 11.8438 57.3242 11.7305 57.4883 11.6523C57.6523 11.5664 57.8242 11.5352 58.0039 11.5586C58.2461 11.6367 58.3672 11.8203 58.3672 12.1094V12.5664C58.3672 13.3711 58.3828 13.9648 58.4141 14.3477V14.3242C58.4297 14.3555 58.4375 14.4102 58.4375 14.4883C58.4375 14.5039 58.4297 14.5195 58.4141 14.5352C58.4141 14.5664 58.4297 14.5977 58.4609 14.6289L58.5312 15.0156L58.6836 15.6367L58.7305 15.7656V15.7305L58.8242 15.9766L59.0352 16.457H59.0117L59.082 16.5742L59.1875 16.6914L59.2344 16.7148L59.5391 17.1016H59.5156L59.7617 17.3008C59.7617 17.2852 59.7773 17.2773 59.8086 17.2773C59.9102 17.3633 60.0469 17.4414 60.2188 17.5117L60.2891 17.582L60.3828 17.6289C60.3984 17.6445 60.4297 17.6523 60.4766 17.6523L60.7695 17.7578C60.7852 17.7734 60.8398 17.7812 60.9336 17.7812C60.9414 17.7812 60.957 17.7852 60.9805 17.793C61.0039 17.8008 61.0273 17.8047 61.0508 17.8047H61.5312L61.6016 17.7812C61.6562 17.7812 61.7148 17.7734 61.7773 17.7578L62.1289 17.6289H62.1055L62.2812 17.582L62.3516 17.5352L62.7148 17.3945L62.832 17.3477H62.8086L63.0898 17.1719V17.1953L63.2188 17.0781L63.2891 17.0078C63.5859 16.75 63.8008 16.543 63.9336 16.3867H63.9102L64.2031 16.0469L64.25 15.9766L64.3438 15.9062C64.3438 15.8984 64.3516 15.8789 64.3672 15.8477C64.3828 15.8164 64.3906 15.7969 64.3906 15.7891C64.6484 15.3828 64.8164 15.0938 64.8945 14.9219L65.0352 14.6523C65.0352 14.6211 65.0508 14.5742 65.082 14.5117C65.1367 14.4336 65.1953 14.2891 65.2578 14.0781C65.3594 13.7266 65.4297 13.4453 65.4688 13.2344C65.4844 13.1094 65.4922 12.8867 65.4922 12.5664V12.0156C65.4766 11.9844 65.4688 11.9531 65.4688 11.9219C65.3906 11.4922 65.3047 11.1484 65.2109 10.8906C65.1953 10.8438 65.1875 10.8125 65.1875 10.7969C65.1797 10.7578 65.1562 10.6992 65.1172 10.6211C65.0859 10.543 65.0664 10.4961 65.0586 10.4805L65.0117 10.3867V10.4102L64.9414 10.2344L64.8945 10.0938V10.1172C64.832 9.99219 64.7695 9.89844 64.707 9.83594L64.6016 9.61328H64.625L64.3906 9.35547L64.1445 9.13281L63.9102 8.875L63.7227 8.67578C63.7148 8.67578 63.6914 8.66797 63.6523 8.65234C63.6211 8.63672 63.6016 8.62891 63.5938 8.62891C63.5625 8.61328 63.5234 8.59766 63.4766 8.58203C63.1797 8.34766 62.6914 8.02734 62.0117 7.62109C61.5664 7.35547 61.1367 6.93359 60.7227 6.35547C60.4102 5.91016 60.1289 5.36328 59.8789 4.71484C59.7305 4.22266 59.6562 3.80859 59.6562 3.47266C59.6562 3.16016 59.6992 2.87891 59.7852 2.62891C59.8477 2.48047 59.9531 2.35938 60.1016 2.26562C60.2578 2.16406 60.4219 2.14062 60.5938 2.19531C60.9219 2.28906 61.0977 2.51562 61.1211 2.875V2.99219L61.1445 3.10938V3.20312C61.1445 3.23438 61.1562 3.26172 61.1797 3.28516C61.1797 3.31641 61.1836 3.35937 61.1914 3.41406C61.1992 3.46875 61.2031 3.51172 61.2031 3.54297C61.2422 3.77734 61.3281 4.07422 61.4609 4.43359H61.4375L61.5547 4.59766C61.6094 4.77734 61.6992 4.94531 61.8242 5.10156L62.1523 5.55859L62.6094 6.0625H62.5859L62.7148 6.13281V6.10938L62.9492 6.26172C63.082 6.34766 63.1797 6.40234 63.2422 6.42578C64.3359 7.12891 65.1328 7.77734 65.6328 8.37109H65.6094C65.8984 8.66016 66.1094 8.9375 66.2422 9.20312C66.2734 9.28906 66.3438 9.48047 66.4531 9.77734C66.5625 10.0664 66.6367 10.2695 66.6758 10.3867C66.9102 11.082 67.0273 11.8008 67.0273 12.543C67.0039 13.9805 66.5312 15.3398 65.6094 16.6211C64.5469 17.8633 63.5391 18.6562 62.5859 19C61.9766 19.2109 61.3398 19.2656 60.6758 19.1641C60.3945 19.125 60.082 19.0234 59.7383 18.8594L59.3281 18.6133L59.082 18.4023L58.9883 18.332L59.0117 18.3555C59.0039 18.3555 58.9883 18.3477 58.9648 18.332C58.9414 18.3164 58.9258 18.3086 58.918 18.3086C58.1602 17.7148 57.6328 16.8906 57.3359 15.8359C57.1719 15 57.0898 14.2617 57.0898 13.6211ZM70.1211 14.8281C70.1445 14.0625 70.3516 13.293 70.7422 12.5195C70.8281 12.3711 70.9609 12.2734 71.1406 12.2266C71.3281 12.1797 71.4922 12.1914 71.6328 12.2617C71.8359 12.3711 71.9375 12.5273 71.9375 12.7305C71.9375 12.7695 71.9219 12.8359 71.8906 12.9297V12.9062L71.8203 13.2695L71.75 13.4102C71.75 13.4414 71.7344 13.4883 71.7031 13.5508C71.6719 13.6133 71.6562 13.6602 71.6562 13.6914L71.5859 13.9141C71.5781 13.9531 71.5547 14.0117 71.5156 14.0898C71.4844 14.168 71.4648 14.2188 71.457 14.2422C71.457 14.3594 71.4414 14.4648 71.4102 14.5586V14.6523C71.3945 14.6992 71.3867 14.8672 71.3867 15.1562C71.4023 15.1875 71.4102 15.2461 71.4102 15.332V15.4492C71.4102 15.4805 71.418 15.5039 71.4336 15.5195L71.5625 15.9062C71.5703 15.9219 71.582 15.957 71.5977 16.0117C71.6133 16.0586 71.625 16.0859 71.6328 16.0938C71.6328 16.1641 71.6562 16.2227 71.7031 16.2695L71.8672 16.5508L71.9141 16.6914L71.9844 16.7734C71.9844 16.7812 72.0039 16.8047 72.043 16.8438L72.1133 16.9375L72.2539 17.0781L72.5938 17.3711L72.6641 17.418C72.6953 17.4492 72.7344 17.4648 72.7812 17.4648C72.8594 17.4961 72.9141 17.5117 72.9453 17.5117L73.0742 17.6289C73.1367 17.6914 73.1914 17.7227 73.2383 17.7227C73.2617 17.7461 73.3086 17.7578 73.3789 17.7578C73.5352 17.8203 73.793 17.8984 74.1523 17.9922C74.1523 18.0078 74.1602 18.0156 74.1758 18.0156H74.293C74.3008 18.0156 74.3125 18.0195 74.3281 18.0273C74.3438 18.0352 74.3555 18.0391 74.3633 18.0391H74.7734C74.9375 18.0391 75.0898 18.0312 75.2305 18.0156L75.3008 17.9922C75.3164 17.9922 75.3398 17.9844 75.3711 17.9688C75.4258 17.9688 75.4844 17.9531 75.5469 17.9219L75.7344 17.875L75.8047 17.8281L75.9688 17.7578L76.1445 17.6523H76.1211L76.2852 17.5352C76.3164 17.5352 76.3555 17.5195 76.4023 17.4883L76.4727 17.4414L76.4258 17.4648C76.4414 17.4414 76.4648 17.418 76.4961 17.3945C76.5352 17.3711 76.5625 17.3477 76.5781 17.3242L76.7656 17.1016C76.7656 17.0938 76.7734 17.0742 76.7891 17.043C76.8047 17.0117 76.8125 16.9922 76.8125 16.9844L76.9062 16.8438C76.9062 16.8359 76.9141 16.8203 76.9297 16.7969C76.9453 16.7734 76.9609 16.7461 76.9766 16.7148C76.9922 16.6758 77.0039 16.6523 77.0117 16.6445C77.0117 16.6289 77.0352 16.5977 77.082 16.5508H77.0586L77.1289 16.3633L77.1992 16.1406C77.2305 16.0781 77.2617 15.9258 77.293 15.6836C77.293 15.6523 77.3008 15.6133 77.3164 15.5664V15.4492C77.332 15.4023 77.3398 15.3281 77.3398 15.2266C77.3633 14.8359 77.3477 14.4062 77.293 13.9375L77.082 12.0625L77.0117 11.582L76.9297 11.0312L76.918 10.9961C76.9102 10.9727 76.9062 10.9375 76.9062 10.8906C76.9062 10.8828 76.9023 10.8711 76.8945 10.8555C76.8867 10.8398 76.8828 10.8281 76.8828 10.8203V10.6914L76.8125 10.1875C76.8125 10.1797 76.8086 10.1641 76.8008 10.1406C76.793 10.1172 76.7891 10.1016 76.7891 10.0938C76.7578 9.96094 76.7266 9.76172 76.6953 9.49609C76.6484 9.13672 76.5664 8.67969 76.4492 8.125C76.418 8.125 76.3789 8.10156 76.332 8.05469V8.07812C76.3008 8.0625 76.2617 8.04688 76.2148 8.03125C75.9961 7.89844 75.7734 7.78516 75.5469 7.69141L75.207 7.52734C75.1445 7.52734 75.1055 7.51172 75.0898 7.48047C75.0586 7.48047 75.043 7.47266 75.043 7.45703C74.9805 7.45703 74.9375 7.43359 74.9141 7.38672V7.41016L74.6797 7.33984L74.082 7.16406C73.9883 7.13281 73.9219 7.11719 73.8828 7.11719C73.8672 7.10156 73.8438 7.09375 73.8125 7.09375H73.6719C73.5547 7.07031 73.4414 7.07031 73.332 7.09375H73.2383C73.1914 7.09375 73.1602 7.10156 73.1445 7.11719C73.1133 7.11719 73.082 7.13281 73.0508 7.16406C73.043 7.16406 73.0234 7.16797 72.9922 7.17578C72.9609 7.18359 72.9297 7.1875 72.8984 7.1875C72.8828 7.20312 72.8594 7.21094 72.8281 7.21094L72.7109 7.31641L72.6172 7.36328L72.4883 7.48047H72.5234C72.5156 7.49609 72.4922 7.51953 72.4531 7.55078C72.4219 7.58203 72.4023 7.60547 72.3945 7.62109C72.2539 7.85547 72.1289 8.08984 72.0195 8.32422C71.9492 8.42578 71.8242 8.49609 71.6445 8.53516C71.4648 8.57422 71.3164 8.56641 71.1992 8.51172C71.0977 8.45703 71.0117 8.36328 70.9414 8.23047C70.8789 8.09766 70.875 7.96875 70.9297 7.84375L70.9531 7.77344C70.9531 7.76562 70.9609 7.74609 70.9766 7.71484C71 7.67578 71.0117 7.65234 71.0117 7.64453C71.0586 7.49609 71.1211 7.35938 71.1992 7.23438C71.543 6.64844 71.9336 6.26562 72.3711 6.08594C72.7852 5.89062 73.2812 5.82031 73.8594 5.875C74.4219 5.92969 74.9414 6.06641 75.418 6.28516C75.4883 6.30859 75.6328 6.375 75.8516 6.48438C76.1016 6.60938 76.2266 6.66016 76.2266 6.63672C76.2266 6.62891 76.2148 6.61328 76.1914 6.58984C75.8867 4.93359 75.5352 3.34375 75.1367 1.82031V1.79688C75.1055 1.67969 75.1328 1.54297 75.2188 1.38672C75.3125 1.23047 75.4297 1.11719 75.5703 1.04688C75.7109 1.02344 75.8438 1.05469 75.9688 1.14062C76.1016 1.22656 76.1914 1.33203 76.2383 1.45703C76.7539 3.04297 77.2422 5.12891 77.7031 7.71484C77.8984 8.88672 78.0977 10.1836 78.3008 11.6055C78.3008 11.6367 78.3047 11.6836 78.3125 11.7461C78.3203 11.8008 78.3242 11.8438 78.3242 11.875L78.5469 13.7734C78.6094 14.3672 78.6328 14.8125 78.6172 15.1094C78.5625 16.7969 77.9375 18.0234 76.7422 18.7891C76.1641 19.1406 75.5 19.3164 74.75 19.3164C74.2578 19.3164 73.7695 19.2422 73.2852 19.0938C72.7148 18.9062 72.1797 18.6133 71.6797 18.2148C71.1875 17.8086 70.8047 17.3438 70.5312 16.8203C70.2344 16.2109 70.0977 15.5469 70.1211 14.8281ZM81.957 7.73828C81.957 7.67578 81.9727 7.62891 82.0039 7.59766C82.0039 7.58203 82.0117 7.56641 82.0273 7.55078C82.0273 7.54297 82.0312 7.52734 82.0391 7.50391C82.0469 7.48047 82.0508 7.46484 82.0508 7.45703L82.1562 7.21094L82.2031 7.09375L82.25 6.88281L82.3672 6.63672L82.4844 6.44922C82.5 6.41797 82.5234 6.375 82.5547 6.32031C82.5938 6.25781 82.6289 6.20312 82.6602 6.15625C82.6992 6.10156 82.7461 6.04688 82.8008 5.99219H82.7773L83.1406 4.71484C83.1875 4.58984 83.2852 4.48828 83.4336 4.41016C83.5898 4.33203 83.7539 4.31641 83.9258 4.36328C84.0273 4.41016 84.1328 4.52734 84.2422 4.71484L84.5 4.55078C84.9297 4.33984 85.3633 4.17188 85.8008 4.04688V2.92188C85.8008 2.21875 85.8242 1.69922 85.8711 1.36328C85.8867 1.20703 85.9453 1.07422 86.0469 0.964844C86.1562 0.847656 86.2891 0.789062 86.4453 0.789062C86.5938 0.789062 86.7266 0.847656 86.8438 0.964844C86.9688 1.07422 87.0273 1.20703 87.0195 1.36328C87.0195 1.57422 87.0117 1.72656 86.9961 1.82031V3.92969C87.8633 3.90625 88.6562 4.08203 89.375 4.45703C90.2109 4.89453 90.8359 5.59766 91.25 6.56641C91.7344 7.61328 92.0547 8.66797 92.2109 9.73047C92.3516 10.5352 92.4219 11.2188 92.4219 11.7812C92.4219 11.9453 92.4062 12.207 92.375 12.5664C92.25 13.6602 91.9961 14.6758 91.6133 15.6133C91.1602 16.7617 90.543 17.6758 89.7617 18.3555C89.3008 18.7383 88.7969 19.0078 88.25 19.1641C87.9062 19.2656 87.5391 19.3164 87.1484 19.3164C86.8359 19.3164 86.5469 19.2812 86.2812 19.2109C85.7656 19.0625 85.2695 18.7891 84.793 18.3906C84.3164 17.9922 83.8906 17.5391 83.5156 17.0312C83.2266 16.5859 82.9492 16.0273 82.6836 15.3555C82.4727 14.8633 82.2891 14.1484 82.1328 13.2109C82.0312 12.5391 81.9805 11.9336 81.9805 11.3945C81.9805 10.6914 82.0547 9.85156 82.2031 8.875C82.2031 8.83594 82.2109 8.77344 82.2266 8.6875C82.2422 8.60156 82.25 8.54297 82.25 8.51172C82.1484 8.45703 82.0664 8.35156 82.0039 8.19531C81.9492 8.03906 81.9336 7.88672 81.957 7.73828ZM83.1641 11.3711C83.1641 11.8477 83.1797 12.2305 83.2109 12.5195C83.2109 12.5273 83.2148 12.5469 83.2227 12.5781C83.2305 12.6016 83.2344 12.6211 83.2344 12.6367V12.707C83.2344 12.7148 83.2383 12.7383 83.2461 12.7773C83.2539 12.8086 83.2578 12.8281 83.2578 12.8359L83.2812 12.9297L83.3516 13.3633C83.375 13.5273 83.4805 13.8945 83.668 14.4648C83.6914 14.5117 83.7266 14.6016 83.7734 14.7344C83.8203 14.8594 83.8555 14.9453 83.8789 14.9922C83.8789 15.0078 83.8945 15.0391 83.9258 15.0859L83.9492 15.1562L84.043 15.3555C84.0898 15.4961 84.2031 15.7109 84.3828 16L84.4297 16.1172V16.0938L84.5234 16.2695C84.5391 16.3164 84.5508 16.3516 84.5586 16.375C84.5664 16.3906 84.5703 16.3945 84.5703 16.3867C84.5781 16.3945 84.5898 16.4102 84.6055 16.4336C84.6211 16.4492 84.6328 16.4648 84.6406 16.4805C84.6562 16.4961 84.668 16.5039 84.6758 16.5039L84.7461 16.6211L85.0273 16.9141C85.168 17.1016 85.2734 17.2305 85.3438 17.3008L85.4844 17.418C85.4922 17.418 85.5078 17.4258 85.5312 17.4414C85.5625 17.457 85.582 17.4648 85.5898 17.4648L85.8945 17.6289C85.9727 17.707 86.0117 17.7656 86.0117 17.8047L86.0586 17.7227L86.2344 17.8516C86.25 17.8672 86.3047 17.875 86.3984 17.875C86.4062 17.875 86.418 17.8789 86.4336 17.8867C86.4492 17.8945 86.4609 17.8984 86.4688 17.8984C86.6484 17.9297 86.7773 17.9609 86.8555 17.9922H86.9727C86.9805 17.9922 86.9922 17.9961 87.0078 18.0039C87.0234 18.0117 87.0352 18.0156 87.043 18.0156H87.2891L87.3477 18.0039C87.3867 17.9961 87.4219 17.9922 87.4531 17.9922L87.5 18.0156L87.8867 17.8984C87.918 17.8984 87.9492 17.8906 87.9805 17.875C88.0195 17.875 88.0859 17.8516 88.1797 17.8047C88.3203 17.7109 88.4062 17.6523 88.4375 17.6289L88.8477 17.4414V17.4648L88.9883 17.3242C89.0039 17.3164 89.1406 17.1641 89.3984 16.8672L89.4922 16.7148L89.5977 16.6211H89.5625L89.7852 16.3164V16.3398C89.7852 16.3242 89.793 16.3008 89.8086 16.2695C89.8242 16.2383 89.832 16.2188 89.832 16.2109L89.9492 16.0234L90.1719 15.6367L90.2422 15.4492L90.2891 15.3555C90.3359 15.3086 90.3594 15.25 90.3594 15.1797L90.4297 15.0156C90.6406 14.5 90.793 13.9883 90.8867 13.4805L91.0273 12.8828C91.0273 12.8516 91.0352 12.8281 91.0508 12.8125V12.6602C91.0742 12.543 91.0859 12.4336 91.0859 12.332C91.125 12.0508 91.125 11.6328 91.0859 11.0781L90.9805 10.293L90.957 10.2344V10.1172C90.9258 10.0547 90.9102 9.99219 90.9102 9.92969C90.8945 9.89844 90.8867 9.81641 90.8867 9.68359C90.8398 9.25391 90.7031 8.78516 90.4766 8.27734L90.3828 7.86719C90.3359 7.84375 90.3125 7.78516 90.3125 7.69141C90.3125 7.68359 90.3047 7.66797 90.2891 7.64453C90.2734 7.62109 90.2656 7.60547 90.2656 7.59766L90.125 7.31641L90.043 7.14062L89.9258 6.90625C89.7383 6.60938 89.6016 6.40234 89.5156 6.28516H89.5391L89.4688 6.17969L89.3281 6.03906L89.1875 5.92188L89.0586 5.78125C89.0195 5.78125 88.9805 5.76172 88.9414 5.72266L88.8477 5.67578L88.6367 5.58203C88.582 5.58203 88.5391 5.56641 88.5078 5.53516C88.1016 5.41016 87.8008 5.33203 87.6055 5.30078H87.4062C87.3594 5.28516 87.2891 5.27734 87.1953 5.27734H87.043C87.043 5.39453 87.0625 5.83203 87.1016 6.58984C87.1641 7.68359 87.2422 8.55469 87.3359 9.20312V9.37891C87.3359 9.38672 87.3359 9.39453 87.3359 9.40234C87.3438 9.40234 87.3477 9.41016 87.3477 9.42578C87.3555 9.43359 87.3594 9.44922 87.3594 9.47266C87.3594 9.48047 87.3633 9.49219 87.3711 9.50781C87.3789 9.52344 87.3828 9.53516 87.3828 9.54297C87.3828 9.55859 87.3906 9.58203 87.4062 9.61328L87.5 10.2344C87.5 10.2422 87.5039 10.2539 87.5117 10.2695C87.5195 10.2773 87.5234 10.2852 87.5234 10.293C87.5312 10.3164 87.5508 10.3672 87.582 10.4453C87.6211 10.5234 87.6484 10.5977 87.6641 10.668C87.6875 10.7383 87.6992 10.8047 87.6992 10.8672C87.7461 11.0234 87.7188 11.1758 87.6172 11.3242C87.5234 11.4727 87.3984 11.5586 87.2422 11.582C87.125 11.6055 87 11.5977 86.8672 11.5586C86.7422 11.5117 86.6523 11.4414 86.5977 11.3477C86.5039 11.1992 86.4062 10.9727 86.3047 10.668C86.1719 10.0586 86.0586 9.27734 85.9648 8.32422C85.8945 7.36328 85.8477 6.42578 85.8242 5.51172V5.48828H85.7773L85.5898 5.51172H85.6133L85.4141 5.58203L85.1797 5.69922L84.5703 6.0625L84.3828 6.22656V6.26172L84.125 6.51953L84.043 6.56641V6.54297L83.8555 6.73047L83.8086 6.8125L83.668 7.45703L83.5977 7.77344L83.4453 8.48828C83.3906 8.72266 83.3359 9.05859 83.2812 9.49609C83.2812 9.57422 83.2734 9.61328 83.2578 9.61328V9.73047C83.2422 9.77734 83.2344 9.84375 83.2344 9.92969C83.2031 10.1484 83.1875 10.3164 83.1875 10.4336C83.1719 10.6445 83.1641 10.957 83.1641 11.3711ZM86.0117 17.8281V17.8047V17.8281ZM95.7852 9.97656C95.7852 9.13281 95.8164 8.44531 95.8789 7.91406C95.9336 7.13281 96.0625 6.45312 96.2656 5.875C96.4766 5.27344 96.7422 4.72656 97.0625 4.23438C97.3984 3.70313 97.7812 3.26562 98.2109 2.92188C98.6406 2.5625 99.1211 2.3125 99.6523 2.17188C99.8945 2.10938 100.184 2.07812 100.52 2.07812C100.887 2.07812 101.191 2.11719 101.434 2.19531C101.965 2.36719 102.492 2.69141 103.016 3.16797C103.547 3.64453 103.969 4.15234 104.281 4.69141C104.75 5.53516 105.078 6.76172 105.266 8.37109C105.344 8.91797 105.395 9.49219 105.418 10.0938V10.2695C105.418 10.2852 105.422 10.3086 105.43 10.3398C105.438 10.3711 105.441 10.3945 105.441 10.4102C105.473 10.8242 105.473 11.207 105.441 11.5586C105.402 12.5977 105.207 13.7969 104.855 15.1562L104.48 16.5039V16.4805L104.375 16.8203L104.281 17.125C104.273 17.1719 104.25 17.2461 104.211 17.3477C104.172 17.4492 104.148 17.5117 104.141 17.5352L104.094 17.6992C103.844 18.4727 103.645 18.9961 103.496 19.2695C103.418 19.4414 103.266 19.5508 103.039 19.5977C102.82 19.6445 102.629 19.6211 102.465 19.5273C102.16 19.3555 102.047 19.082 102.125 18.707C102.219 18.3398 102.355 17.8945 102.535 17.3711L102.676 16.9609C102.848 16.4375 103.023 15.8594 103.203 15.2266L103.297 14.875C103.602 13.5703 103.785 12.707 103.848 12.2852L103.871 12.2266V12.2617L103.953 11.3945C103.953 10.957 103.945 10.6758 103.93 10.5508C103.93 10.5273 103.922 10.4922 103.906 10.4453C103.898 10.3984 103.895 10.3633 103.895 10.3398C103.863 9.33984 103.801 8.53906 103.707 7.9375C103.668 7.71094 103.598 7.38281 103.496 6.95312C103.496 6.9375 103.492 6.91016 103.484 6.87109C103.477 6.82422 103.473 6.78906 103.473 6.76562L103.297 6.15625H103.32C103.258 6.09375 103.227 6.04688 103.227 6.01562L103.156 5.85156C103.156 5.79688 103.141 5.73828 103.109 5.67578L102.699 4.96094L102.488 4.59766H102.512L101.961 4.04688L102.008 3.97656C101.984 3.97656 101.953 3.96875 101.914 3.95312C101.875 3.9375 101.848 3.92969 101.832 3.92969L101.715 3.83594V3.85938C101.488 3.70313 101.359 3.62109 101.328 3.61328C101.312 3.61328 101.297 3.60547 101.281 3.58984C101.234 3.58984 101.211 3.57422 101.211 3.54297L101.094 3.51953C101.047 3.51172 100.984 3.49219 100.906 3.46094C100.828 3.42969 100.777 3.41016 100.754 3.40234C100.613 3.40234 100.535 3.39453 100.52 3.37891C100.488 3.37891 100.422 3.38281 100.32 3.39062C100.227 3.39844 100.164 3.40234 100.133 3.40234C100.086 3.40234 100.047 3.41016 100.016 3.42578L99.7695 3.47266C99.7617 3.48047 99.6992 3.50391 99.582 3.54297H99.6055L99.4414 3.63672L99.2188 3.78906L99.1016 3.8125L99.125 3.78906L99.0078 3.88281L98.9375 3.95312L98.7383 4.1875C98.6602 4.26563 98.6133 4.31641 98.5977 4.33984L98.3047 4.64453C98.2891 4.66016 98.2812 4.69141 98.2812 4.73828C98.2344 4.79297 98.1562 4.91406 98.0469 5.10156C97.9219 5.28906 97.7852 5.53125 97.6367 5.82812C97.6367 5.83594 97.6328 5.85547 97.625 5.88672C97.6172 5.91016 97.6133 5.92969 97.6133 5.94531L97.543 6.15625L97.3906 6.56641C97.3281 6.77734 97.2656 7.07422 97.2031 7.45703C97.1719 7.58203 97.1562 7.6875 97.1562 7.77344C97.1406 7.78906 97.1328 7.84375 97.1328 7.9375C97.1016 8.125 97.0859 8.26953 97.0859 8.37109C97.0391 8.78516 97.0156 9.21484 97.0156 9.66016V10.0703C97.0156 10.1172 97.0195 10.1836 97.0273 10.2695C97.0352 10.3555 97.0391 10.418 97.0391 10.457C97.0625 11.1523 97.1094 11.8477 97.1797 12.543L97.2266 12.6367C97.2266 12.668 97.2344 12.6992 97.25 12.7305V12.9766C97.25 12.9844 97.2539 13.0039 97.2617 13.0352C97.2695 13.0586 97.2734 13.0781 97.2734 13.0938C97.2734 13.1016 97.2773 13.1211 97.2852 13.1523C97.293 13.1758 97.2969 13.1953 97.2969 13.2109L97.3672 13.5039L97.5664 14.6289C97.8711 16.1211 98.1406 17.2891 98.375 18.1328V18.1094L98.5977 18.9531V18.9766C98.6367 19.125 98.6172 19.2734 98.5391 19.4219C98.4609 19.5703 98.3438 19.6602 98.1875 19.6914H98.2109C98.0625 19.7305 97.9141 19.7109 97.7656 19.6328C97.6172 19.5625 97.5195 19.457 97.4727 19.3164L97.3672 19.0469L97.2969 18.7305V18.7656C96.8984 17.5234 96.5391 16.0664 96.2188 14.3945C95.9531 12.9492 95.8086 11.4766 95.7852 9.97656Z" fill="black"/>
</svg>
