<svg width="168" height="20" viewBox="0 0 168 20" fill="none" xmlns="http://www.w3.org/2000/svg">
<path d="M0.417969 13.1484C0.417969 13 0.433594 12.8477 0.464844 12.6914C0.464844 12.418 0.472656 12.2578 0.488281 12.2109C0.519531 11.7812 0.566406 11.4062 0.628906 11.0859C0.683594 10.8906 0.808594 10.7422 1.00391 10.6406C1.19922 10.5312 1.40234 10.4883 1.61328 10.5117C1.80078 10.5586 1.94531 10.6797 2.04688 10.875C2.14844 11.0703 2.1875 11.2695 2.16406 11.4727C2.16406 11.4805 2.16016 11.5 2.15234 11.5312C2.14453 11.5625 2.14062 11.582 2.14062 11.5898L2.11719 11.6602L2.02344 12.1172C2.00781 12.1797 2 12.2695 2 12.3867C2 12.4023 1.99609 12.4258 1.98828 12.457C1.98047 12.4883 1.97656 12.5117 1.97656 12.5273V13.0078C1.97656 13.0234 1.97266 13.0469 1.96484 13.0781C1.95703 13.1094 1.95312 13.1328 1.95312 13.1484C1.92969 13.4219 1.9375 13.6719 1.97656 13.8984L2.04688 14.3789V14.3555L2.16406 14.5898V14.6602C2.17969 14.6836 2.19531 14.7109 2.21094 14.7422C2.22656 14.7578 2.23438 14.7656 2.23438 14.7656L2.33984 14.9062C2.55078 15.2031 2.64453 15.3633 2.62109 15.3867L2.9375 15.6914L3.10156 15.8438L3.17188 15.8906C3.20312 15.9219 3.23828 15.9375 3.27734 15.9375L3.46484 16.0547L3.85156 16.3477C3.99219 16.3945 4.08594 16.4336 4.13281 16.4648C4.14844 16.4805 4.17188 16.4961 4.20312 16.5117C4.25 16.543 4.30078 16.5586 4.35547 16.5586C4.37109 16.5742 4.40234 16.582 4.44922 16.582L4.63672 16.6289C4.83203 16.668 4.96094 16.7109 5.02344 16.7578C5.24219 16.7891 5.46484 16.7891 5.69141 16.7578L5.79688 16.7227C5.73438 16.7461 5.71094 16.7578 5.72656 16.7578C5.78906 16.7578 5.94531 16.7227 6.19531 16.6523C6.23438 16.6055 6.26953 16.5742 6.30078 16.5586C6.31641 16.543 6.33984 16.5312 6.37109 16.5234C6.41016 16.5078 6.44141 16.4961 6.46484 16.4883C6.48828 16.4727 6.50391 16.457 6.51172 16.4414L6.80469 16.3008V16.3242L7.03906 16.0781L7.15625 15.9609C7.24219 15.875 7.30859 15.7852 7.35547 15.6914L7.51953 15.4336L7.68359 15.1406L7.76562 15.0234C7.76562 15.0156 7.76953 15 7.77734 14.9766C7.78516 14.9531 7.78906 14.9375 7.78906 14.9297C7.92969 14.6016 8.02344 14.2656 8.07031 13.9219C8.125 13.4062 8.11719 12.9336 8.04688 12.5039C8.00781 12.2305 7.94531 11.918 7.85938 11.5664V11.5898L7.68359 11.0625L7.58984 10.8281L7.56641 10.7227V10.7578L7.30859 10.2188H7.33203L7.22656 10.1016L7.08594 9.91406V9.9375C7.03906 9.92188 7.01562 9.88281 7.01562 9.82031C6.96875 9.77344 6.94531 9.74609 6.94531 9.73828L6.62891 9.45703L6.51172 9.33984V9.36328C6.44922 9.33203 6.41016 9.30859 6.39453 9.29297C6.37109 9.29297 6.33984 9.27344 6.30078 9.23438C6.20703 9.20312 6.14062 9.1875 6.10156 9.1875C6.08594 9.17188 6.04688 9.16406 5.98438 9.16406C5.96875 9.16406 5.9375 9.17188 5.89062 9.1875C5.80469 9.1875 5.69922 9.20312 5.57422 9.23438L5.45703 9.31641C5.44922 9.31641 5.4375 9.32031 5.42188 9.32812C5.40625 9.33594 5.39453 9.33984 5.38672 9.33984H5.41016L5.16406 9.45703V9.43359L5.09375 9.50391L4.97656 9.57422C4.83594 9.71484 4.67969 9.78516 4.50781 9.78516C4.33594 9.78516 4.17969 9.71484 4.03906 9.57422C3.89844 9.42578 3.82812 9.26953 3.82812 9.10547C3.82812 8.93359 3.89844 8.77734 4.03906 8.63672H4.01562L4.15625 8.47266L4.33203 8.28516H4.30859C4.30859 8.26172 4.34766 8.21094 4.42578 8.13281H4.40234L4.51953 7.96875C4.58984 7.86719 4.65234 7.75391 4.70703 7.62891C4.81641 7.48828 4.91406 7.32031 5 7.125C5 7.07812 5.02344 7.03125 5.07031 6.98438C5.07031 6.96875 5.07812 6.95312 5.09375 6.9375C5.09375 6.92969 5.09766 6.91016 5.10547 6.87891C5.11328 6.84766 5.11719 6.82812 5.11719 6.82031L5.1875 6.66797C5.30469 6.41797 5.41016 6.01172 5.50391 5.44922C5.50391 5.43359 5.51172 5.40234 5.52734 5.35547C5.52734 5.25391 5.53516 5.1875 5.55078 5.15625V5.08594C5.56641 5.03906 5.57422 4.86328 5.57422 4.55859C5.55859 4.52734 5.55078 4.43359 5.55078 4.27734C5.53516 4.26172 5.52734 4.22656 5.52734 4.17188L5.41016 3.69141C5.37891 3.66016 5.36328 3.62109 5.36328 3.57422L5.29297 3.50391V3.45703C5.23828 3.40234 5.21094 3.36328 5.21094 3.33984L4.95312 3.09375V3.11719L4.8125 3.04688L4.73047 3L4.42578 2.92969C4.41797 2.92969 4.40625 2.92578 4.39062 2.91797C4.375 2.91016 4.36328 2.90625 4.35547 2.90625H4.13281C4.125 2.90625 4.11328 2.90234 4.09766 2.89453C4.08203 2.88672 4.07031 2.88281 4.0625 2.88281C4 2.89844 3.88672 2.90625 3.72266 2.90625C3.69922 2.90625 3.66406 2.91016 3.61719 2.91797C3.57812 2.92578 3.55078 2.92969 3.53516 2.92969H3.46484C3.30078 2.95312 3.15625 2.90234 3.03125 2.77734C2.90625 2.64453 2.84375 2.49609 2.84375 2.33203C2.84375 2.19922 2.89062 2.07812 2.98438 1.96875C3.07812 1.85156 3.18359 1.78125 3.30078 1.75781H3.27734L3.48828 1.67578L3.55859 1.66406C3.60547 1.65625 3.64453 1.65234 3.67578 1.65234C3.80078 1.62109 3.92969 1.60547 4.0625 1.60547C4.5 1.58203 4.94922 1.66406 5.41016 1.85156C5.75391 2.01562 6.06641 2.27734 6.34766 2.63672C6.71484 3.16797 6.89844 3.89062 6.89844 4.80469C6.89844 5.60156 6.74609 6.44922 6.44141 7.34766L6.27734 7.65234C6.27734 7.67578 6.26562 7.69922 6.24219 7.72266H6.27734C6.23828 7.72266 6.17969 7.74219 6.10156 7.78125L6.60547 7.875L7.15625 7.96875L7.30859 8.0625V8.03906C7.99609 8.46094 8.5625 9.17188 9.00781 10.1719C9.42188 11.1172 9.62891 12.1758 9.62891 13.3477C9.62891 14.4648 9.39844 15.4141 8.9375 16.1953C8.64844 16.6719 8.25391 17.0977 7.75391 17.4727C7.26172 17.8477 6.75 18.1016 6.21875 18.2344C5.92188 18.3047 5.63672 18.3398 5.36328 18.3398C5.07422 18.3398 4.72266 18.2969 4.30859 18.2109C3.77734 18.0547 3.21484 17.7695 2.62109 17.3555C2.15234 17.0195 1.72656 16.6289 1.34375 16.1836C0.96875 15.7305 0.707031 15.2656 0.558594 14.7891C0.441406 14.2578 0.394531 13.7109 0.417969 13.1484ZM4.73047 3.02344V2.83594C4.80078 2.83594 4.88281 2.88281 4.97656 2.97656L4.73047 3.02344ZM5.79688 16.7227L5.89062 16.6992C5.89844 16.6992 5.90625 16.6953 5.91406 16.6875C5.92188 16.6797 5.92969 16.6758 5.9375 16.6758L5.79688 16.7227ZM6.55859 7.875V7.85156L6.62891 7.92188C6.60547 7.92188 6.58594 7.91797 6.57031 7.91016C6.5625 7.89453 6.55859 7.88281 6.55859 7.875ZM6.58203 7.92188V7.85156L6.62891 7.80469C6.80859 7.83594 6.92188 7.86719 6.96875 7.89844L6.94531 7.99219L6.58203 7.92188ZM6.94531 7.99219L6.96875 7.89844L7.17969 7.96875L8.48047 8.20312V8.30859L6.94531 7.99219ZM12.9805 8.97656C12.9805 8.13281 13.0117 7.44531 13.0742 6.91406C13.1289 6.13281 13.2578 5.45312 13.4609 4.875C13.6719 4.27344 13.9375 3.72656 14.2578 3.23438C14.5938 2.70313 14.9766 2.26562 15.4062 1.92188C15.8359 1.5625 16.3164 1.3125 16.8477 1.17188C17.0898 1.10938 17.3789 1.07812 17.7148 1.07812C18.082 1.07812 18.3867 1.11719 18.6289 1.19531C19.1602 1.36719 19.6875 1.69141 20.2109 2.16797C20.7422 2.64453 21.1641 3.15234 21.4766 3.69141C21.9453 4.53516 22.2734 5.76172 22.4609 7.37109C22.5391 7.91797 22.5898 8.49219 22.6133 9.09375V9.26953C22.6133 9.28516 22.6172 9.30859 22.625 9.33984C22.6328 9.37109 22.6367 9.39453 22.6367 9.41016C22.668 9.82422 22.668 10.207 22.6367 10.5586C22.5977 11.5977 22.4023 12.7969 22.0508 14.1562L21.6758 15.5039V15.4805L21.5703 15.8203L21.4766 16.125C21.4688 16.1719 21.4453 16.2461 21.4062 16.3477C21.3672 16.4492 21.3438 16.5117 21.3359 16.5352L21.2891 16.6992C21.0391 17.4727 20.8398 17.9961 20.6914 18.2695C20.6133 18.4414 20.4609 18.5508 20.2344 18.5977C20.0156 18.6445 19.8242 18.6211 19.6602 18.5273C19.3555 18.3555 19.2422 18.082 19.3203 17.707C19.4141 17.3398 19.5508 16.8945 19.7305 16.3711L19.8711 15.9609C20.043 15.4375 20.2188 14.8594 20.3984 14.2266L20.4922 13.875C20.7969 12.5703 20.9805 11.707 21.043 11.2852L21.0664 11.2266V11.2617L21.1484 10.3945C21.1484 9.95703 21.1406 9.67578 21.125 9.55078C21.125 9.52734 21.1172 9.49219 21.1016 9.44531C21.0938 9.39844 21.0898 9.36328 21.0898 9.33984C21.0586 8.33984 20.9961 7.53906 20.9023 6.9375C20.8633 6.71094 20.793 6.38281 20.6914 5.95312C20.6914 5.9375 20.6875 5.91016 20.6797 5.87109C20.6719 5.82422 20.668 5.78906 20.668 5.76562L20.4922 5.15625H20.5156C20.4531 5.09375 20.4219 5.04688 20.4219 5.01562L20.3516 4.85156C20.3516 4.79688 20.3359 4.73828 20.3047 4.67578L19.8945 3.96094L19.6836 3.59766H19.707L19.1562 3.04688L19.2031 2.97656C19.1797 2.97656 19.1484 2.96875 19.1094 2.95312C19.0703 2.9375 19.043 2.92969 19.0273 2.92969L18.9102 2.83594V2.85938C18.6836 2.70313 18.5547 2.62109 18.5234 2.61328C18.5078 2.61328 18.4922 2.60547 18.4766 2.58984C18.4297 2.58984 18.4062 2.57422 18.4062 2.54297L18.2891 2.51953C18.2422 2.51172 18.1797 2.49219 18.1016 2.46094C18.0234 2.42969 17.9727 2.41016 17.9492 2.40234C17.8086 2.40234 17.7305 2.39453 17.7148 2.37891C17.6836 2.37891 17.6172 2.38281 17.5156 2.39062C17.4219 2.39844 17.3594 2.40234 17.3281 2.40234C17.2812 2.40234 17.2422 2.41016 17.2109 2.42578L16.9648 2.47266C16.957 2.48047 16.8945 2.50391 16.7773 2.54297H16.8008L16.6367 2.63672L16.4141 2.78906L16.2969 2.8125L16.3203 2.78906L16.2031 2.88281L16.1328 2.95312L15.9336 3.1875C15.8555 3.26563 15.8086 3.31641 15.793 3.33984L15.5 3.64453C15.4844 3.66016 15.4766 3.69141 15.4766 3.73828C15.4297 3.79297 15.3516 3.91406 15.2422 4.10156C15.1172 4.28906 14.9805 4.53125 14.832 4.82812C14.832 4.83594 14.8281 4.85547 14.8203 4.88672C14.8125 4.91016 14.8086 4.92969 14.8086 4.94531L14.7383 5.15625L14.5859 5.56641C14.5234 5.77734 14.4609 6.07422 14.3984 6.45703C14.3672 6.58203 14.3516 6.6875 14.3516 6.77344C14.3359 6.78906 14.3281 6.84375 14.3281 6.9375C14.2969 7.125 14.2812 7.26953 14.2812 7.37109C14.2344 7.78516 14.2109 8.21484 14.2109 8.66016V9.07031C14.2109 9.11719 14.2148 9.18359 14.2227 9.26953C14.2305 9.35547 14.2344 9.41797 14.2344 9.45703C14.2578 10.1523 14.3047 10.8477 14.375 11.543L14.4219 11.6367C14.4219 11.668 14.4297 11.6992 14.4453 11.7305V11.9766C14.4453 11.9844 14.4492 12.0039 14.457 12.0352C14.4648 12.0586 14.4688 12.0781 14.4688 12.0938C14.4688 12.1016 14.4727 12.1211 14.4805 12.1523C14.4883 12.1758 14.4922 12.1953 14.4922 12.2109L14.5625 12.5039L14.7617 13.6289C15.0664 15.1211 15.3359 16.2891 15.5703 17.1328V17.1094L15.793 17.9531V17.9766C15.832 18.125 15.8125 18.2734 15.7344 18.4219C15.6562 18.5703 15.5391 18.6602 15.3828 18.6914H15.4062C15.2578 18.7305 15.1094 18.7109 14.9609 18.6328C14.8125 18.5625 14.7148 18.457 14.668 18.3164L14.5625 18.0469L14.4922 17.7305V17.7656C14.0938 16.5234 13.7344 15.0664 13.4141 13.3945C13.1484 11.9492 13.0039 10.4766 12.9805 8.97656ZM26.0352 8.13281C26.0586 7.13281 26.1719 6.17578 26.375 5.26172C26.5938 4.26172 26.9766 3.40234 27.5234 2.68359C27.7969 2.31641 28.1602 2.01953 28.6133 1.79297C29.0664 1.56641 29.5352 1.44141 30.0195 1.41797C30.6055 1.39453 31.125 1.51562 31.5781 1.78125C32.0156 2.05469 32.4023 2.45312 32.7383 2.97656C32.8789 3.21094 33.0234 3.54688 33.1719 3.98438L33.3828 3.55078L33.5234 3.1875C33.8438 2.61719 34.1953 2.17187 34.5781 1.85156C35.0156 1.51562 35.4883 1.30469 35.9961 1.21875C36.4961 1.14844 36.9922 1.19922 37.4844 1.37109C37.9219 1.49609 38.418 1.82422 38.9727 2.35547C39.2852 2.66797 39.4844 2.89844 39.5703 3.04688C39.8594 3.46875 40.0547 3.78125 40.1562 3.98438C40.4297 4.47656 40.6758 5.11719 40.8945 5.90625V5.95312C41.1523 6.98438 41.2812 8.07031 41.2812 9.21094C41.2812 9.65625 41.2734 9.97656 41.2578 10.1719C41.2266 10.8125 41.1602 11.4531 41.0586 12.0938C40.9805 12.7422 40.8867 13.3281 40.7773 13.8516C40.5508 14.8984 40.1836 15.8086 39.6758 16.582C39.5117 16.9258 39.1992 17.3281 38.7383 17.7891H38.7617C38.5977 18 38.3984 18.1836 38.1641 18.3398V18.3164L37.9648 18.5039C37.9492 18.5117 37.9258 18.5273 37.8945 18.5508C37.8711 18.5742 37.8438 18.5938 37.8125 18.6094C37.7812 18.6328 37.7461 18.6523 37.707 18.668L37.5547 18.7734L37.2734 18.9609C37.125 19.0625 36.957 19.0703 36.7695 18.9844C36.582 18.9062 36.4453 18.7773 36.3594 18.5977C36.1406 18.2383 36.2383 17.8789 36.6523 17.5195V17.543L36.8164 17.3789L37.0508 17.1562L37.3203 16.9219L37.9648 16.3008C37.9648 16.2773 37.9883 16.2422 38.0352 16.1953L38.1055 16.125H38.082L38.1641 15.9844C38.2812 15.8438 38.3672 15.7148 38.4219 15.5977L38.7852 14.9062C39.1523 13.7969 39.3828 12.8438 39.4766 12.0469C39.5938 10.9062 39.6523 9.98047 39.6523 9.26953C39.6523 8.63672 39.6172 8.05859 39.5469 7.53516C39.4453 6.74609 39.2383 5.92969 38.9258 5.08594C38.832 4.85938 38.7539 4.69141 38.6914 4.58203L38.4219 4.10156H38.4453L38.3281 3.98438C38.3281 3.97656 38.3164 3.96484 38.293 3.94922C38.2773 3.92578 38.2656 3.90625 38.2578 3.89062L38.0586 3.69141C38.0508 3.67578 38.0273 3.65234 37.9883 3.62109C37.957 3.58203 37.9336 3.55078 37.918 3.52734C37.9023 3.51172 37.8945 3.49609 37.8945 3.48047L37.625 3.26953V3.29297L37.4609 3.11719V3.14062C37.3359 3.04688 37.2422 2.98438 37.1797 2.95312C37.1406 2.95312 37.1055 2.9375 37.0742 2.90625C37.043 2.90625 37.0117 2.89063 36.9805 2.85938C36.9492 2.82812 36.9023 2.8125 36.8398 2.8125C36.7305 2.75781 36.6484 2.73047 36.5938 2.73047C36.5156 2.70703 36.4219 2.70703 36.3125 2.73047L35.9961 2.8125L36.0195 2.78906L35.9023 2.88281C35.8164 2.90625 35.7461 2.94531 35.6914 3L35.6445 3.02344L35.4453 3.1875L35.2578 3.43359L35.2109 3.55078C34.9922 3.91016 34.8789 4.10156 34.8711 4.125L34.7773 4.10156V4.27734L34.707 4.44141L34.6016 4.41797C34.6094 4.51172 34.6172 4.55859 34.625 4.55859V4.60547C34.4609 5.00391 34.3359 5.46094 34.25 5.97656C34.2031 6.32812 34.1797 6.87109 34.1797 7.60547C34.1797 8.35547 34.2031 9.11719 34.25 9.89062C34.2812 10.625 34.2969 11.1602 34.2969 11.4961C34.2969 12.4648 34.2148 13.2891 34.0508 13.9688C33.6914 15.5234 33.1172 16.6367 32.3281 17.3086C31.6875 17.8555 31.1445 18.1641 30.6992 18.2344C30.0352 18.3516 29.4883 18.2734 29.0586 18C28.7148 17.8125 28.3984 17.5391 28.1094 17.1797C27.8203 16.8125 27.5859 16.4375 27.4062 16.0547C27.0469 15.2734 26.7422 14.3359 26.4922 13.2422C26.3125 12.4297 26.1836 11.5195 26.1055 10.5117C26.0352 9.77734 26.0117 8.98438 26.0352 8.13281ZM27.4297 8.01562C27.4062 8.75 27.4219 9.55859 27.4766 10.4414L27.5234 10.9688V11.1328L27.5469 11.2266C27.5625 11.2578 27.5703 11.3398 27.5703 11.4727C27.6172 11.9258 27.6914 12.3828 27.793 12.8438C27.8242 13 27.9453 13.4375 28.1562 14.1562L28.3906 14.8359C28.3906 14.9141 28.3984 14.9609 28.4141 14.9766C28.4141 14.9922 28.4297 15.0156 28.4609 15.0469L28.4844 15.1172C28.4844 15.1719 28.5078 15.2227 28.5547 15.2695L28.6016 15.3633V15.3398C28.6328 15.4414 28.7148 15.5938 28.8477 15.7969L28.8945 15.9375V15.9141L29.082 16.1484L29.1406 16.2773H29.1055L29.4453 16.5352L29.5625 16.6289V16.6055C29.6562 16.668 29.7383 16.7188 29.8086 16.7578H29.8789C29.8945 16.7734 29.918 16.7812 29.9492 16.7812C29.957 16.7812 29.9609 16.7852 29.9609 16.793C29.9688 16.793 29.9766 16.7969 29.9844 16.8047C30 16.8047 30.0195 16.8047 30.043 16.8047H30.4062C30.4219 16.8047 30.4453 16.7969 30.4766 16.7812C30.4844 16.7812 30.5078 16.7617 30.5469 16.7227C30.5625 16.7227 30.5859 16.7148 30.6172 16.6992C30.6719 16.6992 30.7227 16.6758 30.7695 16.6289L30.8633 16.582L31.0977 16.418C31.2227 16.3477 31.3203 16.25 31.3906 16.125L31.4258 16.1016C31.4492 16.0781 31.4688 16.0586 31.4844 16.043C31.5078 16.0195 31.5234 16 31.5312 15.9844C31.5938 15.9219 31.625 15.8828 31.625 15.8672L31.7305 15.7148H31.707L31.918 15.3633C31.918 15.3555 31.9492 15.2891 32.0117 15.1641C32.043 15.1016 32.0938 15.0234 32.1641 14.9297C32.1641 14.9141 32.1797 14.8906 32.2109 14.8594C32.2109 14.8516 32.2148 14.8281 32.2227 14.7891C32.2305 14.7422 32.2344 14.7148 32.2344 14.707C32.4609 14.0664 32.6055 13.5312 32.668 13.1016C32.7305 12.5938 32.7617 12.0195 32.7617 11.3789C32.7617 10.7617 32.7383 10.1289 32.6914 9.48047C32.6367 8.62109 32.6094 7.89453 32.6094 7.30078V6.84375C32.6094 6.82812 32.6133 6.80859 32.6211 6.78516C32.6367 6.76172 32.6445 6.73828 32.6445 6.71484C32.5742 6.66797 32.4688 6.57422 32.3281 6.43359L32.2578 6.33984C32.2266 6.27734 32.2109 6.22656 32.2109 6.1875C32.1797 6.14062 32.1641 6.04688 32.1641 5.90625V5.49609C32.1641 5.48828 32.1602 5.48438 32.1523 5.48438C32.1523 5.47656 32.1484 5.46875 32.1406 5.46094C32.1406 5.44531 32.1406 5.42578 32.1406 5.40234C32.1406 5.37891 32.1211 5.28906 32.082 5.13281C32.0586 4.97656 31.9648 4.67969 31.8008 4.24219C31.7695 4.21094 31.7539 4.17188 31.7539 4.125L31.6836 3.96094C31.6289 3.84375 31.5703 3.74609 31.5078 3.66797L31.4141 3.52734L31.3203 3.36328H31.3438L31.2734 3.29297H31.2969L31.2031 3.1875V3.21094C31.1172 3.17969 31.0742 3.14844 31.0742 3.11719C30.9961 3.07813 30.9492 3.03125 30.9336 2.97656H30.957L30.8398 2.90625L30.8633 2.92969C30.8555 2.92969 30.832 2.92187 30.793 2.90625C30.7539 2.89063 30.7305 2.88281 30.7227 2.88281L30.6172 2.83594L30.3125 2.76562H29.8789L29.3516 2.90625V2.88281C29.3047 2.92969 29.25 2.96875 29.1875 3L28.918 3.16406V3.14062L28.8242 3.21094L28.5781 3.45703L28.5312 3.57422L28.3906 3.79688C28.2969 3.92188 28.1914 4.10547 28.0742 4.34766C28.043 4.37891 28.0273 4.40234 28.0273 4.41797C28.0273 4.42578 28.0234 4.44141 28.0156 4.46484C28.0078 4.48047 28.0039 4.49609 28.0039 4.51172L27.9102 4.62891H27.9336C27.9023 4.69141 27.8867 4.74219 27.8867 4.78125C27.8477 4.90625 27.793 5.12109 27.7227 5.42578C27.6367 5.71484 27.5938 5.92969 27.5938 6.07031L27.5234 6.52734V6.64453C27.4922 6.98047 27.4609 7.4375 27.4297 8.01562ZM34.625 4.55859C34.6328 4.54297 34.6445 4.52734 34.6602 4.51172C34.6367 4.51172 34.625 4.52734 34.625 4.55859ZM44.2344 4.75781C44.2656 3.80469 44.3086 2.98047 44.3633 2.28516C44.3867 2.10547 44.4492 1.96094 44.5508 1.85156C44.6523 1.73438 44.7812 1.67578 44.9375 1.67578C45.0938 1.67578 45.2305 1.73828 45.3477 1.86328C45.4727 1.98047 45.5352 2.12109 45.5352 2.28516C45.5195 2.48047 45.5117 2.78125 45.5117 3.1875V4.00781C45.5117 4.85938 45.5195 5.50781 45.5352 5.95312C45.5898 7.07812 45.6758 8.125 45.793 9.09375C45.793 9.14844 45.8125 9.29297 45.8516 9.52734V9.62109L45.875 9.71484C45.875 9.75391 45.8828 9.78906 45.8984 9.82031C45.8984 9.88281 45.9141 10.0078 45.9453 10.1953L45.9922 10.5586L46.0859 11.0625L46.0625 11.0859L46.0859 11.1094C46.1172 10.9688 46.1641 10.832 46.2266 10.6992C46.2266 10.6523 46.2422 10.6133 46.2734 10.582C46.2734 10.5508 46.2891 10.5195 46.3203 10.4883L46.4023 10.3008L46.4961 10.1016C46.832 9.52344 47.2305 9.10156 47.6914 8.83594C48.168 8.54688 48.7461 8.40234 49.4258 8.40234C50.4805 8.37891 51.5586 8.80859 52.6602 9.69141C53.1133 10.0742 53.4961 10.5078 53.8086 10.9922C54.1289 11.4844 54.3633 11.9805 54.5117 12.4805V12.5273C54.5742 12.918 54.6055 13.207 54.6055 13.3945C54.6055 13.4648 54.5742 13.7266 54.5117 14.1797C54.418 14.7266 54.2344 15.2227 53.9609 15.668C53.5234 16.4258 52.9102 17.0586 52.1211 17.5664C51.3398 18.0664 50.5352 18.3164 49.707 18.3164C49.4961 18.3164 49.2344 18.2891 48.9219 18.2344C48.4219 18.1328 47.9609 17.9297 47.5391 17.625C47.1172 17.3125 46.7695 16.9414 46.4961 16.5117C46.0352 15.7617 45.6758 14.9609 45.418 14.1094C44.9023 12.3984 44.5508 10.2969 44.3633 7.80469C44.2773 6.60156 44.2344 5.58594 44.2344 4.75781ZM46.6602 13.4883L46.7305 13.6758C46.8789 14.1445 47.0078 14.5078 47.1172 14.7656C47.1172 14.8125 47.1328 14.8594 47.1641 14.9062C47.1641 14.9141 47.168 14.9297 47.1758 14.9531C47.1836 14.9766 47.1875 14.9922 47.1875 15C47.2344 15.0938 47.2656 15.1406 47.2812 15.1406L47.3281 15.2344C47.3672 15.3203 47.457 15.4883 47.5977 15.7383C47.6055 15.7539 47.625 15.7969 47.6562 15.8672C47.6953 15.9297 47.7227 15.9688 47.7383 15.9844H47.7148L47.7852 16.1016L47.8906 16.1953L48.1953 16.4648L48.6992 16.7227L48.8164 16.7812C48.8789 16.8125 48.9219 16.8281 48.9453 16.8281L49.2734 16.9219H49.4492C49.4805 16.9375 49.5664 16.9453 49.707 16.9453C49.7383 16.9297 49.8047 16.9219 49.9062 16.9219C49.9219 16.9219 49.9492 16.918 49.9883 16.9102C50.0273 16.9023 50.0547 16.8984 50.0703 16.8984C50.0859 16.8984 50.1094 16.8906 50.1406 16.875C50.4688 16.8125 50.6914 16.7383 50.8086 16.6523C50.8477 16.6523 50.8984 16.6367 50.9609 16.6055L51.2422 16.4648C51.3281 16.4492 51.4336 16.3945 51.5586 16.3008L51.7227 16.2188L51.8516 16.125L52.1094 15.8906V15.8672L52.2031 15.7383L52.3789 15.5742C52.3945 15.5586 52.4492 15.4727 52.543 15.3164C52.6523 15.1758 52.7656 15 52.8828 14.7891C52.9297 14.7422 52.9531 14.6914 52.9531 14.6367C52.9844 14.6055 53 14.5586 53 14.4961C53.0312 14.4102 53.0625 14.2969 53.0938 14.1562L53.1641 13.875C53.1641 13.8672 53.168 13.8516 53.1758 13.8281C53.1836 13.8047 53.1875 13.7891 53.1875 13.7812C53.1875 13.7578 53.1953 13.7227 53.2109 13.6758V13.6523C53.2266 13.5586 53.2344 13.4492 53.2344 13.3242L53.2109 13.2773V13.125C53.2031 13.0781 53.1328 12.8633 53 12.4805C53 12.4648 52.9922 12.4414 52.9766 12.4102L52.8828 12.2344L52.7539 12L52.707 11.8828V11.9062L52.543 11.6133H52.5664L52.4258 11.4727L52.3555 11.3789V11.4023C52.2852 11.3633 52.2344 11.3164 52.2031 11.2617C52.1328 11.1445 51.9805 10.9844 51.7461 10.7812H51.7695C51.7617 10.7812 51.75 10.7734 51.7344 10.7578C51.7188 10.7344 51.707 10.7227 51.6992 10.7227C51.6914 10.7148 51.6719 10.707 51.6406 10.6992C51.6172 10.6836 51.5977 10.668 51.582 10.6523C51.5508 10.6523 51.4883 10.6211 51.3945 10.5586L51.2422 10.4883L50.8906 10.2773C50.8828 10.2773 50.8672 10.2656 50.8438 10.2422C50.7891 10.2422 50.7617 10.2266 50.7617 10.1953C50.7148 10.1953 50.668 10.1641 50.6211 10.1016V10.125L50.4336 10.0547L49.9531 9.9375C49.9219 9.9375 49.8984 9.92969 49.8828 9.91406H49.7539C49.6758 9.89844 49.5586 9.89062 49.4023 9.89062C49.3008 9.89062 49.2188 9.89844 49.1562 9.91406L48.8164 9.98438H48.8516L48.582 10.0547L48.4414 10.1484L48.2422 10.2422V10.2188L48.125 10.3242L47.8906 10.5586L47.8672 10.6055C47.8281 10.6445 47.8086 10.6836 47.8086 10.7227L47.5742 11.2617L47.4336 11.6133C47.3711 11.7383 47.3281 11.8828 47.3047 12.0469C47.2266 12.2188 47.1875 12.332 47.1875 12.3867L47.1406 12.5977C47.0781 12.8242 47.0391 12.9766 47.0234 13.0547C46.9688 13.2656 46.8477 13.4102 46.6602 13.4883ZM52.0273 16.0195C52.0273 16.0039 52.0547 15.9531 52.1094 15.8672L52.2266 15.7734L52.2734 15.8203C52.1172 15.9766 52.0352 16.043 52.0273 16.0195ZM57.9805 6.29297V6.1875V5.73047C57.9805 5.35547 57.9883 5.07812 58.0039 4.89844C58.0273 4.66406 58.0781 4.4375 58.1562 4.21875C58.1641 4.17188 58.1836 4.10547 58.2148 4.01953C58.2461 3.93359 58.2656 3.86719 58.2734 3.82031L58.3203 3.69141L58.4141 3.48047V3.50391C58.4141 3.49609 58.418 3.48047 58.4258 3.45703C58.4336 3.43359 58.4375 3.41797 58.4375 3.41016C58.6406 2.96484 58.9531 2.55859 59.375 2.19141C59.8047 1.82422 60.2539 1.57422 60.7227 1.44141C60.9648 1.37891 61.2344 1.34766 61.5312 1.34766C61.8594 1.34766 62.1641 1.37891 62.4453 1.44141C63.0312 1.54297 63.5195 1.70312 63.9102 1.92188L64.0859 2.08594L64.2031 2.20312C64.2031 2.21875 64.2188 2.22656 64.25 2.22656C64.2734 2.22656 64.3281 2.26953 64.4141 2.35547C64.4375 2.40234 64.4688 2.42578 64.5078 2.42578C64.6875 2.60547 64.8711 2.8125 65.0586 3.04688C65.293 3.42188 65.4609 3.84766 65.5625 4.32422C65.6016 4.50391 65.6211 4.72656 65.6211 4.99219C65.6211 5.98438 65.3789 6.91406 64.8945 7.78125C65.1523 7.86719 65.3672 7.95312 65.5391 8.03906C65.9766 8.36719 66.3398 8.77734 66.6289 9.26953C66.9102 9.82422 67.1016 10.5352 67.2031 11.4023C67.2656 11.8477 67.2969 12.3594 67.2969 12.9375C67.2969 13.2891 67.2891 13.5273 67.2734 13.6523C67.2188 14.4336 67.082 15.1055 66.8633 15.668C66.6758 16.0508 66.3242 16.5156 65.8086 17.0625C65.3633 17.5391 64.9648 17.8516 64.6133 18C64.0586 18.2578 63.5195 18.3867 62.9961 18.3867C62.6602 18.3867 62.2852 18.3203 61.8711 18.1875C61.0586 17.9141 60.332 17.3945 59.6914 16.6289C59.0352 15.8633 58.6172 15.0156 58.4375 14.0859C58.3594 13.6797 58.3203 13.3281 58.3203 13.0312C58.3203 12.3984 58.4414 11.7656 58.6836 11.1328C58.793 10.875 58.918 10.7148 59.0586 10.6523C59.2461 10.5586 59.4492 10.5352 59.668 10.582C59.9023 10.6367 60.0781 10.7656 60.1953 10.9688C60.2891 11.1797 60.3047 11.4023 60.2422 11.6367C60.1406 11.8633 60.0664 12.0977 60.0195 12.3398C60.0195 12.3555 60.0117 12.3867 59.9961 12.4336C59.9805 12.4805 59.9727 12.5117 59.9727 12.5273C59.9414 12.8711 59.9414 13.1992 59.9727 13.5117C60.0977 13.9961 60.2031 14.3398 60.2891 14.543C60.4844 14.9336 60.6133 15.1758 60.6758 15.2695L60.7227 15.4102L60.793 15.4805C60.793 15.4961 60.8164 15.5273 60.8633 15.5742L60.9805 15.7383L61.0508 15.8438H61.0273L61.3203 16.1016C61.3516 16.1328 61.375 16.1484 61.3906 16.1484C61.4219 16.1641 61.4766 16.1953 61.5547 16.2422C61.7266 16.3672 61.9375 16.4727 62.1875 16.5586C62.4062 16.6445 62.5977 16.6992 62.7617 16.7227C62.9492 16.7461 63.1328 16.7461 63.3125 16.7227C63.5312 16.6758 63.6914 16.6289 63.793 16.582L64.1094 16.4414L64.2734 16.3477C64.3203 16.3008 64.3828 16.2578 64.4609 16.2188L64.6367 16.0547L64.7773 15.8672L64.918 15.7148L64.9648 15.6211L65.0586 15.4805C65.0586 15.4727 65.0781 15.4414 65.1172 15.3867C65.25 15.207 65.3516 15.0312 65.4219 14.8594C65.5469 14.4688 65.6289 14.1562 65.668 13.9219C65.7148 13.5781 65.7383 13.2188 65.7383 12.8438C65.7383 12.4375 65.7148 12.0508 65.668 11.6836C65.5898 11.1758 65.4609 10.7148 65.2812 10.3008C65.2656 10.2461 65.2344 10.1758 65.1875 10.0898C65.1484 9.99609 65.125 9.9375 65.1172 9.91406C65.1094 9.89844 65.0859 9.875 65.0469 9.84375C65.0156 9.8125 64.9961 9.78906 64.9883 9.77344L64.9414 9.64453L64.707 9.43359V9.45703L64.5312 9.36328C64.4375 9.33203 64.3672 9.31641 64.3203 9.31641C64.2812 9.30859 64.2266 9.30469 64.1562 9.30469C64.0859 9.30469 64.0352 9.30859 64.0039 9.31641C63.9961 9.31641 63.9883 9.32031 63.9805 9.32812C63.9727 9.33594 63.9648 9.33984 63.957 9.33984H63.9805C63.8398 9.38672 63.7539 9.41797 63.7227 9.43359C63.707 9.43359 63.668 9.44922 63.6055 9.48047C63.543 9.50391 63.5078 9.51953 63.5 9.52734L63.4062 9.57422L63.1953 9.71484L63.0664 9.77344H63.1016C62.9297 9.89844 62.7305 9.92969 62.5039 9.86719C62.2852 9.79688 62.1289 9.66797 62.0352 9.48047C61.9648 9.37109 61.957 9.20312 62.0117 8.97656C62.0742 8.75 62.1875 8.56641 62.3516 8.42578C62.5781 8.23828 62.7852 8.03125 62.9727 7.80469L63.2422 7.51172L63.5234 7.07812L63.7461 6.64453L63.8398 6.48047L63.9102 6.26953V6.29297L63.9805 6C63.9883 5.92969 64.0039 5.83203 64.0273 5.70703C64.0586 5.58203 64.0781 5.49609 64.0859 5.44922C64.1016 5.35547 64.1094 5.20312 64.1094 4.99219C64.1094 4.84375 64.1016 4.69922 64.0859 4.55859V4.58203L63.957 4.14844L63.9336 4.03125V4.05469L63.8164 3.86719L63.7227 3.66797H63.7461L63.5703 3.48047L63.3125 3.23438V3.26953L63.1719 3.1875L63.0195 3.09375C63.0039 3.09375 62.9883 3.08594 62.9727 3.07031C62.9258 3.07031 62.9023 3.05469 62.9023 3.02344C62.8555 3.02344 62.8086 3 62.7617 2.95312C62.6836 2.95312 62.6367 2.94531 62.6211 2.92969C62.5664 2.92969 62.5156 2.90625 62.4688 2.85938V2.88281L62.2344 2.8125C62.2188 2.8125 62.1836 2.80469 62.1289 2.78906C62.082 2.77344 62.0508 2.76562 62.0352 2.76562L61.918 2.70703C61.9023 2.69141 61.8555 2.68359 61.7773 2.68359C61.7148 2.66797 61.6172 2.66016 61.4844 2.66016L61.25 2.68359C61.2422 2.68359 61.2266 2.6875 61.2031 2.69531C61.1875 2.70313 61.1719 2.70703 61.1562 2.70703C61.1172 2.70703 61.0586 2.72656 60.9805 2.76562C60.9648 2.76562 60.9102 2.78906 60.8164 2.83594L60.6289 2.92969L60.5 2.97656H60.5234L60.3594 3.09375L60.125 3.31641L59.9492 3.50391L59.7852 3.71484H59.8086L59.7148 3.86719L59.6445 4.00781L59.5391 4.125C59.5391 4.21094 59.5078 4.28516 59.4453 4.34766H59.4688L59.3984 4.53516C59.3203 4.77734 59.2656 4.98438 59.2344 5.15625V5.30859C59.2188 5.33984 59.2109 5.37891 59.2109 5.42578C59.1953 5.50391 59.1875 5.625 59.1875 5.78906C59.1875 6.10938 59.2031 6.34766 59.2344 6.50391C59.2422 6.66016 59.1797 6.80078 59.0469 6.92578C58.9219 7.04297 58.7852 7.10156 58.6367 7.10156C58.4961 7.10156 58.3633 7.05469 58.2383 6.96094C58.1211 6.86719 58.0508 6.73828 58.0273 6.57422L58.0508 6.59766C58.0195 6.56641 58.0039 6.50391 58.0039 6.41016C58.0039 6.39453 58 6.375 57.9922 6.35156C57.9844 6.32031 57.9805 6.30078 57.9805 6.29297ZM64.1562 2.20312C64.1797 2.20312 64.2109 2.22266 64.25 2.26172L64.1797 2.28516V2.26172L64.1562 2.20312ZM64.1797 2.26172L64.2969 2.22656V2.33203C64.2656 2.33203 64.2266 2.30859 64.1797 2.26172ZM70.7305 12.6211C70.7305 12.1055 70.7812 11.5625 70.8828 10.9922C70.8828 10.8438 70.9648 10.7305 71.1289 10.6523C71.293 10.5664 71.4648 10.5352 71.6445 10.5586C71.8867 10.6367 72.0078 10.8203 72.0078 11.1094V11.5664C72.0078 12.3711 72.0234 12.9648 72.0547 13.3477V13.3242C72.0703 13.3555 72.0781 13.4102 72.0781 13.4883C72.0781 13.5039 72.0703 13.5195 72.0547 13.5352C72.0547 13.5664 72.0703 13.5977 72.1016 13.6289L72.1719 14.0156L72.3242 14.6367L72.3711 14.7656V14.7305L72.4648 14.9766L72.6758 15.457H72.6523L72.7227 15.5742L72.8281 15.6914L72.875 15.7148L73.1797 16.1016H73.1562L73.4023 16.3008C73.4023 16.2852 73.418 16.2773 73.4492 16.2773C73.5508 16.3633 73.6875 16.4414 73.8594 16.5117L73.9297 16.582L74.0234 16.6289C74.0391 16.6445 74.0703 16.6523 74.1172 16.6523L74.4102 16.7578C74.4258 16.7734 74.4805 16.7812 74.5742 16.7812C74.582 16.7812 74.5977 16.7852 74.6211 16.793C74.6445 16.8008 74.668 16.8047 74.6914 16.8047H75.1719L75.2422 16.7812C75.2969 16.7812 75.3555 16.7734 75.418 16.7578L75.7695 16.6289H75.7461L75.9219 16.582L75.9922 16.5352L76.3555 16.3945L76.4727 16.3477H76.4492L76.7305 16.1719V16.1953L76.8594 16.0781L76.9297 16.0078C77.2266 15.75 77.4414 15.543 77.5742 15.3867H77.5508L77.8438 15.0469L77.8906 14.9766L77.9844 14.9062C77.9844 14.8984 77.9922 14.8789 78.0078 14.8477C78.0234 14.8164 78.0312 14.7969 78.0312 14.7891C78.2891 14.3828 78.457 14.0938 78.5352 13.9219L78.6758 13.6523C78.6758 13.6211 78.6914 13.5742 78.7227 13.5117C78.7773 13.4336 78.8359 13.2891 78.8984 13.0781C79 12.7266 79.0703 12.4453 79.1094 12.2344C79.125 12.1094 79.1328 11.8867 79.1328 11.5664V11.0156C79.1172 10.9844 79.1094 10.9531 79.1094 10.9219C79.0312 10.4922 78.9453 10.1484 78.8516 9.89062C78.8359 9.84375 78.8281 9.8125 78.8281 9.79688C78.8203 9.75781 78.7969 9.69922 78.7578 9.62109C78.7266 9.54297 78.707 9.49609 78.6992 9.48047L78.6523 9.38672V9.41016L78.582 9.23438L78.5352 9.09375V9.11719C78.4727 8.99219 78.4102 8.89844 78.3477 8.83594L78.2422 8.61328H78.2656L78.0312 8.35547L77.7852 8.13281L77.5508 7.875L77.3633 7.67578C77.3555 7.67578 77.332 7.66797 77.293 7.65234C77.2617 7.63672 77.2422 7.62891 77.2344 7.62891C77.2031 7.61328 77.1641 7.59766 77.1172 7.58203C76.8203 7.34766 76.332 7.02734 75.6523 6.62109C75.207 6.35547 74.7773 5.93359 74.3633 5.35547C74.0508 4.91016 73.7695 4.36328 73.5195 3.71484C73.3711 3.22266 73.2969 2.80859 73.2969 2.47266C73.2969 2.16016 73.3398 1.87891 73.4258 1.62891C73.4883 1.48047 73.5938 1.35938 73.7422 1.26562C73.8984 1.16406 74.0625 1.14062 74.2344 1.19531C74.5625 1.28906 74.7383 1.51562 74.7617 1.875V1.99219L74.7852 2.10938V2.20312C74.7852 2.23438 74.7969 2.26172 74.8203 2.28516C74.8203 2.31641 74.8242 2.35937 74.832 2.41406C74.8398 2.46875 74.8438 2.51172 74.8438 2.54297C74.8828 2.77734 74.9688 3.07422 75.1016 3.43359H75.0781L75.1953 3.59766C75.25 3.77734 75.3398 3.94531 75.4648 4.10156L75.793 4.55859L76.25 5.0625H76.2266L76.3555 5.13281V5.10938L76.5898 5.26172C76.7227 5.34766 76.8203 5.40234 76.8828 5.42578C77.9766 6.12891 78.7734 6.77734 79.2734 7.37109H79.25C79.5391 7.66016 79.75 7.9375 79.8828 8.20312C79.9141 8.28906 79.9844 8.48047 80.0938 8.77734C80.2031 9.06641 80.2773 9.26953 80.3164 9.38672C80.5508 10.082 80.668 10.8008 80.668 11.543C80.6445 12.9805 80.1719 14.3398 79.25 15.6211C78.1875 16.8633 77.1797 17.6562 76.2266 18C75.6172 18.2109 74.9805 18.2656 74.3164 18.1641C74.0352 18.125 73.7227 18.0234 73.3789 17.8594L72.9688 17.6133L72.7227 17.4023L72.6289 17.332L72.6523 17.3555C72.6445 17.3555 72.6289 17.3477 72.6055 17.332C72.582 17.3164 72.5664 17.3086 72.5586 17.3086C71.8008 16.7148 71.2734 15.8906 70.9766 14.8359C70.8125 14 70.7305 13.2617 70.7305 12.6211ZM83.1055 17.1562C83.1055 17.125 83.125 17.0703 83.1641 16.9922C83.6406 16.3438 84.1094 15.5586 84.5703 14.6367C85.0312 13.7148 85.4883 12.7969 85.9414 11.8828C86.3945 10.9609 86.8516 10.1836 87.3125 9.55078C87.8203 8.73828 88.4961 7.57422 89.3398 6.05859C90.1914 4.54297 90.8594 3.40234 91.3438 2.63672C91.4375 2.48047 91.6055 2.40234 91.8477 2.40234C92.043 2.40234 92.2227 2.45312 92.3867 2.55469C92.5508 2.65625 92.6328 2.77344 92.6328 2.90625C92.6328 2.9375 92.6172 2.98438 92.5859 3.04688C92.0156 3.90625 91.2539 5.1875 90.3008 6.89062C89.3477 8.59375 88.6719 9.76953 88.2734 10.418C87.8984 11.0273 87.293 12.1797 86.457 13.875C85.6289 15.5625 84.9219 16.8086 84.3359 17.6133C84.2734 17.7148 84.1445 17.7656 83.9492 17.7656C83.7617 17.7656 83.5742 17.6992 83.3867 17.5664C83.1992 17.4336 83.1055 17.2969 83.1055 17.1562ZM95.5156 13.3477C95.4844 12.832 95.4922 12.3516 95.5391 11.9062C95.5391 11.875 95.5469 11.8359 95.5625 11.7891C95.5625 11.7734 95.5664 11.7539 95.5742 11.7305C95.582 11.6992 95.5859 11.6758 95.5859 11.6602C95.5859 11.582 95.5977 11.5195 95.6211 11.4727C95.6211 11.3711 95.6367 11.2734 95.668 11.1797V11.2031C95.7695 10.7734 95.8242 10.5508 95.832 10.5352C95.8789 10.3945 95.9766 10.293 96.125 10.2305C96.2812 10.1602 96.4492 10.1484 96.6289 10.1953C96.7461 10.2578 96.8359 10.3555 96.8984 10.4883C96.9609 10.6211 96.9805 10.7656 96.957 10.9219C96.957 10.9297 96.9531 10.9453 96.9453 10.9688C96.9375 10.9922 96.9336 11.0078 96.9336 11.0156C96.9336 11.1016 96.918 11.2227 96.8867 11.3789C96.8555 11.5039 96.8398 11.6211 96.8398 11.7305C96.8242 11.7617 96.8164 11.7969 96.8164 11.8359C96.7773 12.1562 96.7695 12.5312 96.793 12.9609C96.793 13.2188 96.8008 13.4258 96.8164 13.582C96.8164 13.5898 96.8203 13.6016 96.8281 13.6172C96.8359 13.625 96.8398 13.6367 96.8398 13.6523L96.8164 13.6289C96.8477 13.6602 96.8633 13.7188 96.8633 13.8047L96.8867 13.9219C96.9023 14.0312 96.9922 14.3516 97.1562 14.8828C97.2031 15.0625 97.2344 15.1914 97.25 15.2695L97.3672 15.4336C97.4297 15.5742 97.5195 15.7344 97.6367 15.9141L97.8242 16.1719C97.8242 16.2188 97.8164 16.2422 97.8008 16.2422L98.2812 16.6992V16.6758L98.6211 16.8281L98.5859 16.9219C98.6406 16.9219 98.668 16.9141 98.668 16.8984C98.6992 16.9141 98.7539 16.9219 98.832 16.9219C98.8633 16.9375 98.9023 16.9453 98.9492 16.9453C98.9805 16.9609 99.0117 16.9688 99.043 16.9688C99.0586 16.9844 99.0938 16.9922 99.1484 16.9922H99.6523C99.7148 16.9922 99.7773 16.9844 99.8398 16.9688C99.918 16.9531 100.117 16.8984 100.438 16.8047C100.484 16.7812 100.523 16.7539 100.555 16.7227C100.609 16.7227 100.645 16.7148 100.66 16.6992C100.691 16.6992 100.738 16.668 100.801 16.6055L101.059 16.4883L101.141 16.4414C101.25 16.3789 101.336 16.332 101.398 16.3008V16.3242L101.516 16.1953C101.531 16.1953 101.547 16.1875 101.562 16.1719L101.691 16.0781L101.738 16.0312C101.738 16.0234 101.746 16.0078 101.762 15.9844C101.777 15.9609 101.785 15.9453 101.785 15.9375L102.02 15.6914C102.02 15.6836 102.027 15.6602 102.043 15.6211C102.059 15.582 102.066 15.5586 102.066 15.5508C102.184 15.3945 102.25 15.3008 102.266 15.2695L102.383 15.0234L102.523 14.7656C102.523 14.7422 102.531 14.7148 102.547 14.6836C102.547 14.668 102.59 14.5742 102.676 14.4023C102.73 14.293 102.801 14.043 102.887 13.6523C102.887 13.6289 102.895 13.5898 102.91 13.5352C102.926 13.4805 102.934 13.4414 102.934 13.418V13.1016C102.934 13.0938 102.938 13.082 102.945 13.0664C102.953 13.0508 102.957 13.0391 102.957 13.0312V12.4805L102.945 12.4453C102.938 12.4141 102.934 12.3789 102.934 12.3398V12.2109C102.934 12.1953 102.926 12.1719 102.91 12.1406C102.879 11.875 102.848 11.6992 102.816 11.6133L102.746 11.3789L102.676 11.1094H102.699L102.594 11.0156L102.547 10.9219C102.516 10.8906 102.5 10.8516 102.5 10.8047C102.414 10.6953 102.336 10.5664 102.266 10.418H102.289L102.043 10.1953V10.2188L101.832 10.0312C101.809 10.0312 101.785 10.0078 101.762 9.96094V9.98438C101.605 9.85938 101.445 9.76953 101.281 9.71484C101.273 9.71484 101.262 9.71094 101.246 9.70312C101.238 9.6875 101.227 9.67578 101.211 9.66797C101.164 9.66797 101.133 9.66016 101.117 9.64453C101.094 9.62891 101.074 9.61328 101.059 9.59766C100.965 9.56641 100.863 9.55078 100.754 9.55078C100.723 9.53516 100.691 9.52734 100.66 9.52734C100.52 9.51172 100.309 9.50391 100.027 9.50391L99.9688 9.51562C99.9375 9.52344 99.9023 9.52734 99.8633 9.52734L99.6758 9.55078C99.6367 9.55078 99.6016 9.55859 99.5703 9.57422C99.1953 9.62891 98.9258 9.52734 98.7617 9.26953C98.6836 9.12109 98.6562 8.96875 98.6797 8.8125C98.7109 8.65625 98.7852 8.53516 98.9023 8.44922V8.47266L99.043 8.30859L99.1484 8.20312L99.4531 7.85156C99.5391 7.76562 99.6133 7.68359 99.6758 7.60547L99.793 7.51172L99.8867 7.41797L99.957 7.37109L99.9102 7.39453L100.051 7.17188C100.246 6.90625 100.367 6.73047 100.414 6.64453C100.5 6.55859 100.574 6.42188 100.637 6.23438V6.26953C100.637 6.24609 100.652 6.21875 100.684 6.1875L100.754 5.85938C100.77 5.84375 100.777 5.8125 100.777 5.76562L100.754 5.61328C100.754 5.59766 100.746 5.57422 100.73 5.54297V5.47266L100.578 5.30859C100.531 5.26953 100.484 5.22656 100.438 5.17969L100.273 5.08594C100.258 5.08594 100.242 5.07812 100.227 5.0625C100.148 5.0625 100.098 5.03906 100.074 4.99219C100.066 4.99219 100.055 4.98828 100.039 4.98047C100.023 4.97266 100.012 4.96875 100.004 4.96875C99.6836 4.83594 99.3242 4.71484 98.9258 4.60547H98.9492L98.5859 4.53516C98.1797 4.42578 97.7422 4.23438 97.2734 3.96094C97.0625 3.84375 96.8555 3.6875 96.6523 3.49219C96.4492 3.28906 96.2969 3.08594 96.1953 2.88281C95.9297 2.39062 95.8555 1.79687 95.9727 1.10156C96.0039 0.9375 96.0977 0.808594 96.2539 0.714844C96.418 0.613281 96.582 0.582031 96.7461 0.621094C96.8945 0.652344 97.0117 0.726562 97.0977 0.84375C97.1836 0.960938 97.2266 1.09375 97.2266 1.24219C97.2031 1.36719 97.2031 1.48047 97.2266 1.58203V1.72266C97.2266 1.77734 97.2344 1.8125 97.25 1.82812L97.3203 2.0625C97.3203 2.10938 97.3281 2.14063 97.3438 2.15625C97.3438 2.20312 97.3672 2.23828 97.4141 2.26172C97.4141 2.29297 97.4375 2.33984 97.4844 2.40234H97.4609L97.6367 2.58984L97.8008 2.73047L97.918 2.8125L98.0586 2.85938L98.3047 2.97656C98.3281 3.02344 98.3828 3.04688 98.4688 3.04688C98.4688 3.0625 98.4844 3.07813 98.5156 3.09375C98.8672 3.21875 99.1797 3.32422 99.4531 3.41016L99.6758 3.48047C99.8164 3.52734 99.8945 3.55078 99.9102 3.55078C100.52 3.72266 101.023 3.99609 101.422 4.37109C101.828 4.75391 102.043 5.19141 102.066 5.68359C102.066 6.14453 101.941 6.61719 101.691 7.10156C101.605 7.25781 101.477 7.45703 101.305 7.69922C101.133 7.94141 101.02 8.10156 100.965 8.17969C101.176 8.20312 101.535 8.32422 102.043 8.54297C102.762 8.93359 103.301 9.46094 103.66 10.125C104.043 10.7734 104.234 11.6445 104.234 12.7383C104.234 13.2305 104.16 13.8555 104.012 14.6133C103.746 15.418 103.355 16.0898 102.84 16.6289C102.566 16.918 102.215 17.2031 101.785 17.4844C101.363 17.7578 100.969 17.9688 100.602 18.1172C100.188 18.25 99.7969 18.3164 99.4297 18.3164C98.8125 18.3164 98.3086 18.1875 97.918 17.9297C97.2461 17.5703 96.6797 16.9531 96.2188 16.0781C95.8203 15.2188 95.5859 14.3086 95.5156 13.3477ZM98.6211 16.875C98.6211 16.8906 98.6367 16.8984 98.668 16.8984C98.6523 16.8984 98.6367 16.8906 98.6211 16.875ZM107.621 12.6211C107.621 12.1055 107.672 11.5625 107.773 10.9922C107.773 10.8438 107.855 10.7305 108.02 10.6523C108.184 10.5664 108.355 10.5352 108.535 10.5586C108.777 10.6367 108.898 10.8203 108.898 11.1094V11.5664C108.898 12.3711 108.914 12.9648 108.945 13.3477V13.3242C108.961 13.3555 108.969 13.4102 108.969 13.4883C108.969 13.5039 108.961 13.5195 108.945 13.5352C108.945 13.5664 108.961 13.5977 108.992 13.6289L109.062 14.0156L109.215 14.6367L109.262 14.7656V14.7305L109.355 14.9766L109.566 15.457H109.543L109.613 15.5742L109.719 15.6914L109.766 15.7148L110.07 16.1016H110.047L110.293 16.3008C110.293 16.2852 110.309 16.2773 110.34 16.2773C110.441 16.3633 110.578 16.4414 110.75 16.5117L110.82 16.582L110.914 16.6289C110.93 16.6445 110.961 16.6523 111.008 16.6523L111.301 16.7578C111.316 16.7734 111.371 16.7812 111.465 16.7812C111.473 16.7812 111.488 16.7852 111.512 16.793C111.535 16.8008 111.559 16.8047 111.582 16.8047H112.062L112.133 16.7812C112.188 16.7812 112.246 16.7734 112.309 16.7578L112.66 16.6289H112.637L112.812 16.582L112.883 16.5352L113.246 16.3945L113.363 16.3477H113.34L113.621 16.1719V16.1953L113.75 16.0781L113.82 16.0078C114.117 15.75 114.332 15.543 114.465 15.3867H114.441L114.734 15.0469L114.781 14.9766L114.875 14.9062C114.875 14.8984 114.883 14.8789 114.898 14.8477C114.914 14.8164 114.922 14.7969 114.922 14.7891C115.18 14.3828 115.348 14.0938 115.426 13.9219L115.566 13.6523C115.566 13.6211 115.582 13.5742 115.613 13.5117C115.668 13.4336 115.727 13.2891 115.789 13.0781C115.891 12.7266 115.961 12.4453 116 12.2344C116.016 12.1094 116.023 11.8867 116.023 11.5664V11.0156C116.008 10.9844 116 10.9531 116 10.9219C115.922 10.4922 115.836 10.1484 115.742 9.89062C115.727 9.84375 115.719 9.8125 115.719 9.79688C115.711 9.75781 115.688 9.69922 115.648 9.62109C115.617 9.54297 115.598 9.49609 115.59 9.48047L115.543 9.38672V9.41016L115.473 9.23438L115.426 9.09375V9.11719C115.363 8.99219 115.301 8.89844 115.238 8.83594L115.133 8.61328H115.156L114.922 8.35547L114.676 8.13281L114.441 7.875L114.254 7.67578C114.246 7.67578 114.223 7.66797 114.184 7.65234C114.152 7.63672 114.133 7.62891 114.125 7.62891C114.094 7.61328 114.055 7.59766 114.008 7.58203C113.711 7.34766 113.223 7.02734 112.543 6.62109C112.098 6.35547 111.668 5.93359 111.254 5.35547C110.941 4.91016 110.66 4.36328 110.41 3.71484C110.262 3.22266 110.188 2.80859 110.188 2.47266C110.188 2.16016 110.23 1.87891 110.316 1.62891C110.379 1.48047 110.484 1.35938 110.633 1.26562C110.789 1.16406 110.953 1.14062 111.125 1.19531C111.453 1.28906 111.629 1.51562 111.652 1.875V1.99219L111.676 2.10938V2.20312C111.676 2.23438 111.688 2.26172 111.711 2.28516C111.711 2.31641 111.715 2.35937 111.723 2.41406C111.73 2.46875 111.734 2.51172 111.734 2.54297C111.773 2.77734 111.859 3.07422 111.992 3.43359H111.969L112.086 3.59766C112.141 3.77734 112.23 3.94531 112.355 4.10156L112.684 4.55859L113.141 5.0625H113.117L113.246 5.13281V5.10938L113.48 5.26172C113.613 5.34766 113.711 5.40234 113.773 5.42578C114.867 6.12891 115.664 6.77734 116.164 7.37109H116.141C116.43 7.66016 116.641 7.9375 116.773 8.20312C116.805 8.28906 116.875 8.48047 116.984 8.77734C117.094 9.06641 117.168 9.26953 117.207 9.38672C117.441 10.082 117.559 10.8008 117.559 11.543C117.535 12.9805 117.062 14.3398 116.141 15.6211C115.078 16.8633 114.07 17.6562 113.117 18C112.508 18.2109 111.871 18.2656 111.207 18.1641C110.926 18.125 110.613 18.0234 110.27 17.8594L109.859 17.6133L109.613 17.4023L109.52 17.332L109.543 17.3555C109.535 17.3555 109.52 17.3477 109.496 17.332C109.473 17.3164 109.457 17.3086 109.449 17.3086C108.691 16.7148 108.164 15.8906 107.867 14.8359C107.703 14 107.621 13.2617 107.621 12.6211ZM120.887 10.9453C120.918 10.2031 121.094 9.08203 121.414 7.58203L121.777 5.95312L121.988 4.72266V4.53516L122.012 4.51172C122.066 3.91016 122.086 3.42188 122.07 3.04688C122.055 3.01562 122.047 2.92969 122.047 2.78906C122.008 2.75 121.988 2.69922 121.988 2.63672C121.973 2.60547 121.965 2.53516 121.965 2.42578L121.918 2.22656C121.879 2.05469 121.84 1.92188 121.801 1.82812C121.73 1.69531 121.738 1.55859 121.824 1.41797C121.918 1.27734 122.039 1.1875 122.188 1.14844C122.297 1.125 122.418 1.14062 122.551 1.19531C122.684 1.24219 122.785 1.31641 122.855 1.41797C123.215 2.06641 123.367 2.99219 123.312 4.19531C123.266 4.85938 123.098 5.875 122.809 7.24219L122.645 7.99219C122.566 8.3125 122.508 8.60938 122.469 8.88281L122.328 9.82031C122.312 9.83594 122.305 9.84375 122.305 9.84375C122.305 9.85156 122.301 9.86719 122.293 9.89062C122.285 9.90625 122.281 9.92188 122.281 9.9375V10.0312C122.25 10.1875 122.234 10.3164 122.234 10.418C122.172 11.0742 122.156 11.5859 122.188 11.9531C122.188 12.0234 122.203 12.168 122.234 12.3867V12.4805L122.258 12.5742C122.305 12.7695 122.367 12.9766 122.445 13.1953C122.477 13.3047 122.543 13.4648 122.645 13.6758L122.715 13.8516C122.715 13.9141 122.723 13.9531 122.738 13.9688L122.855 14.1328C122.879 14.2578 122.926 14.3555 122.996 14.4258C123.145 14.7227 123.273 14.9531 123.383 15.1172L123.629 15.5039H123.605L123.699 15.6211L123.793 15.7383C123.895 15.9023 124.039 16.0625 124.227 16.2188L124.461 16.4414L124.566 16.5117H124.613C124.645 16.543 124.668 16.5586 124.684 16.5586L124.824 16.6055L124.965 16.6992C125.035 16.7695 125.078 16.8047 125.094 16.8047L125.164 16.8281C125.18 16.8438 125.219 16.8516 125.281 16.8516L125.621 16.9688C125.637 16.9844 125.676 16.9922 125.738 16.9922C125.746 16.9922 125.762 16.9961 125.785 17.0039C125.809 17.0117 125.832 17.0156 125.855 17.0156L126.289 17.0625C126.32 17.0312 126.352 17.0156 126.383 17.0156L126.676 16.9453H126.652L126.723 16.9219V16.9453L126.816 16.8281L127.039 16.7227L127.203 16.6055V16.6289L127.438 16.4414C127.453 16.418 127.469 16.4023 127.484 16.3945C127.5 16.3867 127.508 16.3867 127.508 16.3945C127.641 16.2617 127.707 16.1875 127.707 16.1719L127.801 16.0312H127.777L127.941 15.7734C127.941 15.7344 127.965 15.6914 128.012 15.6445C128.012 15.6367 128.02 15.625 128.035 15.6094C128.059 15.5938 128.07 15.582 128.07 15.5742C128.07 15.543 128.078 15.5117 128.094 15.4805C128.094 15.418 128.109 15.3711 128.141 15.3398C128.141 15.3008 128.148 15.2656 128.164 15.2344C128.164 15.2266 128.168 15.2109 128.176 15.1875C128.184 15.1641 128.188 15.1484 128.188 15.1406L128.258 14.9297C128.273 14.8984 128.281 14.8516 128.281 14.7891C128.281 14.7812 128.285 14.7695 128.293 14.7539C128.301 14.7305 128.305 14.7148 128.305 14.707C128.305 14.6602 128.312 14.6211 128.328 14.5898V14.2266L128.375 14.0859C128.328 14.0703 128.305 14.0391 128.305 13.9922C128.273 13.9609 128.258 13.9141 128.258 13.8516C128.242 13.8203 128.234 13.7461 128.234 13.6289L128.188 13.5352C128.156 13.5039 128.133 13.4336 128.117 13.3242V13.3477L128.047 13.1953L127.871 12.9141L127.73 12.6211L127.367 12.0234C127.352 12 127.309 11.9297 127.238 11.8125C127.168 11.6953 127.117 11.6055 127.086 11.543C126.844 10.9727 126.723 10.5234 126.723 10.1953C126.699 9.64844 126.844 9.14453 127.156 8.68359C127.445 8.32422 127.75 8.24609 128.07 8.44922C128.227 8.54297 128.324 8.67188 128.363 8.83594C128.41 9 128.391 9.16797 128.305 9.33984L128.188 9.50391H128.211L128.164 9.59766C128.125 9.63672 128.094 9.75781 128.07 9.96094C128.055 9.99219 128.047 10.0234 128.047 10.0547V10.3711L128.094 10.4648C128.094 10.4961 128.102 10.5273 128.117 10.5586L128.164 10.6523C128.18 10.668 128.188 10.7031 128.188 10.7578C128.188 10.7656 128.191 10.7812 128.199 10.8047C128.207 10.8203 128.211 10.8359 128.211 10.8516C128.258 10.9453 128.289 10.9922 128.305 10.9922L128.398 11.1094C128.43 11.1641 128.484 11.2578 128.562 11.3906L128.691 11.5898C129.191 12.4727 129.48 13.1289 129.559 13.5586C129.605 13.793 129.629 14.0508 129.629 14.332C129.629 15.3789 129.301 16.2812 128.645 17.0391C128.309 17.4531 127.91 17.7773 127.449 18.0117C126.996 18.2539 126.531 18.3633 126.055 18.3398C125.484 18.3086 124.941 18.1641 124.426 17.9062C123.918 17.6406 123.469 17.2969 123.078 16.875C122.695 16.4453 122.359 15.9922 122.07 15.5156C121.789 15.0391 121.547 14.5312 121.344 13.9922C121.164 13.4844 121.035 13.0195 120.957 12.5977C120.887 12.0742 120.863 11.5234 120.887 10.9453ZM130.531 5.8125C130.469 5.61719 130.512 5.42578 130.66 5.23828C130.801 5.05078 130.973 4.96094 131.176 4.96875C131.332 4.96875 131.461 5 131.562 5.0625H131.539C131.672 5.10938 131.789 5.24609 131.891 5.47266C131.891 5.46484 131.895 5.44922 131.902 5.42578C131.91 5.40234 131.914 5.38672 131.914 5.37891L131.984 5.10938C132 5.02344 132.031 4.89844 132.078 4.73438C132.133 4.57031 132.168 4.45703 132.184 4.39453C132.238 4.01953 132.344 3.59375 132.5 3.11719C132.719 2.66406 132.98 2.35937 133.285 2.20312C133.707 2.04688 134.125 2.07422 134.539 2.28516C134.773 2.41797 135.066 2.71875 135.418 3.1875C135.66 3.53906 135.836 3.83594 135.945 4.07812C135.961 3.98438 136.027 3.71484 136.145 3.26953C136.262 2.76172 136.461 2.36719 136.742 2.08594C137.078 1.72656 137.543 1.59766 138.137 1.69922C138.504 1.76172 138.895 2.02734 139.309 2.49609C139.441 2.67578 139.539 2.82812 139.602 2.95312C139.602 3 139.609 3.03125 139.625 3.04688L139.672 3.14062V3.11719L139.766 3.26953L139.836 3.50391H139.812L139.883 3.57422C139.883 3.58203 139.887 3.60156 139.895 3.63281C139.902 3.66406 139.906 3.68359 139.906 3.69141L139.953 3.79688V3.77344C140.219 4.52344 140.43 5.24219 140.586 5.92969C140.734 6.59375 140.934 7.67188 141.184 9.16406C141.238 9.57812 141.293 9.92969 141.348 10.2188C141.363 10.3203 141.43 10.6562 141.547 11.2266C141.641 11.9609 141.688 12.5234 141.688 12.9141C141.688 14.0938 141.438 15.1719 140.938 16.1484C140.672 16.6719 140.285 17.1328 139.777 17.5312C139.27 17.9219 138.723 18.1562 138.137 18.2344H138.043C137.809 18.2734 137.621 18.293 137.48 18.293C137.051 18.293 136.645 18.2344 136.262 18.1172C135.605 17.8828 135.094 17.6133 134.727 17.3086C134.188 16.8945 133.754 16.4609 133.426 16.0078C133.098 15.5078 132.906 14.9141 132.852 14.2266C132.781 13.3672 133.062 12.1445 133.695 10.5586C133.773 10.4414 133.879 10.3281 134.012 10.2188C134.191 10.1094 134.367 10.0938 134.539 10.1719C134.695 10.2344 134.816 10.3438 134.902 10.5C134.996 10.6484 135.008 10.8047 134.938 10.9688C134.922 11 134.914 11.0469 134.914 11.1094C134.883 11.1719 134.867 11.2227 134.867 11.2617C134.57 11.9102 134.371 12.4922 134.27 13.0078L134.199 13.4414C134.199 13.4883 134.191 13.5195 134.176 13.5352V14.2266L134.199 14.3555C134.199 14.3867 134.215 14.4492 134.246 14.543C134.246 14.5898 134.254 14.6289 134.27 14.6602C134.27 14.7461 134.285 14.8047 134.316 14.8359L134.363 14.9062C134.363 14.9609 134.414 15.0391 134.516 15.1406C134.586 15.2812 134.625 15.3555 134.633 15.3633L134.82 15.6445C134.977 15.8477 135.074 15.9609 135.113 15.9844L135.371 16.2422C135.395 16.2422 135.461 16.2773 135.57 16.3477C135.695 16.4336 135.797 16.4883 135.875 16.5117C135.891 16.5117 135.914 16.5156 135.945 16.5234C135.977 16.5312 135.996 16.5352 136.004 16.5352L136.379 16.7227L136.578 16.8047C136.633 16.8359 136.766 16.8672 136.977 16.8984C137.008 16.9297 137.059 16.9453 137.129 16.9453H137.223C137.316 16.9609 137.461 16.9688 137.656 16.9688L137.891 16.9453L138.277 16.8516L138.57 16.7578L138.664 16.6992H138.641C138.703 16.668 138.797 16.6055 138.922 16.5117C138.992 16.5117 139.043 16.4961 139.074 16.4648C139.09 16.4648 139.152 16.4102 139.262 16.3008C139.262 16.2773 139.27 16.2578 139.285 16.2422L139.555 15.9609H139.531C139.672 15.7422 139.789 15.5352 139.883 15.3398C139.891 15.3164 139.91 15.2812 139.941 15.2344C139.98 15.1797 140.004 15.1406 140.012 15.1172C140.027 15.0859 140.035 15.0547 140.035 15.0234L140.176 14.6133C140.176 14.5977 140.184 14.5703 140.199 14.5312C140.215 14.4922 140.223 14.4648 140.223 14.4492L140.34 13.9453C140.34 13.8516 140.348 13.7891 140.363 13.7578V13.582C140.363 13.5742 140.367 13.5625 140.375 13.5469C140.383 13.5312 140.387 13.5195 140.387 13.5117C140.387 13.418 140.395 13.3477 140.41 13.3008V12.5039C140.41 12.4961 140.406 12.4844 140.398 12.4688C140.391 12.4453 140.387 12.4258 140.387 12.4102V12.2109C140.387 12.1641 140.379 12.125 140.363 12.0938V11.9062C140.207 10.8906 139.984 9.60938 139.695 8.0625C139.539 7.13281 139.332 6.22266 139.074 5.33203C139.012 5.01953 138.914 4.69922 138.781 4.37109L138.641 3.96094H138.664C138.617 3.9375 138.594 3.91406 138.594 3.89062L138.523 3.71484C138.461 3.57422 138.355 3.39062 138.207 3.16406H138.23L138.137 3.07031C138.09 3.07031 138.066 3.05469 138.066 3.02344C138.059 3.02344 138.031 3.01562 137.984 3C137.945 2.98438 137.922 2.97656 137.914 2.97656C137.898 2.96094 137.883 2.95312 137.867 2.95312H137.656C137.648 2.95312 137.637 2.95703 137.621 2.96484C137.605 2.97266 137.594 2.97656 137.586 2.97656L137.516 3.11719C137.516 3.125 137.508 3.14062 137.492 3.16406C137.484 3.1875 137.48 3.20312 137.48 3.21094C137.395 3.42969 137.332 3.63281 137.293 3.82031C137.168 4.39844 137.062 4.95703 136.977 5.49609L136.906 5.97656L136.766 6.86719C136.734 7.03906 136.633 7.17578 136.461 7.27734C136.289 7.37109 136.125 7.38672 135.969 7.32422C135.711 7.24609 135.57 7.04297 135.547 6.71484V6.59766C135.531 6.58203 135.523 6.55078 135.523 6.50391L135.441 6.16406C135.434 6.10938 135.41 6.03516 135.371 5.94141C135.332 5.83984 135.309 5.76953 135.301 5.73047L135.184 5.37891L135.137 5.30859C135.105 5.27734 135.09 5.23438 135.09 5.17969C135.059 5.14844 135.043 5.10938 135.043 5.0625C135.027 5.00781 134.996 4.93359 134.949 4.83984C134.902 4.73828 134.875 4.67578 134.867 4.65234C134.781 4.45703 134.645 4.22656 134.457 3.96094V3.89062C134.395 3.82813 134.363 3.78906 134.363 3.77344L134.223 3.59766L134.105 3.50391L134.082 3.45703C134.051 3.45703 134.027 3.44141 134.012 3.41016L133.883 3.31641L133.906 3.33984C133.875 3.33984 133.852 3.33203 133.836 3.31641C133.805 3.33203 133.781 3.34766 133.766 3.36328L133.719 3.48047C133.703 3.52734 133.664 3.59766 133.602 3.69141L133.578 3.73828L133.426 4.34766L133.355 4.60547C133.332 4.74609 133.246 5.12109 133.098 5.73047C132.965 6.05859 132.746 6.36328 132.441 6.64453C132.254 6.72266 132.047 6.75391 131.82 6.73828C131.602 6.71484 131.41 6.65234 131.246 6.55078C131.199 6.51953 131.086 6.41406 130.906 6.23438L130.836 6.16406C130.648 5.97656 130.547 5.85938 130.531 5.8125ZM144.57 4.75781C144.602 3.80469 144.645 2.98047 144.699 2.28516C144.723 2.10547 144.785 1.96094 144.887 1.85156C144.988 1.73438 145.117 1.67578 145.273 1.67578C145.43 1.67578 145.566 1.73828 145.684 1.86328C145.809 1.98047 145.871 2.12109 145.871 2.28516C145.855 2.48047 145.848 2.78125 145.848 3.1875V4.00781C145.848 4.85938 145.855 5.50781 145.871 5.95312C145.926 7.07812 146.012 8.125 146.129 9.09375C146.129 9.14844 146.148 9.29297 146.188 9.52734V9.62109L146.211 9.71484C146.211 9.75391 146.219 9.78906 146.234 9.82031C146.234 9.88281 146.25 10.0078 146.281 10.1953L146.328 10.5586L146.422 11.0625L146.398 11.0859L146.422 11.1094C146.453 10.9688 146.5 10.832 146.562 10.6992C146.562 10.6523 146.578 10.6133 146.609 10.582C146.609 10.5508 146.625 10.5195 146.656 10.4883L146.738 10.3008L146.832 10.1016C147.168 9.52344 147.566 9.10156 148.027 8.83594C148.504 8.54688 149.082 8.40234 149.762 8.40234C150.816 8.37891 151.895 8.80859 152.996 9.69141C153.449 10.0742 153.832 10.5078 154.145 10.9922C154.465 11.4844 154.699 11.9805 154.848 12.4805V12.5273C154.91 12.918 154.941 13.207 154.941 13.3945C154.941 13.4648 154.91 13.7266 154.848 14.1797C154.754 14.7266 154.57 15.2227 154.297 15.668C153.859 16.4258 153.246 17.0586 152.457 17.5664C151.676 18.0664 150.871 18.3164 150.043 18.3164C149.832 18.3164 149.57 18.2891 149.258 18.2344C148.758 18.1328 148.297 17.9297 147.875 17.625C147.453 17.3125 147.105 16.9414 146.832 16.5117C146.371 15.7617 146.012 14.9609 145.754 14.1094C145.238 12.3984 144.887 10.2969 144.699 7.80469C144.613 6.60156 144.57 5.58594 144.57 4.75781ZM146.996 13.4883L147.066 13.6758C147.215 14.1445 147.344 14.5078 147.453 14.7656C147.453 14.8125 147.469 14.8594 147.5 14.9062C147.5 14.9141 147.504 14.9297 147.512 14.9531C147.52 14.9766 147.523 14.9922 147.523 15C147.57 15.0938 147.602 15.1406 147.617 15.1406L147.664 15.2344C147.703 15.3203 147.793 15.4883 147.934 15.7383C147.941 15.7539 147.961 15.7969 147.992 15.8672C148.031 15.9297 148.059 15.9688 148.074 15.9844H148.051L148.121 16.1016L148.227 16.1953L148.531 16.4648L149.035 16.7227L149.152 16.7812C149.215 16.8125 149.258 16.8281 149.281 16.8281L149.609 16.9219H149.785C149.816 16.9375 149.902 16.9453 150.043 16.9453C150.074 16.9297 150.141 16.9219 150.242 16.9219C150.258 16.9219 150.285 16.918 150.324 16.9102C150.363 16.9023 150.391 16.8984 150.406 16.8984C150.422 16.8984 150.445 16.8906 150.477 16.875C150.805 16.8125 151.027 16.7383 151.145 16.6523C151.184 16.6523 151.234 16.6367 151.297 16.6055L151.578 16.4648C151.664 16.4492 151.77 16.3945 151.895 16.3008L152.059 16.2188L152.188 16.125L152.445 15.8906V15.8672L152.539 15.7383L152.715 15.5742C152.73 15.5586 152.785 15.4727 152.879 15.3164C152.988 15.1758 153.102 15 153.219 14.7891C153.266 14.7422 153.289 14.6914 153.289 14.6367C153.32 14.6055 153.336 14.5586 153.336 14.4961C153.367 14.4102 153.398 14.2969 153.43 14.1562L153.5 13.875C153.5 13.8672 153.504 13.8516 153.512 13.8281C153.52 13.8047 153.523 13.7891 153.523 13.7812C153.523 13.7578 153.531 13.7227 153.547 13.6758V13.6523C153.562 13.5586 153.57 13.4492 153.57 13.3242L153.547 13.2773V13.125C153.539 13.0781 153.469 12.8633 153.336 12.4805C153.336 12.4648 153.328 12.4414 153.312 12.4102L153.219 12.2344L153.09 12L153.043 11.8828V11.9062L152.879 11.6133H152.902L152.762 11.4727L152.691 11.3789V11.4023C152.621 11.3633 152.57 11.3164 152.539 11.2617C152.469 11.1445 152.316 10.9844 152.082 10.7812H152.105C152.098 10.7812 152.086 10.7734 152.07 10.7578C152.055 10.7344 152.043 10.7227 152.035 10.7227C152.027 10.7148 152.008 10.707 151.977 10.6992C151.953 10.6836 151.934 10.668 151.918 10.6523C151.887 10.6523 151.824 10.6211 151.73 10.5586L151.578 10.4883L151.227 10.2773C151.219 10.2773 151.203 10.2656 151.18 10.2422C151.125 10.2422 151.098 10.2266 151.098 10.1953C151.051 10.1953 151.004 10.1641 150.957 10.1016V10.125L150.77 10.0547L150.289 9.9375C150.258 9.9375 150.234 9.92969 150.219 9.91406H150.09C150.012 9.89844 149.895 9.89062 149.738 9.89062C149.637 9.89062 149.555 9.89844 149.492 9.91406L149.152 9.98438H149.188L148.918 10.0547L148.777 10.1484L148.578 10.2422V10.2188L148.461 10.3242L148.227 10.5586L148.203 10.6055C148.164 10.6445 148.145 10.6836 148.145 10.7227L147.91 11.2617L147.77 11.6133C147.707 11.7383 147.664 11.8828 147.641 12.0469C147.562 12.2188 147.523 12.332 147.523 12.3867L147.477 12.5977C147.414 12.8242 147.375 12.9766 147.359 13.0547C147.305 13.2656 147.184 13.4102 146.996 13.4883ZM152.363 16.0195C152.363 16.0039 152.391 15.9531 152.445 15.8672L152.562 15.7734L152.609 15.8203C152.453 15.9766 152.371 16.043 152.363 16.0195ZM158.293 8.97656C158.293 8.13281 158.324 7.44531 158.387 6.91406C158.441 6.13281 158.57 5.45312 158.773 4.875C158.984 4.27344 159.25 3.72656 159.57 3.23438C159.906 2.70313 160.289 2.26562 160.719 1.92188C161.148 1.5625 161.629 1.3125 162.16 1.17188C162.402 1.10938 162.691 1.07812 163.027 1.07812C163.395 1.07812 163.699 1.11719 163.941 1.19531C164.473 1.36719 165 1.69141 165.523 2.16797C166.055 2.64453 166.477 3.15234 166.789 3.69141C167.258 4.53516 167.586 5.76172 167.773 7.37109C167.852 7.91797 167.902 8.49219 167.926 9.09375V9.26953C167.926 9.28516 167.93 9.30859 167.938 9.33984C167.945 9.37109 167.949 9.39453 167.949 9.41016C167.98 9.82422 167.98 10.207 167.949 10.5586C167.91 11.5977 167.715 12.7969 167.363 14.1562L166.988 15.5039V15.4805L166.883 15.8203L166.789 16.125C166.781 16.1719 166.758 16.2461 166.719 16.3477C166.68 16.4492 166.656 16.5117 166.648 16.5352L166.602 16.6992C166.352 17.4727 166.152 17.9961 166.004 18.2695C165.926 18.4414 165.773 18.5508 165.547 18.5977C165.328 18.6445 165.137 18.6211 164.973 18.5273C164.668 18.3555 164.555 18.082 164.633 17.707C164.727 17.3398 164.863 16.8945 165.043 16.3711L165.184 15.9609C165.355 15.4375 165.531 14.8594 165.711 14.2266L165.805 13.875C166.109 12.5703 166.293 11.707 166.355 11.2852L166.379 11.2266V11.2617L166.461 10.3945C166.461 9.95703 166.453 9.67578 166.438 9.55078C166.438 9.52734 166.43 9.49219 166.414 9.44531C166.406 9.39844 166.402 9.36328 166.402 9.33984C166.371 8.33984 166.309 7.53906 166.215 6.9375C166.176 6.71094 166.105 6.38281 166.004 5.95312C166.004 5.9375 166 5.91016 165.992 5.87109C165.984 5.82422 165.98 5.78906 165.98 5.76562L165.805 5.15625H165.828C165.766 5.09375 165.734 5.04688 165.734 5.01562L165.664 4.85156C165.664 4.79688 165.648 4.73828 165.617 4.67578L165.207 3.96094L164.996 3.59766H165.02L164.469 3.04688L164.516 2.97656C164.492 2.97656 164.461 2.96875 164.422 2.95312C164.383 2.9375 164.355 2.92969 164.34 2.92969L164.223 2.83594V2.85938C163.996 2.70313 163.867 2.62109 163.836 2.61328C163.82 2.61328 163.805 2.60547 163.789 2.58984C163.742 2.58984 163.719 2.57422 163.719 2.54297L163.602 2.51953C163.555 2.51172 163.492 2.49219 163.414 2.46094C163.336 2.42969 163.285 2.41016 163.262 2.40234C163.121 2.40234 163.043 2.39453 163.027 2.37891C162.996 2.37891 162.93 2.38281 162.828 2.39062C162.734 2.39844 162.672 2.40234 162.641 2.40234C162.594 2.40234 162.555 2.41016 162.523 2.42578L162.277 2.47266C162.27 2.48047 162.207 2.50391 162.09 2.54297H162.113L161.949 2.63672L161.727 2.78906L161.609 2.8125L161.633 2.78906L161.516 2.88281L161.445 2.95312L161.246 3.1875C161.168 3.26563 161.121 3.31641 161.105 3.33984L160.812 3.64453C160.797 3.66016 160.789 3.69141 160.789 3.73828C160.742 3.79297 160.664 3.91406 160.555 4.10156C160.43 4.28906 160.293 4.53125 160.145 4.82812C160.145 4.83594 160.141 4.85547 160.133 4.88672C160.125 4.91016 160.121 4.92969 160.121 4.94531L160.051 5.15625L159.898 5.56641C159.836 5.77734 159.773 6.07422 159.711 6.45703C159.68 6.58203 159.664 6.6875 159.664 6.77344C159.648 6.78906 159.641 6.84375 159.641 6.9375C159.609 7.125 159.594 7.26953 159.594 7.37109C159.547 7.78516 159.523 8.21484 159.523 8.66016V9.07031C159.523 9.11719 159.527 9.18359 159.535 9.26953C159.543 9.35547 159.547 9.41797 159.547 9.45703C159.57 10.1523 159.617 10.8477 159.688 11.543L159.734 11.6367C159.734 11.668 159.742 11.6992 159.758 11.7305V11.9766C159.758 11.9844 159.762 12.0039 159.77 12.0352C159.777 12.0586 159.781 12.0781 159.781 12.0938C159.781 12.1016 159.785 12.1211 159.793 12.1523C159.801 12.1758 159.805 12.1953 159.805 12.2109L159.875 12.5039L160.074 13.6289C160.379 15.1211 160.648 16.2891 160.883 17.1328V17.1094L161.105 17.9531V17.9766C161.145 18.125 161.125 18.2734 161.047 18.4219C160.969 18.5703 160.852 18.6602 160.695 18.6914H160.719C160.57 18.7305 160.422 18.7109 160.273 18.6328C160.125 18.5625 160.027 18.457 159.98 18.3164L159.875 18.0469L159.805 17.7305V17.7656C159.406 16.5234 159.047 15.0664 158.727 13.3945C158.461 11.9492 158.316 10.4766 158.293 8.97656Z" fill="black"/>
</svg>
